<?xml version="1.0" encoding="UTF-8"?>
<svg width="20px" height="20px" viewBox="0 0 20 20" version="1.1" xmlns="http://www.w3.org/2000/svg" xmlns:xlink="http://www.w3.org/1999/xlink">
    <!-- Generator: Sketch 52.6 (67491) - http://www.bohemiancoding.com/sketch -->
    <title>add-member</title>
    <desc>Created with Sketch.</desc>
    <g id="Symbols" stroke="none" stroke-width="1" fill="none" fill-rule="evenodd">
        <g id="Mitglieder/actions/InviteButton" transform="translate(-5.000000, -5.000000)" fill="#FF5C20">
            <g id="InviteButton">
                <path d="M25,15 C25,20.5228571 20.5228571,25 15,25 C9.47714286,25 5,20.5228571 5,15 C5,9.47718571 9.47714286,5 15,5 C20.5228571,5 25,9.47718571 25,15 L25,15 Z M12.1861857,10.6710429 C11.7677571,10.2525143 11.0893857,10.2525143 10.6709571,10.6710429 C10.2525571,11.0892143 10.2525571,11.7679286 10.6709571,12.1861 L13.4847571,15 L10.6709571,17.8139 C10.2525571,18.2320714 10.2525571,18.9107857 10.6709571,19.329 C11.0893857,19.7474286 11.7677571,19.7474286 12.1861857,19.329 L15,16.5150714 L17.8138143,19.329 C18.2322429,19.7474286 18.9106143,19.7474286 19.329,19.329 C19.7474286,18.9107857 19.7474286,18.2320714 19.329,17.8139 L16.5152429,15 L19.329,12.1861 C19.7474286,11.7679286 19.7474286,11.0892143 19.329,10.6710429 C18.9106143,10.2525143 18.2322429,10.2525143 17.8138143,10.6710429 L15,13.4849286 L12.1861857,10.6710429 L12.1861857,10.6710429 Z" id="add-member" transform="translate(15.000000, 15.000000) rotate(45.000000) translate(-15.000000, -15.000000) "></path>
            </g>
        </g>
    </g>
</svg>