<svg width="69" height="61" xmlns="http://www.w3.org/2000/svg">
	<g fill="none" fill-rule="evenodd">
		<path
			d="M24.459 7H66c1.592 0 3 1.337 3 3v48c0 1.652-1.41 3-3 3H3c-1.592 0-3-1.337-3-3V3c0-1.623 1.386-3 3-3h14.451c.856 0 1.983.542 2.515 1.211 0 0 2.322 2.877 4.493 5.789z"
			fill="#E7E7E7"/>
		<path d="M24.459 7H0V3c0-1.623 1.386-3 3-3h14.451c.856 0 1.983.542 2.515 1.211 0 0 2.322 2.877 4.493 5.789z"
					fill="#FF5C20"/>
		<path
			d="M29.866 50v-4.923H25.56V50H19V23.526a.8.8 0 0 1 .58-.769l15.631-4.466a.8.8 0 0 1 1.02.77V50h-6.365zm-7.692-22.974v3.282h2.872v-3.282h-2.872zm0 4.102v3.282h2.872v-3.282h-2.872zm0 4.103v3.282h2.872V35.23h-2.872zm0 4.102v3.282h2.872v-3.282h-2.872zm4.103-12.307v3.282h2.871v-3.282h-2.871zm4.102 0v3.282h2.872v-3.282h-2.872zm-4.102 4.102v3.282h2.871v-3.282h-2.871zm4.102 0v3.282h2.872v-3.282h-2.872zm-4.102 4.103v3.282h2.871V35.23h-2.871zm0 4.102v3.282h2.871v-3.282h-2.871zm4.102-4.102v3.282h2.872V35.23h-2.872zm0 4.102v3.282h2.872v-3.282h-2.872zm20.099-11.446a.8.8 0 0 1 .522.75V50H37.051V24.071a.8.8 0 0 1 1.077-.75l12.35 4.566zM39.513 31.95v2.872h2.461v-2.872h-2.461zm0 4.102v2.872h2.461v-2.872h-2.461zm0 4.103v2.872h2.461v-2.872h-2.461zm3.282-8.205v2.872h2.461v-2.872h-2.461zm3.282 0v2.872h2.461v-2.872h-2.461zm-3.282 4.102v2.872h2.461v-2.872h-2.461zm3.282 0v2.872h2.461v-2.872h-2.461zm-3.282 4.103v2.872h2.461v-2.872h-2.461zm3.282 0v2.872h2.461v-2.872h-2.461z"
			fill="#C3C3C3"/>
	</g>
</svg>
