<svg width="62" height="74" xmlns="http://www.w3.org/2000/svg">
	<g fill="none" fill-rule="evenodd">
		<path
			d="M38.01 0l23.63 23.7v46.972a2.928 2.928 0 0 1-2.928 2.928H2.928A2.928 2.928 0 0 1 0 70.672V2.928A2.928 2.928 0 0 1 2.928 0H38.01z"
			fill="#C3C3C3"/>
		<path
			d="M38.327 0h-.607v20.072A2.928 2.928 0 0 0 40.648 23H60.72v-.77 46.602a2.928 2.928 0 0 1-2.928 2.928H2.928A2.928 2.928 0 0 1 0 68.832V2.928A2.928 2.928 0 0 1 2.928 0h35.399z"
			fill="#E7E7E7"/>
		<path fill="#FF5C20" fill-rule="nonzero"
					d="M20.382 41.376v-3.691h9.58v-9.646h3.757v9.646h9.58v3.691h-9.58V51h-3.757v-9.624z"/>
	</g>
</svg>
