<svg width="60" height="62" xmlns="http://www.w3.org/2000/svg"><path d="M48.387 50.166C53.166 45.27 56.13 38.486 56.13 31 56.129 16.112 44.408 4 30 4 15.592 4 3.871 16.112 3.871 31c0 7.486 2.963 14.27 7.742 19.166V48c0-7.18 5.632-13 12.58-13h11.613c6.949 0 12.581 5.82 12.581 13v2.166zM30 0c16.569 0 30 13.879 30 31 0 17.121-13.431 31-30 31C13.431 62 0 48.121 0 31 0 13.879 13.431 0 30 0zm10 20.666C40 26.373 35.523 31 30 31s-10-4.627-10-10.334 4.477-10.332 10-10.332 10 4.626 10 10.332z" fill="#DBDBDB" fill-rule="evenodd"/></svg>