<svg height="34" viewBox="0 0 34 34" width="34" xmlns="http://www.w3.org/2000/svg">
	<path fill="#FF5C20"
				d="m1.6563197 31.3891784c1.05296483 1.0593696 2.48458696 1.6556024 3.97823929 1.6568317h21.77638011c1.4936297-.0013424 2.9252101-.5975579 3.9782393-1.6568317 1.0592738-1.0530292 1.6554893-2.4846096 1.6568317-3.9782393v-21.77638011c-.0012069-1.49355591-.5972338-2.92512594-1.6563197-3.97823929-1.0531455-1.05903805-2.4846947-1.65505629-3.9782393-1.6563197h-21.77689211c-1.49373341.00107075-2.92551275.59710809-3.97875129 1.6563197-1.05889806 1.05319752-1.65473638 2.48475713-1.6558077 3.97823929v21.77638011c0 1.5482877.63436789 2.9567995 1.6563197 3.9782393zm13.5249896-3.6659194c-1.5534077-.001024-3.2665594-.0409599-4.8783351-.7715838-1.19764981-.5424583-2.2554262-1.3515522-3.09247949-2.3654396-2.65574352-3.1580154-2.74175951-7.3215987-2.74278351-7.7849586l-.000512-.3783679v-.180224c.00512-.6691839.14847997-4.6735352 2.71667152-7.75679862.80537585-.99225582 1.87135966-1.81555167 3.07148748-2.36697557 1.7141757-.78847986 3.5512313-.79462386 5.181951-.79615986h1.3501438l5.495807.01894399c.7475199-.00153599 1.3537278.6082559 1.3557787 1.36294376.0015331.75468787-.6026268 1.36703976-1.3496347 1.36908776l-6.2156789-.022016-.6302719.003072c-1.4704637.0128-2.8840954.006656-4.0678392.5503999-.818394.37406849-1.54044494.93027362-2.11097566 1.62611174-2.07769563 2.4939515-2.09356762 5.9146229-2.09305562 6.0590069l.001024.5043199c0 .144896.03174399 3.5650554 2.11046362 6.0364789.57594388.6984717 1.30418876 1.2557769 2.12889566 1.6291837 1.1857917.5375999 2.6024955.5304319 4.0703992.5304319h.6302719l.8407039-.018944c.8457677-.0133979 1.6916056-.0219313 2.5374715-.0256.7475199-.001024 1.3537278.6082559 1.3552638 1.3629438.002048.7546879-.6015999 1.3670398-1.3491198 1.3690878-.8355838.002048-1.6706557.0138239-2.5067515.0255999l-.8913919.018944h-.9175038zm7.6712946-4.9689591-8.4300785.0204831c-.8243198.0015329-1.4965757-.574979-1.4981117-1.2856348l-.0005146-.160768c-.0015334-.7106559.6676505-1.2912638 1.4919703-1.2927998l8.4300785-.0199734c.8243199-.0020426 1.4960637.5749813 1.4981164 1.2856372v.160768c.0020433.7111678-.6671405 1.2902397-1.4914604 1.2922877zm-12.7928323-6.1235189v-.1617919c-.0015334-.7183359.6743065-1.3045758 1.5073303-1.3066238l11.252222-.0266294c.8330239-.0020426 1.5119357.5811253 1.5134764 1.2994612v.1628159c.0020433.7178239-.6743085 1.3040638-1.5068204 1.3055998l-11.252734.0266294c-.8330238.0020426-1.5114237-.5806133-1.5134743-1.2989492zm16.9461756-3.6454393-12.9423337.0307285c-.8683519.0025515-1.5764477-.5744724-1.5785002-1.2851283v-.160768c-.0020435-.7106558.7034923-1.2902397 1.5718442-1.2922877l12.9428457-.0307285c.8683518-.0025515 1.5769597.5739604 1.5779837 1.2851282l.0010265.160256c.0015335.7106559-.7040024 1.2912638-1.5728662 1.2933118z"/>
</svg>
