<svg width="18" height="20" xmlns="http://www.w3.org/2000/svg"><g fill="#727272" fill-rule="nonzero"><path d="M1 5.5a.9.9 0 0 1 0-1.8h16a.9.9 0 1 1 0 1.8H1z"/><path d="M14.322 4.6a.9.9 0 1 1 1.8 0v12.6c0 1.489-1.196 2.7-2.678 2.7H4.556c-1.482 0-2.678-1.211-2.678-2.7V4.6a.9.9 0 1 1 1.8 0v12.6c0 .5.395.9.878.9h8.888a.89.89 0 0 0 .878-.9V4.6zm-7.978 0a.9.9 0 1 1-1.8 0V2.8c0-1.489 1.197-2.7 2.678-2.7h3.556c1.481 0 2.678 1.211 2.678 2.7v1.8a.9.9 0 0 1-1.8 0V2.8c0-.5-.396-.9-.878-.9H7.222a.89.89 0 0 0-.878.9v1.8z"/><path d="M6.322 9.1a.9.9 0 0 1 1.8 0v5.4a.9.9 0 1 1-1.8 0V9.1zM9.878 9.1a.9.9 0 0 1 1.8 0v5.4a.9.9 0 1 1-1.8 0V9.1z"/></g></svg>