<svg height="40" viewBox="0 0 120 40" width="120" xmlns="http://www.w3.org/2000/svg">
	<g fill="none">
		<g>
			<path
				d="m110.13477-.00013h-100.60009c-.3667 0-.729 0-1.09473.00213-.30615.002-.60986.00781-.91895.0127-.67148632.0079018-1.34139353.06697626-2.0039.17671-.66157592.11212263-1.30242748.32350574-1.90088.627-.59772059.30606171-1.14387498.70375753-1.61865 1.17866-.4772675.47356699-.87510682 1.02094638-1.17822 1.62109-.30394976.59894912-.5147095 1.2407783-.625 1.90332-.11133906.66170491-.17125162 1.33104054-.1792 2.002-.00928.3066-.01026.61422-.01515.92086v23.11426c.00489.3105.00587.6113.01515.9219.00795082.6709262.06786338 1.3402284.1792 2.0019.10998595.662929.32075816 1.3051266.625 1.9043.30297555.5982029.70087081 1.1433662 1.17822 1.6143.47297482.477014 1.01948224.8749804 1.61865 1.1787.59844797.3043065 1.23923044.5169478 1.90088.6308.6626191.1088547 1.33245741.1679532 2.0039.1768.30909.0068.6128.0107.91895.0107.36572.002.72805.002 1.09473.002h100.60009c.3594 0 .7246 0 1.084-.002.3047 0 .6172-.0039.9219-.0107.670173-.0083763 1.33875-.0674785 2-.1768.663784-.1146536 1.306864-.3272386 1.9082-.6308.598627-.3038954 1.14463-.7018509 1.6172-1.1787.476118-.4727782.874862-1.0175427 1.1816-1.6143.301959-.5996092.510725-1.2417555.6191-1.9043.111515-.6617624.173553-1.3309157.1856-2.0019.0039-.3106.0039-.6114.0039-.9219.0078-.3633.0078-.7246.0078-1.0938v-20.92867c0-.36621 0-.72949-.0078-1.09179 0-.30664 0-.61426-.0039-.9209-.012044-.67101756-.074083-1.34020433-.1856-2.002-.108677-.6621584-.317431-1.30393672-.6191-1.90332-.617276-1.20292392-1.596097-2.1820946-2.7988-2.7998-.601338-.30275262-1.244487-.51407959-1.9082-.627-.661135-.11021722-1.329782-.16931224-2-.17676-.3047-.00488-.6172-.01074-.9219-.01269-.3594-.002-.7246-.002-1.084-.002z"
				fill="#a6a6a6"/>
			<path
				d="m8.44483 39.125c-.30468 0-.602-.0039-.90429-.0107-.62621823-.0081593-1.25097283-.062675-1.86914-.1631-.5764097-.0992718-1.13479576-.2839355-1.65674-.5479-.5171583-.2617773-.98884823-.6050271-1.397-1.0166-.41405967-.4067247-.75878327-.878456-1.02051-1.3965-.26461074-.5214109-.44773712-1.0803004-.543-1.6572-.10287564-.6198851-.15853563-1.2466868-.1665-1.875-.00634-.2109-.01464-.9131-.01464-.9131v-23.10056s.00884-.69141.01469-.89454c.00762583-.62731795.06296215-1.2531469.16553-1.87207.09543872-.57847992.27870687-1.13898113.54346-1.6621.26076482-.51768615.60357458-.98976971 1.01514-1.39795.41110283-.41205858.88430161-.75707588 1.40234-1.02247.52074467-.2631164 1.07807545-.44647745 1.65332-.54394.62019733-.10143386 1.24712084-.15627392 1.87551-.16406l.90232-.01221h102.76855l.9131.0127c.622673.0073992 1.243902.06175001 1.8584.16259.581068.09868507 1.144207.28332553 1.6709.54785 1.037818.53484605 1.882272 1.38102295 2.415 2.41993.260527.51950756.440969 1.07543676.5352 1.64892.103789.62400138.161877 1.25474834.1738 1.88721.0029.2832.0029.5874.0029.89014.0079.375.0079.73193.0079 1.09179v20.92867c0 .3633 0 .7178-.0079 1.0752 0 .3252 0 .6231-.0039.9297-.011665.6211757-.068784 1.2406642-.1709 1.8535-.09331.5810612-.27544 1.1443131-.54 1.67-.263577.5124211-.606321.9800662-1.0156 1.3857-.408519.4137846-.881041.7590427-1.3994 1.0225-.525234.2659937-1.087544.4513403-1.668.5498-.61812.100961-1.242935.1554802-1.8692.1631-.2929.0068-.5996.0107-.8974.0107l-1.084.002z"
				fill="#000"/>
		</g>
		<g fill="#fff">
			<g>
				<g transform="translate(9 8)">
					<path
						d="m15.76888 12.30068c.021857-1.6964709.9112429-3.26349389 2.35656-4.15206-.9159274-1.30810723-2.395048-2.10774165-3.99116-2.15768-1.67924-.17626-3.30719 1.00483-4.1629 1.00483-.87227 0-2.18977-.98733-3.6085-.95814-1.86667874.06030842-3.56474283 1.09589548-4.47292 2.72787-1.934 3.34842-.49141 8.26947 1.3612 10.97608.9269 1.32535 2.01018 2.8058 3.42763 2.7533 1.38706-.05753 1.9051-.88448 3.5794-.88448 1.65876 0 2.14479.88448 3.591.8511 1.48838-.02416 2.42613-1.33124 3.32051-2.66914.6659761-.9443603 1.1784437-1.9880841 1.51842-3.09251-1.7677434-.7476687-2.9171768-2.4798157-2.91924-4.39917z"/>
					<path
						d="m13.03725 4.21089c.8115266-.97420809 1.211335-2.22638755 1.11452-3.49062-1.2398322.13022049-2.3850898.72277968-3.20758 1.65961-.8121713.92430903-1.22361537 2.13355268-1.14371 3.36139 1.2564568.01293677 2.4494361-.55111678 3.23677-1.53038z"/>
				</g>
				<g transform="translate(34 17)">
					<path
						d="m8.30227 10.13965h-4.7334l-1.13672 3.35645h-2.00488l4.4834-12.418h2.083l4.4834 12.418h-2.03907zm-4.24317-1.54883h3.752l-1.84961-5.44727h-.05176z"/>
					<path
						d="m21.15969 8.96973c0 2.81348-1.50586 4.62109-3.77832 4.62109-1.1746147.0614446-2.2810376-.5537893-2.84863-1.584h-.043v4.48438h-1.8584v-12.04882h1.79886v1.50586h.03418c.5928083-1.02375208 1.7004243-1.63872116 2.88281-1.60059 2.29781.00001 3.8125 1.81641 3.8125 4.62208zm-1.91016 0c0-1.833-.94727-3.03809-2.39258-3.03809-1.41992 0-2.375 1.23047-2.375 3.03809 0 1.82422.95508 3.0459 2.375 3.0459 1.44532 0 2.39258-1.19629 2.39258-3.0459z"/>
					<path
						d="m31.12453 8.96973c0 2.81348-1.50586 4.62109-3.77832 4.62109-1.1746147.0614446-2.2810376-.5537893-2.84863-1.584h-.043v4.48438h-1.8584v-12.04882h1.79882v1.50586h.03418c.5928126-1.02375146 1.7004328-1.63871693 2.88282-1.60058 2.29788 0 3.81253 1.8164 3.81253 4.62207zm-1.91015 0c0-1.833-.94728-3.03809-2.39259-3.03809-1.41992 0-2.375 1.23047-2.375 3.03809 0 1.82422.95508 3.0459 2.375 3.0459 1.44532 0 2.39259-1.19629 2.39259-3.0459z"/>
					<path
						d="m37.71047 10.03613c.1377 1.23145 1.334 2.04 2.96875 2.04 1.56641 0 2.69336-.80859 2.69336-1.91895 0-.96387-.67969-1.541-2.28906-1.93652l-1.60937-.3877c-2.28027-.55078-3.33887-1.61719-3.33887-3.34766 0-2.14258 1.86719-3.61426 4.51855-3.61426 2.624 0 4.42285 1.47168 4.4834 3.61426h-1.876c-.1123-1.23926-1.13672-1.9873-2.63379-1.9873s-2.52148.75684-2.52148 1.8584c0 .87793.6543 1.39453 2.25488 1.79l1.36816.33594c2.54785.60254 3.60645 1.626 3.60645 3.44238 0 2.32324-1.85059 3.77832-4.79395 3.77832-2.75391 0-4.61328-1.4209-4.7334-3.667z"/>
					<path
						d="m49.34621 2.2998v2.14258h1.72168v1.47168h-1.72168v4.99121c0 .77539.34473 1.13672 1.10156 1.13672.2043914-.0035641.4084521-.0179174.61133-.043v1.46289c-.3402717.0635796-.6861292.0923745-1.03223.08594-1.833 0-2.54785-.68848-2.54785-2.44434v-5.18942h-1.3164v-1.47168h1.31638v-2.14258z"/>
					<path
						d="m52.065 8.96973c0-2.84863 1.67773-4.63867 4.29395-4.63867 2.625 0 4.29492 1.79 4.29492 4.63867 0 2.85645-1.66113 4.63867-4.29492 4.63867-2.63286 0-4.29395-1.78223-4.29395-4.63867zm6.69531 0c0-1.9541-.89551-3.10742-2.40137-3.10742s-2.40039 1.16211-2.40039 3.10742c0 1.96191.89453 3.10645 2.40039 3.10645s2.40137-1.14454 2.40137-3.10645z"/>
					<path
						d="m62.18605 4.44238h1.77247v1.541h.043c.247176-.99201159 1.1561326-1.67474844 2.17773-1.63574.214164-.00074777.4277372.02251075.63672.06934v1.73828c-.270369-.08261668-.5524104-.12054871-.835-.1123-.5463518-.02216456-1.0750991.19557473-1.4474085.59604597-.3723095.40047125-.5509849.94366477-.4891115 1.48695403v5.37012h-1.8584z"/>
					<path
						d="m75.3843 10.83691c-.25 1.64355-1.85059 2.77148-3.89844 2.77148-2.63379 0-4.26855-1.76465-4.26855-4.5957 0-2.83984 1.64355-4.68164 4.19043-4.68164 2.50488 0 4.08008 1.7207 4.08008 4.46582v.63672h-6.39453v.1123c-.0597026.6740316.1730416 1.3412294.6390299 1.8318799.4659884.4906505 1.1203076.7574634 1.7965201.7325701.9018423.0844996 1.7521031-.4333623 2.09082-1.27344zm-6.2822376-2.70214h4.5263776c.0337255-.60567251-.1867435-1.19794692-.6082899-1.63413845-.4215465-.43619154-1.0059493-.67675114-1.6124101-.66372155-.6112582-.00364777-1.1986493.23702463-1.6316145.66852324-.4329652.43149862-.6756292 1.01806968-.6740631 1.62933676z"/>
				</g>
			</g>
			<g transform="translate(35 8)">
				<path d="m4.3926 6.69775h-3.72168v-5.96675h.92676v5.1147h2.79492z"/>
				<path
					d="m5.32912 5.42432c0-.81055.60352-1.27783 1.6748-1.34424l1.21973-.07031v-.38867c0-.47559-.31445-.74414-.92187-.74414-.49609 0-.83984.18213-.93848.50049h-.86035c.09082-.77344.81836-1.26953 1.83984-1.26953 1.12891 0 1.76563.562 1.76563 1.51318v3.07666h-.85547v-.63281h-.07031c-.2905514.46212633-.80724636.73221323-1.35254.707-.38226388.03976181-.76350885-.08403934-1.04948419-.34079756-.28597534-.25675821-.44998973-.62250913-.45149581-1.00683244zm2.89453-.38477v-.37646l-1.09965.07031c-.62012.0415-.90137.25244-.90137.64941 0 .40527.35156.64111.835.64111.28619257.0289814.57189343-.05942814.7916964-.24498881s.35488578-.45238245.3743236-.73938119z"/>
				<path
					d="m10.27639 4.44434c0-1.42285.73145-2.32422 1.86914-2.32422.5744768-.02646987 1.1125275.28135287 1.38086.79h.06641v-2.47312h.88867v6.26074h-.85157v-.71143h-.07031c-.2886158.50442698-.8332955.80704648-1.41406.78564-1.14553.00005-1.86914-.90134-1.86914-2.32761zm.918 0c0 .95508.4502 1.52979 1.20313 1.52979.749 0 1.21191-.583 1.21191-1.52588 0-.93848-.46777-1.52979-1.21191-1.52979-.74809 0-1.20316.57861-1.20316 1.52588z"/>
				<path
					d="m19.74709 5.48193c-.249193.84937948-1.0711511 1.39817304-1.95117 1.30273-.6004381.01585066-1.1774925-.23303017-1.5780561-.68060806-.4005635-.44757789-.5841407-1.04860441-.5020239-1.64361194-.0799292-.59665619.1029618-1.19863844.5012918-1.64999251s.9729039-.70766742 1.5748682-.70253749c1.25293 0 2.00879.856 2.00879 2.27v.31009h-3.17968v.0498c-.028138.33414014.0859807.66464775.3142908.9102407s.5496271.38348322.8849292.3797593c.4347719.05219468.8579925-.16346696 1.07129-.5459zm-3.126-1.45117h2.27441c.0226529-.30559956-.0848015-.60655493-.2958831-.82870091-.2110815-.22214598-.5061594-.34482286-.8125169-.33779909-.310508-.00390109-.609432.11776124-.8289637.33738888-.2195316.21962765-.3410632.51860486-.3370263.82911112z"/>
				<path
					d="m20.99416 2.19482h.85547v.71533h.06637c.2309349-.52667206.7705629-.84884253 1.34375-.80225.4438168-.03336823.8787259.1368899 1.1819308.46270207s.4418023.77182169.3766592 1.21209793v2.915h-.88867v-2.69184c0-.72363-.31445-1.0835-.97168-1.0835-.3010342-.01402088-.5931798.10412257-.7998454.32345678-.2066656.21933422-.3072396.51798423-.2753546.81765322v2.63428h-.88867z"/>
				<path
					d="m28.51955.86328c-.0140233-.23551389.1170651-.4557472.3307727-.5557099.2137075-.0999627.4667751-.05942019.6385599.10230003.1717848.16172021.2275138.4118825.1406199.63122901-.0868939.21934652-.2988216.36347683-.5347525.36368086-.1489179.00759359-.294488-.04589707-.4030582-.14810631-.1085702-.10220923-.1707416-.24428885-.1721418-.39339369zm.13281 1.33154h.88477v4.50293h-.88477z"/>
				<path
					d="m30.97121 2.19482h.85547v.72363h.06641c.2187531-.49286145.7073534-.81056425 1.24658-.81056425s1.0278269.3177028 1.24658.81056425h.07031c.2567759-.51638073.792908-.83377841 1.36914-.81055.3995928-.03272334.7928053.11544069 1.0714417.40372346.2786364.28828278.4133372.68630835.3670383 1.08455654v3.10158h-.88867v-2.86963c0-.60791-.29-.90576-.873-.90576-.2539081-.0108978-.5008404.08468391-.6812403.26369217s-.2778909.42519296-.2689597.67917783v2.83252h-.873v-2.95655c.0113298-.22928729-.0783173-.45203641-.2453191-.60955282-.1670018-.1575164-.3946068-.23399995-.6228409-.20929718-.2632856.00432686-.5134606.11566698-.6929063.30837725s-.2726923.45017722-.2582637.71310275v2.75392h-.88867z"/>
			</g>
		</g>
	</g>
</svg>
