<svg height="40" viewBox="0 0 135 40" width="135" xmlns="http://www.w3.org/2000/svg">
	<linearGradient id="a" x1="61.033941%" x2="26.502657%" y1="4.948125%" y2="71.907422%">
		<stop offset="0" stop-color="#00a0ff"/>
		<stop offset=".01" stop-color="#00a1ff"/>
		<stop offset=".26" stop-color="#00beff"/>
		<stop offset=".51" stop-color="#00d2ff"/>
		<stop offset=".76" stop-color="#00dfff"/>
		<stop offset="1" stop-color="#00e3ff"/>
	</linearGradient>
	<linearGradient id="b" x1="107.684729%" x2="-130.640394%" y1="50%" y2="50%">
		<stop offset="0" stop-color="#ffe000"/>
		<stop offset=".41" stop-color="#ffbd00"/>
		<stop offset=".78" stop-color="#ffa500"/>
		<stop offset="1" stop-color="#ff9c00"/>
	</linearGradient>
	<linearGradient id="c" x1="86.219293%" x2="-50.14979%" y1="30.911284%" y2="135.987548%">
		<stop offset="0" stop-color="#ff3a44"/>
		<stop offset="1" stop-color="#c31162"/>
	</linearGradient>
	<linearGradient id="d" x1="-18.753745%" x2="42.121031%" y1="-11.831554%" y2="35.094813%">
		<stop offset="0" stop-color="#32a071"/>
		<stop offset=".07" stop-color="#2da771"/>
		<stop offset=".48" stop-color="#15cf74"/>
		<stop offset=".8" stop-color="#06e775"/>
		<stop offset="1" stop-color="#00f076"/>
	</linearGradient>
	<g fill="none">
		<rect fill="#000" height="40" rx="5" width="135"/>
		<path
			d="m130 .8c2.319596 0 4.2 1.88040405 4.2 4.2v30c0 2.3195959-1.880404 4.2-4.2 4.2h-125c-2.31959595 0-4.2-1.8804041-4.2-4.2v-30c0-2.31959595 1.88040405-4.2 4.2-4.2zm0-.8h-125c-2.76142375 0-5 2.23857625-5 5v30c0 2.7614237 2.23857625 5 5 5h125c2.761424 0 5-2.2385763 5-5v-30c0-2.76142375-2.238576-5-5-5z"
			fill="#a6a6a6"/>
		<path
			d="m68.14 21.75c-2.344575.0110334-4.2373261 1.9186811-4.2300005 4.2632706.0073683 2.3445895 1.9120377 4.2403377 4.2566358 4.2366825 2.3445981-.0036658 4.2433387-1.9053521 4.2433642-4.2499531.0164735-1.1356262-.4287679-2.2292903-1.2337444-3.0304963-.8049764-.8012061-1.9007187-1.2413081-3.0362551-1.2195037zm0 6.83c-1.0567727.0739053-2.051327-.5056865-2.5079787-1.4615629-.4566516-.9558764-.2825855-2.0937543.4389446-2.8693991.72153-.7756448 1.843872-1.0314056 2.8302219-.6449549.98635.3864507 1.6362311 1.3365663 1.6388122 2.3959169.0325428.6626719-.2039673 1.3103928-.6558597 1.7961771-.4518923.4857842-1.0808482.7684393-1.7441403.7838229zm-9.31-6.83c-2.3459005.0055198-4.2436725 1.9107469-4.2400001 4.256651.003683 2.3459041 1.9074193 4.2451715 4.2533256 4.2433373 2.3459063-.001837 4.2466744-1.9040813 4.2466744-4.2499883.0164731-1.1356262-.4287683-2.2292903-1.2337448-3.0304963-.8049764-.8012061-1.9007187-1.2413081-3.0362551-1.2195037zm0 6.83c-1.0573243.078073-2.0547785-.4986287-2.5146483-1.4539034s-.288529-2.0946351.4319617-2.8724032c.7204906-.7777681 1.8434441-1.0355958 2.8310404-.6500007.9875963.385595 1.6387677 1.3361084 1.6416462 2.3963073.0325428.6626719-.2039673 1.3103928-.6558597 1.7961771-.4518923.4857842-1.0808482.7684393-1.7441403.7838229zm-11.09-5.52v1.8h4.32c-.0677366.8478038-.4201554 1.6477945-1 2.27-.8739771.8902246-2.0834568 1.369658-3.33 1.32-2.6509668 0-4.8-2.1490332-4.8-4.8s2.1490332-4.8 4.8-4.8c1.2177957-.0198612 2.393762.4440521 3.27 1.29l1.27-1.27c-1.1950804-1.2101419-2.8292816-1.8847459-4.53-1.87-2.4210392-.094221-4.6996064 1.1436718-5.938146 3.2260571-1.2385395 2.0823852-1.2385395 4.6755006 0 6.7578858 1.2385396 2.0823853 3.5171068 3.3202781 5.938146 3.2260571 1.731765.0782543 3.4127407-.5963238 4.61-1.85 1.0476757-1.1510784 1.6070431-2.6642388 1.56-4.22.0032269-.3790118-.0302628-.7574452-.1-1.13zm45.31 1.4c-.5339204-1.5707899-1.9820722-2.648947-3.64-2.7100077-1.1056365-.002154-2.1628549.4534153-2.9206206 1.2585413-.7577656.805126-1.1484839 1.8879895-1.0793794 2.9914664-.024559 1.1292961.4111644 2.2200283 1.2070522 3.0215741.7958877.8015457 1.883506 1.2449847 3.0129478 1.2284182 1.4208585.0076667 2.7506434-.6985468 3.54-1.8799923l-1.45-1c-.440254.7339422-1.2341437 1.182167-2.09 1.18-.8864086.0337851-1.7033587-.4778002-2.06-1.29l5.69-2.35zm-5.8 1.42c-.0409481-.6248357.1713257-1.239855.5889667-1.7064089.4176409-.4665538 1.0054935-.7453695 1.6310333-.7735911.6593698-.0434484 1.2810664.3106826 1.58.9zm-4.62 4.12h1.87v-12.5h-1.87zm-3.06-7.3000026h-.07c-.5700379-.6373206-1.3849428-1.0011174-2.24-1-2.2698531.1100743-4.0536629 1.9824822-4.0536629 4.2550026s1.7838098 4.1449283 4.0536629 4.255c.857829.0144237 1.6780159-.3517312 2.24-1h.06v.61c0 1.63-.87 2.5-2.27 2.5-.953697-.0223226-1.7992719-.6189666-2.14-1.51l-1.63.68c.6276816 1.526811 2.1192308 2.5198583 3.77 2.5100727 2.19 0 4-1.2900727 4-4.4300727v-7.57h-1.72zm-2.14 5.8800026c-1.3371124-.1178402-2.3626237-1.237705-2.3626237-2.58s1.0255113-2.4621598 2.3626237-2.58c.6461196.0331575 1.2514859.3257702 1.6788498.8114965s.6405232 1.1234204.5911502 1.7685035c.0551348.6480494-.1573425 1.2904311-.5880297 1.7777877s-1.0420599.7772261-1.6919703.8022123zm24.38-11.08h-4.47v12.5h1.87v-4.74h2.61c1.452684.1043638 2.841974-.611491 3.60013-1.855027s.758156-2.80641 0-4.049946-2.147446-1.9593908-3.60013-1.855027zm0 6h-2.61v-4.26h2.65c1.184651 0 2.145.9603492 2.145 2.145s-.960349 2.145-2.145 2.145zm11.53-1.8c-1.391287-.0831611-2.699313.667088-3.33 1.91l1.66.69c.334406-.6163318 1.001125-.9771444 1.7-.92.479528-.0560054.961454.0829701 1.337528.3857102.376075.3027401.614771.7438647.662472 1.2242898v.13c-.600607-.3180009-1.270408-.4828748-1.95-.48-1.79 0-3.6 1-3.6 2.81.035688.7797088.38524 1.5118295.969131 2.0297974.583891.5179678 1.352467.7777352 2.130869.7202026.959229.0688831 1.879569-.3912868 2.4-1.2h.06v1h1.8v-4.81c0-2.19-1.66-3.46-3.79-3.46zm-.23 6.85c-.61 0-1.46-.31-1.46-1.06 0-1 1.06-1.33 2-1.33.594042-.0146581 1.181131.1303874 1.7.42-.129304 1.119415-1.063476 1.9725405-2.19 2zm10.63-6.55-2.14 5.42h-.06l-2.22-5.42h-2l3.33 7.58-1.9 4.21h1.95l5.12-11.79zm-16.81 8h1.87v-12.5h-1.87z"
			fill="#fff"/>
		<path
			d="m10.44 7.54c-.325935.39110834-.49044635.89179492-.46 1.4v22.12c-.03044635.5082051.134065 1.0088917.46 1.4l.07.07 12.39-12.38v-.29l-12.39-12.39z"
			fill="url(#a)"/>
		<path d="m27 24.28-4.1-4.13v-.29l4.1-4.14.09.05 4.91 2.79c1.4.79 1.4 2.09 0 2.89l-4.89 2.78z" fill="url(#b)"/>
		<path d="m27.12 24.22-4.22-4.22-12.46 12.46c.5887177.5175224 1.462429.5427256 2.08.06l14.61-8.3" fill="url(#c)"/>
		<path d="m27.12 15.78-14.61-8.3c-.617571-.48272561-1.4912823-.4575224-2.08.06l12.47 12.46z" fill="url(#d)"/>
		<path
			d="m27 24.13-14.49 8.25c-.5929615.4433364-1.4070385.4433364-2 0l-.07.07.07.07c.5918458.4466792 1.4081542.4466792 2 0l14.61-8.3z"
			fill="#000" opacity=".2"/>
		<path
			d="m10.44 32.32c-.325935-.3911083-.49044635-.8917949-.46-1.4v.15c-.03044635.5082051.134065 1.0088917.46 1.4l.07-.07zm21.56-11.02-5 2.83.09.09 4.91-2.78c.5670701-.2663868.9484684-.8156003 1-1.44-.1139705.5648379-.483294 1.0449585-1 1.3z"
			fill="#000" opacity=".12"/>
		<g fill="#fff">
			<path
				d="m12.51 7.62 19.49 11.08c.516706.2550415.8860295.7351621 1 1.3-.0515316-.6243997-.4329299-1.1736132-1-1.44l-19.49-11.08c-1.4-.79-2.54-.13-2.54 1.47v.15c.03-1.61 1.15-2.27 2.54-1.48z"
				opacity=".25"/>
			<path
				d="m43 13.13c-.4038073.0136751-.7997869-.1136041-1.12-.36-.3133278-.2594682-.5400795-.608317-.65-1l.7-.29c.0754498.5483085.5465488.9551668 1.1.95.3165228.0216012.6245178-.1082762.83-.35.2047894-.2691781.3075397-.602231.29-.94v-4.14h.77v4.09c.038507.5566219-.1572531 1.1040252-.54 1.51-.3683292.3576952-.8669268.5491856-1.38.53zm6.71-5.39h-2.71v1.9h2.46v.72h-2.46v1.9h2.73v.74h-3.53v-6h3.5zm3.29 5.26h-.77v-5.26h-1.72v-.74h4.12v.74h-1.63zm2.27 0v-.8l3.19-4.46h-3.06v-.74h4v.8l-3.19 4.46h3.23v.74zm7.27 0h-.77v-5.26h-1.67v-.74h4.12v.74h-1.68zm4.66 0v-6h2.17c.4505605-.00850919.8872206.15613316 1.22.46.3382813.29357474.5287722.72217927.52 1.17.0046929.26656215-.0720574.52821095-.22.75-.1468233.21543103-.3512731.38522834-.59.49.2900671.09602197.5444622.2772349.73.52.1922885.2450038.2946585.5485839.29.86.0103361.4667258-.1875685.9138434-.54 1.22-.348196.3211878-.8063347.496569-1.28.49zm.8-3.43h1.4c.2646389.01104763.5207079-.0950381.7-.29.1673207-.16696195.2613507-.39362636.2613507-.63s-.09403-.46303805-.2613507-.63c-.169184-.19136954-.4146819-.29762984-.67-.29h-1.43zm0 2.69h1.55c.2742187.0091998.5382331-.1044731.72-.31.1763151-.1828751.2764241-.425997.28-.68 0-.5522847-.4477153-1-1-1h-1.55zm7.85-4.52h-2.73v1.9h2.46v.72h-2.46v1.9h2.73v.74h-3.5v-6h3.5zm1.21 5.26v-6h.77v6z"
				stroke="#fff" stroke-width=".2"/>
		</g>
	</g>
</svg>
