<svg xmlns:xlink="http://www.w3.org/1999/xlink" width="394" height="397" xmlns="http://www.w3.org/2000/svg">
	<defs>
		<path
			d="M83.15 281.363a52.455 52.455 0 0 1-4.013-2.047c-61.31-32.15-92.062-102.576-73.973-169.403C23.253 43.085 85.328-2.21 154.483.96 223.637 4.13 281.31 54.913 293.212 123.114c11.901 68.202-25.163 135.52-89.156 161.927l-2.127.864-1.343.512-1.152.447-.575.208a102.93 102.93 0 0 1-3.726 1.312 143.343 143.343 0 0 1-10.074 3.022c-.88.24-1.775.464-2.67.672l-.688.176c-1.311.303-2.639.591-3.95.863a148.908 148.908 0 0 1-30.046 3.055c-4.37 0-8.688-.187-12.953-.56l-2.334-.224-1.6-.16c-1.039-.112-2.046-.24-3.085-.384-1.04-.144-2.207-.304-3.199-.463-.99-.16-1.982-.32-2.958-.512l-.623-.112a127.19 127.19 0 0 1-4.797-.96 146.017 146.017 0 0 1-26.145-8.315c-1.2-.512-2.383-1.04-3.582-1.6h-.08l-1.343-.623c-.624-.288-1.247-.576-1.855-.896z"
			id="a"/>
		<path
			d="M29.681.573c57.182-5.774 42.215 51.19 42.391 52.533.72-3.902 16.07-21.925 16.886-1.343-1.599 3.87-9.93 20.453-14.391 20.453-.752 0-1.52 21.221-3.198 26.93-2.847 9.82-27.984 21.494-28.943 22.39-13.8 13-26.705 38.124-29.167 41.882-.72 1.04-.688-29.825-3.198-50.263-1.28-9.93 3.598-15.512 3.198-15.784-.896-.607-14.232-20.789-9.818-39.98.383-1.71-.768-12.297-1.935-18.438C-5.834.173 26.626.893 29.68.573z"
			id="c"/>
		<path
			d="M13.565 4.165c-.032.592-3.71 1.12-4.653 1.392-3.246 1.12-6.252-.448-8.65-2.48 0 0 7.147-4.925 11.017 0 .255.32 2.286.577 2.286 1.088z"
			id="e"/>
		<path
			d="M14.792.653c.416-.08 11.321 1.76 10.89 2.08C16.087 10.743 2.494 2.987.096.94A22.385 22.385 0 0 1 8.604.11c1.727.144 2.462 1.247 6.188.543z"
			id="g"/>
		<path d="M11.757 5.076C5.617 6.596-.076 2.917.675 2.949c1.76.288 3.95-5.15 11.545 0 1.136.816.992 1.775-.463 2.127z"
					id="i"/>
		<path d="M12.707 4.057C9.621 5.768 1.514 2.873.747.57.49-.165 5.64 5.112 12.707 4.057z" id="k"/>
		<path d="M.533 3.21A47.454 47.454 0 0 0 13.437.3C12.398 1.13 5.777 4.25.533 3.21z" id="m"/>
		<path d="M3.673.66A4.654 4.654 0 0 1 6.04.674C3.273 1.3 2.73 2.706.475 2.546A4.99 4.99 0 0 0 3.673.66z" id="o"/>
		<path d="M3.588 3.355c.288.32-4.253-1.599-2.174-3.198.064 1.487 1.279 2.223 2.174 3.198z" id="q"/>
		<path d="M3.458 1.819C1.65 1.419.819.219.708.508c-.385.847 2.702 1.423 2.75 1.311z" id="s"/>
		<path d="M6.52 4.39C3.53 8.05-2.307 2.597 3.322.44 4.52.31 8.774 1.638 6.52 4.39z" id="u"/>
		<path d="M5.91 2.261C6.836 7.86-2.119 4.852.791 1.221 1.384.503 5.19-.2 5.91 2.262z" id="w"/>
		<path
			d="M1.693 8.402A8.795 8.795 0 0 1 7.434.71C7.37 1.094 2.301 5.827 3.9 7.86c1.839 3.374-1.44 5.069-2.095 4.797C1.15 12.384.75 12 1.15 11.201c.39-.88.575-1.837.543-2.799z"
			id="y"/>
		<path
			d="M10.316 4.532c1.311-1.04 1.391-1.456.448-2.927-.224-.32-.672-.672-.224-1.023.448-.352.8.08 1.087.415 1.024 1.168 1.327 2.767-1.087 4.798-1.28 1.055-2.079 1.311-3.47.384-2.83-1.935-5.693-.176-6.396-.672-.208-.624.256-.863.671-1.12a5.469 5.469 0 0 1 6.573.656c.703.608 1.15.576 1.726 0 .214-.183.439-.354.672-.511z"
			id="A"/>
		<path
			d="M.127 3.117c.176-.96.128-1.967 1.168-2.67a4.206 4.206 0 0 0 0 4.333c.224.288.431.544.751.192.72-.768 1.455-.464 2.143 0 1.36.96 3.102 1.327 4.557 2.159.275.05.557.05.832 0h2.143c.24.495-.16.751-.4 1.071a46.368 46.368 0 0 1-7.724-1.775 2.8 2.8 0 0 0-.703-.112A2.543 2.543 0 0 1 .127 3.117z"
			id="C"/>
		<path
			d="M1.858 2.861C1.65 2.83 1.33 2.445.69 1.806.547 1.662 2.53.718 2.53.718c2.638.864 5.276.064 7.899.208a7.595 7.595 0 0 1 4.381 1.008c.365.265.836.336 1.263.192a5.93 5.93 0 0 1 2.287-.56c3.433.272 6.846.758 10.218 1.455 1.19.435 2.521.197 3.486-.623.24-.208 2.862.943 2.862.943-.911.032-.975.08-1.167.144-.192.064-5.517 3.518-7.308 4.414a19.827 19.827 0 0 1-16.758-.336A25.586 25.586 0 0 1 3.89 3.981a3.486 3.486 0 0 0-2.031-1.12zm9.93 0c-1.897-.1-3.799.04-5.66.416C13.21 8.54 20.917 8.54 28.321 4.828c-1.375-.256-8.619-1.887-10.122-1.247a6.396 6.396 0 0 1-4.605 0l-1.807-.72z"
			id="E"/>
		<path
			d="M5.585 6.287C4.818 8.638 2.26 8.974.66 12.364a7.117 7.117 0 0 1 1.6-3.39c.655-.704 2.798-1.551 2.958-4.494A17.404 17.404 0 0 1 6.513.21a28.786 28.786 0 0 1-.928 6.077z"
			id="G"/>
		<path
			d="M3.56 30.407c.288 3.934-.24 7.852-.032 11.786a29.523 29.523 0 0 0 2.462 10.33 69.538 69.538 0 0 0 6.988 11.93c1.136 1.6 2.431 3.199 3.55 4.798a7.132 7.132 0 0 0 4.798 3.054c3.038.528 6.06 1.184 9.146 1.424a21.969 21.969 0 0 0 12.505-2.895c3.79-2.143 11.72-7.692 12.6-7.692-1.215 1.215-2.206 2.287-3.326 3.199-2.366 1.87-11.593 10.81-24.753 9.867-7.516-.976-11.226-3.15-11.961-3.79-.736-.64-1.056-.464-1.391.351-.336.816-4.957 9.18-5.133 9.323-.176.144.351-4.253-.56-4.797-.416-.24.592-3.246 1.04-4.142a12.17 12.17 0 0 0 1.247-5.677 4.014 4.014 0 0 0-1.2-3.007C3.944 59.05 1.721 52.14.746 44.656a35.825 35.825 0 0 1 .335-12.458c.048-.272-.863-20.95-.863-22.549V.518c1.647.448 2.83 22.868 3.342 29.889z"
			id="I"/>
		<path d="M21.07.247C12.386 12.897.712 19.485.377 18.877.042 18.27 8.277 14.016 21.069.247z" id="K"/>
		<path
			d="M9.172 25.89c.384-1.518 1.743-2.542 2.558-3.853.352-.544 9.195-11.786 5.373-18.039-.224-.368-1.775-2.719-2.079-3.006-.815-.784 1.28-1.024 1.6-.704 6.396 6.397 1.375 14.872-.224 17.59-1.056 1.696-2.111 3.407-3.198 5.006a23.315 23.315 0 0 0-2.543 4.894 5.613 5.613 0 0 1-3.662 3.726 1.28 1.28 0 0 0-1.007 1.28c-.448 4.605-.352 9.259-.352 13.88-.192 1.52-4.989 15.033-4.989 13.93 0-1.792 1.391-13.306 1.599-17.352.304-6.06.736-19.846 1.055-20.613.31 1.483.466 2.994.464 4.51.016 1.503.272 1.726 1.743 1.598a3.614 3.614 0 0 0 3.662-2.846z"
			id="M"/>
		<path
			d="M3.316.311c.288.288.112.624-.048.8-.671.576-.304 1.151 0 1.6.304.447.528.623 1.024.223a9.705 9.705 0 0 1 3.821-1.711 5.612 5.612 0 0 1 4.462.496 79.72 79.72 0 0 1 7.563 5.517c.863.653 1.953.93 3.022.767.608-.016 2.16-.287 1.727.464-.895 1.551-5.66-.783-7.531-2.11a41.833 41.833 0 0 0-7.116-4.223c-1.103-.543-3.982.608-5.9 2.031-.912.672-1.168.304-1.6-.431-.431-.736-.783-1.12-1.247 0-.128.303-.272.815-.704.623-.431-.192-.111-.64 0-.943A7.693 7.693 0 0 1 2.486.519c.223-.208.495-.464.831-.208z"
			id="O"/>
		<path
			d="M7.922 3.528c2.175-.704 3.997.224 5.9.991.4.16 1.408.688 1.408.688a12.22 12.22 0 0 0-2.495-4.27c-.24-.224 1.615-.336 1.967.128a15.8 15.8 0 0 1 2.127 16.76c-.08.175-.72 1.071-1.024.895-.304-.176 2.11-4.494 1.2-9.131a4.03 4.03 0 0 0-1.823-2.943C7.906 1.833 1.51 8.421.998 7.654c-.512-.768 4.845-3.455 6.924-4.126z"
			id="Q"/>
		<path
			d="M4.026 3.597a3.198 3.198 0 0 1-2.623 1.2C1.068 4.765.748 4.685.7 4.269c-.048-.416.304-.56.623-.56 1-.149 1.94-.57 2.719-1.215 1.327-.912 2.846-1.791 3.71-1.6 1.574.314 3.063.963 4.365 1.904a51.702 51.702 0 0 0 4.19 3.758 11.466 11.466 0 0 1-4.062-2.207C10.71 2.94 8.823 1.614 7.224 1.774a6.396 6.396 0 0 0-3.198 1.823z"
			id="S"/>
		<path
			d="M12.48 3.046C9.888.407 8.257 1.271 5.46 2.07 4.307 2.39.677 4.021.997 3.67A14.391 14.391 0 0 1 9.857.2a6.572 6.572 0 0 1 3.198 1.982 4.03 4.03 0 0 0 2.366 1.344c.336.064.656.24.576.591-.08.352-.464.352-.8.352a4.557 4.557 0 0 1-2.718-1.423z"
			id="U"/>
		<path
			d="M3.346 55.458C3.282 55.97.69 52.836.627 50.085.196 30.591 8.96 11.608 19.225 6.907c2.607-1.184 3.263-5.15 5.933-5.55 9.786-1.439 29.087-.91 31.15-.639 10.601 1.423 20.98 9.963 27.184 20.262 4.093 6.876 4.797 38.956 4.237 39.068-.783-.512-8.347 1.807-12.792 12.154-.256-1.823-2.67-20.102-2.75-22.389-.08-2.287-4.51-13.945-8.972-17.83-.815-.72-20.627-7.373-30.222-7.373-1.966 0-3.438-1.727-5.165-.752-1.263.72-8.395 3.263-9.706 3.055a7.355 7.355 0 0 0-6.028.751C9.454 29.072 5.28 35.07 3.346 55.458z"
			id="W"/>
		<path
			d="M4.234 63.24S1.036 60.267.652 47.154c.688-5.597-1.04-17.975 13.224-33.391a9.354 9.354 0 0 0-5.932 1.743c1.839-2.463 4.973-5.869 14.28-8.508-.816-.735-5.486-2.175-5.454-2.638.032-.464 12.057.24 12.057.24S38.806.44 39.381.84c-.735.864-1.79 1.792-2.75 2.927C46.833.873 59.513 2.52 64.422 2.903a17.591 17.591 0 0 0-3.821 2.015 39.975 39.975 0 0 1 19.476 8.94 15.768 15.768 0 0 0-4.125-.576c3.965 2.639 12.52 13.417 12.28 13.641-.24.224-2.11-1.055-2.574-.575-.464.48 2.558 4.893 3.374 11.498 1.2 5.437 1.375 28.353 1.375 28.353-2.303-.463-11.065 1.088-13.912 14.505-1.04 0-3.198.272-3.198 0a151.486 151.486 0 0 1 0-17.463c.064-.896-2.366-3.342-2.27-7.996.096-4.654-4.286-15.24-5.277-15.848-15.351-9.531-34.54-8.62-35.404-8.492 0 0 .608-1.503.784-1.983a59.72 59.72 0 0 0-13.624 5.837c-.592.416-.304-2.67-.768-2.462C9.975 35.27 7.304 42.61 6.776 47.825c-.463 4.67-2.43 15.016-2.542 15.416zm16.502-49.382C5.546 23.98 2.94 42.243 3.322 51.119a12.89 12.89 0 0 0 .352 3.31c.368-.144-.895-24.052 15.095-25.475 0 0-.223 2.271.528 1.823 4.805-2.02 9.722-3.76 14.727-5.213l.256 2.015c.192.528 17.046-.976 31.246 7.74 2.782 1.775 5.612 4.014 6.396 7.548 1.759 6.365 1.759 14.745 3.502 18.535 1.615 3.502.671 12.09 1.055 12.106.384.016 3.15-8.332 10.602-9.196 0 0-.464-24.387-.784-25.475-2.974-10.794-4.893-10.714-7.77-15.224.978.08 1.962.08 2.941 0-7.243-8.684-16.902-15.736-28.607-15.864l.416-1.12a81.349 81.349 0 0 0-18.885 1.6c-.432.096-5.98-.704-6.396-.608-.416.096 1.903 1.583 1.487 1.695a70.102 70.102 0 0 0-10.202 3.422l1.455 1.12z"
			id="Y"/>
		<path
			d="M21.353 4.728C.981 3.368.31 4.904.182 4.568c-.128-.336 2.686-2.894 5.18-4.11 11.786-.783 16.487 4.27 15.991 4.27z"
			id="aa"/>
		<path
			d="M17.558 4.833C8.379.563.72 5.2.384 4.833.048 4.465 6.317-4.555 18.805 3.44c2.51 2.431-.224 2.143-1.247 1.392z"
			id="ac"/>
		<path
			d="M3.528 2.238c0 .655-.895 1.103-1.263 1.071C.89 3.261.666 2.446.666 1.95c0-.895.8-1.215 1.599-1.215a1.344 1.344 0 0 1 1.263 1.503z"
			id="ae"/>
		<path
			d="M3.23 1.869c0 .64-.815 1.056-1.215 1.04C.624 2.86.415 2.06.415 1.597c0-.863.832-1.167 1.6-1.167A1.279 1.279 0 0 1 3.23 1.869z"
			id="ag"/>
		<path d="M1.937 1.902A.815.815 0 0 1 .8 1.742a.72.72 0 0 1 0-.911.832.832 0 0 1 1.136 0 .72.72 0 0 1 0 1.071z"
					id="ai"/>
		<path d="M1.91 1.757a.816.816 0 0 1-1.135-.176.688.688 0 0 1 0-.895.816.816 0 0 1 1.135 0 .704.704 0 0 1 0 1.071z"
					id="ak"/>
		<path
			d="M8.232 20.2a6.396 6.396 0 0 1-4.766-4.365c-.687-2.447-1.599-9.483-1.599-9.483a40.323 40.323 0 0 1-1.823-.784C-.02 4.098.06 2.625.284 1.17 1.611.867 11.51.467 13.364.563A53.1 53.1 0 0 1 28.715 3.36a16.356 16.356 0 0 0 7.324.928 91.215 91.215 0 0 1 12.793-.64 60.454 60.454 0 0 1 17.062 3.199S77.23 4.017 80.78 3.489c2.798-.4 9.594 3.247 9.594 3.567-1.63-1.008-6.3-.736-7.66-.32-5.564 1.679-10.201 3.246-15.846 4.637-.72.16-1.503.528-1.503 1.28a50.575 50.575 0 0 1-.384 5.82c-.688 4.399-2.702 6.03-6.236 6.238-4.658.219-9.325.075-13.96-.432a8.81 8.81 0 0 1-6.396-3.886 19.719 19.719 0 0 1-2.99-7.533c-1.584-6.252-4.654-4.557-5.63-2.702-.408.876-.74 1.785-.99 2.719a24.626 24.626 0 0 1-3.199 7.644 4.253 4.253 0 0 1-3.454 1.599A44.768 44.768 0 0 1 8.232 20.2zM37.238 6.769a1.071 1.071 0 0 0-.591.911 20.263 20.263 0 0 0 2.223 10.715c1.359 2.35 3.086 4.541 6.156 4.91 4.243.542 8.533.617 12.792.223 3.63-.368 4.83-1.375 5.39-4.957.388-2.787.554-5.6.495-8.412a1.6 1.6 0 0 0-1.375-1.887 46.207 46.207 0 0 0-16.47-2.463 56.257 56.257 0 0 0-6.141.208 4.701 4.701 0 0 0-2.479.752zM3.307 5.44a28.613 28.613 0 0 0 1.423 9.292 6.396 6.396 0 0 0 5.1 4.525 43.568 43.568 0 0 0 11.53 1.503 4.157 4.157 0 0 0 3.582-2.606 40.216 40.216 0 0 0 1.982-6.11c.549-1.684.718-3.47.496-5.228a1.6 1.6 0 0 0-1.263-1.504 45.723 45.723 0 0 0-6.684-1.455 37.209 37.209 0 0 0-14.136-.512c-1.663.336-1.919.384-2.03 2.095z"
			id="am"/>
		<path
			d="M44.854 2.654c2.127 5.165 4.894 12.186 6.733 17.463 3.198 9.355 23.09 55.46 23.362 56.084 1.487 3.39 15.127 15.432 19.188 21.173.608.88 13.864 38.109 14.2 38.38 1.215 1.248-3.486 4.702-4.27 3.775-4.237-5.054-13.048-21.701-13.128-21.43-3.118 9.852-14.487 2.671-14.583 3.71-1.76 6.59-6.172 8.492-7.995 6.477-3.199-3.454-5.293-16.28-5.725-19.19-5.405-10.203-5.405-27.746-6.572-28.865C50.659 74.826 3.79 17.415.832 7.42 11.946-4.015 44.151.927 44.854 2.654z"
			id="ao"/>
		<path
			d="M36.167 7.633C30.81 20.89 42.963 53.322 43.618 53.56c1.247.448 2.814-.24 7.468 3.47.336.272 10.058 13.738 10.442 14.153 1.023 1.104-10.65 23.716-11.418 22.82-1.775-2.078-15.83-10.298-17.381-13.4-1.264-1.312-4.142-11.754-5.357-13.178C4.985 43.966-.724 5.394.108 2.723.939.053 28.01-2.123 36.167 7.633z"
			id="aq"/>
		<path
			d="M97.575 130.292c-1.423-3.087-3.438-5.805-4.797-8.908-.432-.991-.895-1.967-1.439-3.198a12.792 12.792 0 0 1-3.438 3.55 3.885 3.885 0 0 1-3.006.816 43.842 43.842 0 0 1-7.02-1.6c-.768-.191-.944 0-1.135.784-.576 2.399-1.312 4.798-4.03 5.677a4.797 4.797 0 0 1-5.005-1.055 16.44 16.44 0 0 1-3.086-5.661 21.285 21.285 0 0 1-1.92-7.644 28.035 28.035 0 0 0-3.405-11.579 30.385 30.385 0 0 1-2.942-9.499c-.4-2.958-.416-5.9-.528-8.86a13.018 13.018 0 0 0-3.662-7.995c-3.838-4.414-7.995-8.492-11.833-13.002s-7.068-8.651-10.873-12.793c-3.806-4.142-7.468-7.66-10.73-11.914A173.174 173.174 0 0 1 7.532 20.25c-1.589-3.18-3.009-6.44-4.253-9.77C2.463 8.69.656 6.483.385 4.516c0-.432 3.87-1.6 3.901-1.76 3.199 4.798 5.053 11.755 7.996 16.68a167.075 167.075 0 0 0 9.77 13.817L54.8 72.129a13.625 13.625 0 0 1 2.622 4.126c.592-2.958-.96-5.66.144-8.683.378 1.197.688 2.414.927 3.646a31.35 31.35 0 0 1 .896 10.858c-.224 2.191-.112 4.478-.144 6.717.054 1.688.434 3.35 1.12 4.893 2.222 5.981 5.068 11.754 5.612 18.231.065.278.092.563.08.848-.544 3.838 1.599 6.924 2.878 10.235a1.855 1.855 0 0 0 2.143 1.151c1.023-.112 1.935-.24 2.479-1.36a11.356 11.356 0 0 0 .415-7.883c-1.103-4.718-2.526-9.388-2.222-14.393.16-2.59 1.519-8.332 1.918-8.284.4.048-.623 5.102.384 7.852 0 .864.176 1.008 1.024.608 3.198-1.503 9.338-2.367 12.105-.512-1.833.124-3.649.43-5.421.912a15.992 15.992 0 0 0 3.454 3.646 9.595 9.595 0 0 1 3.917 4.797c.207.82.583 1.589 1.104 2.255 2.622 2.895 3.853 6.525 5.596 9.9.478.84 1.013 1.646 1.6 2.414.79 1.12 1.39 2.363 1.774 3.678a16.966 16.966 0 0 0 4.254 6.605c.315.31.707.53 1.135.64 1.471.4 2.047-.144 1.711-1.6a74.476 74.476 0 0 0-3.022-9.787c-2.639-6.94-4.797-14.057-7.628-20.917-.975-2.335-1.854-4.702-2.798-7.037a6.477 6.477 0 0 0-1.343-2.127c-4.893-5.053-9.754-10.138-14.647-15.192a19.19 19.19 0 0 1-3.646-5.021 268.972 268.972 0 0 1-13.608-31.776c-1.2-3.662-2.83-7.165-4.254-10.73a105.546 105.546 0 0 0-7.483-16.28c-2.447-4.014-4.318-8.364-7.228-12.09-.656-.848-.912-1.104-.72-2.175 1.296 1.007 9.067 3.422 9.195 3.982 1.247 5.421 3.918 10.33 6.396 15.288 3.358 6.877 5.437 14.233 7.995 21.413 2.207 6.253 4.957 12.298 7.228 18.519a78.538 78.538 0 0 0 5.725 12.058c1.919 4.525 14.151 16.631 16.822 19.19a15.992 15.992 0 0 1 3.822 6.397c3.07 6.7 12.616 36.317 12.792 37.069.32 1.327-1.12 3.358-4.061 3.742-4.014.144-6.749-4.43-8.268-7.66zm-14.391-20.278c-.672.496-.896 1.12 0 1.711.304.192.48.448.144.848-2.175-1.887-5.277-1.6-7.004-2.271-.752-.32-.544.352-.464.672.416 1.807.624 3.646.88 5.469a1.455 1.455 0 0 0 1.071 1.295c1.807.672 3.582 1.392 5.405 2.047a3.534 3.534 0 0 0 4.27-1.263c.53-.757 1-1.554 1.406-2.383.401-.476.352-1.184-.111-1.6a40.86 40.86 0 0 1-3.966-6.028c-.256-.432-1.168-1.167-1.327-1.12-.16.048.927 1.92-.24 2.623h-.064zm-5.517-4.302c.16.96-.8 2.111 0 2.815.8.704 1.855.64 2.766 1.04.624.271.912 0 1.296-.384.383-.384.112-.8-.176-1.104a9.803 9.803 0 0 1-2.383-5.021c-.128-.672-.416-.784-.96-.624-.543.16-1.167.096-.879 1.023.198.74.332 1.494.4 2.255h-.064zm-2.495 1.168a4.669 4.669 0 0 0 0-2.383c0-.224.129-.672-.335-.576-.464.096-.352.4-.304.688a5.68 5.68 0 0 0 .704 2.27h-.064z"
			id="as"/>
		<path
			d="M49.936 89.23c.831.497 2.398.928 2.67 1.808.528 1.711-1.599 3.198-2.047 2.798a25.201 25.201 0 0 0-7.02-4.605c-1.599-.864-3.198-1.935-4.7-2.943a18.295 18.295 0 0 1-6.173-7.996 90.93 90.93 0 0 1-3.838-9.211 6.187 6.187 0 0 0-1.071-1.999c-4.558-5.565-8.78-11.37-12.937-17.223a25.22 25.22 0 0 1-2.046-3.662A112.335 112.335 0 0 1 3.53 19.41C2.859 15.956.621 6.265.557 2.73A20.786 20.786 0 0 1 4.523.253C5.625 5.417 6.617 19.73 8.407 24.735a155.768 155.768 0 0 0 12.793 28.098 18.603 18.603 0 0 0 2.014 2.815c2.75 2.99 4.798 6.524 7.58 9.515a8.411 8.411 0 0 1 1.599 3.198 58.919 58.919 0 0 0 6.508 13.386 15.623 15.623 0 0 0 7.324 5.677c.333.136.706.136 1.04 0a5.085 5.085 0 0 0 3.965-3.918 9.052 9.052 0 0 1 2.43-3.615c1.152-.911.912 2.575.912 2.575a55.556 55.556 0 0 1-4.637 6.765z"
			id="au"/>
		<path
			d="M4.199 49.585c1.599-1.04 5.804-1.392 5.564-1.855-.24-.464-6.796-17.703-7.595-26.467C1.752 16.785 1.272 5.127.985.602c.495-.368 3.07 1.423 3.102 2.35.176 5.134.863 15.16 1.599 20.262A66.1 66.1 0 0 0 13.28 46.93c.2.53.757.835 1.311.72 2.783-.384 5.821 1.471 6.253 1.599.431.128-1.407 3.822-1.6 3.726A41.573 41.573 0 0 0 4.2 49.585z"
			id="aw"/>
		<path
			d="M3.427 54.866C3.955 51.97-.283-.642.373.142c10.138 12.137 42.855 8.427 44.182 6.732C23.783 19.524 2.948 57.49 3.427 54.866z"
			id="ay"/>
		<path
			d="M248.413 114.366c0 .24 1.167 15.512 1.391 15.752-.927 1.503-24.482-12.65-50.29 5.933-.016-.912-10.17-10.459-10.33-17-2.702-2.782-15.83-17.687-17.094-17.927-1.263-.24-2.415 55.572-3.742 65.04-.48 3.438.256 6.876-8.203 21.605 0 0-57.55 21.045-96.231 1.855-.96-.48.591-2.783 0-4.286-1.775-4.494-4.43-10.843-4.622-11.466-.64-2.143 3.854-36.814-8.443-61.313-.24-.48-6.811 12.521-8.075 12.058-.591-2.031-10.921-7.757-22.387-7.868-17.59-.16-17.653 4.701-18.805 3.822-5.388-4.126 5.373-20.358 7.068-22.58 4.861-6.366 26.977-45.098 36.011-56.292 10.81-10.283 29.103-12.314 28.4-12.794 2.35-2.895 11.273-15.208 12.792-15.688-.08.464.991 17.303 1.95 33.583v.192c.672 11.194 1.28 22.117 1.424 27.186v2.159c.08 0 2.206-4.414 5.676-10.81 5.517-10.155 14.584-25.14 23.986-33.584a31.983 31.983 0 0 1 6.956-3.95c8.7-4.397 22.53-11.993 26.625-27.458.16-.623 7.131 16.568 8.299 18.775.224.432 26.944 13.753 31.485 17.415 5.325 5.405 39.977 45.817 44.774 64.575 1.215-.895 8.187 11.019 11.385 13.066z"
			id="aA"/>
		<path
			d="M253.955 124.059c1.647 1.183 1.84 10.635 1.392 12.122a10.253 10.253 0 0 1-1.312 3.198c-.24.336-.56.656-.831 0a3.198 3.198 0 0 0-2.399-1.743 106.878 106.878 0 0 0-11.72-3.198 75.451 75.451 0 0 0-19.813-.88 22.386 22.386 0 0 0-13.4 6.285c-.608.608-.272 1.183 0 1.727s.8 1.04.272 1.6c-.528.559-2.543-.464-3.007-.56a6.86 6.86 0 0 1-4.925-4.542 3.518 3.518 0 0 0-1.887-2 11.945 11.945 0 0 1-3.645-2.526 8.556 8.556 0 0 1-1.807-5.47v-1.598a1.983 1.983 0 0 0-1.36-1.696c-5.852-3.118-14.391-12.153-14.391-12.153-.048.335-.848 30.704-.688 44.777a87.338 87.338 0 0 1-2.43 21.461 10.748 10.748 0 0 1-2.479 4.878c-1.695 1.775-2.718 2.319-2.414 4.493.256 1.855-7.676 4.382-6.94 3.199 2.606-4.046 5.213-10.107 7.755-14.185a8.653 8.653 0 0 0 .736-3.502 82.924 82.924 0 0 0 .623-18.247 47.836 47.836 0 0 1 .56-11.306c.592-3.902.544-7.932.752-11.898.32-5.837.111-21.957 0-24.244-6.493 4.894-12.537 10.235-19.19 14.808 2.783-3.022 14.504-16.855 16.999-21.205a11.083 11.083 0 0 0 1.455-7.452c-.831-5.933 2.399-18.31 2.655-18.55-.416 3.757.4 7.931-.16 11.754-2.207 15.24 17.717 29.025 19.396 30.624 2.67 2.367 2.83 2.51 5.277 0 12.44-12.841 37.082-13.337 39.449-12.586a6.587 6.587 0 0 0-.8-2.095c-6.716-10.586-19.556-31.376-26.208-39.372-2.303-2.782-4.062-5.98-6.205-8.891a38.38 38.38 0 0 0-7.675-8.604c-3.342-2.415-9.339 4.606-9.85 4.606a50.794 50.794 0 0 1 5.532-6.685c-3.198-3.278-22.067-14.552-27.184-15.896 0 0-11.705 18.151-12.792 18.63-2.447-2.27-15.223-4.973-18.533-5.932-3.31-.96-9.962 1.823-10.682 2.239.096-.544 4.573-5.246 7.9-5.15 3.326.096 19.572 4.51 20.595 4.894a147.484 147.484 0 0 0 10.522-16.2c.848-1.871 2.063-4.494.288-5.821-1.503-1.087-3.982-4.798-3.982-6.557a15.53 15.53 0 0 0-1.71-7.484c-.288.72-7.996 18.966-25.138 26.163a35.943 35.943 0 0 0-4.909 2.767 31.979 31.979 0 0 0-7.356 6.076c-.703.896-3.39 4.206-6.876 8.892-7.483 10.09-18.58 26.834-20.883 41.227-.716 3.58-1.25 7.193-1.6 10.826-.367 6.413-1.294 51.958-1.454 58.77a93.515 93.515 0 0 0 .911 17.432c.752 4.622 3.838 21.173 3.838 21.35-.64-.08-1.231 0-1.84 0-.031-.033-4.892-22.246-5.452-24.98-.048-.224 1.343-58.547 1.343-63.168.032-2.895.256-5.79.256-8.668a95.607 95.607 0 0 1 2.51-17.015 73.564 73.564 0 0 0 1.28-12.298c.128-3.55-2.447-30.88-2.75-35.534-.304-4.654-1.424-9.211-1.248-13.913-2.51.832-7.931 6.717-8.25 8.828 1.15-.288 2.27-.528 3.373-.832 1.503-.432 3.87 3.662 3.678 3.822-.192.16-4.078-2.367-6.908-.768a6.06 6.06 0 0 1-3.39.416 9.023 9.023 0 0 1-.352-1.439s-7.787 2.27-10.266 2.943c-3.581.991-13.128 7.356-14.95 8.7-1.824 1.342-10.41 15.415-13.017 21.06-2.27 4.958-4.621 9.98-8.427 13.865-3.806 3.886-10.746 16.776-11.913 18.983 3.294-1.168 24.657-.896 32.077 11.722.256.4.656.288 1.055 0 1.12-.832 6.428-2.51 1.12-18.503-.56-2.496-.881-5.04-.96-7.596-.336-2.943-.591-5.869-.88-8.86.608.08 2.255 11.93 5.773 15.849.448.511 4.957 14.472 5.117 14.904 2.415 6.413 4.43 62.992 4.014 66.382a6.51 6.51 0 0 0 1.599 4.91c2.383 2.91 5.405 15.88 5.453 16.2.048.32-2.047-1.088-2.047-1.088-.416-.575-2.239-3.326-2.702-4.078-2.303-3.63-4.702-7.74-5.597-9.435a9.452 9.452 0 0 1-1.056-4.718c.301-13.876-.185-27.757-1.455-41.578-.16-1.376-1.998-11.37-3.597-14.809-.432.192-.832.384-.832.975a4.622 4.622 0 0 1-2.047 3.647 3.198 3.198 0 0 0-1.103 1.919 12.074 12.074 0 0 1-3.358 5.325.895.895 0 0 1-1.471-.192c-5.213-10.874-32.445-8.476-34.988-6.764-1.535 1.039-2.014 1.279-1.918 3.294v.72c-.576.095-.88-.288-1.216-.544-2.878-2.191-6.044-2.975-5.9-12.266a30.671 30.671 0 0 0 2.446-4.526c.944-2.958.976-4.126 2.942-6.7a3.199 3.199 0 0 1 1.6-1.296c.863-.272 1.167-.943 1.599-1.71 2.91-5.134 5.165-10.651 7.995-15.849a46.375 46.375 0 0 1 7.436-10.043 37.502 37.502 0 0 0 7.803-12.457 29.81 29.81 0 0 1 2.367-4.174 187.406 187.406 0 0 1 9.29-14.185c1.983-2.75 4.877-4.238 7.5-6.109 6.076-4.27 13.128-5.87 20.244-7.212a4.99 4.99 0 0 0 3.198-1.855c3.054-3.647 6.092-7.277 9.45-10.62 1.072-1.119 4.525-2.894 4.797-2.718.272.176-.8 10.475 0 15.384.32 2 3.47 41.356 3.358 42.81a157.266 157.266 0 0 1 23.347-34.35 26.817 26.817 0 0 1 9.098-7.996c.592-.288 1.2-.591 1.807-.863 3.15-1.376 18.837-6.685 27.44-30.88.416.207 5.469 7.595 5.996 11.721.088 1.252.352 2.485.784 3.663 2.559 1.439 4.797 7.404 4.797 7.548 2.495.991 23.81 12.378 27.008 14.105a40.874 40.874 0 0 1 9.755 7.772 68.931 68.931 0 0 1 8.938 12.202 39.243 39.243 0 0 0 5.197 6.604c7.372 7.516 25.105 40.492 25.297 41.435a3.374 3.374 0 0 0 2.719 2.67c2.974.88 4.333 3.215 5.356 5.774a82.28 82.28 0 0 1 2.91 8.668c.113.431.193.975.496 1.199zm-205.654-5.085c-.576-1.008-17.334-21.014-38.378-11.675a1.599 1.599 0 0 0-.831.64 19.189 19.189 0 0 0-1.6 3.63l-.111.288h.288c1.679-.544 3.262-1.52 5.452-1.071a32.43 32.43 0 0 0-5.324 3.758c-3.039 2.495-3.998 4.957-3.039 7.996 7.9-4.238 16.375-3.87 24.946-3.007a37.565 37.565 0 0 0-5.98-3.39 5.309 5.309 0 0 1 2.638.224c6.62 1.87 12.376 5.453 18.021 9.243.336.224.672.816 1.071.48.4-.336.896-.72.896-1.36a4.704 4.704 0 0 0-.176-1.055 72.578 72.578 0 0 0-5.213-9.42 18.726 18.726 0 0 1 7.004 6.861c.112-.88.752-1.39.336-2.142zm202.552 13.465a7.757 7.757 0 0 0-2.015-7.229 87.938 87.938 0 0 0-8.73-6.812c2.395.27 4.76.757 7.067 1.455a17.849 17.849 0 0 0-2.846-5.71c-24.482-11.05-46.852 7.949-48.148 12.938-.495 2.047-.335 3.183 1.6 4.27.223-.512 4.477-9.435 6.076-9.69-2.35 4.077-2.575 13.96-1.6 15 .577.607 1.344.991 1.808.095 4.845-9.083 21.028-11.93 23.186-11.93a59.474 59.474 0 0 0-8.73 4.686c.655 0 21.603-1.95 31.42 3.374.608.336.8.208.912-.447z"
			id="aC"/>
		<path
			d="M116.29 34.896l-.575.208a93.87 93.87 0 0 1-3.742 1.312 143.354 143.354 0 0 1-10.074 3.022c-.88.24-1.759.464-2.654.672l-.704.176a143.1 143.1 0 0 1-3.95.863 148.78 148.78 0 0 1-30.046 3.055c-4.36 0-8.678-.187-12.952-.56l-2.335-.224-1.52-.16-3.085-.384c-1.072-.144-2.159-.288-3.198-.463-1.04-.176-1.967-.32-2.959-.512l-.607-.112c-1.631-.288-3.23-.608-4.797-.96A146.596 146.596 0 0 1 6.93 32.514a116.295 116.295 0 0 1-3.566-1.6h-.096l-1.343-.623a49.11 49.11 0 0 1-1.855-.896c1.87-4.174 3.678-8.268 4.525-10.187 0 0 2.127-15.064 2.207-15.064 1.135.448 5.453 1.999 5.485 2.015.991.336 40.296 15.992 97.334-5.373.4.927 4.973 13.833 2.383 19.046-.304.384 2.143 7.948 4.285 15.064z"
			id="aE"/>
		<path
			d="M119.036 15.899c-.016 2.847 2.126 13.833 3.406 20.566l-1.136.447-.575.208a93.87 93.87 0 0 1-3.742 1.312c-.912-6.093-2.526-15.688-3.31-17.288-4.701 1.216-18.405 4.158-19.189 4.318-.208.032 5.757 10.187 9.707 16.664l-.704.176c-1.295.303-2.622.591-3.95.863-3.598-6.908-7.34-16.2-7.82-17.031a190.273 190.273 0 0 1-38.68 4.158s-.176 7.404-.352 14.984l-3.086-.384c.607-6.796 1.327-14.408 1.327-14.584l-7.9-.224c0 .064-.127 6.54-.24 13.72a127.19 127.19 0 0 1-4.796-.959c.783-6.444 1.695-13.017 1.695-13.161-.912-.048-24.706-3.326-28.4-5.597-.255-.144-1.647 4.318-3.022 8.843h-.096l-1.343-.623a49.099 49.099 0 0 1-1.855-.896 92.803 92.803 0 0 1-3.982-2.015c3.614-5.053 7.196-9.69 7.196-9.69.133-.228.24-.47.32-.72.132-.916.18-1.843.144-2.767a20.22 20.22 0 0 1 .24-4.302.477.477 0 0 0 0-.16 72.707 72.707 0 0 1 1.967-7.164c.446-.509.99-.922 1.599-1.216 0 0 1.966 2.16 2.19 2.335.699.575 1.46 1.07 2.271 1.471 4.126 2.047 39.896 15.4 90.986-3.198 1.855-.656 5.997-2.27 6.396-2.43a2.993 2.993 0 0 1 0-1.088c0-.016 1.6.384 1.6.384l.192.943c.751 3.422 1.95 6.237 2.574 9.435.196.949.32 1.911.368 2.879v1.791zm-78.85 11.322l.56-11.77c0-.064-19.205-2.159-26.832-6.54-.032 0-1.935 1.823-2.287 11.418a2.257 2.257 0 0 0 0 .495c2.814 3.839 28.16 6.525 28.56 6.397zm74.5-8.332c1.343-.383 1.903-.815 1.967-1.775.016-.271-.56-8.347-2.287-11.77C78.803 18.106 49.83 15.994 48.23 15.915a5.397 5.397 0 0 0-1.248 0 4.093 4.093 0 0 0-3.038 2.079c-.197.37-.332.77-.4 1.183a55.626 55.626 0 0 0-.415 8.284c.032.4 32.077 2.91 71.557-8.572z"
			id="aG"/>
		<path
			d="M5.205 1.393c.564.676.825 1.556.72 2.43a2.223 2.223 0 0 1-2.431 2.463A2.526 2.526 0 0 1 .776 3.728a2.75 2.75 0 0 1 .783-2.143A2.91 2.91 0 0 1 3.606.897a2.303 2.303 0 0 1 1.599.496zm-1.6 3.71h-.031a1.2 1.2 0 0 0 1.311-1.407C4.87 2.384 4.677 1.904 3.59 1.904s-1.711.592-1.711 1.6a1.6 1.6 0 0 0 1.727 1.599z"
			id="aI"/>
		<path
			d="M3.508 6.08c2.542 5.341 18.533 9.02 22.69 11.05.56.256 2.847-1.599 3.374-1.727 4.798-1.36 15.991.256 16.263.544 1.103.928 0 1.247 1.2 1.311 3.933.192 50.69-4.797 62.123-16.807.335-.256 3.198 10.426 4.141 13.033.608 1.6-18.07 9.084-22.147 8.62-.32 2.095-.304 6.525-2.415 6.988-7.291 1.6-38.92 1.84-42.518 3.423-14.104 6.188-20.788-3.439-21.428-3.535C11.727 26.821.581 19.145.677 17.786c.048-.56 2.495-12.394 2.83-11.706z"
			id="aK"/>
		<path
			d="M1.348.822c.655 0 1.087.304 1.023.944a1.056 1.056 0 0 1-1.215 1.055c-.64 0-1.103-.351-1.072-1.039.032-.688.688-.88 1.264-.96z"
			id="aM"/>
		<path
			d="M1.565.23c.56.08 1.103.24 1.135.944a1.04 1.04 0 0 1-1.072 1.168.991.991 0 0 1-1.15-1.056C.46.566.924.231 1.564.231z"
			id="aO"/>
		<path
			d="M1.402 2.997C.794 2.87.298 2.597.33 1.91A.943.943 0 0 1 1.386.982c.671 0 1.183.352 1.119 1.12-.064.767-.576.831-1.103.895z"
			id="aQ"/>
		<path
			d="M1.845.207c.656.128 1.12.448 1.088 1.104a1.024 1.024 0 0 1-1.152.991A1.12 1.12 0 0 1 .566 1.215C.582.463 1.286.35 1.846.207z"
			id="aS"/>
		<path
			d="M113.715 12.509c.543 1.823.415 2.223-1.184 3.038-.175.112-16.598 6.94-20.068 7.244-.56.048-.815.256-.815.896v.88c-.08 1.087-.304 2.143-.432 3.198a2.51 2.51 0 0 1-2.095 1.887c-.224.064-33.228 2.735-39.736 2.847-.576 0-1.152-.096-1.311.783-.096.608-.752.768-1.312.912l-.975.24c-.8.176-1.567.32-2.303.447a29.372 29.372 0 0 1-7.995.384 19.428 19.428 0 0 1-3.198-.576c-5.373-1.503-7.18-4.861-7.995-5.053-3.343-.752-20.18-6.717-23.043-10.043a2.943 2.943 0 0 1-.927-3.198c.48-2.207 1.583-8.204 1.823-9.803.143-.896 1.583-1.727 1.599-1.6.016.128.447.576.8 1.216 2.19 3.87 18.053 8.971 21.794 9.947a5.612 5.612 0 0 1 3.198-1.6c2.543-.575 7.164-.83 15.671.353.816.111 1.455.287 1.695 1.087a.559.559 0 0 1 0 .208c.16.736.704.336 1.072.336.991-.064 33.148-1.216 59.165-15.32a6.185 6.185 0 0 1 0-1.216h2.494c.88 1.471 3.422 10.315 4.078 12.506zM23.528 26.054c-.448-2.335-.64-6.141 2.127-8.588C6.355 12.621 3.86 7.487 3.86 7.487c-.432.288-1.472 6.365-2.143 9.307a2.83 2.83 0 0 0 0 .496v.176c.061.643.439 1.213 1.007 1.52 1.295 1.87 16.886 8.06 21.3 9.115.032 0-.272-.816-.496-2.047zm2.798 2.878c1.392 2.127 7.004 6.493 16.519 4.222a36.775 36.775 0 0 1-6.988-.88 18.435 18.435 0 0 1-3.374-1.135 8.155 8.155 0 0 1-2.095-1.183 8.652 8.652 0 0 1-2.159-8.46 3.79 3.79 0 0 1 3.47-3.198c.688-.064 10.186-.304 12.649-.16.927.064 1.231-.096 1.31-1.04.08-.943-.367-.975-1.166-.943-.8.032-8.875-.544-10.714-.544a10.73 10.73 0 0 0-2.798.208c-8.875 3.134-4.814 12.89-4.654 13.113zm61.964-.927c.655-.256 1.567-.288 1.71-5.038a18.39 18.39 0 0 0-.479-3.822c-.336-2.43-1.12-2.526-3.534-2.143-.767.16-36.554 3.47-52.337 3.47a9.896 9.896 0 0 1-1.807-.287c-1.04-.24-1.36.24-1.599 1.023-.116.424-.19.858-.224 1.296a8.525 8.525 0 0 0 .688 4.493c.432.96 4.141 4.574 13.112 4.574.624 0 43.255-3.23 43.702-3.342a7.88 7.88 0 0 0 .768-.224zm23.666-13.913c.687-.432.575-.72.208-1.935-.576-1.551-3.198-10.459-3.198-10.459C89.313 15.58 50.456 17.562 47.498 17.69c-.496.032-.928-.112-.896.672.032.783.656.4.976.4 36.618-2.64 38.121-3.55 40.472-3.854 1.167-.144 1.63.4 2.143 1.247a14.949 14.949 0 0 1 1.343 5.101c2.622.272 20.244-7.036 20.42-7.164z"
			id="aU"/>
		<path
			d="M8.037 19.98c-.64.4-3.661 1.966-4.157 1.327-.256-.32-1.327-14.585-3.198-19.382-.16-.416 3.39-1.344 3.646-.912 3.182 5.213 3.71 18.615 3.71 18.966z"
			id="aW"/>
		<path
			d="M.699 16.83C.81 16.27 3.897 2.757 4.92.278c.176-.431 4.318 2.24 4.206 2.75C8.181 7.172 4.712 19.757 4.472 20.3c-.24.544-3.454-.767-3.774-3.47z"
			id="aY"/>
		<path
			d="M13.843 3.213a.895.895 0 0 1-.784 1.184 1.6 1.6 0 0 1-.527 0 5.212 5.212 0 0 0-2.75.655 4.127 4.127 0 0 0-.576.8c-.16.288-3.918 15.544-3.918 15.64-.352 1.28-.576 1.423-1.951.656C1.962 21.38-.31 20.9.139 18.949A65.57 65.57 0 0 1 4.136 1.998c.096-.24.352-.944.352-.944.111-.265.268-.509.464-.72.072-.077.153-.147.24-.207a44.052 44.052 0 0 1 8.65 3.086zM3.737 20.005c.112-.576 3.566-13.897 4.093-15.048.4-.848.016-1.136-.367-1.36-.304-.192-.768-.384-1.44-.704a.8.8 0 0 0-.527-.111c-.144.048-.24.175-.32.415-2.079 4.59-3.47 14.569-3.47 14.793-.192 1.44.927 1.679 2.03 2.015z"
			id="ba"/>
		<path
			d="M4.56 23.346c-1.055-.4-.576-.991-.655-1.839A70.53 70.53 0 0 0 .706 3.804a4.012 4.012 0 0 1-.223-.8v-.127c-.01-.365.05-.73.175-1.072.48-.72 4.83-1.263 5.277-1.04.318.19.544.503.624.864l.272.928a67.412 67.412 0 0 1 3.31 19.19c-.784 1.487-5.181 1.6-5.58 1.6zM2.961 4.156l-.032-.08c1.615 3.518 3.246 16.328 3.374 16.871 0 .096 1.471-.351 1.6-.735.015-.048-.417-12.09-2.831-16.488-.368-.752-1.088-.32-1.6-.208-.511.112-.639.384-.511.64z"
			id="bc"/>
		<path
			d="M30.22 3.222l-1.95-.096v.64l1.599.096c.16 0 .16.064.16.176V4.5c-.016.16-.048.16-.176.16l-1.6-.096v.8l1.904.096c.16 0 .16.064.16.176v.48c-.016.16-.048.16-.192.16l-2.655-.128a.176.176 0 0 1-.175-.192l.191-3.55c.016-.16.048-.16.176-.16l2.575.127c.16.016.16.08.16.192v.496c0 .16-.048.16-.176.16zm-3.197-1.007h.08c.127 0 .16.064.08.032v.495a.16.16 0 0 1-.176.176h-.912l-.144 2.895c-.016.16-.08.16-.192.16h-.575c-.176-.016-.176-.048-.176-.176l.144-2.895h-.896c-.176 0-.176-.064-.176-.176v-.495c0-.16.048-.16.176-.16l2.767.144zm-4.702-.336l.08.016c.704 0 1.583.48 1.424 1.407v1.391a1.471 1.471 0 0 1-1.6 1.264 1.44 1.44 0 0 1-1.503-1.424V3.126a1.455 1.455 0 0 1 1.6-1.247zm.528 2.686l.08-1.231a.592.592 0 0 0-.624-.64.608.608 0 0 0-.703.464V4.485a.576.576 0 0 0 .543.64c.4.016.704-.176.704-.56zm-2.542-2.67s.112 0 .16.08l-.192 3.566c0 .16-.048.16-.192.16h-.528c-.144-.016-.256-.096-.256-.224l-1.151-2.095-.112 2.063c0 .16-.08.16-.192.16h-.576c-.16-.016-.16-.064-.16-.192l.128-3.566c.016-.16.048-.16.176-.16h.576c.144 0 .256.096.256.208l1.2 2.239.111-2.063c0-.176.064-.176.176-.176h.576zm-3.438-.176l-.048-.048c.144 0 .16.064.223.224v.352c-.015.175-.063.175-.191.175h-.912l-.144 2.895c-.016.16-.08.16-.192.16h-.575c-.16-.016-.16-.032-.16-.176l.144-2.895h-.912c-.176 0-.176-.064-.176-.175v-.496c.016-.16.048-.16.192-.16l2.75.144zm-3.198-.176l-.112-.048c.128 0 .16.08.08.24v.496c0 .16-.048.16-.192.16l-1.775-.096v.703h1.599c.16 0 .16.064.16.176v.48c0 .16-.032.16-.176.16l-1.6-.08v1.375c-.015.176-.047.176-.191.176h-.592c-.16-.016-.16-.08-.16-.192l.224-3.518c0-.16.048-.16.176-.16l2.559.128zm-3.199 3.582l-.08-.032c.016 0 .016.16-.111.16h-.624c-.128-.016-.208-.048-.208-.192l-.144-.48-1.471-.08-.176.464c-.064.176-.112.176-.24.176h-.623c-.096-.016-.096-.192-.096-.192l1.599-3.47a.24.24 0 0 1 .24-.176h.575a.256.256 0 0 1 .24.208l1.12 3.614zM8.25 3.685l.895.049-.384-1.328-.511 1.28zm-2.447 0l.56 1.12c.048.096.016.192-.096.192h-.704a.32.32 0 0 1-.287-.192l-.592-.991a.513.513 0 0 1 0-.304v-.48c.016-.16.048-.16.176-.16h.128a.528.528 0 0 0 .591-.448.496.496 0 0 0-.48-.527h-.783L4.3 4.805c0 .16-.064.16-.176.16h-.591c-.16 0-.16-.048-.16-.192l.191-3.534a.16.16 0 0 1 .176-.176l1.503.096c.432-.02.853.136 1.168.432.216.27.319.614.288.96-.031.528-.389.982-.896 1.135zM1.662 1.704l-.08-.096a.592.592 0 0 0-.496.656V3.51c-.016.368.32.608.64.624.32.016.64-.24.655-.368.016-.128.032-.224.16-.224h.592c.16.016.16.064.16.208a1.604 1.604 0 1 1-3.199-.256V2.087a1.44 1.44 0 0 1 1.6-1.232 1.391 1.391 0 0 1 1.487 1.2c0 .16-.048.16-.176.16h-.576c-.16 0-.16-.192-.16-.192a.671.671 0 0 0-.607-.32z"
			id="be"/>
		<path
			d="M4.668 3.376c0 .061-.05.111-.112.111l-4.397-.24a.096.096 0 0 1-.097-.111L.206.32C.206.26.257.21.319.21l4.398.24c.062 0 .112.05.112.112l-.16 2.815z"
			id="bg"/>
		<path
			d="M1.213 2.976c-.048-.016.016-.176.016-.176v-.704L.62.833h.352a.128.128 0 0 1 .144.096l.335.72.4-.672h.512a.08.08 0 0 1 0 .096l-.736 1.2v.703H1.213z"
			id="bi"/>
		<path
			d="M2.141 2.912c-.048 0-.288-.112-.288-.112V1.712l-.335.544h-.256l-.304-.592v1.088a.08.08 0 0 1-.096.096h-.32v-.096L.638.817C.638.72.654.72.734.72h.32c.144 0 .144.112.144.112l.4.831.463-.767c.032-.112.048-.112.16-.112l.352.655v1.376c-.016.096-.112.096-.112.096h-.32z"
			id="bk"/>
		<path
			d="M1.795 4.503l-.063.16a3.583 3.583 0 0 0 .607 2.08c.187.251.427.459.704.607.438.17.904.257 1.375.256h1.375c.23.037.404.23.416.464a.464.464 0 0 1-.464.463h-1.36a4.046 4.046 0 0 1-1.758-.367 2.8 2.8 0 0 1-1.023-.864A4.367 4.367 0 0 1 .82 4.599v-.176a4.494 4.494 0 0 1 1.055-2.606 2.83 2.83 0 0 1 1.088-.752A4.109 4.109 0 0 1 4.753.89h.209l2.126.128a.464.464 0 0 1 0 .928l-2.11-.112h-.224a3.583 3.583 0 0 0-1.391.112 2.032 2.032 0 0 0-.752.512 3.567 3.567 0 0 0-.816 2.046z"
			id="bm"/>
		<path
			d="M5.088 1.319l-3.853-.176a.464.464 0 0 1-.48-.48.48.48 0 0 1 .527-.415L5.12.456c.262-.001.48.202.496.463a.464.464 0 0 1-.528.4z"
			id="bo"/>
		<path
			d="M5.607 1.72l-4.413-.24a.48.48 0 0 1-.512-.464.512.512 0 0 1 .56-.432l4.397.24a.496.496 0 0 1 .512.48.48.48 0 0 1-.544.416z"
			id="bq"/>
		<path
			d="M4.024 1.982l-2.894-.16a.48.48 0 0 1-.48-.48.48.48 0 0 1 .528-.4l2.878.145a.48.48 0 0 1 .496.48.48.48 0 0 1-.528.415z"
			id="bs"/>
		<path
			d="M5.166 60.52c1.68-.336 1.807-3.47 1.759-4.958C5.918 21.26 24.531 11.041 28.528 8.322c3.198-2.127 5.037-5.261 11.322-5.021 1.998.08 11.225-6.909 18.725-.64.335.272 11.353-2.463 16.502 3.598.272.672 23.378 15.448 23.202 45.737a2.447 2.447 0 0 0 1.6 2.367c1.342.608.479 4.925.927 5.789.687 1.36 3.486 5.405 1.599 5.901-1.423.384-13.049-1.04-15.671-.528-11.961 3.215-45.749 2.671-83.327.768-1.615-.08-3.63-.528-3.31-2.127a21.826 21.826 0 0 1 5.07-3.646z"
			id="bu"/>
		<path
			d="M81.058 10.306a53.575 53.575 0 0 1 20.069 43.786c-.016.672.208.944.88.944 1.006 0 1.39.655 1.39 1.599a21.91 21.91 0 0 0 .32 4.654c1.6.64 1.6 2.222 1.6 3.47.239 3.95.623 3.95-3.647 4.365-.543.049-8.01.304-8.539-.367-.88-1.216-2.99-.224-3.55-.128-9.466 2.542-35.563 4.685-84.35.368-1.2-.124-2.384-.37-3.534-.736-1.151-.272-1.359-.848-.72-1.871a13.353 13.353 0 0 1 4.446-4.174 3.982 3.982 0 0 0 2.223-4.014 92.123 92.123 0 0 1 1.343-17.031 49.337 49.337 0 0 1 11.193-23.316 71.795 71.795 0 0 1 6.988-7.133 8.314 8.314 0 0 1 3.038-1.6c.54-.141 1-.492 1.28-.975a9.179 9.179 0 0 1 7.34-4.27c1.44-.179 2.9-.108 4.317.208a1.04 1.04 0 0 0 1.071-.335c1.743-1.568 8.107-5.997 16.359-.768.191.144.48 0 .703 0a20.786 20.786 0 0 1 12.953 1.6 6.604 6.604 0 0 1 3.661 2.798 4.413 4.413 0 0 0 1.727 1.855c.513.311.994.67 1.44 1.071zm21.716 53.461c-3.902.064-7.852-.911-11.721.464-1.344.496-1.6.224-1.6-1.2.176-2.878.416-5.756.64-8.635.048-.56.368-.656.896-.56 1.814.346 3.644.597 5.484.752 2.031.128 2.127.16 2.031-1.84-.24-4.413-1.63-27.905-21.475-41.978a6.54 6.54 0 0 0-7.452-.576c-9.05 5.262-16.198 25.587-16.342 25.587 1.423-6.124 5.197-24.115 18.869-29.105a15.799 15.799 0 0 0-9.595-1.6c-1.062.401-2.24.367-3.278-.095-1.039-.672-8.603-4.238-13.831.416a3.613 3.613 0 0 1-3.262 1.055c-5.485-.8-8.396 1.6-11.194 6.397-4.253 7.164-8.299 32.96-8.49 32.96.319-12.538 3.325-23.525 6.715-33.792.112-.223-20.228 14.553-19.412 46.345.032.96.415 1.327 1.343 1.12 8.89-1.936 29.726-1.312 30.126-1.312 0 0-19.285.528-27.84 2.75-2.222.448-8.347 3.135-10.042 5.246 2.447 1.36 55.967 5.357 88.812-.288 1.087-.192 2.047-.32 2.686.848.192.352.608.352.96.352 2.206.127 4.413.223 6.62.223 1.167-.08 1.471-.56 1.295-1.599-.16-.384-.08-.735-.16-1.183-.08-.448-.288-.752-.783-.752zm-11.37-8.795c-1.23 0-.815 6.093-.943 7.66-.064.751.176.88.895.623 2.543-.911 2.543-.88 2.543-3.582 0-.16.08-1.919.08-2.654.032-1.616-.48-2.127-2.575-2.047zm10.138 4.11v-.016c-.08-1.951-.096-1.951-2.078-2.191-.496-.08-1.04-.288-1.6-.288-3.022-.384-3.022-.384-3.022 2.59 0 1.088-.144 3.007.16 3.199.848.544 5.581.416 6.253.416.847-.272.287-2.91.287-3.71z"
			id="bw"/>
		<path
			d="M11.28 2.579H1.414a1.087 1.087 0 0 1-1.2-.992V1.46a1.12 1.12 0 0 1 1.2-.992h9.866a1.135 1.135 0 0 1 1.2.992v.127a1.103 1.103 0 0 1-1.2.992z"
			id="by"/>
		<path
			d="M10.082 2.29h-8.57C.921 2.325.41 1.885.36 1.297V1.17A1.071 1.071 0 0 1 1.495.178h8.587a1.071 1.071 0 0 1 1.151.992v.128a1.087 1.087 0 0 1-1.15.991z"
			id="bA"/>
		<path
			d="M1.686 2.983l-.016-.016a1.087 1.087 0 0 1-1.135-.991v-.112A1.071 1.071 0 0 1 1.67.872h6.396a1.071 1.071 0 0 1 1.151.992v.128a1.071 1.071 0 0 1-1.135.991H1.686z"
			id="bC"/>
		<path
			d="M3.752 4.404a7.997 7.997 0 0 0-1.63 4.734v.383c.04 1.665.599 3.275 1.598 4.606.43.53.977.952 1.6 1.231a7.531 7.531 0 0 0 3.197.416h3.007a1.04 1.04 0 0 1 0 2.08h-2.99a9.336 9.336 0 0 1-3.966-.592A6.396 6.396 0 0 1 2.2 15.454 10.044 10.044 0 0 1 .106 9.505v-.383A9.947 9.947 0 0 1 2.17 3.157 6.397 6.397 0 0 1 4.488 1.35 9.21 9.21 0 0 1 8.453.742h5.23c.573 0 1.039.465 1.039 1.04a1.055 1.055 0 0 1-1.04.975H8.453a7.531 7.531 0 0 0-3.102.416 4.476 4.476 0 0 0-1.599 1.231z"
			id="bE"/>
	</defs>
	<g fill="none" fill-rule="evenodd">
		<g transform="translate(55 62)">
			<mask id="b" fill="#fff">
				<use xlink:href="#a"/>
			</mask>
			<path fill="#E5E5E5" mask="url(#b)" d="M-4.983-4.196h305.406v305.368H-4.983z"/>
		</g>
		<g transform="translate(159 40)">
			<mask id="d" fill="#fff">
				<use xlink:href="#c"/>
			</mask>
			<path fill="#FCC288" mask="url(#d)" d="M-4.572-4.838h98.53v173.282h-98.53z"/>
		</g>
		<g transform="translate(168 82)">
			<mask id="f" fill="#fff">
				<use xlink:href="#e"/>
			</mask>
			<path fill="#FFF" mask="url(#f)" d="M-4.739-4.111h23.304v15.04H-4.739z"/>
		</g>
		<g transform="translate(176 117)">
			<mask id="h" fill="#fff">
				<use xlink:href="#g"/>
			</mask>
			<path fill="#FFF" mask="url(#h)" d="M-4.903-4.99h35.597v16.275H-4.903z"/>
		</g>
		<g transform="translate(198 84)">
			<mask id="j" fill="#fff">
				<use xlink:href="#i"/>
			</mask>
			<path fill="#FFF" mask="url(#j)" d="M-4.392-4.277h22.365v14.72H-4.392z"/>
		</g>
		<g transform="translate(199 91)">
			<mask id="l" fill="#fff">
				<use xlink:href="#k"/>
			</mask>
			<path fill="#A76630" mask="url(#l)" d="M-4.263-4.5h21.97V9.574h-21.97z"/>
		</g>
		<g transform="translate(168 89)">
			<mask id="n" fill="#fff">
				<use xlink:href="#m"/>
			</mask>
			<path fill="#A76630" mask="url(#n)" d="M-4.467-4.7h22.904V8.42H-4.467z"/>
		</g>
		<g transform="translate(212 90)">
			<mask id="p" fill="#fff">
				<use xlink:href="#o"/>
			</mask>
			<path fill="#A76630" mask="url(#p)" d="M-4.525-4.486H11.04V7.559H-4.525z"/>
		</g>
		<g transform="translate(166 87)">
			<mask id="r" fill="#fff">
				<use xlink:href="#q"/>
			</mask>
			<path fill="#A76630" mask="url(#r)" d="M-4.133-4.843H8.602V8.39H-4.133z"/>
		</g>
		<g transform="translate(198 89)">
			<mask id="t" fill="#fff">
				<use xlink:href="#s"/>
			</mask>
			<path fill="#A76630" mask="url(#t)" d="M-4.326-4.536H8.458V6.833H-4.326z"/>
		</g>
		<g transform="translate(171 82)">
			<mask id="v" fill="#fff">
				<use xlink:href="#u"/>
			</mask>
			<path fill="#494649" mask="url(#v)" d="M-4.035-4.57h16.203v15.192H-4.035z"/>
		</g>
		<g transform="translate(203 84)">
			<mask id="x" fill="#fff">
				<use xlink:href="#w"/>
			</mask>
			<path fill="#49464A" mask="url(#x)" d="M-4.792-4.455h15.769v14.814h-15.77z"/>
		</g>
		<g transform="translate(234 84)">
			<mask id="z" fill="#fff">
				<use xlink:href="#y"/>
			</mask>
			<path fill="#7C4B31" mask="url(#z)" d="M-4.01-4.29h16.444v21.974H-4.01z"/>
		</g>
		<g transform="translate(187 101)">
			<mask id="B" fill="#fff">
				<use xlink:href="#A"/>
			</mask>
			<path fill="#7C4B31" mask="url(#B)" d="M-4.378-4.55H17.39v16.3H-4.378z"/>
		</g>
		<g transform="translate(178 100)">
			<mask id="D" fill="#fff">
				<use xlink:href="#C"/>
			</mask>
			<path fill="#7C4B31" mask="url(#D)" d="M-4.964-4.554h21.758v17.756H-4.963z"/>
		</g>
		<g transform="translate(172 115)">
			<mask id="F" fill="#fff">
				<use xlink:href="#E"/>
			</mask>
			<path fill="#7C4B31" mask="url(#F)" d="M-4.317-4.282h44.243v18.875H-4.317z"/>
		</g>
		<g transform="translate(237 92)">
			<mask id="H" fill="#fff">
				<use xlink:href="#G"/>
			</mask>
			<path fill="#7C4B31" mask="url(#H)" d="M-4.34-4.79h15.853v22.154H-4.34z"/>
		</g>
		<g transform="translate(160 69)">
			<mask id="J" fill="#fff">
				<use xlink:href="#I"/>
			</mask>
			<path fill="#7C4B31" mask="url(#J)" d="M-4.782-4.482h65.36v91.578h-65.36z"/>
		</g>
		<g transform="translate(201 131)">
			<mask id="L" fill="#fff">
				<use xlink:href="#K"/>
			</mask>
			<path fill="#7C4B31" mask="url(#L)" d="M-4.632-4.753h30.701v28.669H-4.632z"/>
		</g>
		<g transform="translate(229 81)">
			<mask id="N" fill="#fff">
				<use xlink:href="#M"/>
			</mask>
			<path fill="#7C4B31" mask="url(#N)" d="M-4.351-4.85h29.137v70.507H-4.351z"/>
		</g>
		<g transform="translate(194 82)">
			<mask id="P" fill="#fff">
				<use xlink:href="#O"/>
			</mask>
			<path fill="#7C4B31" mask="url(#P)" d="M-4.43-4.796h34.392V13.98H-4.43z"/>
		</g>
		<g transform="translate(166 78)">
			<mask id="R" fill="#fff">
				<use xlink:href="#Q"/>
			</mask>
			<path fill="#7C4B31" mask="url(#R)" d="M-4.036-4.257h27.355v28H-4.036z"/>
		</g>
		<g transform="translate(197 83)">
			<mask id="T" fill="#fff">
				<use xlink:href="#S"/>
			</mask>
			<path fill="#2A1B13" mask="url(#T)" d="M-4.305-4.132h25.612v15.688H-4.305z"/>
		</g>
		<g transform="translate(166 82)">
			<mask id="V" fill="#fff">
				<use xlink:href="#U"/>
			</mask>
			<path fill="#2A1B13" mask="url(#V)" d="M-4.022-4.8H21.01V9.47H-4.02z"/>
		</g>
		<g transform="translate(157 21)">
			<mask id="X" fill="#fff">
				<use xlink:href="#W"/>
			</mask>
			<path fill="#6A4F3D" mask="url(#X)" d="M-4.388-4.604h97.284v81.806H-4.388z"/>
		</g>
		<g transform="translate(156 16)">
			<mask id="Z" fill="#fff">
				<use xlink:href="#Y"/>
			</mask>
			<path fill="#543F30" mask="url(#Z)" d="M-4.348-4.187h99.755v90.012H-4.348z"/>
		</g>
		<g transform="translate(194 76)">
			<mask id="ab" fill="#fff">
				<use xlink:href="#aa"/>
			</mask>
			<path fill="#543F30" mask="url(#ab)" d="M-4.822-4.624h31.21V9.728h-31.21z"/>
		</g>
		<g transform="translate(163 75)">
			<mask id="ad" fill="#fff">
				<use xlink:href="#ac"/>
			</mask>
			<path fill="#543F30" mask="url(#ad)" d="M-4.629-4.855h29.465v15.223H-4.629z"/>
		</g>
		<g transform="translate(173 83)">
			<mask id="af" fill="#fff">
				<use xlink:href="#ae"/>
			</mask>
			<path fill="#000" mask="url(#af)" d="M-4.334-4.265H8.538V8.31H-4.334z"/>
		</g>
		<g transform="translate(204 85)">
			<mask id="ah" fill="#fff">
				<use xlink:href="#ag"/>
			</mask>
			<path fill="#000" mask="url(#ah)" d="M-4.584-4.57H8.24V7.909H-4.584z"/>
		</g>
		<g transform="translate(174 83)">
			<mask id="aj" fill="#fff">
				<use xlink:href="#ai"/>
			</mask>
			<path fill="#FFF" mask="url(#aj)" d="M-4.361-4.393H7.176V7.063H-4.361z"/>
		</g>
		<g transform="translate(205 85)">
			<mask id="al" fill="#fff">
				<use xlink:href="#ak"/>
			</mask>
			<path fill="#FFF" mask="url(#al)" d="M-4.39-4.544H7.157V6.913H-4.391z"/>
		</g>
		<g transform="translate(156 75)">
			<mask id="an" fill="#fff">
				<use xlink:href="#am"/>
			</mask>
			<path fill="#655E62" mask="url(#an)" d="M-4.977-4.452H95.375V29.81H-4.977z"/>
		</g>
		<g transform="translate(284 256)">
			<mask id="ap" fill="#fff">
				<use xlink:href="#ao"/>
			</mask>
			<path fill="#FEC288" mask="url(#ap)" d="M-4.168-4.899h117.705v149.584H-4.168z"/>
		</g>
		<g transform="translate(89 246)">
			<mask id="ar" fill="#fff">
				<use xlink:href="#aq"/>
			</mask>
			<path fill="#FEC288" mask="url(#ar)" d="M-4.969-4.54h71.56V99.03h-71.56z"/>
		</g>
		<g transform="translate(284 259)">
			<mask id="at" fill="#fff">
				<use xlink:href="#as"/>
			</mask>
			<path fill="#7F4F36" mask="url(#at)" d="M-4.615-4.706h119.563v147.661H-4.615z"/>
		</g>
		<g transform="translate(87 247)">
			<mask id="av" fill="#fff">
				<use xlink:href="#au"/>
			</mask>
			<path fill="#7F4F36" mask="url(#av)" d="M-4.443-4.748h64.037v103.65H-4.443z"/>
		</g>
		<g transform="translate(121 251)">
			<mask id="ax" fill="#fff">
				<use xlink:href="#aw"/>
			</mask>
			<path fill="#7F4F36" mask="url(#ax)" d="M-4.016-4.447H25.91v62.424H-4.015z"/>
		</g>
		<g transform="translate(168 149)">
			<mask id="az" fill="#fff">
				<use xlink:href="#ay"/>
			</mask>
			<path fill="#FFF" mask="url(#az)" d="M-4.696-4.867h54.251v64.862H-4.696z"/>
		</g>
		<g transform="translate(83 129)">
			<mask id="aB" fill="#fff">
				<use xlink:href="#aA"/>
			</mask>
			<path fill="#4D4D4D" mask="url(#aB)" d="M-4.915-4.481h259.72v207.178H-4.916z"/>
		</g>
		<g transform="translate(80 125)">
			<mask id="aD" fill="#fff">
				<use xlink:href="#aC"/>
			</mask>
			<path fill="#202020" mask="url(#aD)" d="M-4.02-4.303h264.575v209.931H-4.02z"/>
		</g>
		<g transform="translate(138 314)">
			<mask id="aF" fill="#fff">
				<use xlink:href="#aE"/>
			</mask>
			<path fill="#44689B" mask="url(#aF)" d="M-4.929-4.214h126.22v53.418H-4.93z"/>
		</g>
		<g transform="translate(133 312)">
			<mask id="aH" fill="#fff">
				<use xlink:href="#aG"/>
			</mask>
			<path fill="#1F385C" mask="url(#aH)" d="M-4.007-4.534h131.449v54.81H-4.007z"/>
		</g>
		<g transform="translate(177 331)">
			<mask id="aJ" fill="#fff">
				<use xlink:href="#aI"/>
			</mask>
			<path fill="#1F385C" mask="url(#aJ)" d="M-4.233-4.109h15.18v15.406h-15.18z"/>
		</g>
		<g transform="translate(140 312)">
			<mask id="aL" fill="#fff">
				<use xlink:href="#aK"/>
			</mask>
			<path fill="#563F2D" mask="url(#aL)" d="M-4.323-4.554h122.637v44.142H-4.323z"/>
		</g>
		<g transform="translate(183 336)">
			<mask id="aN" fill="#fff">
				<use xlink:href="#aM"/>
			</mask>
			<path fill="#3B2F25" mask="url(#aN)" d="M-4.917-4.178H7.377V7.834H-4.917z"/>
		</g>
		<g transform="translate(195 336)">
			<mask id="aP" fill="#fff">
				<use xlink:href="#aO"/>
			</mask>
			<path fill="#3B2F25" mask="url(#aP)" d="M-4.526-4.77H7.708V7.356H-4.526z"/>
		</g>
		<g transform="translate(173 336)">
			<mask id="aR" fill="#fff">
				<use xlink:href="#aQ"/>
			</mask>
			<path fill="#3B2F25" mask="url(#aR)" d="M-4.671-4.024H7.51V7.997H-4.67z"/>
		</g>
		<g transform="translate(207 335)">
			<mask id="aT" fill="#fff">
				<use xlink:href="#aS"/>
			</mask>
			<path fill="#3B2F25" mask="url(#aT)" d="M-4.434-4.793H7.934V7.31H-4.434z"/>
		</g>
		<g transform="translate(140 312)">
			<mask id="aV" fill="#fff">
				<use xlink:href="#aU"/>
			</mask>
			<path fill="#3B2F25" mask="url(#aV)" d="M-4.823-4.997h123.828v45.378H-4.823z"/>
		</g>
		<g transform="translate(214 323)">
			<mask id="aX" fill="#fff">
				<use xlink:href="#aW"/>
			</mask>
			<path fill="#486B9E" mask="url(#aX)" d="M-4.323-4.099h17.36v30.557h-17.36z"/>
		</g>
		<g transform="translate(145 321)">
			<mask id="aZ" fill="#fff">
				<use xlink:href="#aY"/>
			</mask>
			<path fill="#486B9E" mask="url(#aZ)" d="M-4.301-4.769h18.429v30.19h-18.43z"/>
		</g>
		<g transform="translate(145 320)">
			<mask id="bb" fill="#fff">
				<use xlink:href="#ba"/>
			</mask>
			<path fill="#1F385C" mask="url(#bb)" d="M-4.919-4.873h23.81v32.49h-23.81z"/>
		</g>
		<g transform="translate(213 322)">
			<mask id="bd" fill="#fff">
				<use xlink:href="#bc"/>
			</mask>
			<path fill="#1F385C" mask="url(#bd)" d="M-4.519-4.285h19.66v32.631H-4.52z"/>
		</g>
		<g transform="translate(193 208)">
			<mask id="bf" fill="#fff">
				<use xlink:href="#be"/>
			</mask>
			<path fill="#FFF" mask="url(#bf)" d="M-4.91-4.155h40.307v15.431H-4.911z"/>
		</g>
		<g transform="translate(193 205)">
			<mask id="bh" fill="#fff">
				<use xlink:href="#bg"/>
			</mask>
			<path fill="#FF5C20" mask="url(#bh)" d="M-4.939-4.79H9.828V8.486H-4.94z"/>
		</g>
		<g transform="translate(195 205)">
			<mask id="bj" fill="#fff">
				<use xlink:href="#bi"/>
			</mask>
			<path fill="#FFF" mask="url(#bj)" d="M-4.379-4.169H7.38V7.976H-4.379z"/>
		</g>
		<g transform="translate(193 205)">
			<mask id="bl" fill="#fff">
				<use xlink:href="#bk"/>
			</mask>
			<path fill="#FFF" mask="url(#bl)" d="M-4.458-4.28H7.573V7.913h-12.03z"/>
		</g>
		<g transform="translate(183 204)">
			<mask id="bn" fill="#fff">
				<use xlink:href="#bm"/>
			</mask>
			<path fill="#FF5C20" mask="url(#bn)" d="M-4.185-4.142h16.737v17.676H-4.185z"/>
		</g>
		<g transform="translate(185 208)">
			<mask id="bp" fill="#fff">
				<use xlink:href="#bo"/>
			</mask>
			<path fill="#FF5C20" mask="url(#bp)" d="M-4.245-4.755h14.861V6.324H-4.245z"/>
		</g>
		<g transform="translate(186 206)">
			<mask id="br" fill="#fff">
				<use xlink:href="#bq"/>
			</mask>
			<path fill="#FF5C20" mask="url(#br)" d="M-4.318-4.418h15.47V6.725h-15.47z"/>
		</g>
		<g transform="translate(186 209)">
			<mask id="bt" fill="#fff">
				<use xlink:href="#bs"/>
			</mask>
			<path fill="#FF5C20" mask="url(#bt)" d="M-4.35-4.06H9.552V6.985H-4.35z"/>
		</g>
		<g transform="translate(148 5)">
			<mask id="bv" fill="#fff">
				<use xlink:href="#bu"/>
			</mask>
			<path fill="#FE5C20" mask="url(#bv)" d="M-4.937-4.952h112.985v77.781H-4.937z"/>
		</g>
		<g transform="translate(146 3)">
			<mask id="bx" fill="#fff">
				<use xlink:href="#bw"/>
			</mask>
			<path fill="#A0370F" mask="url(#bx)" d="M-4.38-4.496h114.828v80.963H-4.379z"/>
		</g>
		<g transform="translate(179 41)">
			<mask id="bz" fill="#fff">
				<use xlink:href="#by"/>
			</mask>
			<path fill="#FFF" mask="url(#bz)" d="M-4.785-4.535H17.48v12.12H-4.785z"/>
		</g>
		<g transform="translate(177 45)">
			<mask id="bB" fill="#fff">
				<use xlink:href="#bA"/>
			</mask>
			<path fill="#FFF" mask="url(#bB)" d="M-4.64-4.825h20.873V7.29H-4.64z"/>
		</g>
		<g transform="translate(179 48)">
			<mask id="bD" fill="#fff">
				<use xlink:href="#bC"/>
			</mask>
			<path fill="#FFF" mask="url(#bD)" d="M-4.465-4.13h18.682V7.984H-4.466z"/>
		</g>
		<g transform="translate(173 37)">
			<mask id="bF" fill="#fff">
				<use xlink:href="#bE"/>
			</mask>
			<path fill="#FFF" mask="url(#bF)" d="M-4.894-4.28h24.616v27.155H-4.894z"/>
		</g>
	</g>
</svg>
