<svg height="397" viewBox="0 0 394 397" width="394" xmlns="http://www.w3.org/2000/svg">
	<mask id="a" fill="#fff">
		<path
			d="m83.1509 281.36316c-1.3911-.63968-2.7184-1.31134-4.0136-2.04697-61.3097-32.15059-92.06234-102.57589-73.97345-169.40329 18.08885-66.8274 80.16455-112.1216 149.31885-108.9523 69.1544 3.1694 126.8275 53.9519 138.729 122.1538 11.9014 68.2019-25.1631 135.519-89.1561 161.9269l-2.1267.86356-1.3432.51174-1.1514.44777-.5756.2079c-1.2313.46376-2.4786.89554-3.7258 1.31133-3.3101 1.13543-6.6681 2.12693-10.0741 3.02247-.8795.23988-1.7749.46377-2.6704.67166l-.6876.17591c-1.3112.30385-2.6384.5917-3.9497.86357-9.886 2.03379-19.9532 3.054456-30.0462 3.054456-4.3708 0-8.6882-.186576-12.9524-.559726l-2.3346-.22388-1.5991-.15992c-1.0394-.11195-2.0468-.23988-3.0862-.38381-1.0393-.14393-2.2067-.30384-3.1981-.46376s-1.9828-.31984-2.9582-.51174l-.6237-.11195c-1.599-.28785-3.1981-.60769-4.7971-.95951-8.9565-1.94524-17.71-4.72946-26.1446-8.31579-1.1993-.51174-2.3826-1.03947-3.5819-1.59919h-.0799l-1.3433-.62369c-.6236-.28785-1.2472-.5757-1.8549-.89554z"
			fill="#fff" fill-rule="evenodd"/>
	</mask>
	<mask id="b" fill="#fff">
		<path
			d="m29.6811.5725c57.1823-5.7731 42.2151 51.1901 42.391 52.5334.7196-3.9021 16.0705-21.9249 16.8861-1.3433-1.5991 3.87-9.9302 20.4536-14.3915 20.4536-.7516 0-1.5192 21.2212-3.1982 26.9304-2.8463 9.819-27.9835 21.4931-28.9429 22.3886-13.7998 13.0014-26.7042 38.1247-29.1668 41.8828-.7196 1.0395-.6876-29.8249-3.1981-50.2625-1.2792-9.931 3.5979-15.5122 3.1981-15.784-.8955-.6077-14.2316-20.7895-9.8182-39.9798.3838-1.7111-.7675-12.2978-1.9348-18.4387-7.3397-38.7803 25.1211-38.0607 28.1753-38.3805z"
			fill="#fff" fill-rule="evenodd"/>
	</mask>
	<mask id="c" fill="#fff">
		<path
			d="m13.5653 4.1654c-.032.5917-3.7098 1.1194-4.6532 1.3913-3.2461 1.1194-6.2523-.4478-8.6509-2.4788 0 0 7.1478-4.9255 11.0175 0 .2558.3199 2.2866.5757 2.2866 1.0875z"
			fill="#fff" fill-rule="evenodd"/>
	</mask>
	<mask id="d" fill="#fff">
		<path
			d="m14.7919.6534c.4157-.0799 11.3213 1.7592 10.8896 2.079-9.5944 8.0119-23.1864.2559-25.5849-1.7911 2.7559-.821 5.6442-1.1034 8.5069-.8316 1.727.1439 2.4626 1.2474 6.1884.5437z"
			fill="#fff" fill-rule="evenodd"/>
	</mask>
	<mask id="e" fill="#fff">
		<path
			d="m11.7567 5.0759c-6.1404 1.5192-11.833-2.1589-11.0815-2.1269 1.759.2878 3.9497-5.1494 11.5452 0 1.1354.8156.9914 1.7751-.4637 2.1269z"
			fill="#fff" fill-rule="evenodd"/>
	</mask>
	<mask id="f" fill="#fff">
		<path d="m12.7075 4.0569c-3.0861 1.7111-11.1933-1.1834-11.9609-3.4863-.2558-.7356 4.8931 4.5417 11.9609 3.4863z"
					fill="#fff" fill-rule="evenodd"/>
	</mask>
	<mask id="g" fill="#fff">
		<path d="m.533 3.2103c4.4162-.3629 8.7599-1.3426 12.9044-2.9105-1.0394.8316-7.6595 3.95-12.9044 2.9105z" fill="#fff"
					fill-rule="evenodd"/>
	</mask>
	<mask id="h" fill="#fff">
		<path
			d="m3.6732.6591c.7771-.1987 1.5923-.1932 2.3666.016-2.7664.6237-3.31 2.031-5.5647 1.8711 1.2691-.1941 2.4146-.87 3.1981-1.8871z"
			fill="#fff" fill-rule="evenodd"/>
	</mask>
	<mask id="i" fill="#fff">
		<path d="m3.5884 3.3553c.2878.3198-4.2535-1.5992-2.1747-3.1984.0639 1.4872 1.2792 2.2229 2.1747 3.1984z" fill="#fff"
					fill-rule="evenodd"/>
	</mask>
	<mask id="j" fill="#fff">
		<path d="m3.4576 1.819c-1.8069-.3998-2.6384-1.5992-2.7504-1.3113-.3838.8476 2.7024 1.4233 2.7504 1.3113z"
					fill="#fff" fill-rule="evenodd"/>
	</mask>
	<mask id="k" fill="#fff">
		<path d="m6.5197 4.3893c-2.9902 3.6621-8.8268-1.7911-3.1981-3.95 1.1993-.128 5.4528 1.1994 3.1981 3.95z" fill="#fff"
					fill-rule="evenodd"/>
	</mask>
	<mask id="l" fill="#fff">
		<path d="m5.9092 2.2613c.9275 5.5972-8.0273 2.5907-5.117-1.0394.5917-.7197 4.3974-1.4233 5.117 1.0394z" fill="#fff"
					fill-rule="evenodd"/>
	</mask>
	<mask id="m" fill="#fff">
		<path
			d="m1.6934 8.4022c.2227-3.4743 2.4735-6.4902 5.7406-7.6921-.064.3838-5.133 5.1174-3.5339 7.1484 1.8389 3.3743-1.4392 5.0694-2.0948 4.7976-.6556-.2719-1.0553-.6557-.6556-1.4553.3894-.8801.5753-1.8367.5437-2.7986z"
			fill="#fff" fill-rule="evenodd"/>
	</mask>
	<mask id="n" fill="#fff">
		<path
			d="m10.316 4.5316c1.3113-1.0395 1.3912-1.4553.4478-2.9265-.2239-.3199-.6716-.6717-.2239-1.0235s.7995.0799 1.0874.4158c1.0234 1.1674 1.3272 2.7666-1.0874 4.7975-1.2792 1.0555-2.0788 1.3114-3.4699.3838-2.8304-1.935-5.6927-.1759-6.3963-.6716-.2079-.6237.2559-.8636.6716-1.1194 2.0903-1.2785 4.7757-1.0106 6.5722.6556.7035.6077 1.1513.5757 1.7269 0 .214-.1832.4382-.3541.6716-.5117z"
			fill="#fff" fill-rule="evenodd"/>
	</mask>
	<mask id="o" fill="#fff">
		<path
			d="m.1274 3.1168c.1759-.9595.1279-1.967 1.1673-2.6706-.8015 1.3334-.8015 3.0003 0 4.3338.2238.2878.4317.5437.7515.1919.7196-.7676 1.4552-.4638 2.1428 0 1.3592.9595 3.1021 1.3273 4.5573 2.1589.2748.0504.5566.0504.8315 0h2.1427c.2399.4957-.1599.7516-.3997 1.0714-2.6205-.3702-5.2044-.9641-7.7235-1.7751-.2288-.0671-.4652-.1047-.7036-.1119-.8427.1053-1.6824-.2172-2.2381-.8596-.5556-.6425-.7538-1.5199-.5282-2.3388z"
			fill="#fff" fill-rule="evenodd"/>
	</mask>
	<mask id="p" fill="#fff">
		<path
			d="m1.8579 2.8613c-.2079-.0319-.5277-.4158-1.1673-1.0554-.1439-.144 1.8389-1.0875 1.8389-1.0875 2.6384.8636 5.2769.064 7.8993.2079 1.5287-.114 3.0561.2372 4.3814 1.0075.3651.265.836.3366 1.2633.1919.7172-.3375 1.4947-.5278 2.2866-.5597 3.433.2716 6.8457.7576 10.218 1.4553 1.1895.4348 2.5209.1965 3.486-.6237.2398-.2079 2.8623.9435 2.8623.9435-.9115.032-.9755.08-1.1673.1439-.1919.064-5.5168 3.5182-7.3077 4.4138-5.3611 2.3708-11.4964 2.2479-16.7581-.3358-2.0861-.9297-4.0383-2.1344-5.8046-3.5822-.5294-.594-1.246-.989-2.0308-1.1195zm9.9301 0c-1.8968-.0997-3.7987.04-5.6606.4158 7.0838 5.2614 14.7912 5.2614 22.1949 1.5512-1.3752-.2558-8.619-1.887-10.1221-1.2473-1.4818.5718-3.1234.5718-4.6052 0z"
			fill="#fff" fill-rule="evenodd"/>
	</mask>
	<mask id="q" fill="#fff">
		<path
			d="m5.5853 6.2872c-.7675 2.3509-3.326 2.6867-4.9251 6.077.2205-1.2527.7727-2.4234 1.5991-3.3903.6556-.7037 2.7983-1.5512 2.9582-4.4937.2468-1.473.6821-2.9081 1.2953-4.2699-.0914 2.053-.4023 4.0902-.9275 6.0769z"
			fill="#fff" fill-rule="evenodd"/>
	</mask>
	<mask id="r" fill="#fff">
		<path
			d="m3.56 30.4067c.2878 3.934-.2399 7.852-.032 11.786.1896 3.5642 1.024 7.0644 2.4625 10.3308 1.9272 4.1989 4.2681 8.1953 6.9879 11.9299 1.1353 1.5992 2.4306 3.1984 3.5499 4.7976 1.1064 1.6393 2.8438 2.7455 4.7972 3.0545 3.0382.5277 6.0604 1.1834 9.1466 1.4232 4.3634.3015 8.7174-.7064 12.5046-2.8945 3.7898-2.1429 11.7211-7.6921 12.6006-7.6921-1.2153 1.2154-2.2067 2.2868-3.3261 3.1984-2.3666 1.871-11.5931 10.8105-24.7534 9.867-7.5155-.9755-11.2253-3.1504-11.9609-3.7901s-1.0554-.4638-1.3912.3518-4.9571 9.1794-5.133 9.3233.3518-4.2538-.5596-4.7976c-.4158-.2398.5916-3.2463 1.0394-4.1419.8681-1.7638 1.2961-3.7117 1.2472-5.6771.0399-1.1261-.3953-2.2171-1.1993-3.0065-5.5967-5.4212-7.8194-12.3297-8.7948-19.8139-.6167-4.1403-.5031-8.3567.3358-12.4577.048-.2719-.8635-20.9494-.8635-22.5486 0-1.1354 0-7.98 0-9.1314 1.6471.4478 2.8304 22.8684 3.3421 29.8889z"
			fill="#fff" fill-rule="evenodd"/>
	</mask>
	<mask id="s" fill="#fff">
		<path d="m21.0694.2466c-8.6828 12.6496-20.356 19.2382-20.6918 18.6305-.3358-.6077 7.8994-4.8615 20.6918-18.6305z"
					fill="#fff" fill-rule="evenodd"/>
	</mask>
	<mask id="t" fill="#fff">
		<path
			d="m9.1719 25.8909c.3838-1.5192 1.743-2.5427 2.5585-3.8541.3518-.5437 9.1946-11.786 5.3729-18.0388-.2239-.3678-1.775-2.7186-2.0788-3.0065-.8155-.7836 1.2792-1.0235 1.599-.7036 6.3963 6.3967 1.3752 14.8724-.2238 17.591-1.0554 1.6952-2.1108 3.4063-3.1981 5.0055-1.0381 1.5249-1.8916 3.1675-2.5425 4.8935-.5331 1.7691-1.9025 3.1625-3.6619 3.7261-.5989.1301-1.0214.6667-1.0074 1.2794-.4477 4.6057-.3518 9.2593-.3518 13.881-.1919 1.5192-4.989 15.0324-4.989 13.9289 0-1.7911 1.3911-13.3052 1.599-17.3512.3038-6.0609.7356-19.8459 1.0554-20.6136.3102 1.4832.4656 2.9945.4637 4.5098.016 1.5032.2719 1.7271 1.743 1.5991 1.7487.063 3.2913-1.1362 3.6618-2.8465z"
			fill="#fff" fill-rule="evenodd"/>
	</mask>
	<mask id="u" fill="#fff">
		<path
			d="m3.316.3113c.2879.2879.112.6237-.0479.7996-.6716.5757-.3039 1.1514 0 1.5992.3038.4478.5277.6237 1.0234.2239 1.1342-.8417 2.4385-1.4256 3.8217-1.7111 1.4913-.4626 3.1079-.2829 4.4614.4957 2.6271 1.6893 5.1526 3.5316 7.5635 5.5172.8628.6528 1.9526.9296 3.0222.7676.6077-.016 2.1588-.2878 1.727.4638-.8955 1.5512-5.6606-.7836-7.5315-2.1109-2.2266-1.639-4.6102-3.0532-7.1158-4.2219-1.1034-.5437-3.9817.6077-5.9006 2.031-.9114.6716-1.1673.3038-1.599-.4318-.4318-.7356-.7836-1.1194-1.2473 0-.1279.3038-.2718.8156-.7036.6237-.4317-.1919-.1119-.6397 0-.9435.3452-1.0778.924-2.0662 1.695-2.8946.2239-.2079.4957-.4637.8315-.2079z"
			fill="#fff" fill-rule="evenodd"/>
	</mask>
	<mask id="v" fill="#fff">
		<path
			d="m7.9218 3.5277c2.1748-.7036 3.9977.2239 5.9006.9915.3997.1599 1.4071.6877 1.4071.6877-.5318-1.5785-1.3807-3.0315-2.4945-4.2699-.2399-.2238 1.615-.3358 1.9668.128 3.8866 4.7066 4.7145 11.2312 2.1268 16.7595-.08.1759-.7196 1.0715-1.0234.8955-.3038-.1759 2.1107-4.4937 1.1993-9.1313-.1341-1.2052-.8036-2.2859-1.8229-2.9425-7.2758-4.8136-13.672 1.7751-14.1837 1.0074-.5117-.7676 4.8452-3.4542 6.9239-4.1259z"
			fill="#fff" fill-rule="evenodd"/>
	</mask>
	<mask id="w" fill="#fff">
		<path
			d="m4.0258 3.5972c-.634.7936-1.6074 1.2387-2.6224 1.1994-.3358-.032-.6556-.112-.7036-.5278s.3038-.5597.6236-.5597c1.0002-.1491 1.9404-.5694 2.7184-1.2154 1.3273-.9115 2.8464-1.7911 3.7099-1.5992 1.5747.3139 3.0636.9629 4.3654 1.9031 1.3272 1.3278 2.7258 2.5824 4.1895 3.7581-1.4896-.4523-2.8716-1.2031-4.0616-2.2069-1.5351-1.4073-3.422-2.7346-5.021-2.5747-1.2217.2811-2.3338.9151-3.1982 1.8231z"
			fill="#fff" fill-rule="evenodd"/>
	</mask>
	<mask id="x" fill="#fff">
		<path
			d="m12.4792 3.046c-2.5905-2.6387-4.2216-1.7751-7.0199-.9756-1.1513.3199-4.7812 1.9511-4.4614 1.5992 2.4742-2.1276 5.5979-3.3513 8.8588-3.4702 1.2365.3351 2.3481 1.0244 3.1981 1.983.6093.7087 1.4459 1.1835 2.3666 1.3433.3358.064.6556.2399.5757.5917-.08.3518-.4638.3518-.7996.3518-1.0433-.1459-2.004-.6488-2.7183-1.4232z"
			fill="#fff" fill-rule="evenodd"/>
	</mask>
	<mask id="y" fill="#fff">
		<path
			d="m3.3458 55.4583c-.0639.5117-2.6544-2.6227-2.7183-5.3733-.4318-19.4941 8.331-38.4765 18.597-43.1781 2.6064-1.1834 3.2621-5.1494 5.9325-5.5492 9.7862-1.4393 29.0868-.9115 31.1496-.6397 10.6017 1.4233 20.9796 9.963 27.184 20.2618 4.0936 6.8765 4.7971 38.9562 4.2375 39.0682-.7836-.5118-8.3471 1.8071-12.7925 12.1538-.2558-1.8231-2.6704-20.1018-2.7504-22.3886-.0799-2.2869-4.5093-13.945-8.9707-17.831-.8155-.7196-20.6278-7.3723-30.2221-7.3723-1.9669 0-3.438-1.7271-5.165-.7516-1.2632.7196-8.395 3.2623-9.7063 3.0545-2.0239-.6299-4.2211-.3559-6.0284.7516-2.6385 1.4073-6.812 7.4042-8.7469 27.7939z"
			fill="#fff" fill-rule="evenodd"/>
	</mask>
	<mask id="z" fill="#fff">
		<path
			d="m4.2339 63.2409s-3.1981-2.9745-3.5819-16.0879c.6876-5.5971-1.0394-17.9749 13.2242-33.3911-2.1179-.1082-4.2097.5064-5.9325 1.7432 1.8389-2.4628 4.9731-5.8691 14.2796-8.5077-.8155-.7357-5.4848-2.1749-5.4528-2.6387s12.0569.2399 12.0569.2399 9.9781-4.1579 10.5538-3.7581c-.7356.8635-1.791 1.7911-2.7504 2.9265 10.202-2.8945 22.8825-1.2474 27.7916-.8636-1.3519.5121-2.6355 1.1889-3.8217 2.015 7.1846 1.1516 13.9188 4.2425 19.4765 8.9395-1.3437-.3735-2.731-.5671-4.1256-.5757 3.9657 2.6387 12.5206 13.4172 12.2808 13.6411-.2399.2239-2.1108-1.0555-2.5745-.5757-.4637.4797 2.5585 4.8935 3.374 11.4981 1.1993 5.4373 1.3752 28.3537 1.3752 28.3537-2.3027-.4638-11.0655 1.0874-13.9118 14.5046-1.0394 0-3.1981.2719-3.1981 0-.3358-5.8162-.3358-11.6469 0-17.4631.0639-.8956-2.3666-3.3423-2.2707-7.996.096-4.6536-4.2855-15.2402-5.2769-15.8479-15.3509-9.5312-34.5396-8.6197-35.4031-8.4917 0 0 .6077-1.5033.7835-1.983-4.766 1.3724-9.3426 3.3331-13.6239 5.837-.5917.4158-.3038-2.6706-.7676-2.4627-6.764 2.9745-9.4344 10.3147-9.9621 15.5281-.4637 4.6696-2.4306 15.0164-2.5425 15.4162zm16.5023-49.383c-15.1911 10.1229-17.7975 28.3856-17.4137 37.2611-.0264 1.114.0919 2.2268.3517 3.3104.3678-.144-.8954-24.0519 15.0951-25.4751 0 0-.2238 2.2708.5277 1.823 4.8048-2.0196 9.7221-3.7603 14.7273-5.2133l.2559 2.0149c.1919.5278 17.0459-.9755 31.2456 7.7401 2.7823 1.7751 5.6126 4.014 6.3962 7.5482 1.7589 6.3648 1.7589 14.7445 3.5019 18.5346 1.6151 3.5022.6716 12.0899 1.0554 12.105923.3838.015977 3.1501-8.331823 10.6017-9.195423 0 0-.4637-24.3876-.7835-25.4751-2.9742-10.7945-4.8931-10.7145-7.7714-15.2242.9791.08 1.9631.08 2.9422 0-7.2437-8.6836-16.902-15.7361-28.6071-15.864l.4158-1.1194c-6.3358-.2046-12.6737.3321-18.8849 1.5991-.4317.096-5.9804-.7036-6.3962-.6076-.4158.0959 1.9029 1.5832 1.4871 1.6951-3.4833.8777-6.894 2.0218-10.202 3.4223z"
			fill="#fff" fill-rule="evenodd"/>
	</mask>
	<mask id="A" fill="#fff">
		<path
			d="m21.3534 4.7281c-20.372-1.3593-21.0436.1759-21.1715-.1599s2.6864-2.8945 5.1809-4.1099c11.7851-.7836 16.4863 4.2698 15.9906 4.2698z"
			fill="#fff" fill-rule="evenodd"/>
	</mask>
	<mask id="B" fill="#fff">
		<path
			d="m17.5579 4.8326c-9.1786-4.2698-16.838.3678-17.1738 0s5.9325-9.3873 18.4211-1.3913c2.5105 2.4308-.2239 2.1429-1.2473 1.3913z"
			fill="#fff" fill-rule="evenodd"/>
	</mask>
	<mask id="C" fill="#fff">
		<path
			d="m3.5283 2.2379c0 .6556-.8955 1.1034-1.2633 1.0714-1.3751-.048-1.599-.8636-1.599-1.3593 0-.8955.7995-1.2154 1.599-1.2154.3717.0195.7187.1923.9582.4772.2394.285.3499.6565.3051 1.0261z"
			fill="#fff" fill-rule="evenodd"/>
	</mask>
	<mask id="D" fill="#fff">
		<path
			d="m3.2302 1.869c0 .6397-.8155 1.0555-1.2153 1.0395-1.3912-.048-1.5991-.8476-1.5991-1.3113 0-.8636.8316-1.1674 1.5991-1.1674.3577.015.6926.1792.9236.4528.231.2735.3368.6313.2917.9864z"
			fill="#fff" fill-rule="evenodd"/>
	</mask>
	<mask id="E" fill="#fff">
		<path
			d="m1.9367 1.902c-.3584.2667-.8646.1954-1.1354-.1599-.2169-.2651-.2169-.6464 0-.9115.3196-.2986.8158-.2986 1.1354 0 .1521.1365.2391.3313.2391.5357s-.087.3992-.2391.5357z"
			fill="#fff" fill-rule="evenodd"/>
	</mask>
	<mask id="F" fill="#fff">
		<path
			d="m1.9104 1.7571c-.3625.2631-.8694.1846-1.1354-.1759-.221-.2576-.221-.638 0-.8956.3164-.3067.8191-.3067 1.1354 0 .157.1337.2474.3295.2474.5358 0 .2062-.0904.402-.2474.5357z"
			fill="#fff" fill-rule="evenodd"/>
	</mask>
	<mask id="G" fill="#fff">
		<path
			d="m8.2316 20.2008c-2.2608-.4867-4.0828-2.156-4.7652-4.3658-.6876-2.4467-1.5991-9.4832-1.5991-9.4832-1.2153-.4957-1.8229-.7836-1.8229-.7836-.0648-1.4702.0156-2.9433.2398-4.3978 1.3273-.3038 11.2254-.7036 13.0803-.6076 5.2269.1718 10.3997 1.1148 15.351 2.7985 2.3386.8633 4.8436 1.1805 7.3237.9276 4.2438-.5127 8.5185-.7265 12.7924-.6397 5.8115.2398 11.5581 1.317 17.0619 3.1984 0 0 11.3373-2.8306 14.8873-3.3583 2.7983-.3998 9.5943 3.2463 9.5943 3.5662-1.631-1.0075-6.3003-.7357-7.6595-.3199-5.5647 1.6792-10.202 3.2464-15.8466 4.6377-.7196.1599-1.5032.5277-1.5032 1.2793-.0158 1.9462-.1439 3.8897-.3837 5.8211-.6876 4.3978-2.7024 6.0289-6.2363 6.2368-4.6574.2194-9.3249.075-13.9598-.4318-2.6036-.2804-4.9475-1.7044-6.3962-3.886-1.5075-2.2766-2.5258-4.8415-2.9903-7.5322-1.583-6.2528-4.6532-4.5577-5.6287-2.7026-.4086.8758-.7403 1.7854-.9914 2.7186-.6266 2.7104-1.708 5.295-3.1981 7.6441-.8353 1.0473-2.1151 1.6398-3.4539 1.5992-4.704.0945-9.3935-.5531-13.8958-1.919zm29.0068-13.4332c-.3481.1739-.5745.5228-.5916.9115-.2557 3.7079.5132 7.4146 2.2227 10.7146 1.3592 2.3508 3.0862 4.5417 6.1563 4.9095 4.2431.5429 8.533.618 12.7925.2239 3.6299-.3678 4.8292-1.3753 5.3888-4.9575.3892-2.7862.5549-5.5991.4957-8.4117.083-.4346-.0178-.8842-.2784-1.2418-.2606-.3575-.6577-.5912-1.0968-.6452-5.2956-1.8117-10.8763-2.6461-16.4702-2.4628-2.0491-.0426-4.0989.0268-6.1404.2079-.8803.0135-1.739.2739-2.4786.7516zm-33.9319-1.3273c-.0411 3.1544.4398 6.2938 1.4231 9.2913.6875 2.3648 2.6713 4.1249 5.101 4.5257 3.7587 1.0139 7.6363 1.5195 11.5292 1.5032 1.596-.1074 2.9888-1.121 3.5819-2.6067.8227-1.9801 1.4858-4.023 1.9828-6.1089.548-1.6854.7173-3.471.4957-5.2293-.0277-.7311-.5479-1.3501-1.2632-1.5033-2.1886-.6513-4.4228-1.1377-6.6841-1.4552-4.6358-1.0729-9.4344-1.2466-14.1356-.5118-1.6631.3359-1.9189.3838-2.0308 2.095z"
			fill="#fff" fill-rule="evenodd"/>
	</mask>
	<mask id="H" fill="#fff">
		<path
			d="m44.8544 2.654c2.1268 5.1654 4.8931 12.1859 6.7321 17.4632 3.1981 9.3553 23.0903 55.45993 23.3622 56.08361 1.4871 3.39028 15.1271 15.43219 19.1887 21.17328.6076.87955 13.8638 38.1087 14.1996 38.38057 1.2153 1.24736-3.486 4.70162-4.2695 3.77408-4.2375-5.05344-13.0483-21.70101-13.1283-21.42914-3.1181 9.85101-14.4874 2.67064-14.5834 3.71012-1.7589 6.58866-6.1723 8.4917-7.9952 6.47672-3.1981-3.45425-5.2929-16.27976-5.7247-19.19029-5.4048-10.20283-5.4048-27.74595-6.5721-28.86538-5.4048-5.40526-52.2731-62.81617-55.2314-72.81117 11.1134-11.4342 43.3184-6.4927 44.022-4.7656z"
			fill="#fff" fill-rule="evenodd"/>
	</mask>
	<mask id="I" fill="#fff">
		<path
			d="m36.1666 7.6326c-5.3568 13.2573 6.796 45.6889 7.4516 45.9287 1.2473.4478 2.8143-.2398 7.4676 3.4703.3358.2718 10.0581 13.737 10.4418 14.1528 1.0234 1.1035-10.6497 23.716-11.4172 22.82046-1.775-2.07895-15.8307-10.29879-17.3818-13.40126-1.2632-1.3113-4.1415-11.754-5.3568-13.1773-22.3868-23.4601-28.0954-62.0326-27.2639-64.7032.8315-2.6707 27.9035-4.8456 36.0587 4.9095z"
			fill="#fff" fill-rule="evenodd"/>
	</mask>
	<mask id="J" fill="#fff">
		<path
			d="m97.5753 130.2919c-1.4231-3.08643-3.4379-5.80506-4.7971-8.90749-.4318-.9915-.8955-1.967-1.4392-3.19838-.9044 1.39563-2.0721 2.60153-3.438 3.5502-.8445.67922-1.9342.97488-3.0062.81559-2.3798-.33971-4.7277-.87457-7.0198-1.59919-.7676-.1919-.9435 0-1.1354.7836-.5756 2.39879-1.3112 4.79758-4.0296 5.67713-1.7324.64125-3.679.23074-5.005-1.05547-1.3923-1.66481-2.4412-3.58885-3.0862-5.66113-1.1099-2.40637-1.7607-4.99884-1.9189-7.64413-.2813-4.06091-1.4436-8.01183-3.406-11.57814-1.4957-2.98331-2.4898-6.19268-2.9422-9.49919-.3998-2.9585-.4158-5.90101-.5277-8.85951-.2561-3.00946-1.5507-5.8362-3.6619-7.99595-3.8377-4.41377-7.9953-8.49174-11.833-13.00144s-7.0678-8.6516-10.8736-12.7935c-3.8057-4.1419-7.4676-7.6601-10.7297-11.914-4.0664-5.4938-7.8041-11.2236-11.1933-17.1593-1.5892-3.1797-3.0091-6.4413-4.2535-9.771-.8156-1.7911-2.6225-3.998-2.8943-5.965 0-.4318 3.8697-1.5992 3.9017-1.7591 3.1981 4.7975 5.053 11.754 7.9953 16.6795 3.0213 4.7678 6.2822 9.3794 9.7702 13.817l32.7487 38.87635c1.1157 1.20593 2.0042 2.60373 2.6224 4.12591.5917-2.9585-.9594-5.66113.1439-8.68356.3781 1.1968.6878 2.4141.9275 3.64611.93 3.53947 1.2331 7.21448.8955 10.85851-.2239 2.19089-.112 4.47773-.144 6.71659.0538 1.68815.4339 3.34992 1.1194 4.89353 2.2227 5.98097 5.069 11.75405 5.6127 18.23077.0654.2775.0923.56271.0799.84757-.5437 3.83805 1.5991 6.92449 2.8783 10.23482.3278.86396 1.2415 1.35491 2.1428 1.15141 1.0234-.11194 1.9348-.23988 2.4785-1.35931 1.0771-2.49366 1.2246-5.29088.4158-7.88401-1.1034-4.71761-2.5266-9.38724-2.2227-14.39271.1599-2.59069 1.5191-8.33178 1.9188-8.28381.3998.04798-.6236 5.10142.3838 7.85203 0 .86356.1759 1.00749 1.0234.60769 3.1981-1.50324 9.3385-2.3668 12.1049-.51174-1.8326.12405-3.6484.42939-5.4208.91154.9521 1.38974 2.1178 2.6203 3.4539 3.64615 1.8003 1.12208 3.1781 2.80922 3.9177 4.79757.2064.82039.5823 1.58849 1.1034 2.25486 2.6224 2.89454 3.8537 6.5247 5.5967 9.89899.478.83999 1.0123 1.64675 1.599 2.41478.7905 1.11974 1.3902 2.36257 1.775 3.67813.8816 2.50402 2.3385 4.7662 4.2535 6.60466.3155.30945.7071.53011 1.1353.63968 1.4711.39979 2.0468-.14393 1.711-1.59919-.7816-3.32787-1.7914-6.59795-3.0222-9.78705-2.6385-6.94048-4.7972-14.05688-7.6275-20.91741-.9755-2.33482-1.8549-4.70162-2.7984-7.03643-.3044-.78996-.7608-1.51256-1.3432-2.12693-4.8931-5.05344-9.7542-10.13886-14.6474-15.19231-1.4796-1.46492-2.711-3.16091-3.6458-5.02145-5.2126-10.28924-9.758-20.90304-13.608-31.77594-1.1993-3.6621-2.8303-7.1643-4.2535-10.7305-2.0286-5.629-4.5321-11.0752-7.4835-16.2798-2.4466-4.014-4.3175-8.3638-7.2278-12.0899-.6556-.8475-.9114-1.1034-.7196-2.1749 1.2953 1.0075 9.0667 3.4223 9.1946 3.982 1.2473 5.4213 3.9177 10.3308 6.3962 15.2883 3.3581 6.8765 5.4368 14.2328 7.9953 21.4131 2.2067 6.2529 4.9571 12.2978 7.2278 18.5186 1.5626 4.1745 3.4777 8.2084 5.7246 12.05794 1.9189 4.52571 14.1516 16.63158 16.8221 19.19029 1.7598 1.80154 3.0692 3.99329 3.8217 6.39676 3.0702 6.70061 12.6166 36.31761 12.7925 37.06923.3198 1.32733-1.1194 3.3583-4.0616 3.7421-4.0137.14393-6.7481-4.42975-8.2672-7.66012zm-14.3915-20.27773c-.6716.49575-.8955 1.11943 0 1.71113.3038.19191.4797.44778.1439.84757-2.1747-1.88704-5.2769-1.59919-7.0038-2.27085-.7516-.31983-.5437.35183-.4638.67166.4158 1.80709.6237 3.64616.8795 5.46923.0465.61527.4758 1.13437 1.0714 1.29535 1.8069.67166 3.5819 1.39129 5.4048 2.04696 1.5428.64117 3.3239.11415 4.2695-1.26336.5298-.75678 1.0002-1.55342 1.4072-2.38279.4008-.47577.3512-1.1839-.112-1.59919-1.4971-1.88874-2.8241-3.90626-3.9656-6.02895-.2559-.43178-1.1674-1.16741-1.3273-1.11943-.1599.04797.9275 1.91903-.2398 2.62267zm-5.5167-4.30182c.1599.95951-.7996 2.11093 0 2.81457.7995.70365 1.8549.63968 2.7663 1.03948.6237.27186.9115 0 1.2953-.38381.3838-.3838.1119-.79959-.1759-1.10344-1.262-1.40888-2.0895-3.15281-2.3826-5.02146-.1279-.67166-.4158-.7836-.9594-.62368-.5437.15992-1.1674.09595-.8795 1.02348.1982.73865.3319 1.49309.3997 2.25486zm-2.4946 1.16741c.2061-.7809.2061-1.6019 0-2.3828 0-.22388.128-.67166-.3358-.5757-.4637.09595-.3517.39979-.3038.68765.0717.79812.3115 1.57204.7036 2.27085z"
			fill="#fff" fill-rule="evenodd"/>
	</mask>
	<mask id="K" fill="#fff">
		<path
			d="m49.9357 89.23077c.8315.49575 2.3985.92753 2.6704 1.80708.5277 1.71114-1.5991 3.19838-2.0468 2.79859-2.066-1.91697-4.4389-3.4738-7.0199-4.60567-1.599-.86356-3.1981-1.93502-4.7012-2.94251-2.767-2.03318-4.906-4.80416-6.1724-7.99596-1.4469-2.9979-2.728-6.0729-3.8377-9.2113-.2309-.7267-.5942-1.4044-1.0714-1.999-4.5573-5.5652-8.7788-11.3703-12.9363-17.2233-.7828-1.1617-1.4674-2.3867-2.0468-3.6621-4.1992-8.5029-7.3047-17.5033-9.2426-26.7865-.6716-3.4542-2.9102-13.1453-2.9742-16.6795 1.2244-.9728 2.5547-1.8043 3.9657-2.4788 1.1033 5.1654 2.0947 19.4782 3.8857 24.4836 3.3232 9.7665 7.6084 19.1787 12.7924 28.0978.5827.9988 1.2572 1.9411 2.0148 2.8146 2.7504 2.9905 4.7972 6.5247 7.5796 9.5152.756.9391 1.3014 2.0299 1.599 3.1983 1.5949 4.719 3.7817 9.2166 6.5082 13.3853 1.811 2.58947 4.3645 4.56894 7.3236 5.67708.3332.13599.7063.13599 1.0394 0 1.9837-.40047 3.5411-1.93918 3.9657-3.91801.504-1.38462 1.3383-2.62527 2.4306-3.61417 1.1513-.9115.9114 2.57469.9114 2.57469-1.377 2.36605-2.9269 4.62707-4.6372 6.76458z"
			fill="#fff" fill-rule="evenodd"/>
	</mask>
	<mask id="L" fill="#fff">
		<path
			d="m4.1986 49.5848c1.599-1.0395 5.8046-1.3913 5.5647-1.855-.2399-.4638-6.796-17.7031-7.5955-26.4666-.4158-4.4778-.8955-16.1359-1.1833-20.6616.4957-.3678 3.0702 1.4233 3.1022 2.3508.1758 5.1334.8634 15.1604 1.599 20.2618 1.0064 8.3152 3.584 16.3634 7.5955 23.716.2006.5298.7567.835 1.3113.7196 2.7823-.3838 5.8205 1.4713 6.2523 1.5992.4317.1279-1.4072 3.8221-1.5991 3.7261-4.7603-2.0588-9.8639-3.2087-15.0471-3.3903z"
			fill="#fff" fill-rule="evenodd"/>
	</mask>
	<mask id="M" fill="#fff">
		<path
			d="m3.4273 54.8658c.5277-2.8945-3.7098-55.5079-3.0542-54.7243 10.138 12.1379 42.8547 8.4277 44.1819 6.7326-20.7717 12.6496-41.6074 50.6144-41.1277 47.9917z"
			fill="#fff" fill-rule="evenodd"/>
	</mask>
	<mask id="N" fill="#fff">
		<path
			d="m248.4129 114.3658c0 .2399 1.1673 15.5121 1.3912 15.752-.9274 1.5033-24.4816-12.6496-50.2903 5.933-.016-.9115-10.17-10.4587-10.3299-16.9994-2.7024-2.7826-15.8307-17.687-17.0939-17.9269-1.2633-.2399-2.4146 55.5719-3.7418 65.0391-.4798 3.4382.2558 6.8765-8.2032 21.605 0 0-57.55 21.04537-96.2312 1.8551-.9595-.4798.5916-2.7826 0-4.2858-1.775-4.4938-4.4294-10.8426-4.6213-11.4662-.6396-2.143 3.8537-36.8134-8.443-61.313-.2399-.4798-6.812 12.5217-8.0753 12.0579-.5916-2.031-10.9215-7.7561-22.3867-7.868-17.5897-.1599-17.6536 4.7016-18.805 3.822-5.3888-4.1259 5.3729-20.3576 7.0679-22.5805 4.8611-6.3648 26.9761-45.0972 36.0107-56.2915 10.8097-10.2828 29.1029-12.3138 28.3993-12.7935 2.3506-2.8946 11.2733-15.2083 12.7924-15.6881-.0799.4638.9914 17.3032 1.9509 33.583v.1919c.6716 11.1943 1.2792 22.1168 1.4231 27.1862v2.1589c.08 0 2.2067-4.4137 5.6767-10.8105 5.5167-10.1548 14.5834-25.1393 23.9858-33.583 2.1442-1.6026 4.4811-2.9296 6.9559-3.95 8.6989-4.3978 22.5307-11.9939 26.6243-27.4581.1599-.6237 7.1318 16.5676 8.2991 18.7745.2239.4318 26.9441 13.7531 31.4855 17.4152 5.3248 5.4053 39.9764 45.8168 44.7735 64.5753 1.2153-.8955 8.1872 11.0184 11.3853 13.0654z"
			fill="#fff" fill-rule="evenodd"/>
	</mask>
	<mask id="O" fill="#fff">
		<path
			d="m253.9554 124.0589c1.6471 1.1834 1.8389 10.6346 1.3912 12.1219-.2529 1.1326-.6963 2.2141-1.3112 3.1983-.2399.3359-.5597.6557-.8315 0-.4657-.9389-1.3618-1.5902-2.3986-1.7431-3.8432-1.2875-7.7566-2.3553-11.7211-3.1983-6.5367-1.1636-13.1983-1.4594-19.8123-.8796-5.05.515-9.7751 2.7311-13.4001 6.2848-.6076.6077-.2718 1.1834 0 1.7271.2718.5438.7995 1.0395.2718 1.5992s-2.5425-.4637-3.0062-.5597c-2.3195-.5548-4.1844-2.2745-4.9251-4.5417-.3319-.8947-1.0129-1.6161-1.8869-1.999-1.3623-.6072-2.5989-1.4642-3.6458-2.5267-1.2163-1.5594-1.8548-3.4921-1.807-5.4692 0-.5597 0-1.0875 0-1.5992-.0756-.7851-.6093-1.4507-1.3592-1.6952-5.8525-3.1184-14.3915-12.1538-14.3915-12.1538-.0479.3358-.8475 30.7044-.6876 44.7773.0809 7.2268-.7355 14.4356-2.4305 21.4612-.3916 1.8124-1.2455 3.4927-2.4786 4.8775-1.695 1.7751-2.7184 2.3188-2.4145 4.4937.2558 1.8551-7.6755 4.3818-6.9399 3.1984 2.6064-4.046 5.2129-10.1069 7.7554-14.1848.4865-1.1034.7371-2.2963.7355-3.5023.8789-6.0407 1.088-12.16.6237-18.2467-.2616-3.7776-.0738-7.573.5596-11.3063.5917-3.902.5437-7.932.7516-11.898.3198-5.837.1119-21.9568 0-24.2437-6.4922 4.8935-12.5366 10.2348-19.1887 14.8085 2.7824-3.0225 14.5035-16.8555 16.998-21.2052 1.3474-2.2353 1.8627-4.8743 1.4551-7.4523-.8315-5.933 2.3986-18.3107 2.6545-18.5506-.4158 3.7581.3997 7.932-.1599 11.7541-2.2067 15.2402 17.7175 29.0253 19.3965 30.6245 2.6704 2.3668 2.8304 2.5107 5.2769 0 12.4407-12.8415 37.0821-13.3373 39.4487-12.5857-.1448-.7388-.4152-1.4474-.7995-2.0949-6.716-10.5866-19.5565-31.3761-26.2085-39.3721-2.3027-2.7826-4.0616-5.9809-6.2044-8.8915-2.1107-3.238-4.6983-6.1386-7.6754-8.6036-3.3421-2.4148-9.3385 4.6057-9.8502 4.6057 1.6502-2.382 3.5012-4.6184 5.5327-6.6847-3.1981-3.2783-22.067-14.5526-27.184-15.8959 0 0-11.7051 18.1508-12.7924 18.6306-2.4466-2.2709-15.223-4.9735-18.5331-5.933-3.31-.9596-9.9621 1.823-10.6817 2.2388.096-.5437 4.5733-5.2453 7.8994-5.1494 3.326.096 19.5724 4.5097 20.5958 4.8936 3.8575-5.1642 7.3723-10.5757 10.5218-16.1998.8475-1.8711 2.0628-4.4938.2878-5.8211-1.5031-1.0874-3.9816-4.7976-3.9816-6.5567.065-2.5986-.5233-5.172-1.711-7.4842-.2878.7196-7.9953 18.9664-25.1372 26.1628-1.7062.7923-3.3476 1.7173-4.9091 2.7666-2.7419 1.6464-5.2214 3.6948-7.3556 6.0769-.7036.8955-3.39 4.2059-6.876 8.8915-7.4836 10.0909-18.581 26.8344-20.8837 41.2271-.7161 3.5794-1.2498 7.1929-1.599 10.8265-.3678 6.4128-1.2953 51.9577-1.4552 58.7703-.2403 5.8261.0649 11.6619.9115 17.4311.7516 4.6217 3.8377 21.1733 3.8377 21.3492-.6396-.0799-1.2312 0-1.8389 0-.032-.0319-4.8931-22.2447-5.4528-24.9793-.0479-.2239 1.3432-58.5464 1.3432-63.168.032-2.8946.2559-5.7891.2559-8.6676.3239-5.7358 1.1642-11.4306 2.5105-17.0154.7708-4.0561 1.1987-8.1699 1.2793-12.2978.1279-3.5502-2.4466-30.8804-2.7504-35.534-.3038-4.6537-1.4232-9.2113-1.2473-13.913-2.5105.8316-7.9313 6.7166-8.2511 8.8276 1.1513-.2879 2.2706-.5278 3.374-.8316 1.5031-.4318 3.8697 3.6621 3.6778 3.8221-.1919.1599-4.0776-2.3668-6.9079-.7677-1.0668.4608-2.2435.6051-3.39.4158-.1565-.4693-.2742-.9506-.3518-1.4392 0 0-7.7874 2.2708-10.2659 2.9425-3.5819.9915-13.1283 7.3562-14.9512 8.6996-1.8229 1.3433-10.4099 15.4162-13.0163 21.0613-2.2707 4.9575-4.6213 9.9789-8.4271 13.865-3.8057 3.886-10.7456 16.7755-11.9129 18.9824 3.294-1.1674 24.6574-.8956 32.077 11.722.2559.3998.6557.2879 1.0554 0 1.1194-.8315 6.4282-2.5107 1.1194-18.5026-.5596-2.496-.8809-5.0394-.9595-7.5962-.3358-2.9425-.5916-5.869-.8795-8.8595.6077.08 2.2547 11.93 5.7726 15.848.4478.5118 4.9571 14.4727 5.117 14.9045 2.4146 6.4127 4.4294 62.9921 4.0137 66.3824-.1667 1.7869.412 3.5634 1.599 4.9095 2.3826 2.9105 5.4048 15.8799 5.4528 16.1998.048.3198-2.0468-1.0875-2.0468-1.0875-.4158-.5757-2.2387-3.3263-2.7024-4.0779-2.3026-3.6302-4.7012-7.7401-5.5967-9.4352-.7548-1.4545-1.1185-3.0802-1.0554-4.7177.3007-13.876-.1852-27.7579-1.4551-41.5789-.1599-1.3753-1.9988-11.3702-3.5979-14.8085-.4317.1919-.8315.3838-.8315.9755-.0621 1.4722-.8224 2.8266-2.0468 3.6462-.5845.4879-.9757 1.1684-1.1034 1.919-.6287 2.0408-1.7874 3.8784-3.358 5.3253-.197.2227-.4917.3331-.7865.2946-.2948-.0384-.5513-.2207-.6846-.4865-5.2129-10.8745-32.4449-8.4757-34.9874-6.7646-1.5351 1.0395-2.0148 1.2794-1.9188 3.2943v.7197c-.5757.0959-.8795-.2879-1.2153-.5437-2.8783-2.1909-6.0444-2.9745-5.9005-12.2658.9408-1.4374 1.7592-2.9513 2.4465-4.5257.9435-2.9585.9755-4.126 2.9423-6.7007.3758-.5961.9379-1.0515 1.599-1.2953.8635-.2719 1.1674-.9435 1.5991-1.7111 2.9103-5.1334 5.165-10.6506 7.9953-15.848 2.0141-3.6678 4.5154-7.0461 7.4356-10.0429 3.3975-3.5971 6.0495-7.831 7.8034-12.4577.6754-1.4526 1.4669-2.8485 2.3666-4.1739 2.8783-4.8615 5.9751-9.5898 9.2905-14.1848 1.9828-2.7506 4.8771-4.2379 7.4996-6.1089 6.0764-4.2699 13.1282-5.8691 20.2441-7.2124 1.2642-.1859 2.4089-.8499 3.1981-1.855 3.0542-3.6462 6.0924-7.2763 9.4504-10.6187 1.0714-1.1194 4.5253-2.8945 4.7972-2.7186.2718.1759-.7996 10.4747 0 15.3842.3198 1.999 3.4699 41.3551 3.358 42.8104 6.2293-12.4321 14.0798-23.9831 23.3462-34.3507 2.3834-3.3244 5.4957-6.0594 9.0986-7.9959.5917-.2879 1.1993-.5917 1.807-.8636 3.1501-1.3753 18.8369-6.6846 27.4398-30.8803.4157.2079 5.4688 7.5961 5.9964 11.722.0875 1.2516.3513 2.4845.7836 3.6622 2.5585 1.4393 4.7972 7.4042 4.7972 7.5482 2.4945.9915 23.8099 12.3777 27.008 14.1048 3.6298 2.0764 6.9195 4.6976 9.7543 7.7721 3.4181 3.727 6.4157 7.8189 8.9387 12.2018 1.4909 2.3813 3.2332 4.5955 5.1969 6.6047 7.3717 7.5162 25.1052 40.4915 25.2971 41.435.2686 1.3657 1.3482 2.4263 2.7184 2.6706 2.9742.8796 4.3334 3.2144 5.3568 5.7731 1.13 2.833 2.1016 5.7267 2.9103 8.6676.112.4318.1919.9755.4957 1.1994zm-205.6546-5.0854c-.5757-1.0075-17.3338-21.0134-38.3774-11.6741-.3412.1136-.6342.339-.8315.6397-.657 1.1515-1.1929 2.3681-1.5991 3.6301l-.1119.2879h.2878c1.679-.5437 3.2621-1.5192 5.4528-1.0715-1.8966 1.0707-3.6806 2.3298-5.3248 3.7581-3.0383 2.4948-3.9977 4.9575-3.0383 7.996 7.8994-4.2379 16.3744-3.8701 24.9453-3.0065-1.8857-1.3105-3.8875-2.4454-5.9804-3.3903.8842-.1494 1.7919-.0724 2.6384.2239 6.6201 1.8711 12.3767 5.4532 18.0214 9.2433.3358.2239.6716.8156 1.0713.4798.3998-.3359.8955-.7197.8955-1.3593-.0183-.3574-.0773-.7115-.1759-1.0555-1.5021-3.2645-3.2445-6.4129-5.2129-9.4192 2.9024 1.6242 5.3199 3.9922 7.0039 6.8605.1119-.8796.7515-1.3913.3358-2.1429zm202.5525 13.4652c.6161-2.5957-.1449-5.3258-2.0149-7.2284-2.7643-2.452-5.6803-4.7274-8.7308-6.8125 2.3952.2698 4.7609.7569 7.0678 1.4552-.5982-2.0585-1.5624-3.9924-2.8463-5.7091-24.4816-11.0504-46.8524 7.948-48.1476 12.9375-.4957 2.0469-.3358 3.1824 1.5991 4.2698.2238-.5117 4.4773-9.4352 6.0764-9.6911-2.3506 4.078-2.5745 13.961-1.5991 15.0004.5757.6077 1.3432.9915 1.807.096 4.8451-9.0834 21.0276-11.93 23.1863-11.93-3.0356 1.3163-5.956 2.8836-8.7309 4.6856.6556 0 21.6033-1.951 31.4215 3.3743.6076.3359.7995.2079.9115-.4477z"
			fill="#fff" fill-rule="evenodd"/>
	</mask>
	<mask id="P" fill="#fff">
		<path
			d="m116.2904 34.89636-.5756.20789c-1.2313.46377-2.4786.89555-3.7418 1.31134-3.3101 1.13542-6.6681 2.12692-10.0741 3.02247-.8795.23988-1.7589.46376-2.6544.67166l-.7036.17591c-1.2952.30384-2.6225.5917-3.9497.86356-9.8859 2.03467-19.9532 3.05809-30.0462 3.0544597-4.3601 0-8.6776-.1865797-12.9524-.5597197l-2.3346-.22389-1.5191-.15992-3.0862-.3838c-1.0714-.14393-2.1587-.28786-3.1981-.46377s-1.9669-.31984-2.9583-.51174l-.6076-.11194c-1.6311-.28786-3.2301-.6077-4.7972-.95952-8.961-1.94756-17.7196-4.73169-26.1606-8.31579-1.1833-.51174-2.3826-1.03947-3.5659-1.59919h-.0959l-1.3432-.62368c-.6236-.28786-1.2313-.57571-1.8549-.89555 1.8709-4.17388 3.6778-8.26781 4.5253-10.18684 0 0 2.1268-15.0644 2.2067-15.0644 1.1353.4478 5.4528 1.999 5.4848 2.015.9914.3358 40.2962 15.99191 97.3346-5.3733.3997.9276 4.973 13.833 2.3826 19.04638-.3039.38381 2.1427 7.94798 4.2854 15.06438z"
			fill="#fff" fill-rule="evenodd"/>
	</mask>
	<mask id="Q" fill="#fff">
		<path
			d="m119.0358 15.899c-.016 2.84655 2.1267 13.83298 3.4059 20.56557l-1.1353.44778-.5756.20789c-1.2313.46377-2.4786.89555-3.7418 1.31134-.9115-6.09292-2.5265-15.68806-3.3101-17.28725-4.7012 1.21539-18.4051 4.1579-19.1887 4.31782-.2078.03198 5.7566 10.18684 9.7063 16.66356l-.7036.17591c-1.2952.30385-2.6224.5917-3.9496.86356-3.5979-6.9085-7.3397-16.1998-7.8194-17.03137-12.7179 2.70394-25.6793 4.09719-38.6812 4.15789 0 0-.1759 7.40425-.3518 14.98441l-3.0862-.3838c.6077-6.79656 1.3272-14.40871 1.3272-14.58462l-7.8993-.22388c0 .06396-.1279 6.54068-.2399 13.72105-1.599-.28786-3.1981-.60769-4.7971-.95952.7835-6.44473 1.695-13.0174 1.695-13.16133-.9115-.04798-24.7055-3.32632-28.3993-5.59717-.2558-.14393-1.647 4.31782-3.0222 8.84352h-.0959l-1.3432-.62368c-.6237-.28785-1.2313-.57571-1.855-.89555-1.3432-.63967-2.6704-1.31133-3.9816-2.01498 3.6139-5.05344 7.1958-9.69109 7.1958-9.69109.1329-.22727.2402-.46864.3198-.71963.1324-.91587.1805-1.84194.1439-2.76663-.0735-1.4384.0069-2.8805.2398-4.3018.009-.0529.009-.107 0-.1599.5331-2.4201 1.1896-4.8113 1.9669-7.1644.446-.5084.9898-.9217 1.599-1.2154 0 0 1.9669 2.1589 2.1907 2.3348.6984.5754 1.4602 1.0691 2.2707 1.4713 4.1256 2.047 39.8965 15.4002 90.9863-3.1984 1.8549-.6556 5.9965-2.2708 6.3962-2.4307-.0664-.3595-.0664-.7281 0-1.0875 0-.016 1.5991.3838 1.5991.3838l.1919.9435c.7515 3.4223 1.9508 6.2369 2.5745 9.4353.1962.9486.3192 1.911.3678 2.8785v.7036zm-78.8495 11.32226.5596-11.77006c0-.064-19.2046-2.1589-26.8321-6.5407-.032 0-1.9349 1.8231-2.2867 11.41824-.0182.16475-.0182.33101 0 .49575 2.8144 3.83806 28.1594 6.5247 28.5592 6.39677zm74.5-8.33179c1.3432-.3838 1.9029-.81558 1.967223-1.7751.015677-.27187-.560023-8.34777-2.287023-11.77007-35.563 12.76157-64.5379 10.6506-66.137 10.5707-.4143-.0482-.8329-.0482-1.2472 0-1.2848.1728-2.4118.9439-3.0382 2.07893-.1973.36987-.3323.76968-.3998 1.1834-.3446 2.74707-.4835 5.51604-.4158 8.2838.032.3998 32.0771 2.91053 71.5578-8.57166z"
			fill="#fff" fill-rule="evenodd"/>
	</mask>
	<mask id="R" fill="#fff">
		<path
			d="m5.205 1.39271c.5644.67655.8247 1.55598.7195 2.43077.0759.66783-.1544 1.33414-.6265 1.81251-.4721.47836-1.1353.7174-1.804.65024-.7083.05404-1.4066-.19258-1.9238-.67944-.5173-.48686-.8057-1.16898-.7946-1.87926-.0614-.79406.2244-1.57574.7835-2.14291.5689-.48322 1.3016-.7294 2.0468-.68766.5763-.04124 1.1471.13571 1.5991.49575zm-1.5991 3.71012h-.032c.3766.04151.7506-.09735 1.0088-.37451.2583-.27717.3704-.66007.3024-1.03277-.0159-1.31134-.2078-1.7911-1.2952-1.7911s-1.71100785.5917-1.71100785 1.59919c-.00139215.44726.18450785.87468.51270785 1.17855.3281.30387.7685.45643 1.2143.42064z"
			fill="#fff" fill-rule="evenodd"/>
	</mask>
	<mask id="S" fill="#fff">
		<path
			d="m3.5078 6.08c2.5425 5.3413 18.533 9.0194 22.6906 11.05036.5597.25587 2.8463-1.59916 3.374-1.72716 4.7972-1.3593 15.9906.2559 16.2624.5438 1.1034.9275 0 1.24733 1.1993 1.3113 3.9337.1919 50.6901-4.7976 62.1234-16.8075.3358-.2559 3.1981 10.4267 4.1415 13.0334.6077 1.5992-18.0693 9.08341-22.1469 8.61965-.3198 2.09494-.3038 6.52469-2.4146 6.98846-7.2917 1.59919-38.921 1.83907-42.5189 3.42226-14.1037 6.18887-20.7878-3.43825-21.4274-3.53421-13.0643-2.1589-24.2097-9.83502-24.1143156-11.19433.0485156-.55971 2.4951156-12.39373 2.8309156-11.70603z"
			fill="#fff" fill-rule="evenodd"/>
	</mask>
	<mask id="T" fill="#fff">
		<path
			d="m1.3477.82247c.6556 0 1.0873.30385 1.0234.94352.0036.30998-.1293.60585-.3633.80911-.2341.20326-.5456.29335-.852.24636-.6396 0-1.1033-.35182-1.0714-1.03948.032-.68765.6876-.87955 1.2633-.95951z"
			fill="#fff" fill-rule="evenodd"/>
	</mask>
	<mask id="U" fill="#fff">
		<path
			d="m1.5645.23077c.5597.07996 1.1033.23988 1.1353.94352.0378.30275-.0593.60681-.2656.83158s-.5009.34757-.8058.33583c-.3008.05013-.608-.04102-.8328-.24713s-.3423-.50424-.3185-.80834c-.016-.71963.4478-1.05546 1.0874-1.05546z"
			fill="#fff" fill-rule="evenodd"/>
	</mask>
	<mask id="V" fill="#fff">
		<path
			d="m1.4016 2.99737c-.6077-.12794-1.1034-.3998-1.0714-1.08745.0026-.26811.1192-.52243.3206-.69942s.4686-.25994.7348-.22811c.6716 0 1.1833.35182 1.1193 1.11943s-.5757.83158-1.1033.89555z"
			fill="#fff" fill-rule="evenodd"/>
	</mask>
	<mask id="W" fill="#fff">
		<path
			d="m1.8452.20729c.6556.12793 1.1194.44777 1.0874 1.10344-.0068.28954-.1359.56266-.3553.75164-.2195.18898-.5087.27614-.796.23986-.3076.02656-.6126-.07514-.8427-.28104s-.3649-.49772-.3726-.80641c.016-.75162.7196-.86357 1.2792-1.00749z"
			fill="#fff" fill-rule="evenodd"/>
	</mask>
	<mask id="X" fill="#fff">
		<path
			d="m113.7148 12.5087c.5436 1.8231.4157 2.2229-1.1833 3.0385-.1759.1119-16.5982 6.94045-20.0682 7.2443-.5597.04797-.8155.25587-.8155.89554v.87956c-.08 1.08745-.3038 2.14291-.4318 3.19838-.2458.99875-1.0759 1.74652-2.0947 1.88704-.2239.06397-33.2284 2.73462-39.7366 2.84656-.5756 0-1.1513-.09595-1.3112.78361-.096.60769-.7516.76761-1.3112.91153l-.9755.23988c-.7995.17591-1.567.31984-2.3026.44778-2.6351.49218-5.3252.62131-7.9953.3838-1.0802-.10225-2.15-.29483-3.1981-.57571-5.3728-1.50324-7.1798-4.86153-7.9953-5.05344-3.342-.75162-20.1801-6.7166-23.0424-10.04291-.9407-.77179-1.3093-2.04303-.9274-3.19842.4797-2.2068 1.583-8.2038 1.8229-9.803.1439-.8955 1.5831-1.7271 1.599-1.5992.016.1279.4478.5757.7996 1.2154 2.1907 3.87 18.0533 8.9715 21.7951 9.947.8632-.8675 1.9863-1.4291 3.1981-1.5992 2.5425-.5757 7.1638-.8316 15.6708.3518.8155.1119 1.4551.2878 1.695 1.0874.013.0687.013.1392 0 .2079.1599.7357.7036.3359 1.0713.3359.9915-.064 33.1485-1.2154 59.1651-15.3203-.0399-.4041-.0399-.8112 0-1.2154h2.4946c.8795 1.4713 3.422 10.3148 4.0776 12.5057zm-90.1868 13.54515c-.4478-2.33482-.6397-6.14089 2.1267-8.58766-19.3006-4.84559-21.7951-9.97899-21.7951-9.97899-.4318.2879-1.4712 6.3648-2.1428 9.3073-.0145.165-.0145.33086 0 .49578v.17591c.0614.64279.4392 1.21264 1.0074 1.51924 1.2953 1.87105 16.8861 8.05991 21.2995 9.11538.032 0-.2719-.81559-.4957-2.04696zm2.7983 2.87854c1.3912 2.12692 7.0039 6.49271 16.5183 4.22186-2.3521-.06895-4.6921-.36348-6.9879-.87955-1.1587-.26875-2.2886-.649-3.374-1.13543-.7529-.28872-1.4589-.68753-2.0948-1.1834-2.1939-2.22339-3.019-5.45685-2.1587-8.45972.2709-1.7441 1.7097-3.07034 3.47-3.19838.6875-.06396 10.1859-.30384 12.6485-.15992.9274.06397 1.2313-.09595 1.3112-1.03947.08-.94348-.3678-.97548-1.1673-.94348-.7995.0319-8.8748-.5438-10.7137-.5438-.9378-.0535-1.8787.0164-2.7983.2079-8.8748 3.13444-4.8132 12.8895-4.6533 13.11339zm61.9635-.92753c.6556-.25587 1.567-.28786 1.711-5.03745-.0257-1.2873-.1865-2.56835-.4798-3.82207-.3358-2.43074-1.1193-2.52674-3.5339-2.14291-.7675.15992-36.5544 3.47024-52.3371 3.47024-.6099-.03995-1.2148-.13631-1.8069-.28785-1.0394-.23988-1.3592.23988-1.5991 1.02348-.1159.42362-.1909.85739-.2239 1.29534-.1818 1.53254.0559 3.08569.6876 4.49373.4318.95951 4.1416 4.57368 13.1123 4.57368.6236 0 43.2545-3.23036 43.7022-3.34231.2595-.06159.5157-.13632.7676-.22388zm23.666-13.91296c.6876-.4318.5757-.7196.2079-1.935-.5757-1.5512-3.1981-10.4587-3.1981-10.4587-19.6524 13.8809-58.5095 15.86395-61.4678 15.99188-.4957.03198-.9274-.11194-.8954.67166.0319.7836.6556.3998.9754.3998 36.6184-2.63864 38.1215-3.55024 40.4721-3.85404 1.1673-.1439 1.631.3998 2.1427 1.2474.7466 1.60738 1.2014 3.33473 1.3432 5.10138 2.6225.27186 20.2441-7.03648 20.42-7.16438z"
			fill="#fff" fill-rule="evenodd"/>
	</mask>
	<mask id="Y" fill="#fff">
		<path
			d="m8.0375 19.97935c-.6397.3998-3.6619 1.96701-4.1576 1.32733-.2558-.31984-1.3272-14.58462-3.1981-19.38218-.1599-.4158 3.39-1.3433 3.6458-.9115 3.1822 5.21332 3.7099 18.61453 3.7099 18.96635z"
			fill="#fff" fill-rule="evenodd"/>
	</mask>
	<mask id="Z" fill="#fff">
		<path
			d="m.6985 16.82996c.1119-.55972 3.1981-14.07286 4.2215-16.55166.1759-.4317 4.3175 2.2389 4.2055 2.7506-.9434 4.142-4.4134 16.72758-4.6532 17.2713-.2399.54373-3.454-.76761-3.7738-3.47024z"
			fill="#fff" fill-rule="evenodd"/>
	</mask>
	<mask id="aa" fill="#fff">
		<path
			d="m13.8427 3.2134c.0901.2629.0529.5528-.1005.7845-.1535.2317-.4058.3791-.683.3989-.1747.0292-.353.0292-.5277 0-.9597-.0391-1.9115.1878-2.7504.6556-.2231.2426-.4164.5111-.5756.7996-.1599.2879-3.9177 15.54415-3.9177 15.64011-.3518 1.27935-.5757 1.42327-1.9509.65566s-3.6458-1.24737-3.1981-3.19838c.5729-5.80311 1.9173-11.50389 3.9977-16.95139.0959-.2399.3518-.9435.3518-.9435.1107-.2655.2678-.5091.4637-.7197.0723-.0776.1527-.1473.2398-.2079 2.9833.7246 5.8827 1.759 8.6509 3.0865zm-10.106 16.79146c.1119-.57571 3.5659-13.89696 4.0936-15.04836.3997-.8476.016-1.1354-.3678-1.3593-.3038-.1919-.7675-.3838-1.4392-.7037-.1576-.0973-.3441-.1369-.5276-.1119-.144.048-.2399.1759-.3199.4158-2.0787 4.5896-3.4699 14.56859-3.4699 14.79248-.1919 1.43927.9274 1.67915 2.0308 2.01498z"
			fill="#fff" fill-rule="evenodd"/>
	</mask>
	<mask id="ab" fill="#fff">
		<path
			d="m4.5601 23.34615c-1.0554-.39979-.5757-.99149-.6556-1.83906-.306-6.01336-1.3808-11.96276-3.1981-17.70309-.1021-.258-.1771-.526-.2239-.7995 0-.048 0-.128 0-.128-.0095-.365.0502-.7286.1759-1.0714.4797-.7197 4.8291-1.2634 5.2769-1.0395.318.1896.5436.502.6236.8635l.2719.9276c2.0263 6.20279 3.1413 12.66699 3.31 19.19026-.7835 1.48725-5.1809 1.59919-5.5807 1.59919zm-1.5991-19.19025-.0319-.08c1.615 3.51823 3.246 16.32774 3.374 16.87147 0 .09595 1.4711-.35182 1.599-.73563.016-.04797-.4157-12.08988-2.8303-16.48764-.3678-.7516-1.0874-.3198-1.5991-.2079s-.6396.3838-.5117.6397z"
			fill="#fff" fill-rule="evenodd"/>
	</mask>
	<mask id="ac" fill="#fff">
		<path
			d="m30.2208 3.2221-1.9509-.096v.6397l1.5991.0959c.1599 0 .1599.064.1599.176v.4637c-.016.1599-.048.1599-.1759.1599l-1.5991-.0959v.7996l1.9029.0959c.1599 0 .1599.064.1599.1759v.4798c-.016.1599-.048.1599-.1919.1599l-2.6544-.1279c-.0496.0002-.0969-.0205-.1304-.0571-.0335-.0365-.05-.0855-.0455-.1348l.1919-3.5502c.016-.1599.0479-.1599.1759-.1599l2.5744.1279c.16.016.16.08.16.1919v.4957c0 .16-.048.16-.1759.16zm-3.1982-1.0075h.08c.1279 0 .1599.0639.0799.032v.4957c.0051.048-.0117.0958-.0459.13-.0342.0341-.0819.051-.1299.0459h-.9115l-.1439 2.8946c-.016.1599-.08.1599-.1919.1599h-.5757c-.1759-.016-.1759-.048-.1759-.1759l.1439-2.8946h-.8954c-.1759 0-.1759-.0639-.1759-.1759v-.4957c0-.16.0479-.16.1759-.16zm-4.7012-.3359.08.016c.7036 0 1.583.4798 1.4231 1.4073v1.3913c-.1078.7819-.8134 1.3394-1.599 1.2634-.3899.0173-.7701-.1244-1.0535-.3927-.2834-.2684-.4457-.6403-.4496-1.0306v-1.4073c.1078-.7799.8164-1.3326 1.599-1.2474zm.5277 2.6867.08-1.2314c.0141-.1708-.0464-.3393-.166-.462-.1197-.1227-.2866-.1875-.4577-.1777-.321-.0595-.6317.1453-.7036.4638v.0959 1.2314c-.0178.158.0305.3164.1334.4375.103.1212.2515.1944.4103.2022.3998.016.7036-.1759.7036-.5597zm-2.5425-2.6707s.1119 0 .1599.08l-.1919 3.5662c0 .1599-.0479.1599-.1919.1599h-.5277c-.1439-.016-.2558-.0959-.2558-.2239l-1.1513-2.0949-.112 2.0629c0 .16-.0799.16-.1918.16h-.5757c-.1599-.016-.1599-.064-.1599-.1919l.1279-3.5662c.016-.16.048-.16.1759-.16h.5757c.1439 0 .2558.096.2558.2079l1.1993 2.2389.1119-2.063c0-.1759.064-.1759.1759-.1759zm-3.438-.1759-.0479-.0479c.1439 0 .1599.0639.2238.2238v.3519c-.016.1759-.0639.1759-.1919.1759h-.9114l-.1439 2.8945c-.016.1599-.08.1599-.1919.1599h-.5757c-.1599-.016-.1599-.032-.1599-.1759l.1439-2.8945h-.9114c-.1759 0-.1759-.064-.1759-.1759v-.4958c.016-.1599.0479-.1599.1919-.1599zm-3.1981-.1759-.1119-.048c.1279 0 .1599.08.0799.2399v.4958c0 .1599-.0479.1599-.1918.1599l-1.775-.096v.7037h1.5991c.1599 0 .1599.0639.1599.1759v.4797c0 .16-.032.16-.1759.16l-1.5991-.08v1.3753c-.016.1759-.048.1759-.1919.1759h-.5916c-.1599-.016-.1599-.0799-.1599-.1919l.2238-3.5182c0-.1599.048-.1599.1759-.1599zm-3.1981 3.5822-.0799-.032c.0159 0 .0159.1599-.112.1599h-.6236c-.1279-.016-.2079-.0479-.2079-.1919l-.1439-.4797-1.4711-.08-.1759.4638c-.064.1759-.112.1759-.2399.1759h-.6236c-.096-.016-.096-.1919-.096-.1919l1.5991-3.4703c.0295-.1071.1288-.1799.2398-.1759h.5757c.1185.0054.2178.0914.2399.2079zm-2.2227-1.4393.8955.048-.3838-1.3273zm-2.4465 0 .5596 1.1195c.048.0959.016.1919-.0959.1919h-.7036c-.1252-.0021-.2377-.0771-.2878-.1919l-.5917-.9915c-.0307-.099-.0307-.2049 0-.3039v-.4797c.016-.16.048-.16.1759-.16h.1279c.2866.038.5504-.1616.5917-.4477.0087-.1342-.0374-.2662-.1279-.3657-.0904-.0995-.2174-.158-.3518-.1621h-.7836l-.016 2.9106c0 .1599-.0639.1599-.1758.1599h-.5917c-.1599 0-.1599-.048-.1599-.1919l.1919-3.5342c-.0051-.0481.0118-.0958.0459-.13.0342-.0342.0819-.051.13-.0459l1.5031.0959c.4314-.0196.8525.1361 1.1673.4318.2161.2707.3192.6145.2878.9595-.0309.5288-.3885.9821-.8954 1.1354zm-4.1416-1.983-.0799-.0959c-.3149.0494-.5341.3392-.4958.6557v1.2473c-.0159.3678.3199.6077.6397.6237s.6396-.2399.6556-.3678.032-.2239.1599-.2239h.5916c.1599.016.1599.064.1599.2079-.0457.5713-.3927 1.0749-.9103 1.321s-1.1271.1973-1.599-.128c-.4719-.3252-.7345-.8775-.6888-1.4489v-1.4073c.1078-.778.8194-1.326 1.5991-1.2313.7352-.0576 1.3876.4686 1.4871 1.1994 0 .1599-.048.1599-.1759.1599h-.5756c-.16 0-.16-.1919-.16-.1919-.1286-.21-.3617-.3327-.6076-.3199z"
			fill="#fff" fill-rule="evenodd"/>
	</mask>
	<mask id="ad" fill="#fff">
		<path
			d="m4.6678 3.3755c0 .0618-.0501.1119-.1119.1119l-4.3974-.2398c-.0285.0004-.0557-.0119-.0742-.0335-.0185-.0217-.0265-.0504-.0218-.0785l.144-2.8145c0-.0619.0501-.112.1119-.112l4.3974.2399c.0618 0 .1119.0501.1119.1119z"
			fill="#fff" fill-rule="evenodd"/>
	</mask>
	<mask id="ae" fill="#fff">
		<path
			d="m1.2127 2.9757c-.048-.016.016-.1759.016-.1759v-.7036l-.6077-1.2634h.3518c.0656-.0102.1281.0315.1439.0959l.3358.7197.3998-.6717h.1439.3678c.0213.0285.0213.0675 0 .096l-.7356 1.1994v.7036h-.0959z"
			fill="#fff" fill-rule="evenodd"/>
	</mask>
	<mask id="af" fill="#fff">
		<path
			d="m2.1413 2.9117c-.048 0-.2878-.1119-.2878-.1119v-1.0875l-.3358.5438c-.016 0-.096 0-.096 0h-.1599l-.3038-.5917v1.0874c.0063.0269-.0018.0551-.0213.0746s-.0477.0276-.0746.0214h-.3198v-.096l.0959-1.935c0-.0959.016-.0959.096-.0959h.3198c.1439 0 .1439.1119.1439.1119l.3997.8316.4638-.7676c.0319-.112.0479-.112.1599-.112l.3518.6557v1.3753c-.016.0959-.112.0959-.112.0959z"
			fill="#fff" fill-rule="evenodd"/>
	</mask>
	<mask id="ag" fill="#fff">
		<path
			d="m1.7954 4.5034-.0639.16c-.0168.739.1954 1.4652.6076 2.0789.1869.252.4271.4595.7036.6077.4383.1706.9048.2574 1.3752.2559h1.3752c.2305.0373.4037.2305.4157.4637 0 .2562-.2076.4638-.4637.4638h-1.3592c-.6065.0108-1.2076-.1149-1.759-.3678-.4059-.2008-.7571-.4971-1.0234-.8636-.5522-.7897-.8277-1.7399-.7835-2.7026v-.1759c.0639-.9595.4338-1.8731 1.0554-2.6067.298-.3329.6706-.5904 1.0873-.7516.5767-.1903 1.1883-.2503 1.791-.1759h.2079l2.1267.1279c.2561 0 .4637.2076.4637.4638 0 .2561-.2076.4637-.4637.4637l-2.1108-.1119h-.2238c-.4666-.0543-.9393-.0162-1.3912.1119-.286.1116-.5429.2866-.7516.5118-.481.5791-.7665 1.2956-.8155 2.0469z"
			fill="#fff" fill-rule="evenodd"/>
	</mask>
	<mask id="ah" fill="#fff">
		<path
			d="m5.0883 1.319-3.8537-.1759c-.1286.0045-.2532-.0446-.3442-.1355-.091-.091-.1401-.2157-.1355-.3442.0333-.2592.2679-.4441.5276-.4158l3.8378.2079c.2617-.0006.4788.2025.4957.4637-.0158.1235-.0807.2355-.1799.3107-.0993.0752-.2246.1073-.3478.0891z"
			fill="#fff" fill-rule="evenodd"/>
	</mask>
	<mask id="ai" fill="#fff">
		<path
			d="m5.6074 1.7198-4.4134-.2398c-.1299.0087-.2578-.0358-.3543-.1232-.0965-.0875-.1533-.2104-.1574-.3406.0412-.2704.2877-.4606.5597-.4318l4.3974.2399c.1315-.0043.2593.0438.3553.1338.0959.09.1522.2144.1564.3459-.0159.1278-.0824.2438-.1847.322-.1022.0782-.2316.112-.359.0938z"
			fill="#fff" fill-rule="evenodd"/>
	</mask>
	<mask id="aj" fill="#fff">
		<path
			d="m4.0243 1.9822-2.8943-.1599c-.1272 0-.2492-.0506-.3392-.1406-.0899-.0899-.1405-.212-.1405-.3392.0411-.2527.2733-.4287.5277-.3998l2.8783.1439c.13-.0043.2562.0443.3496.1348.0935.0904.1462.2149.14610014.345-.03330014.2592-.26790014.4441-.52770014.4158z"
			fill="#fff" fill-rule="evenodd"/>
	</mask>
	<mask id="ak" fill="#fff">
		<path
			d="m5.1661 60.5198c1.679-.3358 1.8069-3.4702 1.7589-4.9575-1.0074-34.3026 17.6057-44.5214 21.6033-47.24 3.1981-2.127 5.037-5.2614 11.3213-5.0215 1.9988.08 11.2254-6.9085 18.725-.6397.3358.2719 11.3533-2.4627 16.5022 3.5982.2719.6717 23.3782 15.4482 23.2024 45.7369-.0306 1.0505.613 2.0031 1.599 2.3668 1.3432.6076.4797 4.9255.9275 5.789.6876 1.3593 3.4859 5.4053 1.599 5.901-1.4231.3838-13.0483-1.0394-15.6707-.5277-11.961 3.2144-45.749 2.6707-83.3269.7676-1.615-.0799-3.6298-.5277-3.31-2.1269 1.5062-1.4521 3.2133-2.68 5.069-3.6462z"
			fill="#fff" fill-rule="evenodd"/>
	</mask>
	<mask id="al" fill="#fff">
		<path
			d="m81.0585 10.3063c13.2427 10.5954 20.6864 26.8364 20.0682 43.7858-.016.6717.2078.9435.8794.9435 1.0074 0 1.3912.6557 1.3912 1.5992-.0593 1.5582.0479 3.1182.3198 4.6537 1.5991.6396 1.5991 2.2228 1.5991 3.4702.2398 3.95.6236 3.95-3.6459 4.3658-.5436.048-8.0112.3038-8.5389-.3678-.8795-1.2154-2.9903-.2239-3.5499-.128-9.4665 2.5428-35.5631 4.6857-84.3503.3679-1.2001-.1234-2.3843-.3699-3.5339-.7357-1.1513-.2718-1.3592-.8475-.7196-1.871 1.1401-1.7156 2.6615-3.1441 4.4454-4.1739 1.5147-.7337 2.4045-2.3407 2.2227-4.014-.0808-5.7065.3689-11.4081 1.3432-17.0314 1.5914-8.6292 5.4553-16.6779 11.1934-23.3161 2.161-2.5368 4.4959-4.92 6.9879-7.1324.8905-.7387 1.9252-1.2833 3.0382-1.5992.5392-.142.9996-.493 1.2792-.9755 1.6017-2.5375 4.3424-4.1319 7.3397-4.2699 1.4404-.1793 2.9009-.1089 4.3175.2079.392.1072.8106-.024 1.0713-.3358 1.743-1.5672 8.1072-5.997 16.3584-.7676.1919.1439.4797 0 .7036 0 4.3771-.8713 8.9185-.3106 12.9523 1.5992 1.5171.4628 2.8169 1.4562 3.6619 2.7986.3819.7739.9823 1.4188 1.7269 1.855.5122.3114.994.6702 1.4392 1.0715zm21.7152 53.4609c-3.9017.064-7.8514-.9115-11.7211.4638-1.3432.4957-1.5991.2239-1.5991-1.1994.1759-2.8786.4158-5.7571.6397-8.6356.0479-.5598.3677-.6557.8954-.5598 1.814.3457 3.6447.5965 5.4848.7517 2.0308.1279 2.1267.1599 2.0308-1.8391-.2399-4.4138-1.631-27.9059-21.4753-41.9788-2.1188-1.7321-5.092-1.9618-7.4516-.5757-9.0507 5.2614-16.1985 25.5871-16.3424 25.5871 1.4232-6.1249 5.1969-24.1158 18.8689-29.1053-2.9504-1.5288-6.3077-2.0884-9.5944-1.5992-1.0627.4005-2.2405.366-3.278-.0959-1.0394-.6717-8.603-4.2379-13.8319.4158-.8406.8781-2.0664 1.2747-3.262 1.0554-5.4848-.7996-8.3951 1.5992-11.1934 6.3968-4.2535 7.1644-8.2991 32.9593-8.491 32.9593.3198-12.5377 3.326-23.5241 6.716-33.7909.1119-.2239-20.2281 14.5526-19.4125 46.3445.0319.9596.4157 1.3274 1.3432 1.1195 8.8907-1.935 29.7264-1.3114 30.1262-1.3114 0 0-19.2846.5278-27.8396 2.7506-2.2227.4478-8.3471 3.1345-10.0421 5.2454 2.4466 1.3593 55.967 5.3573 88.8116-.2879 1.0874-.1919 2.0468-.3198 2.6865.8476.1918.3518.6076.3518.9594.3518 2.2067.128 4.4134.2239 6.6201.2239 1.1673-.0799 1.4711-.5597 1.2952-1.5992-.1599-.3838-.0799-.7356-.1599-1.1834-.0799-.4477-.2878-.7516-.7835-.7516zm-11.3693-8.7955c-1.2313 0-.8155 6.0929-.9435 7.6601-.0639.7516.1759.8795.8955.6237 2.5425-.9116 2.5425-.8796 2.5425-3.5822 0-.1599.08-1.919.08-2.6547.0319-1.6152-.4797-2.1269-2.5745-2.0469zm10.138 4.1099v-.016c-.0799-1.951-.0959-1.951-2.0788-2.1909-.4957-.08-1.0394-.2879-1.599-.2879-3.0222-.3838-3.0222-.3838-3.0222 2.5907 0 1.0875-.144 3.0065.1599 3.1984.8475.5437 5.5807.4158 6.2523.4158.8475-.2719.2878-2.9105.2878-3.7101z"
			fill="#fff" fill-rule="evenodd"/>
	</mask>
	<mask id="am" fill="#fff">
		<path
			d="m11.2802 2.5789h-9.8662c-.2912.0312-.5827-.0565-.8084-.2431-.2258-.1866-.3667-.4564-.3909-.7484v-.1279c.0672-.5998.5977-1.0383 1.1993-.9915h9.8662c.599-.0385 1.1244.3959 1.1993.9915v.1279c-.059.6042-.5949 1.0472-1.1993.9915z"
			fill="#fff" fill-rule="evenodd"/>
	</mask>
	<mask id="an" fill="#fff">
		<path
			d="m10.0821 2.2891h-8.571c-.5893.0369-1.1003-.4032-1.1513-.9915v-.128c.0427-.5858.5491-1.0281 1.1353-.9915h8.587c.2843-.022.5657.0703.7818.2564s.3491.4507.3695.7351v.128c-.0509.5883-.562 1.0284-1.1513.9915z"
			fill="#fff" fill-rule="evenodd"/>
	</mask>
	<mask id="ao" fill="#fff">
		<path
			d="m1.6858 2.9832-.0159-.016c-.5833.028-1.0845-.4097-1.1354-.9915v-.1119c.0427-.5859.5491-1.0282 1.1354-.9915h6.3962c.2843-.022.5657.0702.7818.2563s.3491.4507.3695.7352v.1279c-.0427.5859-.5491 1.0281-1.1353.9915z"
			fill="#fff" fill-rule="evenodd"/>
	</mask>
	<mask id="ap" fill="#fff">
		<path
			d="m3.7522 4.404c-1.0364 1.3626-1.6081 3.0218-1.6311 4.7337v.3838c.0406 1.6642.5997 3.2743 1.5991 4.6056.4295.5298.9772.9515 1.599 1.2314 1.0236.3679 2.1146.5098 3.1982.4158h3.0062c.574 0 1.0394.4654 1.0394 1.0395s-.4654 1.0394-1.0394 1.0394h-2.9903c-1.3491.0923-2.7022-.1096-3.9656-.5917-.92-.4077-1.7309-1.0269-2.3666-1.807-1.3189-1.7066-2.0534-3.7925-2.0948-5.949v-.3838c.0219-2.1596.7459-4.2534 2.0628-5.965.6221-.7742 1.416-1.3929 2.3186-1.8071 1.2612-.4915 2.6152-.699 3.9657-.6077h5.2289c.574 0 1.0394.4654 1.0394 1.0395-.0414.5454-.4925.9688-1.0394.9755h-5.2289c-1.0518-.0802-2.1086.0615-3.1022.4158-.6198.2834-1.1667.7045-1.599 1.2313z"
			fill="#fff" fill-rule="evenodd"/>
	</mask>
	<g fill="none" fill-rule="evenodd">
		<path d="m-4.98329-4.1958h305.40579v305.36747h-305.40579z" fill="#e5e5e5" mask="url(#a)"
					transform="translate(55 62)"/>
		<path d="m-4.5715-4.8383h98.5297v173.2819h-98.5297z" fill="#fcc288" mask="url(#b)" transform="translate(159 40)"/>
		<path d="m-4.7388-4.1112h23.3041v15.041h-23.3041z" fill="#fff" mask="url(#c)" transform="translate(168 82)"/>
		<path d="m-4.9034-4.9905h35.5973v16.2754h-35.5973z" fill="#fff" mask="url(#d)" transform="translate(176 117)"/>
		<path d="m-4.3917-4.277h22.3651v14.7209h-22.3651z" fill="#fff" mask="url(#e)" transform="translate(198 84)"/>
		<path d="m-4.2625-4.5h21.97v14.0737h-21.97z" fill="#a76630" mask="url(#f)" transform="translate(199 91)"/>
		<path d="m-4.467-4.7002h22.9044v13.1203h-22.9044z" fill="#a76630" mask="url(#g)" transform="translate(168 89)"/>
		<path d="m-4.5249-4.486h15.5647v12.0447h-15.5647z" fill="#a76630" mask="url(#h)" transform="translate(212 90)"/>
		<path d="m-4.1329-4.8431h12.7345v13.2336h-12.7345z" fill="#a76630" mask="url(#i)" transform="translate(166 87)"/>
		<path d="m-4.3258-4.5364h12.7834v11.3693h-12.7834z" fill="#a76630" mask="url(#j)" transform="translate(198 89)"/>
		<path d="m-4.0352-4.5692h16.2034v15.1916h-16.2034z" fill="#494649" mask="url(#k)" transform="translate(171 82)"/>
		<path d="m-4.7921-4.4552h15.769v14.8141h-15.769z" fill="#49464a" mask="url(#l)" transform="translate(203 84)"/>
		<g fill="#7c4b31">
			<path d="m-4.01-4.2899h16.444v21.9742h-16.444z" mask="url(#m)" transform="translate(234 84)"/>
			<path d="m-4.3776-4.5494h21.7676v16.299h-21.7676z" mask="url(#n)" transform="translate(187 101)"/>
			<path d="m-4.964-4.5538h21.7585v17.756h-21.7585z" mask="url(#o)" transform="translate(178 100)"/>
			<path d="m-4.3169-4.2816h44.2433v18.8744h-44.2433z" mask="url(#p)" transform="translate(172 115)"/>
			<path d="m-4.3398-4.7897h15.8526v22.1539h-15.8526z" mask="url(#q)" transform="translate(237 92)"/>
			<path d="m-4.7821-4.4822h65.3594v91.5782h-65.3594z" mask="url(#r)" transform="translate(160 69)"/>
			<path d="m-4.6323-4.7534h30.7017v28.6691h-30.7017z" mask="url(#s)" transform="translate(201 131)"/>
			<path d="m-4.351-4.8496h29.137v70.5069h-29.137z" mask="url(#t)" transform="translate(229 81)"/>
			<path d="m-4.4297-4.7959h34.3918v18.7764h-34.3918z" mask="url(#u)" transform="translate(194 82)"/>
			<path d="m-4.0363-4.2569h27.3552v27.9997h-27.3552z" mask="url(#v)" transform="translate(166 78)"/>
		</g>
		<path d="m-4.3046-4.132h25.6112v15.6877h-25.6112z" fill="#2a1b13" mask="url(#w)" transform="translate(197 83)"/>
		<path d="m-4.0219-4.8006h25.0314v14.2698h-25.0314z" fill="#2a1b13" mask="url(#x)" transform="translate(166 82)"/>
		<path d="m-4.3879-4.6045h97.2836v81.8063h-97.2836z" fill="#6a4f3d" mask="url(#y)" transform="translate(157 21)"/>
		<path d="m-4.348-4.1866h99.7551v90.0115h-99.7551z" fill="#543f30" mask="url(#z)" transform="translate(156 16)"/>
		<path d="m-4.8223-4.6242h31.211v14.3523h-31.211z" fill="#543f30" mask="url(#A)" transform="translate(194 76)"/>
		<path d="m-4.6288-4.8547h29.4652v15.2225h-29.4652z" fill="#543f30" mask="url(#B)" transform="translate(163 75)"/>
		<path d="m-4.334-4.2654h12.8721v12.5763h-12.8721z" fill="#000" mask="url(#C)" transform="translate(173 83)"/>
		<path d="m-4.5842-4.5702h12.8246v12.4791h-12.8246z" fill="#000" mask="url(#D)" transform="translate(204 85)"/>
		<path d="m-4.3614-4.3934h11.5372v11.4567h-11.5372z" fill="#fff" mask="url(#E)" transform="translate(174 83)"/>
		<path d="m-4.3907-4.5444h11.5485v11.4571h-11.5485z" fill="#fff" mask="url(#F)" transform="translate(205 85)"/>
		<path d="m-4.9773-4.4518h100.3524v34.2616h-100.3524z" fill="#655e62" mask="url(#G)" transform="translate(156 75)"/>
		<path d="m-4.1676-4.8989h117.7041v149.58383h-117.7041z" fill="#fec288" mask="url(#H)"
					transform="translate(284 256)"/>
		<path d="m-4.969-4.5403h71.5601v103.57107h-71.5601z" fill="#fec288" mask="url(#I)" transform="translate(89 246)"/>
		<path d="m-4.6153-4.7063h119.5632v147.66164h-119.5632z" fill="#7f4f36" mask="url(#J)"
					transform="translate(284 259)"/>
		<path d="m-4.4432-4.7482h64.0369v103.65029h-64.0369z" fill="#7f4f36" mask="url(#K)" transform="translate(87 247)"/>
		<path d="m-4.0155-4.4474h29.9257v62.4243h-29.9257z" fill="#7f4f36" mask="url(#L)" transform="translate(121 251)"/>
		<path d="m-4.696-4.8672h54.251v64.8624h-54.251z" fill="#fff" mask="url(#M)" transform="translate(168 149)"/>
		<path d="m-4.9147-4.4811h259.7188v207.17807h-259.7188z" fill="#4d4d4d" mask="url(#N)"
					transform="translate(83 129)"/>
		<path d="m-4.0201-4.3026h264.575v209.93074h-264.575z" fill="#202020" mask="url(#O)" transform="translate(80 125)"/>
		<path d="m-4.929-4.2144h126.2194v53.41805h-126.2194z" fill="#44689b" mask="url(#P)" transform="translate(138 314)"/>
		<path d="m-4.0066-4.5337h131.4483v54.80981h-131.4483z" fill="#1f385c" mask="url(#Q)"
					transform="translate(133 312)"/>
		<path d="m-4.2326-4.1089h15.18v15.40627h-15.18z" fill="#1f385c" mask="url(#R)" transform="translate(177 331)"/>
		<path d="m-4.3232-4.5537h122.6367v44.14191h-122.6367z" fill="#563f2d" mask="url(#S)"
					transform="translate(140 312)"/>
		<path d="m-4.9171-4.17753h12.2944v12.01119h-12.2944z" fill="#3b2f25" mask="url(#T)" transform="translate(183 336)"/>
		<path d="m-4.5259-4.76923h12.2337v12.12442h-12.2337z" fill="#3b2f25" mask="url(#U)" transform="translate(195 336)"/>
		<path d="m-4.6713-4.02429h12.1816v12.02166h-12.1816z" fill="#3b2f25" mask="url(#V)" transform="translate(173 336)"/>
		<path d="m-4.434-4.79271h12.3682v12.103h-12.3682z" fill="#3b2f25" mask="url(#W)" transform="translate(207 335)"/>
		<path d="m-4.8231-4.997h123.8281v45.3777h-123.8281z" fill="#3b2f25" mask="url(#X)" transform="translate(140 312)"/>
		<path d="m-4.3234-4.099h17.3609v30.55724h-17.3609z" fill="#486b9e" mask="url(#Y)" transform="translate(214 323)"/>
		<path d="m-4.3015-4.7687h18.4292v30.18993h-18.4292z" fill="#486b9e" mask="url(#Z)" transform="translate(145 321)"/>
		<path d="m-4.9187-4.8731h23.8097v32.49014h-23.8097z" fill="#1f385c" mask="url(#aa)" transform="translate(145 320)"/>
		<path d="m-4.5185-4.2854h19.6593v32.63155h-19.6593z" fill="#1f385c" mask="url(#ab)" transform="translate(213 322)"/>
		<path d="m-4.9106-4.1554h40.3073v15.4319h-40.3073z" fill="#fff" mask="url(#ac)" transform="translate(193 208)"/>
		<path d="m-4.9388-4.7909h14.7665v13.2783h-14.7665z" fill="#ff5c20" mask="url(#ad)" transform="translate(193 205)"/>
		<path d="m-4.379-4.1687h11.759v12.1444h-11.759z" fill="#fff" mask="url(#ae)" transform="translate(195 205)"/>
		<path d="m-4.4577-4.2791h12.0308v12.1908h-12.0308z" fill="#fff" mask="url(#af)" transform="translate(193 205)"/>
		<path d="m-4.1846-4.1417h16.7366v17.6757h-16.7366z" fill="#ff5c20" mask="url(#ag)" transform="translate(183 204)"/>
		<path d="m-4.2454-4.7553h14.8614v11.0793h-14.8614z" fill="#ff5c20" mask="url(#ah)" transform="translate(185 208)"/>
		<path d="m-4.3177-4.4185h15.4688v11.1431h-15.4688z" fill="#ff5c20" mask="url(#ai)" transform="translate(186 206)"/>
		<path d="m-4.3497-4.0604h13.9017v11.0454h-13.9017z" fill="#ff5c20" mask="url(#aj)" transform="translate(186 209)"/>
		<path d="m-4.9367-4.9523h112.9845v77.7814h-112.9845z" fill="#fe5c20" mask="url(#ak)" transform="translate(148 5)"/>
		<path d="m-4.3793-4.496h114.8275v80.9633h-114.8275z" fill="#a0370f" mask="url(#al)" transform="translate(146 3)"/>
		<path d="m-4.7853-4.5354h22.2648v12.1205h-22.2648z" fill="#fff" mask="url(#am)" transform="translate(179 41)"/>
		<path d="m-4.6402-4.8251h20.8736v12.1163h-20.8736z" fill="#fff" mask="url(#an)" transform="translate(177 45)"/>
		<path d="m-4.4655-4.1309h18.6829v12.1162h-18.6829z" fill="#fff" mask="url(#ao)" transform="translate(179 48)"/>
		<path d="m-4.8937-4.2791h24.6154v27.1541h-24.6154z" fill="#fff" mask="url(#ap)" transform="translate(173 37)"/>
	</g>
</svg>
