<svg height="397" viewBox="0 0 394 397" width="394" xmlns="http://www.w3.org/2000/svg">
	<mask id="a" fill="#fff">
		<path
			d="m88.0054 286.1391-1.4565-.63134c-63.9874-30.02916-98.20056-100.78976-82.0087-169.61256 16.1919-68.8229 78.362-116.892 149.0212-115.2212 70.6592 1.6707 130.4896 52.6245 143.4128 122.1358 12.9232 69.5112-24.5939 138.5758-89.9282 165.54711l-2.1523.87417-3.1071 1.18175c-4.578 1.69778-9.2393 3.16201-13.9657 4.38704l-3.3984.84179c-11.2756 2.65432-22.8211 3.9907-34.4047 3.982369-4.4232-.010829-8.7926-.199699-13.108-.566629l-2.3627-.22664c-2.6702-.2752-5.3241-.61515-7.9458-1.01986l-2.9938-.51803c-10.9547-1.97656-21.6536-5.17482-31.8963-9.53493-1.246-.50184-2.4759-1.05224-3.7058-1.61884z"
			fill="#fff" fill-rule="evenodd"/>
	</mask>
	<mask id="b" fill="#fff">
		<path
			d="m30.3567 1.0463c57.8535-5.844 42.6417 51.8189 42.9006 53.1787.7444-3.95 16.2799-22.1942 17.089-1.3598-1.6182 3.9175-10.0657 20.7048-14.5645 20.7048-.7606 0-1.5373 21.482-3.2365 27.2612-2.8806 9.9397-28.3199 21.7571-29.2909 22.6637-13.9657 13.1611-27.0253 38.593-29.5336 42.3973-.712 1.0522-.6959-30.1913-3.2366-50.88-1.2784-10.053 3.6574-15.7027 3.2366-15.9779-.89-.6152-14.3865-21.0448-9.9362-40.4708.4045-1.7322-.7768-12.4489-1.942-18.6652-7.4279-39.2567 25.4232-38.5283 28.5141-38.852z"
			fill="#fff" fill-rule="evenodd"/>
	</mask>
	<mask id="c" fill="#fff">
		<path
			d="m14.1554 4.1992c-.0486.599-3.7544 1.1332-4.693 1.457-3.2366 1.1332-6.3599-.4533-8.7711-2.5578 0 0 7.2337-4.986 11.1338 0 .2589.3238 2.3303.5828 2.3303 1.1008z"
			fill="#fff" fill-rule="evenodd"/>
	</mask>
	<mask id="d" fill="#fff">
		<path
			d="m15.4928 1.0741c.4208-.081 11.3604 1.7807 11.0205 2.1045-9.7096 8.1103-23.4812.259-25.8924-1.8131 2.789-.8311 5.712-1.117 8.6092-.8418 1.7477.1457 2.4922 1.2627 6.2627.5504z"
			fill="#fff" fill-rule="evenodd"/>
	</mask>
	<mask id="e" fill="#fff">
		<path
			d="m11.6856 5.1455c-6.2141 1.5379-11.9752-2.1854-11.2308-2.153 1.7963.2914 4.0133-5.2127 11.684 0 1.1651.8256 1.0195 1.7969-.4532 2.153z"
			fill="#fff" fill-rule="evenodd"/>
	</mask>
	<mask id="f" fill="#fff">
		<path d="m12.5628 4.2c-3.0423 1.7321-11.3279-1.198-12.1047-3.5291-.2427-.7447 4.9681 4.5975 12.1047 3.5291z"
					fill="#fff" fill-rule="evenodd"/>
	</mask>
	<mask id="g" fill="#fff">
		<path d="m.8855 3.3184c4.4637-.3699 8.8538-1.3616 13.0433-2.9462-1.0357.8417-7.7515 3.9985-13.0433 2.9462z"
					fill="#fff" fill-rule="evenodd"/>
	</mask>
	<mask id="h" fill="#fff">
		<path
			d="m3.6733.7482c.7864-.2012 1.6114-.1956 2.395.0161-2.7996.6314-3.3498 2.056-5.6316 1.8941 1.2827-.2012 2.4403-.8844 3.2366-1.9102z"
			fill="#fff" fill-rule="evenodd"/>
	</mask>
	<mask id="i" fill="#fff">
		<path d="m3.0345 3.4406c.2913.3237-4.3208-1.6189-2.2009-3.2377.0647 1.5055 1.2946 2.2502 2.2009 3.2377z" fill="#fff"
					fill-rule="evenodd"/>
	</mask>
	<mask id="j" fill="#fff">
		<path d="m3.2868 1.91c-1.8449-.4047-2.6864-1.6188-2.7835-1.3274-.4045.858 2.7349 1.4408 2.7835 1.3274z" fill="#fff"
					fill-rule="evenodd"/>
	</mask>
	<mask id="k" fill="#fff">
		<path d="m6.0611 4.4259c-3.0262 3.7071-8.9329-1.8131-3.2365-3.9985 1.2137-.1296 5.5183 1.2141 3.2365 3.9985z"
					fill="#fff" fill-rule="evenodd"/>
	</mask>
	<mask id="l" fill="#fff">
		<path d="m5.828 2.2964c.9386 5.6659-8.0914 2.6225-5.1785-1.0523.5987-.7284 4.4502-1.4407 5.1785 1.0523z" fill="#fff"
					fill-rule="evenodd"/>
	</mask>
	<mask id="m" fill="#fff">
		<path
			d="m.8694 8.5127c.2321-3.5195 2.5157-6.5716 5.8258-7.7866-.0647.3885-5.1947 5.1803-3.5764 7.2362 1.861 3.4157-1.4403 5.1317-2.1199 4.8565-.6797-.2752-1.0681-.6637-.6797-1.4731.3941-.8909.5822-1.8593.5502-2.833z"
			fill="#fff" fill-rule="evenodd"/>
	</mask>
	<mask id="n" fill="#fff">
		<path
			d="m10.0469 4.8033c1.3755-1.0522 1.4403-1.4731.4531-2.9624-.2266-.3238-.6959-.68-.2266-1.0361s.8254.0809 1.1167.4209c1.0357 1.1817 1.3431 2.8006-1.1005 4.8565-1.2946 1.0684-2.1199 1.3274-3.5116.3885-2.8644-1.9588-5.7773-.1781-6.4732-.6799-.2103-.6313.259-.8742.6635-1.1332 2.1204-1.2968 4.8441-1.0257 6.6673.6637.7121.6152 1.1652.5828 1.7478 0 .2109-.1854.4325-.3583.6635-.518z"
			fill="#fff" fill-rule="evenodd"/>
	</mask>
	<mask id="o" fill="#fff">
		<path
			d="m.6437 3.3589c.2104-.9713.1618-1.9912 1.2299-2.7682-.8111 1.3498-.8111 3.0372 0 4.387.2266.2914.4369.5504.7606.1943.712-.7771 1.4726-.4695 2.1685 0 1.3755.9713 3.1233 1.3436 4.6121 2.1854.2728.0502.5525.0502.8253 0h2.1847c.2427.5018-.178.7609-.4046 1.0846-2.6713-.3531-5.3078-.9325-7.881-1.7321-.2258-.0692-.4599-.1073-.6959-.1134-.8529.1066-1.7026-.2198-2.265-.8701-.5623-.6503-.7629-1.5386-.5346-2.3675z"
			fill="#fff" fill-rule="evenodd"/>
	</mask>
	<mask id="p" fill="#fff">
		<path
			d="m1.3553 2.2845c-.1295-.0323-.5179-.4209-1.1328-1.0522-.1619-.1457 1.861-1.1008 1.861-1.1008 2.6702.8742 5.3403.0647 7.9943.2104 1.5419-.1152 3.0824.2405 4.4179 1.0199.3755.2685.8569.3408 1.2946.1943.714-.3451 1.4899-.5433 2.2818-.5828 3.4746.2721 6.9284.7641 10.3408 1.4731 1.2088.443 2.5624.2019 3.544-.6313.2266-.2105 2.8968.9551 2.8968.9551-.9225.0324-.9872.0809-1.1814.1457-.1942.0647-5.5992 3.5614-7.3955 4.468-5.4255 2.3999-11.6346 2.2755-16.9596-.34-2.1244-.9348-4.1116-2.1547-5.9067-3.6262-.5382-.5982-1.2622-.9974-2.0552-1.1332zm10.0333 0c-1.9304-.1046-3.8663.0369-5.7611.4209 7.2014 5.326 15.0177 5.326 22.5103 1.5703-1.4079-.259-8.7225-1.9102-10.2599-1.2627-1.4997.5789-3.161.5789-4.6606 0z"
			fill="#fff" fill-rule="evenodd"/>
	</mask>
	<mask id="q" fill="#fff">
		<path
			d="m5.8927 6.47c-.7767 2.3797-3.3174 2.7196-4.9357 6.1354.2165-1.2591.7638-2.438 1.5859-3.4158.6635-.7122 2.8158-1.5702 2.9938-4.5489.2497-1.4911.6903-2.9438 1.3108-4.3223-.0894 2.0796-.4096 4.1428-.9548 6.1516z"
			fill="#fff" fill-rule="evenodd"/>
	</mask>
	<mask id="r" fill="#fff">
		<path
			d="m3.9335 30.6032c.2913 3.9823-.2589 7.9485-.0323 11.9308.1919 3.6079 1.0363 7.1511 2.4921 10.4577 1.9442 4.2537 4.3136 8.2998 7.0719 12.0765 1.149 1.6188 2.4598 3.2376 3.5926 4.8565 1.1169 1.6623 2.8766 2.783 4.8548 3.0919 3.0748.5343 6.1333 1.198 9.2404 1.4408 4.421.3054 8.8326-.7147 12.6711-2.9301 3.8192-2.1692 11.8458-7.7866 12.7359-7.7866-1.2137 1.2303-2.217 2.315-3.3498 3.2377-2.3304 1.894-11.7326 10.9433-25.0672 9.9882-7.6059-.9875-11.3441-3.1891-12.0885-3.8366-.7444-.6476-1.0843-.4695-1.4241.3561-.3399.8256-5.0329 9.2921-5.1947 9.4378s.3722-4.3061-.5502-4.8565c-.437-.2428.5987-3.2862 1.0357-4.1928.8836-1.7843 1.3222-3.7561 1.2784-5.7468.0404-1.14-.4-2.2444-1.2137-3.0435-5.6801-5.4878-7.9296-12.4812-8.9167-20.0573-.6162-4.1916-.5012-8.4584.3398-12.6107.0648-.2752-.8738-21.2067-.8738-22.8256 0-1.1494 0-8.078 0-9.2435 1.683.4532 2.8805 23.1493 3.3983 30.256z"
			fill="#fff" fill-rule="evenodd"/>
	</mask>
	<mask id="s" fill="#fff">
		<path d="m21.1464.8342c-8.7873 12.8049-20.5845 19.4745-20.9405 18.8594-.3561-.6152 7.9943-4.9213 20.9405-18.8594z"
					fill="#fff" fill-rule="evenodd"/>
	</mask>
	<mask id="t" fill="#fff">
		<path
			d="m9.4425 26.1793c.3884-1.5379 1.7477-2.5739 2.5083-3.9014.356-.5504 9.3051-11.9308 5.4374-18.2604-.2265-.3723-1.7963-2.752-2.1037-3.0434-.8092-.7932 1.3108-1.0361 1.6182-.7123 6.4893 6.4753 1.3918 15.0552-.2265 17.8072-.9872 1.7159-2.0552 3.4481-3.1557 5.0669-1.0505 1.5436-1.9142 3.2064-2.573 4.9537-.5444 1.7878-1.9283 3.1964-3.7059 3.7718-.6061.1317-1.0336.6749-1.0195 1.2951-.4693 4.6622-.356 9.3731-.356 14.0515-.1942 1.5379-5.0491 15.217-5.0491 14.1 0-1.8131 1.4079-13.4687 1.6183-17.5643.3075-6.1354.7282-20.0898 1.0681-20.8668.3054 1.5027.4626 3.0317.4693 4.5651.0162 1.5217.2751 1.7484 1.7477 1.6189 1.7758.0717 3.3461-1.144 3.7221-2.8816z"
			fill="#fff" fill-rule="evenodd"/>
	</mask>
	<mask id="u" fill="#fff">
		<path
			d="m3.0307.2978c.356.2914.1618.6314-.0647.7933-.6797.5828-.2913 1.1655 0 1.6188s.534.6314 1.0357.2266c1.1479-.852 2.4678-1.4431 3.8677-1.7321 1.5307-.4866 3.1962-.2982 4.5797.518 2.6614 1.7137 5.2224 3.5784 7.6706 5.585.8732.6608 1.976.941 3.0586.777.6149-.0161 2.1847-.2914 1.7477.4695-.9062 1.5703-5.7449-.7932-7.6221-2.1369-2.2328-1.6554-4.6232-3.0869-7.1366-4.2737-1.1328-.5504-4.0295.6152-5.9876 2.0559-.9386.6799-1.1652.3076-1.6183-.437-.4531-.7447-.8091-1.1332-1.2623 0-.1294.3075-.2913.8256-.7282.6313s-.1133-.6475 0-.9551c.3193-1.0831.8716-2.0832 1.6183-2.9301.2427-.2105.5178-.4695.8415-.2105z"
			fill="#fff" fill-rule="evenodd"/>
	</mask>
	<mask id="v" fill="#fff">
		<path
			d="m7.42 3.5046c2.1847-.7123 4.0457.2267 5.9553 1.0037.4207.1619 1.4402.6961 1.4402.6961-.5463-1.5977-1.4106-3.068-2.5407-4.3223-.2265-.2266 1.6507-.3399 2.0067.1295 3.9316 4.7661 4.7635 11.3728 2.1361 16.9654-.0809.1781-.7444 1.0846-1.0357.9065-.2913-.178 2.1523-4.5489 1.2299-9.2435-.1487-1.2154-.8231-2.3043-1.8448-2.9787-7.3632-4.8726-13.8687 1.797-14.3703 1.0199-.5017-.777 4.9195-3.4967 7.0233-4.1766z"
			fill="#fff" fill-rule="evenodd"/>
	</mask>
	<mask id="w" fill="#fff">
		<path
			d="m3.8337 3.6363c-.6418.8034-1.6268 1.254-2.654 1.2141-.3399-.0323-.6959-.1133-.7282-.5342-.0324-.4209.3236-.5666.6473-.5666 1.0122-.1509 1.9636-.5764 2.751-1.2303 1.3432-.9227 2.8806-1.8131 3.7544-1.6188 1.5938.3177 3.1005.9747 4.418 1.9264 1.3414 1.34 2.7512 2.6098 4.2237 3.8043-1.4955-.4635-2.8823-1.2232-4.0781-2.234-1.5536-1.4246-3.4793-2.7682-5.0976-2.6063-1.2322.295-2.3549.9351-3.2365 1.8454z"
			fill="#fff" fill-rule="evenodd"/>
	</mask>
	<mask id="x" fill="#fff">
		<path
			d="m12.0806 3.0661c-2.6863-2.6711-4.3369-1.797-7.1042-.9875-1.4816.617-2.994 1.1573-4.5312 1.6188 2.5082-2.1572 5.6757-3.3961 8.9815-3.5129 1.2495.3436 2.3733 1.0406 3.2365 2.0074.614.7206 1.4619 1.202 2.3951 1.3598.3398.0648.6797.2428.5826.599-.0971.3561-.4855.3561-.8092.3561-1.0568-.1451-2.0297-.6547-2.7511-1.4407z"
			fill="#fff" fill-rule="evenodd"/>
	</mask>
	<mask id="y" fill="#fff">
		<path
			d="m3.6646 56.3729c-.0485.518-2.6216-2.6549-2.8481-5.5202-.4208-19.7336 8.4474-38.9492 18.8367-43.7085 2.6216-1.198 3.3013-5.2127 6.0038-5.6174 9.9039-1.4569 29.4204-.9227 31.5241-.6475 10.7292 1.4407 21.2319 10.0853 27.5108 20.5106 4.1913 6.9772 4.9357 39.451 4.3855 39.6291-.7929-.5181-8.4474 1.8293-12.9462 12.3031-.2589-1.8455-2.7349-20.3487-2.7996-22.6637-.0648-2.3149-4.5474-14.1162-9.0624-18.05-.8415-.7284-20.892-7.4628-30.6017-7.4628-1.9743 0-3.4631-1.7483-5.2108-.7608-1.2785.7284-8.496 3.3024-9.823 3.0919-2.0482-.6375-4.2718-.3602-6.1009.7609-2.6702 1.4246-6.8939 7.4952-8.8682 28.1353z"
			fill="#fff" fill-rule="evenodd"/>
	</mask>
	<mask id="z" fill="#fff">
		<path
			d="m4.5675 64.1897s-3.2527-3.011-3.6411-16.2855c.6311-5.6659-1.0519-18.1957 13.3832-33.8822-2.1381-.1072-4.2492.515-5.9877 1.7645 1.8125-2.493 5.0491-5.9411 14.4351-8.5312-.8253-.7447-5.5183-2.2016-5.5022-2.6711.0162-.4694 12.2019.2428 12.2019.2428s10.0818-4.2089 10.6806-3.8042c-.7444.8742-1.8125 1.8131-2.7996 2.9624 10.3408-2.93 23.1576-1.2626 28.1419-.8741-1.3681.5183-2.6672 1.2034-3.8677 2.0397 7.2686 1.1737 14.0817 4.3016 19.7106 9.0493-1.3651-.3794-2.7745-.5753-4.1913-.5828 4.0295 2.6711 12.6873 13.582 12.4446 13.8087-.2428.2266-2.1362-1.0685-2.6055-.5828-.4693.4856 2.5731 4.9536 3.4146 11.6394 1.1975 5.504 1.3917 28.7019 1.3917 28.7019-2.3465-.4694-11.2147 1.1008-14.079 14.6829-1.0519 0-3.2366.2752-3.2366 0-.3398-5.8877-.3398-11.7901 0-17.6777.0486-.9066-2.4274-3.3834-2.3141-8.0942s-4.3208-15.4275-5.3242-16.0426c-15.5354-9.6483-34.9548-8.7255-35.8449-8.596 0 0 .615-1.5217.793-2.0074-4.818 1.3899-9.4441 3.3748-13.7716 5.9088-.6149.4208-.3074-2.7035-.7929-2.4931-6.8291 3.0111-9.5479 10.4415-10.0657 15.7189-.4855 4.727-2.4598 15.2009-2.5731 15.6056zm16.7007-49.9896c-15.3737 10.2472-18.0438 28.7343-17.6069 37.7512-.0265 1.1179.0987 2.2343.3722 3.3186.3722-.1457-.9062-24.3473 15.2766-25.788 0 0-.2266 2.2987.534 1.8455 4.851-2.0458 9.8167-3.8079 14.872-5.2774l.2589 2.0397c.1942.5342 17.2347-.9875 31.605 7.8351 2.832 1.7969 5.6802 4.0633 6.4731 7.6409 1.7963 6.443 1.7963 14.9257 3.5602 18.7623 1.6345 3.5453.6797 12.2384 1.0681 12.2546233.3884.0161767 3.1718-8.4341233 10.7292-9.3083233 0 0-.4693-24.6872-.793-25.788-3.01-10.9272-4.9681-10.8462-7.8648-15.4113.9855.081 1.976.081 2.9614 0-7.3146-8.7903-17.089-15.9293-28.9348-16.0589l.4208-1.1331c-6.412-.2071-12.8261.3362-19.1119 1.6188-.4531.0971-6.0362-.7123-6.4731-.6152-.437.0972 1.9257 1.6027 1.505 1.716-3.5252.8884-6.9769 2.0466-10.3247 3.4643z"
			fill="#fff" fill-rule="evenodd"/>
	</mask>
	<mask id="A" fill="#fff">
		<path
			d="m22.3011 4.6952c-20.5684-1.376-21.2966.1781-21.426-.1619-.1295-.3399 2.7025-2.9301 5.2432-4.1604 11.9267-.7932 16.6683 4.3223 16.1828 4.3223z"
			fill="#fff" fill-rule="evenodd"/>
	</mask>
	<mask id="B" fill="#fff">
		<path
			d="m18.1359 4.7887c-9.289-4.3223-17.0567.3723-17.3965 0-.3399-.3724 6.02-9.5026 18.6587-1.4084 2.5407 2.4606-.2265 2.1692-1.2622 1.4084z"
			fill="#fff" fill-rule="evenodd"/>
	</mask>
	<mask id="C" fill="#fff">
		<path
			d="m2.9931 2.2603c0 .6637-.8415 1.117-1.2623 1.0846-1.3917-.0485-1.6183-.8741-1.6183-1.376 0-.9065.8092-1.2303 1.6183-1.2303.3733.024.7202.2008.959.4887.2389.2879.3486.6616.3033 1.033z"
			fill="#fff" fill-rule="evenodd"/>
	</mask>
	<mask id="D" fill="#fff">
		<path
			d="m3.1126 1.9115c0 .6476-.8092 1.0685-1.2137 1.0523-1.4079-.0486-1.6183-.858-1.6183-1.3275 0-.8741.8415-1.1817 1.6183-1.1817.3609.0147.6987.1815.93.4591.2312.2776.3343.64.2837.9978z"
			fill="#fff" fill-rule="evenodd"/>
	</mask>
	<mask id="E" fill="#fff">
		<path
			d="m1.459 1.9204c-.3627.2699-.8749.1977-1.1489-.1619-.2261-.266-.2261-.6568 0-.9228.3234-.3022.8255-.3022 1.1489 0 .154.1382.242.3354.242.5423 0 .207-.088.4042-.242.5424z"
			fill="#fff" fill-rule="evenodd"/>
	</mask>
	<mask id="F" fill="#fff">
		<path
			d="m1.7404 1.7982c-.3669.2664-.8799.1869-1.149-.1781-.217-.2631-.217-.6433 0-.9065.3201-.3105.8289-.3105 1.149 0 .154.1382.242.3353.242.5423 0 .2069-.088.4041-.242.5423z"
			fill="#fff" fill-rule="evenodd"/>
	</mask>
	<mask id="G" fill="#fff">
		<path
			d="m8.6132 20.3457c-2.2879-.4928-4.1318-2.1826-4.8224-4.4195-.6959-2.4768-1.6183-9.5997-1.6183-9.5997-1.2461-.5018-1.8449-.7932-1.8449-.7932-.0604-1.4877.0154-2.9779.2266-4.4518 1.3593-.3076 11.3765-.7123 13.2537-.6151 5.2841.1771 10.5133 1.1317 15.5193 2.8329 2.3667.8744 4.9019 1.1956 7.4117.939 4.2949-.5191 8.621-.7354 12.9463-.6476 5.8814.2428 11.697 1.3332 17.267 3.2377 0 0 11.4736-2.8654 15.0662-3.3996 2.832-.4047 9.7097 3.2863 9.7097 3.61-1.6507-1.0198-6.3761-.7446-7.7516-.3237-5.6316 1.6997-10.3246 3.2862-16.0533 4.6946-.7121.1619-1.5212.5342-1.5212 1.2951-.0025 1.9699-.1269 3.9379-.3722 5.8925-.7121 4.4518-2.7349 6.103-6.3275 6.3135-4.708.2216-9.4261.0754-14.1114-.4371-2.6334-.2882-5.0038-1.7288-6.4731-3.9338-1.5275-2.3019-2.5531-4.8999-3.01-7.6247-1.6183-6.3296-4.7092-4.6137-5.6963-2.7358-.4258.8831-.7672 1.8046-1.0196 2.752-.6336 2.7439-1.728 5.3603-3.2365 7.738-.8454 1.0601-2.1405 1.6599-3.4955 1.6189-4.7551.0939-9.4954-.5617-14.0467-1.9426zm29.3556-13.5983c-.3236.1943-.5664.4209-.6311.858-.2673 3.7539.5114 7.5085 2.2494 10.8462 1.3755 2.3797 3.1233 4.5975 6.2304 4.9698 4.2941.5495 8.6355.6255 12.9462.2267 3.6735-.3724 4.8872-1.3922 5.4536-5.0184.3939-2.8205.5616-5.6679.5017-8.5151.1358-.88-.4643-1.7045-1.3432-1.8455-5.3587-1.8363-11.007-2.681-16.6683-2.493-2.0683-.0433-4.1374.0269-6.198.2105-.9021.0058-1.7838.2698-2.5407.7608zm-34.3075-1.3436c-.0599 3.1919.416 6.3711 1.4079 9.4054.6957 2.3939 2.7034 4.1756 5.1623 4.5813 3.8037 1.0273 7.728 1.5391 11.6678 1.5217 1.6138-.1125 3.0215-1.1373 3.6249-2.6387.8531-2.0048 1.551-4.0722 2.0876-6.1839.5383-1.7097.693-3.5172.4531-5.2936-.028-.74-.5545-1.3667-1.2784-1.5217-2.2149-.6593-4.476-1.1518-6.7644-1.4731-4.6917-1.0853-9.5478-1.2612-14.3056-.5181-1.6992.34-1.9419.3886-2.0552 2.1207z"
			fill="#fff" fill-rule="evenodd"/>
	</mask>
	<mask id="H" fill="#fff">
		<path
			d="m1.8955 55.3454c.534-2.9301-2.1847-55.8174-1.5212-55.0403 10.2599 12.2869 41.784 8.0941 43.1433 6.4753-21.0214 12.7888-42.1076 51.2199-41.6221 48.565z"
			fill="#fff" fill-rule="evenodd"/>
	</mask>
	<mask id="I" fill="#fff">
		<path
			d="m250.8044 115.3306c0 .2429 1.1813 15.6865 1.1813 15.9455-.9548 1.5217-28.8216-12.9506-54.9244 5.925 0-.9228-6.2628-10.5063-6.4731-17.1273-2.6378-2.8168-15.9077-17.8072-17.2833-18.1471-1.3755-.34-10.0171 56.5459-11.3279 66.1455-.5826 4.1443 3.9162 17.9853 3.9324 19.507-44.3247 21.49811-101.1425 8.6284-101.8221 3.3186-.3237-2.5416-4.596-14.3267-4.8549-15.3304-.6473-2.0883 1.6183-44.6312-5.8582-65.7408-1.5373-.8904-29.485 18.1795-29.8248 17.273-1.8772 5.504-13.8849 6.4753-14.6778 6.621-.793.1457-10.2438-3.7071-7.9458-6.2163 11.9515-15.1306 13.3416-36.0656 3.4955-52.6445 1.3593-2.4445 15.6326 1.6188 13.0919-3.7072 1.4079-2.2987 14.7587-11.4451 17.4288-18.309 1.1005-2.9624 17.5746-24.8167 38.4827-26.1927 2.1523-2.6549 11.1338-13.1449 12.7197-13.663-.1456.8256 3.544 56.6592 3.4631 63.9278 0 .4695 14.5645-31.114 30.0838-45.0198 3.2366-3.61 28.2228-9.9558 33.9839-31.7939.1618-.6313 7.2175 16.755 8.3827 19.0051.2427.4371 27.2842 13.922 31.8639 17.6291 5.4374 5.5041 40.457 46.3796 45.3119 65.3686 1.2784-.9066 8.3341 11.1699 11.5707 13.2258z"
			fill="#fff" fill-rule="evenodd"/>
	</mask>
	<mask id="J" fill="#fff">
		<path
			d="m260.6754 126.2269c.9548 4.047-3.4793 12.206-3.6088 12.2545-29.0157-12.8211-52.2542 4.3385-54.0829 7.1229-.501-.075-.9503-.3494-1.2461-.7608-1.5524-1.4457-2.7869-3.1989-3.6249-5.1479-.598-2.1287-1.781-4.0469-3.4146-5.5365-.9498-.9911-1.3914-2.364-1.1975-3.7233.1133-1.5055-.0647-3.1243.1942-4.7432.0971-.5665-11.0367-8.774-13.4317-12.8373-.1804-.3665-.4538-.6791-.793-.9066-.6797 3.9824-8.0105 49.423-10.3893 57.8086-.2428 1.0684 1.2298 16.3179 1.3755 20.2678.0077.124.0077.2484 0 .3723.0261.1663.0261.3356 0 .5019-.0364.0876-.0855.1694-.1457.2428-.1819.2092-.3947.3894-.6311.5342l-.6149.3562c-1.4824.6714-3.0201 1.213-4.5959 1.6188-.0682-.086-.1178-.1852-.1457-.2914-.0324-.1457-.1456-.3399-.1456-.5504-.8092-3.5129-1.7478-16.3017-1.7478-16.4635 1.6507-6.6211 12.5902-68.9786 12.5902-69.2861-6.8129 5.1317-13.1566 10.6681-20.0666 15.5246 4.1751-4.986 16.4417-20.0412 17.9629-22.9389.7833-1.6064 1.0653-3.4114.8091-5.1803-1.0033-9.3892 1.9905-19.2803 2.5731-19.6688-1.1975 4.2575-2.9453 33.5261 22.1704 45.0522.7768.3561 10.1143-17.7748 42.3504-14.9743.0324.0162.0647-.1133.1942-.1133-1.0971-3.6734-2.4767-7.2563-4.1266-10.7167-5.0622-8.9675-11.1976-17.2848-18.2704-24.7681-2.1038-2.3207-4.0195-4.8054-5.7287-7.4305-1.8125-2.7358-3.6735-5.4554-5.6478-8.0941-2.2541-3.0776-4.8132-5.9196-7.6383-8.4827-1.027-1.0811-2.7136-1.187-3.8677-.2429-2.1523 1.3599-5.9553 4.9861-6.1333 4.9861 1.4986-2.1572 3.1652-4.1924 4.9843-6.0869.2751-.3075.5503-.5827.793-.8256-3.4414-2.6044-7.0291-5.0096-10.7454-7.2038-4.9681-2.7034-11.3441-6.6534-16.8301-8.0942 0 0-12.2018 18.9566-13.3184 19.4261-2.4436-2.2502-15.4061-5.0346-18.7397-6.0059-3.3337-.9713-10.0657 1.8616-10.7939 2.2664.0971-.5343 4.6282-5.2936 7.9943-5.1965 3.366.0971 19.8077 4.5651 20.8434 4.9536 3.8944-5.2398 7.4511-10.7226 10.6483-16.415.8577-1.8778 2.0876-4.5489.2751-5.8763-1.505-1.117-4.0133-4.8727-4.0133-6.6372.0671-2.6359-.5283-5.2465-1.7316-7.5924-.3237.7285-8.1561 19.2156-25.5203 26.4194-1.743.8067-3.4204 1.7484-5.0166 2.8168-2.764 1.6755-5.2713 3.742-7.4441 6.1354-.6959.9227-3.4146 4.2737-6.9424 9.0169-7.5898 10.231-18.8044 27.1802-21.1348 41.7497-.7258 3.6232-1.266 7.2811-1.6182 10.9595-.3884 6.4915-1.3109 52.5797-1.4727 59.4921-.2427 5.8977.0661 11.8052.9224 17.6453.7606 4.6947 2.8968 16.1884 3.6412 19.766.1456.34.1456.599.1456.7932l-1.8934-.2266c-.0899-.2367-.1603-.4803-.2104-.7285-.9386-3.7395-4.5473-20.543-5.1137-23.3112-.0486-.2428 1.3593-59.2817 1.3593-63.9601.0324-2.9301.259-5.844.259-8.7741.3278-5.8062 1.1781-11.571 2.5407-17.2244.772-4.1071 1.205-8.2707 1.2946-12.4488.178-5.6336-1.1652-33.7851-1.4403-37.2332-.178-2.1369-3.2851-5.6983-5.4212-6.0545-.7121-.1133-3.9648 1.8455-5.1138 2.2178-.8072.2317-1.6376.3729-2.4759.4209-.5341.0648.0161-.9389-.5341-.9389-29.5659 3.691-37.5926 29.2524-38.3208 29.9646-2.0876 1.9912-15.8754 9.6645-14.2571 12.0118 19.7107 27.4716 12.4608 42.8343 10.9558 46.7843 2.4921-1.1818 14.0628-7.1553 17.801-9.0493.4896-.2754.8285-.7573.9225-1.3112 1.4079-4.7918.1942-9.3407-.8739-13.9868-1.2623-5.5849-5.6154-23.7159-4.9681-28.3781.2265-1.6027.5987-5.6336 1.1166-6.103.0971 2.0073-.0809 3.8366.0971 5.6659.3236 3.3348 2.1361 6.3782 2.2332 9.713.0971 4.5327 5.3727 14.1162 5.7125 15.6379.5988 2.6387 2.2818 12.4003 3.0748 14.5695 2.4436 6.4916 4.4826 63.7497 4.0618 67.1816-.1673 1.8138.4178 3.6166 1.6183 4.9861 2.3951 2.93 4.3694 10.7814 5.2271 15.0065.0809.3562.2103.68.2103.9713.0175.1207.0446.2398.081.3562l.1294.7932c0 .3723.1295.5666 0 .599-.1294.0324-.3236-.0971-.5987-.3723l-.3884-.4371c-.3722-.3562-.8092-.939-1.2946-1.6189-.4046-.5827-.8577-1.2303-1.327-1.9426l-1.3918-2.1692c-2.3303-3.6748-4.7577-7.8352-5.6801-9.5511-.7272-1.466-1.0723-3.092-1.0034-4.727 1.5212-31.632-3.6249-59.8159-4.3208-59.3465-6.5054 4.3709-20.6978 10.8462-24.4683 12.465-.5534.2212-1.035.591-1.3918 1.0685-1.1966 1.6498-2.5575 3.174-4.0618 4.5489-.7445.6313-7.9134 2.2502-8.1885 2.2502-1.6919.0038-3.3749.2436-5.0005.7123-1.3261.4378-2.7747.3029-3.9972-.3724-2.9564-1.0302-5.6557-2.6868-7.9134-4.8565-1.2137-1.3112-.8738-2.2178.5017-3.3348 2.4598-1.9426 21.07-26.4032 5.2109-50.5076-.5503-.8256-.971-1.3274-.3075-1.975 1.5533-1.3824 3.5527-2.1583 5.6316-2.1854.6516-.0861 1.3132.0509 1.8772.3885 1.4565 1.0199 2.8805.1295 4.337 0 .2266-.0162.3398-.2104.3398-.4371.3288-1.8223 1.3421-3.4499 2.832-4.5489 3.9648-3.5614 13.1405-10.7976 13.367-11.3318 13.5936-31.6159 38.3694-31.0331 41.606-31.3568.7444-.0648 1.0842-.5343 1.4726-1.2142 4.7416-7.9808 13.367-13.6953 14.6778-14.5695.2428-.1457-.8577 1.975 0 11.9146.1295 1.4084.2913 2.9949.5017 4.7432.6797 5.6498 2.0552 43.4657 1.9257 45.3274 6.2958-12.5898 14.2414-24.2837 23.6269-34.7726 2.3995-3.3766 5.5521-6.1479 9.208-8.0941.5988-.3076 1.1975-.599 1.8287-.8742 3.1233-1.4084 18.9338-6.7667 27.7373-31.2111.4369.2104 5.5345 7.6894 6.0847 11.8498.1566 1.2564.4219 2.4967.793 3.7072 1.4994 1.7326 2.7919 3.6341 3.8515 5.6659.3075.7608.971 1.7969.971 1.9264 3.9971 1.6026 23.0443 10.6034 27.9962 13.2097 3.3514 1.9255 6.3952 4.3429 9.03 7.1714 1.5546 1.4944 2.9785 3.1192 4.2561 4.8565 2.1523 2.9949 4.0942 6.1516 6.1171 9.2274 1.0846 1.6726 2.3313 3.2342 3.722 4.6622 2.5898 2.9139 4.9693 6.0083 7.1204 9.2597 2.298 3.1406 4.6769 6.2487 7.1528 9.276 4.6229 5.5233 8.1343 11.8889 10.3408 18.7461.6797 2.1692 1.4241 4.3061 2.0876 6.4753.1295.4857 5.8582 3.0758 6.8777 5.7792 1.0195 2.7035 3.722 7.2848 3.722 10.1825.0162 1.5217 2.2171 3.4967 2.6055 3.95zm-227.9994-23.117c-.2751-.7447-3.8515-14.7961-7.8811-20.0573-1.6182-2.1045-3.5278-2.4607-6.1171-2.4607 2.5127 2.6358 4.4571 5.76 5.7126 9.1788-.6635-.5828-6.5217-7.8675-9.9039-9.8263-.6959-.4209-2.8805.0162-2.5569.4047 12.1048 14.5857 4.7901 39.6938 4.2399 39.4996.4309-2.1587.5075-4.3731.2266-6.5563-.0648 5.5688-8.4636 17.1111-9.1271 17.9852-.9548 1.2141-.9386 1.4246.3398 2.2178.7282.4533 1.6021.8094 2.3465 1.3113.8084.5588 1.878.5588 2.6864 0 3.1039-1.9274 5.8431-4.388 8.0914-7.2686-.718 2.0406-1.5834 4.0262-2.5893 5.9411-.1618.34-.3236 1.0361.4855.8256 2.5245-.7284 3.9648 0 6.4731-4.0794.0971-.1781 6.2304-11.9146 7.6868-18.2443.8851-2.8969.8455-5.9978-.1132-8.8712zm53.5974-73.0256c1.6706 1.0157 3.2611 2.1576 4.7577 3.4157-.4369-3.7718-.8415-7.3495-1.2784-11.1861-3.1368 2.2285-5.813 5.043-7.881 8.2884 1.4569-.2514 2.9262-.4244 4.4017-.518zm113.5223 97.7938c-.5568 1.0218-.4485 2.2778.2751 3.1891.6635-.4047 4.9358-7.8837 8.9815-8.7255-4.4341 4.0147-6.8939 12.0441-7.0557 13.1125-.1619 1.0684.7929 2.9787 2.2494 2.2178 1.8286-.8742 16.3931-13.3877 27.09-12.9507-2.7298 1.4277-5.3528 3.0508-7.8487 4.8565 13.545-3.3024 31.9449 3.432 32.0581 2.7683.5017-2.7844-.534-4.8242-2.039-7.301-1.861-3.092-8.2694-6.5401-8.8358-6.8962 2.4757-.1976 4.9565.3133 7.1528 1.4731-.5779-1.9049-1.3763-3.7358-2.3789-5.4555-.8415-2.0073-33.644-13.2744-49.6488 13.7116z"
			fill="#fff" fill-rule="evenodd"/>
	</mask>
	<mask id="K" fill="#fff">
		<path
			d="m117.9423 33.23108-3.1071 1.18175c-4.5781 1.69778-9.2393 3.16201-13.9658 4.38704l-3.3984.84179c-11.2756 2.65432-22.821 3.9907-34.4046 3.9823691-4.4125 0-8.7819-.1888991-13.1081-.5666291l-2.3627-.22664c-2.6701-.2752-5.3241-.61515-7.9457-1.01986l-3.0424-.51803c-10.9865-1.95909-21.7183-5.1466-31.9934-9.50256-1.246-.53421-2.4759-1.08461-3.7058-1.61883 1.6183-2.70345 9.3051-20.33258 7.881-26.14418-.2913-1.2141 28.7245 14.44001 69.7964 5.6821 1.8287-.3885 32.3656-7.6894 32.3656-7.6894.6107-.5131 1.26-.9786 1.9419-1.3922.4208.9227 3.5926 25.85274 5.0491 32.60328z"
			fill="#fff" fill-rule="evenodd"/>
	</mask>
	<mask id="L" fill="#fff">
		<path
			d="m118.5215 15.9184c0 3.67474 1.861 14.03528 2.6216 18.37375l-2.1523.87417-3.1071 1.18175c-.2751-3.09197-1.7477-12.95067-2.7996-15.20085-4.7578 1.21413-18.6264 4.20897-19.4194 4.35466 2.3909 5.25274 5.1264 10.34158 8.1885 15.23323l-3.3984.8418c-2.9074-4.93666-5.4443-10.08252-7.5897-15.39512 0 0-28.2875 4.20897-39.1462 4.20897 0 0-.7767 11.97937-.7767 14.56951l-2.3627-.22664c.0485-2.52538 1.0033-14.05148 1.0033-14.34287 0 0-7.9458-.53421-7.9458 0-.0323.1457-1.0033 10.71668-1.0033 13.35538l-2.9938-.51802c0-3.62619.5178-13.17731.5178-13.45251-6.5702.08094-28.7406-5.64974-28.7406-5.64974-.534-.11331-2.7673 6.55628-3.7706 9.59969-1.2461-.50184-2.476-1.05224-3.7059-1.61883l-1.3593-.63135c1.3762-4.15236 3.2856-8.1084 5.6802-11.76892.1294-.22664.4854-6.44296.712-7.86756.0162-.0485 1.7801-6.8315 1.8287-6.9772.0485-.1456.1941-.2913.1941-.437.4466-.5198.9982-.9391 1.6183-1.2304.1457-.0809.5017.5343 1.1005.9875 1.0875 1.0446 2.2504 2.0077 3.4793 2.8816 4.1751 2.1368 11.3441 3.7233 20.2446 4.5975l1.9582.1618c20.0181 1.6674 47.8687-.2428 69.8773-7.9323 1.8124-.6475 6.4731-2.5253 6.4731-2.5253l1.5373-.6638c.1295.3076 3.2366 12.4165 3.2366 13.404zm-79.3928 11.33182.1618-11.89842c0-.1457-23.0443-3.092-27.1547-6.621-.0324 0-.1456.2104-.1942.437-.0485.2267-.1294.5181-.2265.858-.615 2.6387-1.6831 8.5151-1.9096 10.26344-.0183.16136-.0183.32428 0 .48565 6.6673 3.82045 29.3232 6.99336 29.3232 6.47533zm74.9911-8.28843-.0486-.01618c1.3756-.33996 1.9905-2.46061 1.9905-2.76821 0-.0486-1.4888-8.596-2.2818-10.9595-15.9886 8.855-50.5874 10.4415-62.6921 10.6681-2.4436.1133-5.0814.0324-5.5022.1133-1.7432.1942-3.1517 1.511-3.4631 3.2377-.0809.46946-.2103.95511-.2103 1.45695-.3353 2.29384-.4059 4.61863-.2104 6.92861.0323.42089 23.8696 2.67107 72.418-8.66077z"
			fill="#fff" fill-rule="evenodd"/>
	</mask>
	<mask id="M" fill="#fff">
		<path
			d="m4.7865 1.45112c.5936.67371.8704 1.56936.7606 2.46063.0786.68227-.1586 1.3631-.644 1.84874-.4855.48563-1.1661.72289-1.8482.64426-.7167.0547-1.4234-.19494-1.9469-.68778-.5234-.49284-.8153-1.18335-.8041-1.90235-.06-.80051.2223-1.58891.7767-2.16924.5815-.49017 1.3284-.73922 2.0876-.6961.5837-.04501 1.1625.13448 1.6183.50184zm-1.6183 3.7557h-.0162c.3757.03107.7445-.11425.9981-.39329s.3632-.66011.2966-1.03129c0-1.32744-.3722-1.81309-1.3108-1.81309-.456-.06497-.9168.08018-1.2532.39474-.3365.31456-.5124.76466-.4784 1.22409-.0018.45582.1885.8913.5243 1.19945.3357.30815.7858.46041 1.2396.41939z"
			fill="#fff" fill-rule="evenodd"/>
	</mask>
	<mask id="N" fill="#fff">
		<path
			d="m3.6403 5.9626c2.5731 5.4069 18.7559 9.1302 22.9634 11.1861.5502.25901 2.8805-1.6188 3.4146-1.7483 4.8548-1.3761 16.1019.259 16.4579.5504 1.1166.9389 0 1.26265 1.2137 1.32741 3.981.19426 51.2995-4.85651 62.854-17.01391.356-.2591 3.2365 10.5548 4.2075 13.1935.6149 1.6188-18.3027 9.19494-22.4132 8.72547-.3236 2.12068-.3074 6.60485-2.4436 7.07431-7.3793 1.61883-39.4051 1.86166-43.03 3.4643-14.2571 6.26489-21.0538-3.52905-21.685-3.52905-13.2213-2.18543-24.5007-9.95583-24.40422231-11.33184.03292231-.61516 2.52512231-12.59449 2.86492231-11.89839z"
			fill="#fff" fill-rule="evenodd"/>
	</mask>
	<mask id="O" fill="#fff">
		<path
			d="m1.9712.93529c.6473 0 1.0842.30758 1.0357.95511.0036.31378-.1308.61329-.3677.81905-.2368.20576-.5521.29695-.8622.24938-.6473 0-1.1166-.35614-1.0843-1.05224.0324-.6961.6959-.89036 1.2785-.9713z"
			fill="#fff" fill-rule="evenodd"/>
	</mask>
	<mask id="P" fill="#fff">
		<path
			d="m1.3187.33632c.5825.08094 1.1328.24283 1.1651.95511.0382.30647-.0601.61426-.2688.8418-.2088.22753-.5069.35183-.8154.33995-.3058.04977-.6177-.04227-.8475-.25012s-.3526-.50895-.3339-.81831c0-.72847.4693-1.06843 1.1005-1.06843z"
			fill="#fff" fill-rule="evenodd"/>
	</mask>
	<mask id="Q" fill="#fff">
		<path
			d="m1.9055 2.13691c-.615-.12951-1.1166-.40471-1.0843-1.10081-.0026-.27317.1139-.53394.319-.71427s.4786-.26235.7491-.22466c.6797 0 1.1975.35615 1.1328 1.13319s-.5502.84179-1.1166.90655z"
			fill="#fff" fill-rule="evenodd"/>
	</mask>
	<mask id="R" fill="#fff">
		<path
			d="m1.828.30027c.6635.12951 1.1489.45327 1.1166 1.11699-.0069.2931-.1375.56957-.3596.76088-.2221.1913-.5148.27953-.8056.2428-.6797 0-1.2461-.40471-1.2299-1.10081.0162-.69609.6473-.87417 1.2785-1.01986z"
			fill="#fff" fill-rule="evenodd"/>
	</mask>
	<mask id="S" fill="#fff">
		<path
			d="m115.1398 13.4703c.5826 1.8454.4531 2.2501-1.0843 3.0596-6.575 2.93995-13.3578 5.39103-20.2932 7.33328-.5664.1457-.8415.25902-.8415.90655.0242.29089.0242.58329 0 .87417-.0647 1.10081-.3075 2.16924-.4369 3.23767-.2343 1.01342-1.0728 1.77486-2.1038 1.91022-.2266.06476-35.6021 3.09198-40.2142 2.88153-.5826-.03238-1.1814-.09713-1.327.79323-.0971.61515-.7606.77704-1.327.92273l-.9872.22664c-3.4411.55483-6.92.84169-10.4055.85798-1.0932-.10351-2.1759-.29845-3.2366-.58278-5.4374-1.5217-7.266-4.92125-8.0914-5.11551-3.3984-.76086-22.1542-7.6409-23.3194-10.16628-.4207-.85798-1.4888-1.61884-.9386-3.23763.4855-2.2502 1.5859-8.3047 1.8449-9.9235.1294-.8904 1.6182-1.6188 1.6182-1.6188.2068.4482.4795.863.8092 1.2303.5922.7904 1.2529 1.5271 1.9743 2.2016 6.2736 3.5827 13.0326 6.2381 20.0667 7.8837.8836-.8641 2.0153-1.4302 3.2365-1.6188 2.5731-.5666 7.2661-.8256 15.8753.3561.7444.1134 1.3918.3076 1.6183 1.117.014.0695.014.141 0 .2105.1618.7446.7121.3399 1.0843.3399 9.406-.7747 18.7487-2.1863 27.9638-4.2251 12.0278-2.422 23.6212-6.6461 34.3885-12.5298.89 1.5055 3.4631 10.4577 4.1266 12.6755zm-91.271 13.71149h.0324c-.4693-2.36349-.6635-6.23251 2.1199-8.69314-2.0066-.63135-18.5455-4.90505-22.0409-10.10155-.437.2914-1.505 6.443-2.1685 9.4216-.0216.1612-.0216.32453 0 .48569v.19426c.0613.64647.4365 1.22144 1.0033 1.5379 6.7806 3.93528 14.0131 7.03368 21.5393 9.22735.0324 0-.2751-.8256-.4855-2.07211zm12.3151 7.86754c2.4412.18847 4.8967-.03036 7.2661-.64754-2.3804-.06899-4.7486-.36716-7.0719-.89036-1.1726-.27204-2.3161-.65696-3.4146-1.14937-.7429-.33128-1.4527-.7324-2.1199-1.19793l-.6473-.50184c-.8929-.69053-1.5306-1.65878-1.8125-2.75202-.0803-.35034-.1183-.70904-.1133-1.06843-.0578-1.42472.0728-2.85085.3884-4.24135.2742-1.76553 1.7303-3.10806 3.5117-3.23766.6959-.06476 1.3755-.16189 2.0714-.16189 1.0681-.14569 2.1523-.14569 3.2365-.14569 2.4922-.06476 5.0005-.01619 7.4927.14569.9386.06476 1.2461-.12951 1.327-1.06843.0809-.93891-.3722-.97131-1.1814-.93891-.8091.0324-2.5083-.081-4.5797-.2266-2.0714-.1457-4.4017-.3238-6.2627-.3238-.9544-.0449-1.9108.0258-2.8482.2104-2.5938.5439-4.73 2.37559-5.664 4.85653-.6859 1.8537-.7653 3.8775-.2266 5.77924.1886.66594.4434 1.3113.7606 1.92641.1295.23743.2751.48026.437.72848 1.5181 2.0299 3.6621 3.50334 6.1009 4.19278l1.1651.40471c.7142.18522 1.4472.28841 2.1847.30758zm53.0634-5.58498c.4046-.09713 1.5212.4209 1.8772-5.42309-.0018-1.29943-.1649-2.5936-.4855-3.85283-.3398-2.46063-1.1328-2.55773-3.5764-2.16924-.2265.04857-44.8749 3.77189-50.2961 3.65857-.89-.01619-1.7801-.04857-2.6702-.1457-.6149-.08094-1.2298-.17807-1.8286-.30758-1.0357-.22663-1.3594.25902-1.6183 1.05225-.1119.42933-.1824.86844-.2104 1.31125-.184 1.55137.0565 3.1236.6959 4.54893.4436 1.01294 1.1609 1.88194 2.0714 2.50919l.3075.22664c.6106.36221 1.27.6348 1.9581.80941l1.068.25902c2.2493.44772 4.525.75052 6.813.90654.3075-.03237 44.4541-2.96246 45.8944-3.38336zm24.1124-14.39145h.0323c.6797-.4371.5664-.7285.0486-1.9426-.534-1.5703-1.9743-7.7542-2.8967-9.8263-5.5946 2.8879-11.3488 5.4552-17.2347 7.6895-3.9486 1.2303-8.1561 2.3311-12.3313 3.2376-.3237.081-3.4307.7285-4.159.858l-1.9257.3723c-8.8772 1.6098-17.842 2.69097-26.8473 3.2377-.5017.03238-.9386-.11332-.9062.67991.0323.79323.6473.40471.9871.40471 2.7511-.21045 5.4213-.64753 8.0914-.64753 6.5217-.24283 30.5693-2.93009 32.9482-3.23769 1.1813-.1457 1.6506.4047 2.1685 1.2465.746 1.63628 1.2058 3.38846 1.3593 5.18029 2.7188-.04856 20.4875-7.12289 20.6655-7.25239z"
			fill="#fff" fill-rule="evenodd"/>
	</mask>
	<mask id="T" fill="#fff">
		<path
			d="m8.114 20.1678c-.6635.40471-3.722 1.99117-4.2237 1.34363-.2427-.32376-1.327-14.76376-3.2365-19.62023-.1619-.4209 3.4307-1.3599 3.6896-.9228 3.2366 5.27743 3.7706 18.84326 3.7706 19.1994z"
			fill="#fff" fill-rule="evenodd"/>
	</mask>
	<mask id="U" fill="#fff">
		<path
			d="m.8574 16.95516c.1132-.56659 3.2365-14.24576 4.2722-16.75496.178-.4371 4.3532 2.2664 4.2399 2.7844-.9386 4.1928-4.4503 16.93302-4.693 17.48343-.2427.5504-3.4955-.77704-3.8191-3.51287z"
			fill="#fff" fill-rule="evenodd"/>
	</mask>
	<mask id="V" fill="#fff">
		<path
			d="m14.1596 4.159c.0734.2599.0271.539-.1263.7612-.1533.2223-.3977.3646-.6666.3882-.9162-.0759-1.8386-.0104-2.7349.1942-.4434.3604-.8355.7798-1.1652 1.2465-1.9257 3.46435-3.9486 15.73512-3.9486 15.83225-.3722 1.29506-.5826 1.44076-1.9905.66372s-3.7058-1.26269-3.2365-3.23767c-.1295.25901-.0486-.77704.2751-2.67108 0 0 2.039-9.55112 3.2365-13.11252.0971-.2429 1.5212-3.2377 1.5212-3.2377h.0809c.4692-.2762 1.0595-.2377 1.4888.0971.5017.3076 1.0034.599 1.5212.8742 1.5933.8706 3.3416 1.4206 5.1462 1.6188.3022.0491.5414.282.5987.5828zm-10.2275 16.99777c.1133-.58278 3.2527-14.82847 4.2075-15.81597.2428-.2591-.0485-.5666-.4207-.7933-.3075-.1942-.7768-.3885-1.4565-.7123-.1655-.0984-.3593-.1384-.5502-.1133-.166.0841-.285.2389-.3237.4209-.097.2914-3.5116 14.56953-3.5116 14.97424-.1457 1.19794.9224 1.69978 2.0552 2.03973z"
			fill="#fff" fill-rule="evenodd"/>
	</mask>
	<mask id="W" fill="#fff">
		<path
			d="m10.3925 20.68215c0 .45328 0 .76085.0323.93893-.712 1.5217-5.4536 1.9426-5.8581 1.9426-1.0034-.40471-.6473-1.00368-.6473-1.9426-.4769-5.80357-1.4514-11.55541-2.9129-17.19198l-.2913-.7123c-.1335-.5899-.204-1.1922-.2104-1.7969.0298-.0874.0735-.1694.1294-.2429.5179-.7608 1.8449-.518 2.7673-.7608 1.3917-.2914 2.12-.518 2.5731-.2914.317.1938.5396.5102.6149.8742.0486.0971 3.6088 11.36418 3.803 19.18315zm-4.0619.35615c.3543.04468.7125.0501 1.0681.01618.266-.12909.4572-.3742.5178-.66372.0324-.04856-.5826-11.31565-2.7025-16.39876-.0354-.1032-.0844-.2012-.1457-.2914-.3722-.7609-1.1004-.3238-1.6182-.2105-.5179.1134-.7121.4209-.5179.6476 1.1166 1.2788 2.8482 15.76741 2.8967 16.18831.0486.4209.178.71229.5017.71229z"
			fill="#fff" fill-rule="evenodd"/>
	</mask>
	<mask id="X" fill="#fff">
		<path
			d="m31.3925 2.7921-1.9581-.0972v.6476l1.6182.0971c.1619 0 .1619.0647.1619.1781v.4694c-.0162.1619-.0648.1619-.1942.1619l-1.6183-.0971v.8094l1.9257.0971c.1619 0 .1619.0648.1619.1781v.4857c0 .1618-.0486.1618-.178.1618l-2.7026-.1295c-.0491.001-.0961-.0204-.1276-.0582-.0314-.0378-.044-.0878-.0342-.136l.1942-3.5938c0-.1619.0485-.1619.178-.1619l2.5893.1295c.1618.0162.1618.0809.1618.1942v.5019c-.0162.1619-.0486.1619-.178.1619zm-3.2366-1.0199c.1295 0 .1618.0648.178.0324v.5018c.0052.0486-.0119.097-.0465.1316-.0345.0346-.0829.0516-.1315.0465h-.9224l-.1618 2.9301c0 .1619-.0648.1619-.178.1619h-.5988c-.1618-.0162-.1618-.0486-.1618-.1781l.1456-2.9301h-.9062c-.178 0-.178-.0648-.178-.1781v-.5018c0-.1619.0323-.1619.178-.1619zm-4.7415-.34-.0162.0162c.712 0 1.6021.4857 1.7153 1.4246l-.0809 1.4084c-.0447.894-.8054 1.5826-1.6992 1.5379-.8937-.0447-1.582-.8057-1.5373-1.6998v-1.4246c.101-.7941.8236-1.358 1.6183-1.2627zm.534 2.7197v-1.2465c.0149-.1759-.0485-.3494-.1732-.4743-.1248-.1248-.2983-.1882-.4741-.1733-.1548-.0331-.3165-.0018-.4478.0867-.1312.0886-.2208.2268-.2481.3828v.0971 1.2465c-.018.1574.0287.3152.1294.4374.1007.1221.2468.198.4046.2102h.0971c.1718.0332.3495-.0104.4865-.1193.1369-.109.2193-.2724.2256-.4473zm-2.7187-2.752-.0162.0485c.1133 0 .178 0 .178.1457l-.1942 3.61c0 .1619-.0324.1619-.178.1619h-.5502c-.1457-.0162-.2589-.0971-.2589-.2266l-1.1652-2.1207-.1133 2.0883c0 .1619-.0647.1619-.178.1619h-.5826c-.178-.0162-.178-.0648-.178-.1943l.1942-3.5938c0-.1619.0486-.1619.178-.1619h.5664c.1618 0 .2751.0972.2751.2105l1.149 2.1368.1133-2.0883c0-.178.0809-.178.1942-.178zm-3.4631-.1781h-.0162c.1294 0 .1618.0647.178.2266v.3076c.0051.0486-.0119.097-.0465.1316-.0346.0345-.0829.0516-.1315.0465h-.9224l-.1619 2.9301c0 .1619-.0647.1619-.178.1619h-.5826c-.178-.0162-.178-.0324-.178-.1781l.1619-2.9301h-.9225c-.178 0-.178-.0648-.178-.1781v-.5018c.0162-.1619.0486-.1619.178-.1619zm-3.2366-.1781h-.0809c.1294 0 .1618.081-.0162.2428v.5019c-.0162.1619-.0485.1619-.1942.1619l-1.7963-.0972v.7123h1.6183c.1618 0 .1618.0648.1618.1781v.4856c.0067.0477-.0106.0956-.0462.128-.0357.0324-.085.0451-.1318.0339l-1.6183-.0809v1.3922c0 .1781-.0485.1781-.178.1781h-.5987c-.1619-.0162-.1619-.081-.1619-.1943l.2751-3.61c0-.1619.0324-.1619.1781-.1619zm-3.2366 3.6262-.0485.0162c.0162 0 .0162.1619-.0647.1133h-.6312c-.1294-.0162-.2103-.0485-.2103-.1942l-.1457-.4857-1.4888-.0809-.1942.4694c-.0485.1781-.0971.1781-.2266.1781h-.6311c-.0971-.0162-.0971-.1943-.0971-.1943l1.5212-3.5128c.0363-.111.1424-.1839.2589-.1781h.5826c.1295.0162.2266.0648.2266.2104zm-2.2494-1.4569.9063.0485-.3884-1.3436zm-2.4759 0 .712 1.1493c.0232.0403.0231.0899-.0003.13-.0234.0402-.0665.0647-.113.06430482h-.712c-.1236.00019518-.2339-.07770482-.2751-.19430482l-.5988-1.0036c-.0372-.0992-.0372-.2085 0-.3076v-.4857c0-.1619.0486-.1619.178-.1619h.1295c.29.0385.557-.1636.5988-.4532.0011-.2771-.2097-.5091-.4855-.5342h-.8092l-.1456 2.93c0 .1619-.0647.1619-.178.1619h-.5988c-.1618 0-.1618-.0485-.1618-.1942l.1942-3.5777c-.0052-.0486.0119-.0969.0465-.1315.0345-.0346.0829-.0517.1315-.0465l1.505.0971c.439-.0363.8716.1237 1.1813.4371.2251.2707.3302.6214.2913.9713-.0195.5344-.3776.9969-.89 1.1494zm-4.3047-2.056c-.3027.0231-.5433.2638-.5664.5666v1.2627c-.0094.1702.054.3363.1745.4569.1205.1205.2866.1839.4567.1745.3398.0162.6311-.2429.6635-.3724.0323-.1295.0485-.2266.178-.2266h.5826c.1618.0162.1618.0648.1618.2104-.1399.7615-.8507 1.2806-1.6183 1.1818-.4095.0408-.8175-.0918-1.1249-.3655s-.4864-.6636-.4934-1.0753v-1.4245c.109-.7877.8292-1.3424 1.6183-1.2465.7441-.0584 1.4043.4743 1.505 1.2141 0 .1619-.0485.1619-.1942.1619h-.5826c-.1618 0-.1618-.1943-.1618-.1943-.1222-.2126-.354-.338-.5988-.3238z"
			fill="#fff" fill-rule="evenodd"/>
	</mask>
	<mask id="Y" fill="#fff">
		<path
			d="m5.5 3.9105c0 .0626-.0507.1134-.1133.1134l-4.4502-.2429c-.0626 0-.1133-.0507-.1133-.1133l.1618-2.8491c0-.0626.0507-.1134.1133-.1134l4.4502.2429c.0289-.0004.0564.012.0751.0339.0188.0219.0269.051.022.0794z"
			fill="#fff" fill-rule="evenodd"/>
	</mask>
	<mask id="Z" fill="#fff">
		<path
			d="m1.8946 2.4411c-.0486 0-.3075-.1133-.3075-.1133v-1.1008l-.3398.5504h-.1133-.1618l-.2913-.599v1.1008.0971h-.3399v-.0971l.1133-1.9588c0-.0971 0-.0971 0-.0971h.3237c.1456 0 .1456.1133.1456.1133l.4046.8418.4855-.7771c.0153-.0676.0763-.115.1456-.1133l.356.6637v1.3922c0 .0972-.0971.0972-.0971.0972z"
			fill="#fff" fill-rule="evenodd"/>
	</mask>
	<mask id="aa" fill="#fff">
		<path
			d="m.9788 2.5058c-.0971-.0162.0162-.0809.0162-.0809v-.7123l-.6149-1.2789h.3722c.1456 0 .1456.0972.1456.0972l.3398.7284.4046-.6799h.1457.356l-.7444 1.2141v.7123h-.0971z"
			fill="#fff" fill-rule="evenodd"/>
	</mask>
	<mask id="ab" fill="#fff">
		<path
			d="m1.4243 4.04-.0485.1619c-.0171.7482.1977 1.4833.6149 2.1045.1853.2586.4293.4695.712.6152.4428.1758.9155.2637 1.3918.259h1.3917c.2336.0325.4068.2335.4046.4694.0043.123-.0414.2425-.1269.3311-.0855.0885-.2032.1385-.3263.1384h-1.3917c-.6134.0077-1.2211-.1194-1.7801-.3723-.4061-.2038-.7561-.5039-1.0195-.8742-.5519-.8035-.8352-1.7613-.8091-2.7358v-.1781c.0646-.9712.4389-1.8961 1.068-2.6387.3017-.3369.6787-.5977 1.1004-.7608.5782-.1918 1.1918-.2526 1.7963-.1781h.2104l2.1523.1295c.2592 0 .4693.2102.4693.4694 0 .2593-.2101.4695-.4693.4695l-2.1361-.1133h-.2104c-.4775-.055-.9612-.0165-1.4241.1133-.2894.113-.5494.2901-.7606.518-.4829.5872-.7664 1.313-.8091 2.0721z"
			fill="#fff" fill-rule="evenodd"/>
	</mask>
	<mask id="ac" fill="#fff">
		<path
			d="m3.6999 1.5492-2.9129-.1618c-.1288 0-.2523-.0512-.3433-.1423s-.1422-.2146-.1422-.3434c.016-.125.0817-.2384.1821-.3145s.2273-.1086.3519-.0902l2.9129.1457c.1316-.0044.2593.0448.3538.1364.0946.0915.148.2176.14790014.3492-.01610014.1293-.08340014.2468-.18690014.3259-.1034.0792-.2344.1134-.3633.095z"
			fill="#fff" fill-rule="evenodd"/>
	</mask>
	<mask id="ad" fill="#fff">
		<path
			d="m4.7808 1.8657-3.9-.1781c-.1316.0044-.2593-.0449-.3538-.1364-.0946-.0916-.148-.2176-.14790014-.3493.01610014-.1293.08340014-.2467.18690014-.3258.1034-.0792.2343-.1134.3633-.0951l3.8839.2105c.2649-.0006.4845.205.5016.4694-.016.1251-.0816.2384-.1821.3145-.1004.0761-.2272.1087-.3519.0903z"
			fill="#fff" fill-rule="evenodd"/>
	</mask>
	<mask id="ae" fill="#fff">
		<path
			d="m5.3182 1.2468-4.4665-.2428c-.1315.0088-.2609-.0362-.3586-.1247s-.1551-.213-.1592-.3448c.0161-.1335.0851-.2551.1916-.3372.1065-.0822.2415-.1182.3748-.0999l4.4502.2429c.1331-.0044.2625.0443.3596.1354s.1541.2171.1583.3502c-.0161.1293-.0834.2467-.1869.3259-.1035.0791-.2344.1134-.3633.095z"
			fill="#fff" fill-rule="evenodd"/>
	</mask>
	<mask id="af" fill="#fff">
		<path
			d="m.81962 162.5028c-3.96478-33.3803 31.96098-79.0476 31.96098-93.0991.2428-3.0434-1.0195-24.3959-.7605-28.0382.1941-3.0596 20.9567-8.0133 22.575-12.1413.5178-.6961 8.3665-29.0419 10.0818-28.6695 1.7154.3723 5.664.1618 5.3242 1.9911-.7606 4.1928-4.0134 21.5143-4.4341 26.0794-.0809.939 13.4317 9.5997 13.3022 12.2708-.2564 5.5834-1.18 11.116-2.751 16.4797-.8577 2.4283-18.3837 16.8035-18.6588 17.6291-4.7254 6.5725-15.2442 40.9565-14.3379 47.0434 4.7739 25.1728-8.8682 39.6938-9.5155 40.4708-1.5319 4.9826-3.8304 9.6959-6.813 13.9706-.1295.1618-8.8682 2.2016-15.3736-1.0361-6.50553-3.2377-10.59978-12.1898-10.59978-12.9507z"
			fill="#fff" fill-rule="evenodd"/>
	</mask>
	<mask id="ag" fill="#fff">
		<path
			d="m4.0122 51.6955c3.7058-1.117 19.6459-5.9735 19.3869-6.1354-2.0228-1.716-18.7073 1.0037-17.9952-.8904-1.2947-1.6512.2265-4.9374.712-5.1155 15.8753-5.6497 31.6536.8256 35.3918.8256.6687.0853 1.3295-.2078 1.7154-.7608 1.4241-.34 6.8777 6.8314 7.6221 8.0941.4854.8095 27.4622-21.1096 28.4008-35.4524 3.4214-4.654 8.1384-8.1958 13.5612-10.1825 1.9661-.7848 4.0201-1.3284 6.117-1.6188 2.1362-.2429 4.2076-.0648 6.4732-.2429 7.4523-.0563 14.8622 1.1254 21.9277 3.4967.9709.3238 1.9419.599 2.9129.9066.3883.1133.5987.7285.5987 1.2465 1.1652 13.4687-68.5503 68.91374-71.6574 69.43177-7.1624-.97775-14.2543-2.41607-21.2318-4.30607-.6797-.2429-24.1933-.081-23.6916-1.4084-1.5374-3.3186 1.2137-4.5004.8091-5.1155-.4046-.6152-11.862 2.8653-11.7325 1.376-2.6864-3.6424-.4855-5.6336-1.861-7.1229-1.3756-1.4893-.3237-6.1354 2.5407-7.0257z"
			fill="#fff" fill-rule="evenodd"/>
	</mask>
	<mask id="ah" fill="#fff">
		<path
			d="m1.6947 55.1097c-.9978-1.2964-1.3246-2.9882-.8816-4.5632s1.6038-2.8481 3.131-3.4338c3.8515-1.8293 12.2827-4.8565 12.2827-4.8565-2.3141.1295-4.6283.3561-6.9424.3561-1.4518.3062-2.9258-.4144-3.5764-1.7483-.89-1.9912-1.1004-4.468 1.7963-5.6174 5.3371-2.0155 11.0139-2.9775 16.7168-2.8329 4.2219.2275 8.3979.989 12.4284 2.2663 1.5697.4209 5.5345 1.2142 5.8582 1.7646-3.0761-.2708-6.1306-.7467-9.1433-1.4246-9.1433-2.6063-21.3289-.0324-24.9377 1.3436-1.0184.2331-1.6557 1.2473-1.4241 2.2664.0809 1.1008.6959 1.4408 1.6992 1.6188 2.311.1543 4.6317.0729 6.9263-.2428 1.7153-.0324 3.2365-.3238 5.1137-.4209s9.1109 3.1406 10.9558 4.2737c-4.8254-1.102-9.8593-.8726-14.5645.6638-4.4278 1.3015-8.7548 2.9246-12.9463 4.8565-.8858.6621-1.2825 1.7949-1.0033 2.8653.366 1.1209 1.4272 1.866 2.6054 1.8293 4.0045-1.0489 7.9348-2.3631 11.7649-3.9338 2.4598-.9713 14.3218.3723 14.4351.7932-1.3917.2429-11.5869-.4856-15.1471 1.2465-2.5569 1.2465-10.7778 3.8043-12.0077 4.6299-.7251.3555-1.0773 1.1913-.8253 1.9588.1582.9045.8499 1.6221 1.7478 1.8131 1.772.2814 3.5824.2043 5.3241-.2266 3.8353-.7771 7.4926-2.0722 11.328-2.6711 5.1404-.4796 10.3182-.3873 15.4383.2752-3.6015.1171-7.194.4306-10.7615.9389-3.6961.2551-7.302 1.2574-10.5997 2.9463-1.1328.4209-1.0034 3.3833 2.2332 2.9463 6.1998-.9643 12.5206-.8328 18.6749.3885 2.0229.3723 16.4741 7.36567 22.219 3.5128 9.5479-2.5091 62.8702-51.8026 68.9225-63.1345.8982-1.6516 1.449-3.4696 1.6183-5.3421 0 0 3.0424.7284 3.0424 1.0684-.1595 3.8512-1.5364 7.5524-3.9324 10.571-8.0591 12.2707-59.6822 57.5495-66.0259 59.58927-1.346.58097-2.7905.89965-4.256.93892-4.6265.40543-9.288-.06691-13.7392-1.3922-12.2666-5.47169-20.3903-4.22519-24.517-3.31859-1.2854.218-2.5984.218-3.8838 0-1.9503-.4172-3.3495-2.1331-3.366-4.128-.0648-.7933-.3075-.7933-1.0357-.7933-1.8611.081-3.6735.5666-5.5669.5666-1.7222.0438-3.3528-.7747-4.347-2.1821-.9943-1.4073-1.2212-3.2181-.605-4.8274.1522-.4105.065-.8715-.2265-1.198z"
			fill="#fff" fill-rule="evenodd"/>
	</mask>
	<mask id="ai" fill="#fff">
		<path
			d="m9.6091 38.7816c-1.3594 1.0846-1.6992 1.117-2.7835-.0324-2.3912-2.8308-4.5556-5.8458-6.4731-9.0169l1.2461-3.2377c1.4403 2.8168 6.376 9.6321 6.7644 9.2921 3.2042-2.8815 17.2832-15.4598 20.6978-21.0448 1.8707-2.0602 3.2144-4.5431 3.9162-7.2362.8456-2.7013 2.4595-5.0976 4.6445-6.8962-.3398.1457-2.0067 6.8476-2.9614 10.0853-1.2295 3.792-3.3173 7.2489-6.101 10.1015-5.8157 6.5021-12.1536 12.5172-18.95 17.9853z"
			fill="#fff" fill-rule="evenodd"/>
	</mask>
	<mask id="aj" fill="#fff">
		<path d="m1.1715.8409.097.0809h-.097z" fill="#fff" fill-rule="evenodd"/>
	</mask>
	<mask id="ak" fill="#fff">
		<path
			d="m.47312 154.8384c0-34.1898 15.58408-35.0316 31.15188-79.5333 1.0842-3.2377 2.2494-4.9051 1.6183-7.7219-.9977-3.5231-1.354-7.1969-1.0519-10.8462.474-3.5899.6903-7.2091.6473-10.83-.1581-2.1965.7297-4.3389 2.3951-5.7792l1.0842-.9875c1.0634-1.197 2.5606-1.9196 4.159-2.0073 2.2478-.2069 4.4402-.8155 6.4731-1.7969 3.2396-.9656 6.2619-2.5487 8.9005-4.6623.4532-.3885 4.6931-17.4996 6.101-21.8542.7621-2.3613 1.8868-4.5895 3.3336-6.6049 2.0714-2.8815 7.7839-.3885 7.5574 2.6063.0374 3.7791-.5085 7.5413-1.6183 11.1538-1.1642 4.2366-1.9335 8.572-2.298 12.9507-.0114 1.2669.2711 2.5193.8254 3.6585.356 1.0037 7.7192 5.0994 10.0657 6.9286.7614.631 1.2391 1.5403 1.327 2.5254.3074 2.1855-.6474 12.465-.8092 15.4275-.0731 2.2872-1.2888 4.3849-3.2365 5.585-1.8449 1.1979-13.2699 12.8535-14.0953 13.0964-1.398.4535-2.482 1.5682-2.8967 2.9786-5.3727 13.0802-10.535 26.2251-13.2861 40.1795-.7114 4.1262-.8746 8.3284-.4854 12.4974.4207 6.4753.9224 13.064-1.1167 19.426-.89 2.752-10.535 14.8609-10.9072 14.4562s10.4218-12.7079 9.5479-27.2774c-.2266-3.4157-.8739-6.7829-.8739-10.1986.9224-21.8543 14.5645-49.9249 14.5645-49.9249-3.7544.5828-10.1628-2.1207-9.9362-2.6549s9.0138 3.0758 16.5712-3.7718c.9548-.8095 10.1142-9.794 11.3279-10.6358 1.1259-.909 1.8377-2.2339 1.9743-3.6747.8819-4.578 1.4818-9.2058 1.7963-13.8573.1704-1.3082-.4698-2.589-1.6182-3.2376-2.1362-1.3922-7.6869-5.1641-8.318-5.6821-.8901-.7123-1.4403-.5828-1.861.437-3.01 7.7705 5.2432 13.2097 7.8324 13.3392-1.8933 1.5056-3.544-.0485-5.4212-.3399v2.8491c.076 1.386-.4714 2.7334-1.4925 3.6733-1.021.9399-2.4087 1.3739-3.7831 1.1832-1.2622-.0809-1.6183.3562-1.6183 1.3599.0548.9856-.2372 1.9592-.8253 2.752-2.1462 1.8231-5.342 1.6526-7.2822-.3885-.2921-.4787-.7126-.8657-1.2137-1.117-.7768-.34-3.4146-5.1803-4.0134-6.9772-1.1166-3.3348-5.8743-5.1641-6.4731-5.4717l5.0167.5181c.6919.1357 1.2862.5756 1.6182 1.1979 1.5782 2.225 2.9026 4.6195 3.9486 7.139.9548 2.0883 5.8744.7933 4.8549-1.5055-.7121-1.635-3.8839-9.5025-4.7578-11.1214-.8154-1.7131-2.5536-2.7943-4.4502-2.7682-2.7922-.0811-5.5867.0163-8.3665.2914-.5631.0653-1.0906.3093-1.505.6961-3.2366 2.8654-3.2366 2.8654-3.8839 8.2885-.4679 6.3825-.2564 12.7967.6311 19.1346.3399 5.0507 6.2304 9.2921 6.2304 9.4863-4.9681-.9713-5.0005-2.7358-5.4536-2.5901s-17.5583 41.9116-23.2709 49.2611c-13.33458 17.9529-6.86146 46.5739-4.57969 47.4642 5.84199 3.9014 12.37979 6.9772 19.56499 6.9772-1.1269 1.6866-2.4287 3.2494-3.8839 4.6623-2.6054-.4047-15.9562-3.0434-20.277-7.1391-.4342-.3088-.70734-.7958-.74441-1.3274-1.71538-4.2414-3.41457-16.6578-3.41457-19.8955zm59.69838-126.9975h-.0971.0971c1.4659-.6953 3.0976-.9646 4.7091-.7771 1.3432.3238 1.6021-.2266 1.8772-1.4246.971-4.128 1.1976-8.256 2.5893-12.2222.8739-2.5092 3.3498-9.7453-.3075-9.9558-4.7415-.259-8.5769 21.741-8.8681 24.3797zm3.722 1.7807v-.0162c-2.2153.5703-4.3282 1.4824-6.2627 2.7034 3.7058.6799 5.1461 2.0236 5.4697 5.2612.1619 1.6513.3075 3.3672.3075 4.9861.1133 3.4157.3075 6.8314.1133 10.2472-.0486.8094.2427 1.0846 1.0357 1.0846.8264.1276 1.6672-.1124 2.3019-.657.6347-.5447.9997-1.3395.9994-2.176.0485-1.3112-.1457-2.6063-.1457-3.9014-.0091-.2441-.1003-.4779-.2589-.6637-.9944-1.1405-1.6649-2.5269-1.9419-4.0147-.8253-3.2862-1.0843-6.5239 1.4402-9.3083.0891-.0821.1512-.1894.1781-.3076.1634-.8989-.1245-1.8209-.7704-2.467s-1.5675-.9341-2.4662-.7706zm-7.1043 5.2288c-2.1889.5354-4.3153 1.3005-6.3436 2.2826 2.2352.0453 4.2474 1.3662 5.1785 3.3995 2.6522 3.9633 4.454 8.4336 5.2918 13.1288.2999 1.5855-.4417 3.1863-1.8449 3.9823-.5826.4047-1.1975.7447-1.9419 1.2141 1.154.3441 2.3984.2039 3.4469-.3885.2913-.0971.2913-.3885.2913-.6475.3129-1.9165.4806-3.8538.5017-5.7955-.1457-3.5776-.1457-7.1552-.2751-10.7166-.0513-1.2979-.1919-2.5906-.4208-3.8691-.4034-1.7569-2.1075-2.8934-3.8839-2.5901z"
			fill="#fff" fill-rule="evenodd"/>
	</mask>
	<mask id="al" fill="#fff">
		<path
			d="m5.4147 61.3001c1.6992-.34 1.8287-3.5129 1.7478-5.0184-1.0034-34.724 17.8334-45.0683 21.8791-47.8204 3.1557-2.153 5.0652-5.3259 11.4412-5.0831 2.0229.0809 11.3604-6.9934 18.9501-.6475.3237.3399 11.4898-2.4283 16.6359 3.5776.2913.6799 23.6754 15.6379 23.4974 46.2987-.0259 1.0619.6237 2.0237 1.6183 2.3958 1.3594.6152.5017 4.986.9548 5.8602.6959 1.376 3.5279 5.4717 1.6183 5.9735-1.4403.3885-13.2214-1.0522-15.8592-.5342-12.1047 3.2538-46.3151 2.7034-84.3285.777-1.6183-.0809-3.6088-.4694-3.2366-2.0883 0-.2104 3.7706-3.4319 5.0814-3.6909z"
			fill="#fff" fill-rule="evenodd"/>
	</mask>
	<mask id="am" fill="#fff">
		<path
			d="m82.1954 10.4452c13.3759 10.7048 20.9112 27.1009 20.3256 44.2265-.0323.6799.2104.9551.8739.9551 1.0195 0 1.4241.6637 1.4241 1.6189-.0551 1.5766.0479 3.1547.3075 4.7108 1.6182.6475 1.6182 2.2501 1.6182 3.5128.2428 3.9985.6312 3.9985-3.6735 4.4194-.5664.0486-8.1075.3076-8.6578-.3723-.8738-1.2303-3.01-.2266-3.5764-.1295-9.5802 2.574-35.9905 4.7432-85.3804.3723-1.209-.1259-2.402-.3755-3.5602-.7446-1.1813-.2752-1.3755-.858-.7282-1.8941 1.1496-1.7401 2.6903-3.187 4.4988-4.2251 1.526-.75 2.4236-2.3714 2.2494-4.0633-.0872-5.7761.3625-11.5478 1.3432-17.2406 1.612-8.7348 5.5222-16.8819 11.3279-23.6026 2.1784-2.5757 4.542-4.9888 7.0719-7.22.9012-.7477 1.9484-1.299 3.0747-1.6188.5414-.1442 1.002-.5001 1.2785-.9875 1.6463-2.5362 4.4233-4.1124 7.4441-4.2252 1.4523-.1815 2.9251-.1103 4.3531.2105.4017.1112.8314-.0216 1.1005-.34 1.7639-1.5864 8.1885-6.0706 16.555-.777.178.1457.4693 0 .712 0 4.4246-.8784 9.0143-.3109 13.0919 1.6188 1.5399.4677 2.8607 1.4731 3.722 2.833.3817.7867.9905 1.4409 1.7478 1.8778.5128.3233.9997.686 1.4564 1.0847zm21.9601 54.1176c-3.9486.0647-7.962-.9228-11.8458.4694-1.3594.5019-1.7154.2267-1.6183-1.2141.1618-2.9139.4208-5.8278.6311-8.7417.0486-.5666.3884-.6637.9224-.5666 1.8356.351 3.6884.6049 5.5507.7609 2.0391.1295 2.1524.1619 2.0391-1.8617-.2266-4.468-1.6345-28.2486-21.7335-42.4944-2.1443-1.7534-5.1532-1.9859-7.5412-.5828-9.1433 5.3908-16.4417 25.9014-16.4417 25.9014 1.3593-6.2002 5.1785-24.412 18.95-29.5599-2.9609-1.5349-6.3289-2.1012-9.6287-1.6189-1.0665.4461-2.2672.4461-3.3337 0-1.0519-.6799-8.7063-4.2899-13.9981.4209-.8542.8942-2.1022 1.2962-3.3175 1.0685-5.5507-.8095-8.4798 1.6188-11.3279 6.4753-4.3047 7.2524-8.3827 33.3642-8.5769 33.3642.3075-12.6917 3.3498-23.8131 6.7806-34.206.178-.2266-20.4713 14.7314-19.6298 46.9138.0162.9713.4208 1.3437 1.3594 1.1332 8.9976-1.9588 30.0838-1.3274 30.4884-1.3274-.0162 0-19.5326.5342-28.1419 2.8491-2.2332.4533-8.5283 3.1729-10.1466 5.3098 2.4436 1.3436 56.5589 5.3907 89.8307-.3562 1.0842-.1942 2.0714-.3237 2.7025.858.2104.3562.6311.3562.9872.3562 2.2332.1295 4.4502.2266 6.6996.2266 1.1652 0 1.4889-.5666 1.2947-1.6188-.0648-.3886-.0971-.7447-.1619-1.198-.0647-.4532-.2751-.7608-.7929-.7608zm-11.4898-8.9036c-1.2461 0-.8415 6.1678-.9548 7.7542-.0647.7609.1618.8904.8901.6314 2.573-.9228 2.573-.8904 2.573-3.6262.0162-.1619.0971-1.9426.0971-2.6873.0324-1.635-.5016-2.153-2.6054-2.0721zm10.2599 4.1604v-.0162c-.0971-1.975-.0971-1.975-2.1038-2.2178-.5178-.0809-1.068-.2914-1.6183-.2914-3.0585-.3885-3.0585-.3885-3.0585 2.6225 0 1.1008-.1618 3.0434.1618 3.2377.8577.5504 5.6478.4209 6.3275.4209.8577-.2752.2913-2.9463.2913-3.7557z"
			fill="#fff" fill-rule="evenodd"/>
	</mask>
	<mask id="an" fill="#fff">
		<path
			d="m10.7384 2.8454h-8.6578c-.5963.0374-1.1136-.4082-1.1651-1.0037v-.1295c.0207-.288.1553-.5558.3739-.7442.2187-.1884.5035-.2818.7912-.2595h8.6578c.2878-.0223.5725.0711.7912.2595s.3533.4562.374.7442v.1295c-.0516.5955-.5688 1.0411-1.1652 1.0037z"
			fill="#fff" fill-rule="evenodd"/>
	</mask>
	<mask id="ao" fill="#fff">
		<path
			d="m11.975 3.0897h-9.9848c-.2964.0316-.5932-.0567-.8242-.2452-.2311-.1885-.3771-.4616-.4057-.7585v-.1295c.0758-.6029.6075-1.0427 1.2137-1.0037h9.9848c.6117-.0563 1.154.3921 1.2137 1.0037v.1295c-.0246.2924-.1649.5629-.3898.7513-.2248.1885-.5156.2793-.8077.2524z"
			fill="#fff" fill-rule="evenodd"/>
	</mask>
	<mask id="ap" fill="#fff">
		<path
			d="m1.2491 2.5849-.0161-.0162c-.5903.0283-1.0976-.4148-1.149-1.0037v-.1133c.0165-.2866.1476-.5544.3637-.7432.2162-.1888.4992-.2827.7853-.2605h6.4731c.2877-.0223.5725.0711.7912.2595s.3533.4562.3739.7442v.1295c-.0514.5889-.5587 1.032-1.1489 1.0037z"
			fill="#fff" fill-rule="evenodd"/>
	</mask>
	<mask id="aq" fill="#fff">
		<path
			d="m4.2844 3.8881c-1.0107 1.3633-1.5606 3.0135-1.5698 4.7108v.3885c.0324 1.6863.599 3.3188 1.6183 4.6622.4391.5317.9922.9577 1.6183 1.2465 1.0052.3597 2.075.5031 3.1394.4209h3.1071c.5258.031.9476.446.9872.9713.0283.5816-.4074 1.0818-.9872 1.1332h-3.0909c-1.3652.0913-2.7341-.113-4.0133-.5989-.9234-.4181-1.7376-1.0442-2.3789-1.8293-1.3347-1.7276-2.0781-3.8391-2.1199-6.0221v-.3885c.021-2.1836.7476-4.3019 2.0714-6.0383.6362-.7836 1.4448-1.4096 2.3627-1.8292 1.276-.4986 2.6465-.7087 4.0133-.6152h5.2756c.5836-.0001 1.0592.4685 1.0681 1.0522-.0087.5865-.4819 1.0598-1.0681 1.0685h-5.2756c-1.0644-.0822-2.1342.0613-3.1395.4209-.6272.2869-1.1807.7132-1.6182 1.2465z"
			fill="#fff" fill-rule="evenodd"/>
	</mask>
	<g fill="none" fill-rule="evenodd">
		<path d="m-4.45085-4.3683h308.95805v308.99233h-308.95805z" fill="#e5e5e5" mask="url(#a)"
					transform="translate(49 59)"/>
		<path d="m-4.2475-4.3696h99.5938v175.2877h-99.5938z" fill="#fcc288" mask="url(#b)" transform="translate(159 37)"/>
		<path d="m-4.3087-4.1176h23.4641v15.1509h-23.4641z" fill="#fff" mask="url(#c)" transform="translate(168 80)"/>
		<path d="m-4.3791-4.5778h35.9002v16.3525h-35.9002z" fill="#fff" mask="url(#d)" transform="translate(176 115)"/>
		<path d="m-4.6103-4.2609h22.5244v14.7789h-22.5244z" fill="#fff" mask="url(#e)" transform="translate(199 82)"/>
		<path d="m-4.55-4.4006h22.1128v14.1237h-22.1128z" fill="#a76630" mask="url(#f)" transform="translate(200 89)"/>
		<path d="m-4.1145-4.6278h23.0433v13.1586h-23.0433z" fill="#a76630" mask="url(#g)" transform="translate(168 87)"/>
		<path d="m-4.5633-4.3987h15.6316v12.0698h-15.6316z" fill="#a76630" mask="url(#h)" transform="translate(213 88)"/>
		<path d="m-4.7255-4.7971h12.7733v13.2734h-12.7733z" fill="#a76630" mask="url(#i)" transform="translate(167 85)"/>
		<path d="m-4.5326-4.4621h12.8194v11.3862h-12.8194z" fill="#a76630" mask="url(#j)" transform="translate(199 87)"/>
		<path d="m-4.5605-4.5812h16.2779v15.2554h-16.2779z" fill="#494649" mask="url(#k)" transform="translate(172 80)"/>
		<path d="m-4.9318-4.4412h15.8285v14.8732h-15.8285z" fill="#49464a" mask="url(#l)" transform="translate(204 82)"/>
		<g fill="#7c4b31">
			<path d="m-4.8351-4.2739h16.5303v22.1213h-16.5303z" mask="url(#m)" transform="translate(236 82)"/>
			<path d="m-4.7472-4.3278h21.9091v16.3764h-21.9091z" mask="url(#n)" transform="translate(188 99)"/>
			<path d="m-4.4487-4.4093h21.9466v17.8513h-21.9466z" mask="url(#o)" transform="translate(178 98)"/>
			<path d="m-4.7867-4.8685h44.6404v18.9672h-44.6404z" mask="url(#p)" transform="translate(173 114)"/>
			<path d="m-4.043-4.6816h15.8905v22.287h-15.8905z" mask="url(#q)" transform="translate(238 90)"/>
			<path d="m-4.4648-4.6528h66.0248v92.5802h-66.0248z" mask="url(#r)" transform="translate(160 67)"/>
			<path d="m-4.8051-4.1658h30.9515v28.8984h-30.9515z" mask="url(#s)" transform="translate(202 129)"/>
			<path d="m-4.183-4.8773h29.2933v71.2501h-29.2933z" mask="url(#t)" transform="translate(230 79)"/>
			<path d="m-4.651-4.8107h34.6527v18.8842h-34.6527z" mask="url(#u)" transform="translate(195 80)"/>
			<path d="m-4.6359-4.3142h27.5705v28.2208h-27.5705z" mask="url(#v)" transform="translate(167 76)"/>
		</g>
		<path d="m-4.5506-4.1264h25.7965v15.7576h-25.7965z" fill="#2a1b13" mask="url(#w)" transform="translate(198 81)"/>
		<path d="m-4.5548-4.8155h25.2125v14.3223h-25.2125z" fill="#2a1b13" mask="url(#x)" transform="translate(167 80)"/>
		<path d="m-4.1979-4.4472h98.4341v82.7693h-98.4341z" fill="#6a4f3d" mask="url(#y)" transform="translate(157 18)"/>
		<path d="m-4.0736-4.0046h100.8502v90.9943h-100.8502z" fill="#543f30" mask="url(#z)" transform="translate(156 13)"/>
		<path d="m-4.1292-4.7106h31.4639v14.4058h-31.4639z" fill="#543f30" mask="url(#A)" transform="translate(194 74)"/>
		<path d="m-4.2736-4.9562h29.7153v15.2867h-29.7153z" fill="#543f30" mask="url(#B)" transform="translate(163 73)"/>
		<path d="m-4.8875-4.2614h12.8906v12.608h-12.8906z" fill="#000" mask="url(#C)" transform="translate(174 81)"/>
		<path d="m-4.7194-4.5454h12.8446v12.5096h-12.8446z" fill="#000" mask="url(#D)" transform="translate(205 83)"/>
		<path d="m-4.8595-4.391h11.5605v11.4746h-11.5605z" fill="#fff" mask="url(#E)" transform="translate(175 81)"/>
		<path d="m-4.5714-4.5193h11.5538v11.475h-11.5538z" fill="#fff" mask="url(#F)" transform="translate(206 83)"/>
		<path d="m-4.6925-4.5483h101.4206v34.5593h-101.4206z" fill="#655e62" mask="url(#G)" transform="translate(156 73)"/>
		<path d="m-4.7307-4.7034h53.2483v65.1798h-53.2483z" fill="#fff" mask="url(#H)" transform="translate(170 148)"/>
		<path d="m-4.4333-4.9148h261.419v209.50053h-261.419z" fill="#4d4d4d" mask="url(#I)" transform="translate(83 128)"/>
		<path d="m-4.1729-4.7184h269.9829v211.23723h-269.9829z" fill="#202020" mask="url(#J)"
					transform="translate(78 124)"/>
		<path d="m-4.0917-4.3722h127.034v52.99623h-127.034z" fill="#44689b" mask="url(#K)" transform="translate(136 315)"/>
		<path d="m-4.4187-4.2987h130.5618v54.25897h-130.5618z" fill="#1f385c" mask="url(#L)"
					transform="translate(135 313)"/>
		<path d="m-4.7041-4.0575h15.2748v15.47707h-15.2748z" fill="#1f385c" mask="url(#M)" transform="translate(178 332)"/>
		<path d="m-4.2247-4.7403h123.9908v44.55548h-123.9908z" fill="#563f2d" mask="url(#N)"
					transform="translate(140 313)"/>
		<path d="m-4.3088-4.06471h12.3194v12.0359h-12.3194z" fill="#3b2f25" mask="url(#O)" transform="translate(183 337)"/>
		<path d="m-4.7837-4.66368h12.2756v12.15011h-12.2756z" fill="#3b2f25" mask="url(#P)" transform="translate(196 337)"/>
		<path d="m-4.1802-4.91181h12.2078v12.04872h-12.2078z" fill="#3b2f25" mask="url(#Q)" transform="translate(173 338)"/>
		<path d="m-4.4508-4.69973h12.3969v12.12884h-12.3969z" fill="#3b2f25" mask="url(#R)" transform="translate(208 336)"/>
		<path d="m-4.6209-4.2052h125.0809v45.6791h-125.0809z" fill="#3b2f25" mask="url(#S)" transform="translate(140 312)"/>
		<path d="m-4.3515-4.1449h17.4655v30.80975h-17.4655z" fill="#486b9e" mask="url(#T)" transform="translate(215 324)"/>
		<path d="m-4.1426-4.8474h18.5144v30.43794h-18.5144z" fill="#486b9e" mask="url(#U)" transform="translate(145 322)"/>
		<path d="m-4.7712-4.1973h23.9649v32.9174h-23.9649z" fill="#1f385c" mask="url(#V)" transform="translate(145 320)"/>
		<path d="m-4.4952-4.4675h19.92v33.03118h-19.92z" fill="#1f385c" mask="url(#W)" transform="translate(214 323)"/>
		<path d="m-4.3225-4.7117h40.893v15.5957h-40.893z" fill="#fff" mask="url(#X)" transform="translate(193 208)"/>
		<path d="m-4.1768-4.2948h14.8238v13.3187h-14.8238z" fill="#ff5c20" mask="url(#Y)" transform="translate(193 204)"/>
		<path d="m-4.659-4.7767h11.9743v12.2178h-11.9743z" fill="#fff" mask="url(#Z)" transform="translate(194 205)"/>
		<path d="m-4.6199-4.5663h11.7639v12.0721h-11.7639z" fill="#fff" mask="url(#aa)" transform="translate(196 205)"/>
		<path d="m-4.5645-4.6494h16.7984v17.7692h-16.7984z" fill="#ff5c20" mask="url(#ab)" transform="translate(184 204)"/>
		<path d="m-4.6985-4.508h13.9486v11.0621h-13.9486z" fill="#ff5c20" mask="url(#ac)" transform="translate(187 209)"/>
		<path d="m-4.6209-4.2238h14.9357v11.0945h-14.9357z" fill="#ff5c20" mask="url(#ad)" transform="translate(186 207)"/>
		<path d="m-4.6661-4.9072h15.5345v11.1589h-15.5345z" fill="#ff5c20" mask="url(#ae)" transform="translate(187 206)"/>
		<path d="m-4.48596-4.449h88.35616v186.7208h-88.35616z" fill="#fec288" mask="url(#af)" transform="translate(56 75)"/>
		<path d="m-4.128-4.7854h139.9792v85.08347h-139.9792z" fill="#fec288" mask="url(#ag)"
					transform="translate(203 256)"/>
		<path d="m-4.3805-4.7849h142.5766v82.30834h-142.5766z" fill="#7f5037" mask="url(#ah)"
					transform="translate(202 260)"/>
		<path d="m-4.6475-4.3905h47.269v48.9936h-47.269z" fill="#7f4f36" mask="url(#ai)" transform="translate(246 266)"/>
		<path d="m-3.8285-4.1591h10.097v10.0809h-10.097z" fill="#7f4f36" mask="url(#aj)" transform="translate(113 100)"/>
		<path d="m-4.52688-4.0609h90.73178v192.2613h-90.73178z" fill="#7f4f36" mask="url(#ak)"
					transform="translate(54 73)"/>
		<path d="m-4.7121-4.9149h114.1205v78.5492h-114.1205z" fill="#fe5c20" mask="url(#al)" transform="translate(148 2)"/>
		<path d="m-4.1974-4.4775h116.076v81.7379h-116.076z" fill="#a0370f" mask="url(#am)" transform="translate(146)"/>
		<path d="m-4.0845-4.2947h20.9881v12.1423h-20.9881z" fill="#fff" mask="url(#an)" transform="translate(177 42)"/>
		<path d="m-4.2397-4.052h22.4122v12.148h-22.4122z" fill="#fff" mask="url(#ao)" transform="translate(179 38)"/>
		<path d="m-4.916-4.5552h18.7872v12.1414h-18.7872z" fill="#fff" mask="url(#ap)" transform="translate(180 46)"/>
		<path d="m-4.4053-4.9217h24.7911v27.3644h-24.7911z" fill="#fff" mask="url(#aq)" transform="translate(173 35)"/>
	</g>
</svg>
