<svg height="397" viewBox="0 0 394 397" width="394" xmlns="http://www.w3.org/2000/svg">
	<mask id="a" fill="#fff">
		<path
			d="m85.8 281.8235-.272-.09606c-63.2241-29.67934-97.05165-99.59164-81.10477-167.62144 15.94687-68.0297 77.31407-115.6024 147.13377-114.0599 69.8197 1.5424 129.0286 51.7788 141.959 120.4465 12.9303 68.6677-23.9483 137.018-88.42 163.87632l-.416.1761-1.84.75242-.304.11207c-.944.38421-1.904.73641-2.864 1.08861h-.192c-4.4317 1.64769-8.9442 3.06898-13.52 4.25838l-.304.08005c-1.024.28816-2.048.52829-3.088.76843l-.272.08004c-11.1481 2.62591-22.5632 3.94749-34.016 3.938259-4.256 0-8.496-.192159-12.672-.544359h-.288l-2.336-.20811c-2.592-.25615-5.168-.60834-7.712-.99256-.96-.16009-1.92-.30417-2.864-.48027h-.096c-10.7058-1.90838-21.1653-5.00662-31.184-9.23717l-.448-.1761c-1.216-.49628-2.448-1.04058-3.664-1.6009l-.464-.22412z"
			fill="#fff" fill-rule="evenodd"/>
	</mask>
	<mask id="b" fill="#fff">
		<path
			d="m30.016.6136c57.184-5.7792 42.16 51.2447 42.416 52.5895.736-3.9062 16.096-21.9483 16.912-1.3448-1.6 3.8742-9.952 20.4755-14.4 20.4755-.752 0-1.6 21.2439-3.2 26.9591-2.848 9.8295-28 21.5161-28.96 22.4126-13.808 13.0153-26.72 38.1654-29.2 41.9275-.704 1.0405-.688-29.8568-3.2-50.3162-1.28-9.9416 3.6-15.5287 3.2-15.8009-.896-.6083-14.24-20.8116-9.84-40.0224.4-1.713-.752-12.3109-1.92-18.4583-7.344-38.8218 25.136-38.1014 28.192-38.4216z"
			fill="#fff" fill-rule="evenodd"/>
	</mask>
	<mask id="c" fill="#fff">
		<path
			d="m13.896 4.2552c-.048.5923-3.712 1.1206-4.656 1.3928-3.248 1.1206-6.256-.4483-8.656-2.4814 0 0 7.152-4.9308 11.024 0 .256.3202 2.288.5763 2.288 1.0886z"
			fill="#fff" fill-rule="evenodd"/>
	</mask>
	<mask id="d" fill="#fff">
		<path
			d="m15.128.7769c.416-.0801 11.248 1.7609 10.896 2.0811-9.6 8.0205-23.216.2562-25.6-1.793 2.7576-.8219 5.6476-1.1045 8.512-.8324 1.728.144 2.464 1.2487 6.192.5443z"
			fill="#fff" fill-rule="evenodd"/>
	</mask>
	<mask id="e" fill="#fff">
		<path
			d="m12.104 5.1688c-6.144 1.5209-11.904-2.1612-11.088-2.1292 1.76.2882 3.952-5.1548 11.552 0 1.136.8165.992 1.777-.464 2.1292z"
			fill="#fff" fill-rule="evenodd"/>
	</mask>
	<mask id="f" fill="#fff">
		<path d="m12.96 4.1562c-2.992 1.7129-11.184-1.1847-11.952-3.49-.256-.7364 4.896 4.5466 11.952 3.49z" fill="#fff"
					fill-rule="evenodd"/>
	</mask>
	<mask id="g" fill="#fff">
		<path d="m.776 3.3066c4.4184-.3665 8.7641-1.3471 12.912-2.9136-1.04.8324-7.664 3.9542-12.912 2.9136z" fill="#fff"
					fill-rule="evenodd"/>
	</mask>
	<mask id="h" fill="#fff">
		<path
			d="m4.024.7537c.7775-.1989 1.5932-.1934 2.368.016-2.768.6244-3.312 2.0332-5.568 1.8731 1.2699-.1943 2.416-.8709 3.2-1.8891z"
			fill="#fff" fill-rule="evenodd"/>
	</mask>
	<mask id="i" fill="#fff">
		<path d="m2.912 3.4496c.288.3201-4.272-1.6009-2.176-3.2018.064 1.4888 1.28 2.2252 2.176 3.2018z" fill="#fff"
					fill-rule="evenodd"/>
	</mask>
	<mask id="j" fill="#fff">
		<path d="m2.8 1.9138c-1.824-.4002-2.656-1.6009-2.752-1.3127-.4.8485 2.704 1.4248 2.752 1.3127z" fill="#fff"
					fill-rule="evenodd"/>
	</mask>
	<mask id="k" fill="#fff">
		<path d="m5.848 4.4793c-2.992 3.6661-8.832-1.793-3.2-3.9542 1.2-.1281 5.456 1.2007 3.2 3.9542z" fill="#fff"
					fill-rule="evenodd"/>
	</mask>
	<mask id="l" fill="#fff">
		<path d="m6.256 2.3513c.928 5.6031-8.032 2.5934-5.12-1.0406.592-.7204 4.4-1.4248 5.12 1.0406z" fill="#fff"
					fill-rule="evenodd"/>
	</mask>
	<mask id="m" fill="#fff">
		<path
			d="m.992 8.4987c.2375-3.4775 2.4924-6.4919 5.76-7.7003-.064.3842-5.216 5.1229-3.536 7.156 1.84 3.3779-1.424 5.0748-2.096 4.8027-.672-.2722-1.056-.6564-.672-1.4568.3897-.8811.5756-1.8387.544-2.8016z"
			fill="#fff" fill-rule="evenodd"/>
	</mask>
	<mask id="n" fill="#fff">
		<path
			d="m10.608 4.6421c1.36-1.0406 1.424-1.4569.432-2.8817-.224-.3201-.672-.6723-.224-1.0245s.8.08 1.088.4162c1.024 1.1687 1.328 2.7696-1.088 4.8027-1.28 1.0566-2.096 1.3127-3.472.3842-2.832-1.9371-5.712-.1761-6.4-.6724-.208-.6243.256-.8644.656-1.1206 2.0932-1.3117 4.8044-1.0627 6.624.6083.704.6084 1.152.5764 1.728 0 .192-.1921.448-.3361.656-.5122z"
			fill="#fff" fill-rule="evenodd"/>
	</mask>
	<mask id="o" fill="#fff">
		<path
			d="m.424 3.2247c.208-.9605.16-1.9691 1.216-2.7375-.802 1.3348-.802 3.0036 0 4.3384.224.2882.432.5443.752.1921.72-.7684 1.456-.4642 2.144 0 1.36.9606 3.088 1.3288 4.56 2.1612.275.0505.557.0505.832 0h2.144c.24.4963-.176.7524-.4 1.0726-2.6363-.347-5.2378-.9201-7.776-1.7129-.2289-.0672-.4655-.1049-.704-.1121-.8433.1054-1.6835-.2175-2.2394-.8605-.556-.6431-.7543-1.5215-.5286-2.3413z"
			fill="#fff" fill-rule="evenodd"/>
	</mask>
	<mask id="p" fill="#fff">
		<path
			d="m1.2 2.985c-.224-.032-.528-.4163-1.168-1.0566-.16-.1441 1.84-1.0886 1.84-1.0886 2.64.8645 5.28.064 7.904.2081 1.5294-.1121 3.0571.2393 4.384 1.0086.3653.2653.8365.3369 1.264.1921.7119-.3378 1.4847-.5284 2.272-.5603 3.4353.2691 6.8502.7557 10.224 1.4568 1.1952.438 2.5334.1996 3.504-.6244.224-.2081 2.864.9445 2.864.9445-.912.0321-.976.0801-1.168.1441-.192.0641-5.536 3.522-7.312 4.4185-5.3642 2.3734-11.5031 2.2503-16.768-.3362-2.0892-.927-4.043-2.1333-5.808-3.586-.5321-.5916-1.248-.9864-2.032-1.1206zm9.92 0h-.016c-1.9013-.1179-3.8098.0058-5.68.3682 7.12 5.2029 14.848 5.2829 22.256 1.6009-1.392-.2562-8.544-1.8891-10.144-1.2487-1.4827.5724-3.1253.5724-4.608 0z"
			fill="#fff" fill-rule="evenodd"/>
	</mask>
	<mask id="q" fill="#fff">
		<path
			d="m5 6.39c-.832 2.3533-3.376 2.6895-4.912 6.0834.2206-1.254.7731-2.426 1.6-3.3939.656-.7044 2.784-1.5529 2.96-4.4985.2469-1.4746.6824-2.9112 1.296-4.2744-.0884 2.0565-.405 4.0969-.944 6.0834z"
			fill="#fff" fill-rule="evenodd"/>
	</mask>
	<mask id="r" fill="#fff">
		<path
			d="m3.88 30.5106c.288 3.9382-.24 7.8604-.144 11.7986.1898 3.568 1.0246 7.0719 2.464 10.3418 1.9577 4.2113 4.3379 8.2128 7.104 11.9427 1.136 1.6009 2.432 3.2018 3.552 4.8027 1.1043 1.6439 2.8441 2.7522 4.8 3.0577 3.04.5283 6.064 1.1847 9.152 1.4248 4.3446.2889 8.677-.7196 12.448-2.8976 3.792-2.1452 11.712-7.7003 12.592-7.7003-1.2 1.2167-2.192 2.2893-3.312 3.2018-2.384 1.873-11.6 10.822-24.784 9.8775-7.52-.9765-11.216-3.1538-11.952-3.7941-.736-.6404-1.072-.4643-1.408.3522-.336.8164-4.976 9.1891-5.136 9.3332s.368-4.2584-.544-4.8027c-.416-.2401.032-3.2818.48-4.1783 1.0583-1.7061 1.6794-3.6473 1.808-5.6512.0568-1.1177-.355-2.2085-1.136-3.0097-5.616-5.427-7.824-12.3429-8.816-19.8351-.6092-4.1452-.4956-8.3647.336-12.471.064-.2721-.848-20.9717-.848-22.5726 0-1.1367 0-7.9885 0-9.1411 1.648.4482 2.832 22.8928 3.344 29.9207z"
			fill="#fff" fill-rule="evenodd"/>
	</mask>
	<mask id="s" fill="#fff">
		<path d="m21.424.3845c-8.688 12.6631-20.368 19.2588-20.704 18.6504-.336-.6083 7.904-4.8667 20.704-18.6504z"
					fill="#fff" fill-rule="evenodd"/>
	</mask>
	<mask id="t" fill="#fff">
		<path
			d="m8.536 26.0028c.384-1.5208 1.728-2.5454 2.576-3.8581.352-.5443 9.2-11.7986 5.376-18.0582-.224-.3682-1.776-2.7215-2.08-3.0096-.816-.7845 1.28-1.0246 1.6-.7044 6.4 6.4036 1.36 14.8883-.24 17.6098-.976 1.697-2.032 3.4099-3.12 5.0108-1.0387 1.5265-1.8927 3.1709-2.544 4.8988-.5333 1.7709-1.9035 3.1658-3.664 3.7301-.5992.1302-1.022.6673-1.008 1.2807-.464 4.6106-.352 9.2692-.352 13.8958-.192 1.5208-4.992 15.0484-4.992 13.9438-.08-1.793 1.312-13.3195 1.52-17.3697.304-6.0674.72-19.8672 1.056-20.6356.3104 1.4847.4659 2.9977.464 4.5145.016 1.5049.272 1.729 1.744 1.6009 1.7498.063 3.2933-1.1374 3.664-2.8496z"
			fill="#fff" fill-rule="evenodd"/>
	</mask>
	<mask id="u" fill="#fff">
		<path
			d="m3.608.397c.336.2882.16.6244-.08.7845-.672.5763-.288 1.1526 0 1.6009.288.4482.528.6243 1.024.2241 1.1349-.8426 2.44-1.4271 3.824-1.713 1.5133-.4833 3.1608-.2969 4.528.5123 2.634 1.6908 5.1663 3.535 7.584 5.5231.8633.6535 1.9537.9306 3.024.7685.608-.0161 2.16-.2882 1.728.4642-.896 1.5529-5.68-.7844-7.536-2.1132-2.2178-1.6389-4.592-3.0546-7.088-4.2263-1.104-.5443-3.984.6083-5.904 2.0331-.928.6724-1.152.3042-1.6-.4322-.448-.7365-.8-1.1207-1.248 0-.128.3041-.272.8164-.704.6243s-.112-.6403 0-.9445c.3156-1.0711.8617-2.0601 1.6-2.8976.24-.2082.512-.4643.848-.2082z"
			fill="#fff" fill-rule="evenodd"/>
	</mask>
	<mask id="v" fill="#fff">
		<path
			d="m7.2 3.6126c2.208-.7044 4.048.2241 5.888.9926.416.16 1.424.6883 1.424.6883-.539-1.577-1.3876-3.0302-2.496-4.2744-.24-.2241 1.616-.3361 1.968.1281 3.8947 4.7101 4.7178 11.2481 2.112 16.7774-.08.1761-.704 1.0726-1.008.8965s2.112-4.4985 1.2-9.1411c-.147-1.2019-.8138-2.2788-1.824-2.9457-7.28-4.8186-13.68 1.777-14.192 1.0086s4.848-3.4579 6.928-4.1303z"
			fill="#fff" fill-rule="evenodd"/>
	</mask>
	<mask id="w" fill="#fff">
		<path
			d="m3.4 3.6874c-.6379.7992-1.6189 1.2453-2.64 1.2007-.336-.032-.688-.112-.72-.5283-.032-.4162.32-.5603.64-.5603 1.0008-.1492 1.9415-.57 2.72-1.2167 1.328-.9125 2.848-1.793 3.712-1.6009 1.5757.3142 3.0654.9639 4.368 1.9051 1.3263 1.3252 2.7202 2.5809 4.176 3.7621-1.4785-.4583-2.8497-1.2096-4.032-2.2092-1.536-1.4088-3.424-2.7376-5.024-2.5775-1.2186.2909-2.3289.9241-3.2 1.825z"
			fill="#fff" fill-rule="evenodd"/>
	</mask>
	<mask id="x" fill="#fff">
		<path
			d="m11.808 3.1346c-2.608-2.6415-4.24-1.777-7.024-.9766-1.152.3202-4.784 1.9531-4.464 1.6009 2.4709-2.1377 5.5993-3.3638 8.864-3.4739 1.2372.3355 2.3495 1.0255 3.2 1.9851.6096.7094 1.4467 1.1848 2.368 1.3447.336.0641.672.2402.576.5924s-.464.3522-.8.3522c-1.044-.1461-2.0052-.6496-2.72-1.4248z"
			fill="#fff" fill-rule="evenodd"/>
	</mask>
	<mask id="y" fill="#fff">
		<path
			d="m3.648 55.5378c-.048.5122-2.656-2.6255-2.8-5.4591-.432-19.5149 8.336-38.5176 18.608-43.2242 2.608-1.1847 3.264-5.1549 5.936-5.5551 9.792-1.4408 29.104-.9125 31.168-.6404 10.608 1.4248 20.992 9.9736 27.2 20.2834 4.144 6.8998 4.88 39.0138 4.336 39.1899-.784-.5123-8.352 1.809-12.8 12.1668-.256-1.825-2.672-20.1232-2.752-22.4125s-4.512-13.9598-8.976-17.85c-.832-.7204-20.576-7.3801-30.256-7.3801-1.952 0-3.424-1.729-5.152-.7525-1.264.7204-8.4 3.2659-9.712 3.0577-2.0251-.6304-4.2236-.3562-6.032.7525-2.64 1.4088-6.816 7.4121-8.768 27.8236z"
			fill="#fff" fill-rule="evenodd"/>
	</mask>
	<mask id="z" fill="#fff">
		<path
			d="m4.552 63.3233s-3.216-2.9776-3.6-16.105c.624-5.6031-1.04-17.9941 13.248-33.4267-2.1191-.1084-4.2122.5069-5.936 1.7449 1.84-2.4653 4.976-5.8752 14.288-8.5167-.832-.7364-5.488-2.1772-5.456-2.6415s12.064.2401 12.064.2401 9.968-4.1623 10.56-3.7621c-.736.8645-1.792 1.793-2.768 2.9297 10.224-2.8977 22.912-1.2487 27.824-.8645-1.3527.5126-2.637 1.1901-3.824 2.0171 7.1875 1.1575 13.9244 4.2512 19.488 8.949-1.3497-.3751-2.7432-.5689-4.144-.5763 3.984 2.6415 12.544 13.4315 12.304 13.6557-.24.2241-2.112-1.0566-2.576-.5764-.464.4803 2.56 4.8988 3.376 11.5105 1.2 5.443 1.376 28.3839 1.376 28.3839-2.32-.4643-11.088 1.0886-13.92 14.5201-1.04 0-3.2.2722-3.2 0-.336-5.8224-.336-11.6594 0-17.4818.064-.8965-2.4-3.3459-2.288-8.0045s-4.272-15.2565-5.264-15.8649c-15.36-9.5413-34.56-8.6288-35.424-8.5007 0 0 .592-1.5049.768-1.9851-4.7636 1.3745-9.3374 3.3373-13.616 5.8432-.608.4163-.304-2.6735-.784-2.4653-6.752 2.9776-9.44 10.3257-9.952 15.5447-.464 4.6746-2.432 15.0324-2.544 15.4326zm16.512-49.4357c-15.2 10.1337-17.824 28.4159-17.424 37.3009-.0343 1.1155.0841 2.2305.352 3.3139.368-.1441-.896-24.0775 15.104-25.5023 0 0-.224 2.2733.528 1.825 4.8086-2.0055 9.7288-3.732 14.736-5.1709l.256 2.0171c.192.5444 17.04-.9605 31.248 7.7004 2.8 1.777 5.616 4.0182 6.4 7.5562 1.776 6.3716 1.776 14.7603 3.52 18.5544 1.616 3.506.672 12.1028 1.056 12.1188229.384.0159771 3.136-8.3407229 10.608-9.2052229 0 0-.464-24.4137-.784-25.5023-2.976-10.806-4.896-10.726-7.776-15.2405.9797.0801 1.9643.0801 2.944 0-7.248-8.6929-16.912-15.7528-28.624-15.8809l.416-1.1206c-6.3395-.2048-12.6812.3325-18.896 1.6009-.448.096-5.968-.7044-6.4-.6084-.432.0961 1.904 1.5849 1.488 1.697-3.4854.8786-6.8981 2.0239-10.208 3.4259z"
			fill="#fff" fill-rule="evenodd"/>
	</mask>
	<mask id="A" fill="#fff">
		<path
			d="m21.704 4.8122c-20.384-1.3608-21.056.1761-21.184-.1601s2.688-2.8977 5.184-4.1143c11.792-.7845 16.48 4.2744 16 4.2744z"
			fill="#fff" fill-rule="evenodd"/>
	</mask>
	<mask id="B" fill="#fff">
		<path
			d="m17.888 4.9157c-9.184-4.2744-16.864.3682-17.2 0-.336-.3683 5.952-9.3973 18.448-1.3928 2.512 2.4333-.224 2.1452-1.248 1.3928z"
			fill="#fff" fill-rule="evenodd"/>
	</mask>
	<mask id="C" fill="#fff">
		<path
			d="m3.808 2.3267c0 .6563-.848 1.1046-1.264 1.0726-1.376-.048-1.6-.8645-1.6-1.3608 0-.8965.8-1.2167 1.6-1.2167.3719.0195.7191.1925.9587.4778.2396.2852.3501.6572.3053 1.0271z"
			fill="#fff" fill-rule="evenodd"/>
	</mask>
	<mask id="D" fill="#fff">
		<path
			d="m3.576 1.9596c0 .6404-.816 1.0566-1.216 1.0406-1.392-.048-1.6-.8485-1.6-1.3128 0-.8644.832-1.1686 1.6-1.1686.3579.0151.693.1795.9241.4533s.337.632.2919.9875z"
			fill="#fff" fill-rule="evenodd"/>
	</mask>
	<mask id="E" fill="#fff">
		<path
			d="m2.264 1.9905c-.3586.2669-.865.1955-1.136-.1601-.2235-.2631-.2235-.6494 0-.9125.3197-.2989.8163-.2989 1.136 0 .1523.1366.2393.3316.2393.5363 0 .2046-.087.3996-.2393.5363z"
			fill="#fff" fill-rule="evenodd"/>
	</mask>
	<mask id="F" fill="#fff">
		<path
			d="m2.192 1.8475c-.3627.2635-.8699.1848-1.136-.1761-.2146-.2602-.2146-.6362 0-.8965.3165-.307.8195-.307 1.136 0 .1571.1339.2476.3299.2476.5363 0 .2065-.0905.4025-.2476.5363z"
			fill="#fff" fill-rule="evenodd"/>
	</mask>
	<mask id="G" fill="#fff">
		<path
			d="m8.6 20.3003c-2.2704-.4741-4.1067-2.14-4.8-4.3545-.688-2.4493-1.6-9.4933-1.6-9.4933-1.232-.4963-1.824-.7844-1.824-.7844-.0598-1.4713.0152-2.9449.224-4.4025 1.328-.3042 11.2-.6243 13.088-.6243 5.1976.1814 10.3404 1.1253 15.264 2.8015 2.3399.8647 4.8465 1.1823 7.328.9285 4.2729-.517 8.5769-.731 12.88-.6403 5.815.24 11.5649 1.3184 17.072 3.2018 0 0 11.344-2.8336 14.896-3.3619 2.8-.4002 9.6 3.2498 9.6 3.57-1.632-1.0086-6.304-.7364-7.664-.3202-5.568 1.681-10.208 3.2498-15.872 4.6426-.704.1601-1.504.5283-1.504 1.2807-.0025 1.9482-.1254 3.8943-.368 5.8273-.688 4.4025-2.704 6.0354-6.256 6.2435-4.6548.2192-9.3196.0746-13.952-.4322-2.6036-.2851-4.9473-1.7096-6.4-3.8902-1.5035-2.2799-2.517-4.8476-2.976-7.5402-1.6-6.2596-4.656-4.5626-5.632-2.7056-.3979.8778-.7191 1.7884-.96 2.7216-.634 2.711-1.7155 5.2973-3.2 7.6522-.8358 1.0484-2.1163 1.6416-3.456 1.6009-4.7014.0929-9.3881-.5554-13.888-1.921zm29.024-13.4476h-.048c-.3235.1667-.5404.4862-.576.8485-.2642 3.7123.5056 7.4252 2.224 10.726 1.36 2.3533 3.088 4.5466 6.16 4.9148 4.2456.5434 8.538.6186 12.8.2241 3.632-.3682 4.832-1.3768 5.392-4.9628.3894-2.7892.5553-5.6051.496-8.4207.1343-.8702-.459-1.6856-1.328-1.825-5.2982-1.816-10.8826-2.6514-16.48-2.4654-2.0449-.0429-4.0907.0266-6.128.2081-.892.0058-1.7636.2668-2.512.7524zm-33.952-1.3287h-.048c-.0309 3.1765.4665 6.3361 1.472 9.3492.6879 2.3674 2.6729 4.1294 5.104 4.5306 3.7476.9945 7.611 1.4844 11.488 1.4568 1.5955-.1114 2.9873-1.1247 3.584-2.6095.8489-1.9821 1.5443-4.0266 2.08-6.1154.5322-1.6908.6852-3.4782.448-5.2349-.0277-.7319-.5482-1.3516-1.264-1.5049-2.1898-.652-4.4254-1.139-6.688-1.4568-4.6386-1.0737-9.4399-1.2476-14.144-.5123-1.68.3362-1.92.3842-2.032 2.0972z"
			fill="#fff" fill-rule="evenodd"/>
	</mask>
	<mask id="H" fill="#fff">
		<path
			d="m1.752 55.0812c.528-2.8976-2.16-55.1989-1.504-54.4305 10.144 12.1508 41.312 8.0045 42.656 6.4036-20.784 12.6471-41.632 50.6524-41.152 48.0269z"
			fill="#fff" fill-rule="evenodd"/>
	</mask>
	<mask id="I" fill="#fff">
		<path
			d="m292 130.3922c-.944 1.5048-28.496-12.8072-54.304 5.8593 0-.9125-6.192-10.3898-6.4-16.9375-2.608-2.7856-15.728-17.6099-17.088-17.9461s-9.904 55.9194-11.2 65.3967c-.48 3.4419 2.56 13.6236 3.568 17.7219-.0109.1118-.0109.2244 0 .3362 0 .1921.08.3682.112.5123.0507.2372.0828.4781.096.7204-1.44.7044-2.896 1.3768-4.368 2.0011-7.5621 3.2-15.4403 5.5932-23.504 7.14l-1.232.2401c-1.184.2242-2.384.4323-3.568.6244l-1.344.2081-3.2.4322c-17.1916 2.22335-34.6361 1.49789-51.584-2.1452-2.9604-.6481-5.8572-1.5589-8.656-2.7215l-.304-.1441c-.6062-.2664-1.1895-.5824-1.744-.9445-.736-.4803-1.152-.9605-1.2-1.3768 0-.1601 0-.3201-.096-.5443-.096-.2241-.176-.7044-.288-1.1526-1.136-4.0983-4.208-12.6311-4.464-13.4636-.64-2.0651.56-65.8288-11.744-90.3546-2.288-4.5465-56-8.0045-56.784-11.2063-.256-1.0405-21.088-2.5774-26.16-6.4035-5.072-3.8262-5.248-9.6054-6.032-10.3258 38.288-5.8113 36.688-37.2369 39.632-36.5485 3.936 1.0086 6.144 10.6139 7.776 9.9736 16.672-6.5317 25.504-.6244 30.672-2.0972 11.488-3.2018 37.744 0 37.04-.5763 2.432-2.9457 10.864-12.8072 12.384-13.2394-.08.4482 1.984 33.7309 1.984 33.7949.656 11.2063 1.472 28.9122 1.472 29.4085 0 0 2.208-4.4985 5.68-10.8221 5.584-10.2457 14.64-25.2461 24-33.6188 2.1455-1.6043 4.4837-2.9328 6.96-3.9542 8.704-4.4025 22.544-12.0068 26.64-27.4874.16-.6244 7.136 16.5853 8.304 18.7945.224.4322 26.944 13.7677 31.504 17.4338 5.36 5.459 40 45.8657 44.8 64.6442 1.232-.8965 8.208 11.0302 11.408 13.0793.064.1601 1.232 15.4487 1.232 15.6888z"
			fill="#fff" fill-rule="evenodd"/>
	</mask>
	<mask id="J" fill="#fff">
		<path
			d="m297.344 125.4272c.944 4.0182-3.44 12.0867-3.44 12.1508-28.688-12.6791-51.664 4.2904-53.456 7.0439-.5005-.0719-.9506-.3432-1.248-.7524-1.5314-1.4327-2.7514-3.1656-3.584-5.0908-.5881-2.1065-1.7582-4.0043-3.376-5.4751-.9391-.9801-1.3757-2.3379-1.184-3.6821.112-1.4888-.064-3.0897.192-4.6906.096-.5763-10.912-8.6769-13.264-12.6951-.1888-.3553-.4571-.6622-.784-.8965-.656 4.0022-7.552 48.5392-9.92 56.8318-.304 1.0566 1.424 21.6121 1.44 21.6121s-6.48 3.7141-6.624 2.6575c-.8-3.5059-1.872-17.1616-1.872-17.3377 1.632-6.5317 12.448-68.1982 12.448-68.5024-6.736 5.0749-13.008 10.5499-19.84 15.3526 4.128-4.9307 16.256-19.8191 17.76-22.7007.7755-1.5883 1.0543-3.3736.8-5.1229-.992-9.2692 1.968-19.0506 2.56-19.4348-1.2 4.2103-2.928 33.1545 21.904 44.5529.768.3522 10-17.5778 41.872-14.8083.032.016.064-.112.192-.112-1.0748-3.665-2.4336-7.2405-4.064-10.694-5.005-8.8682-11.071-17.0933-18.064-24.4938-2.0801-2.2949-3.9741-4.7521-5.664-7.3481-1.792-2.7055-3.632-5.411-5.584-8.0045-2.2199-3.0506-4.7509-5.8619-7.552-8.3887-1.0154-1.0691-2.683-1.1738-3.824-.2401-2.128 1.3448-5.888 4.9308-6.064 4.9308 1.4872-2.1335 3.1403-4.1462 4.944-6.0194.256-.3042.528-.5763.768-.8165-3.4026-2.5755-6.9497-4.9541-10.624-7.124-4.896-2.6734-11.216-6.5796-16.64-8.0044 0 0-12.064 18.7305-13.168 19.2107-2.432-2.2732-15.216-4.9788-18.528-5.9393s-9.968 1.841-10.688 2.2413c.096-.5444 4.576-5.187 7.904-5.1549 3.328.032 19.584 4.5305 20.608 4.9147 3.8504-5.1817 7.3669-10.6038 10.528-16.2331.848-1.857 2.064-4.4985.272-5.8112-1.488-1.1046-3.968-4.8187-3.968-6.5637.0664-2.6067-.5223-5.1883-1.712-7.5082-.32.7204-8.064 19.0026-25.232 26.1266-1.5877 1.0135-3.2273 1.9433-4.912 2.7856-4.64 1.777-10.752 10.2938-14.24 14.9684-7.488 10.1176-18.592 26.879-20.896 41.2871-.7165 3.5779-1.2506 7.1899-1.6 10.8221-.368 6.4196-1.296 52.0131-1.456 58.8489-.24 5.8323.0653 11.6743.912 17.4498.752 4.6106 3.68 20.1713 3.68 20.3634l-1.872-.2241c-.032-.032-4.704-21.0358-5.264-23.7733-.048-.2402 1.344-58.6249 1.344-63.2515.032-2.8976.256-5.7792.256-8.6768.3241-5.7419 1.1649-11.4428 2.512-17.0336.7712-4.0604 1.1994-8.1786 1.28-12.3109.192-5.5711-1.136-33.4107-1.408-36.8206-.192-2.1132-3.264-5.6351-5.36-5.9873-.704-.1121-3.936 1.809-5.072 2.1932-.288.112-30.864-5.1549-33.888-.2241-.24.4002 2.176 2.8976 1.952 3.8261-.288-.1281-16.448-10.694-33.888-2.0972-1.168.5763-2.624-.2081-3.936-.3522-.928-.096-1.376.1281-1.232 1.0886 2.576 17.3378-15.504 33.827-16.24 34.3393 14.864 8.1966 30.8 11.1262 47.616 11.2863-3.536-3.8902-7.152-7.5883-10.992-11.2063.768-.1761 20.08 12.519 20.08 12.423-2.752-6.7718-9.744-26.6229-9.744-26.5429 4.2522 6.9604 8.0469 14.1904 11.36 21.6441 1.3481 3.0459 2.4191 6.2071 3.2 9.4453.544 2.2413 5.856 19.4509 6.288 20.6676 2.416 6.4196 4.432 63.0433 4.016 66.4372-.1667 1.7889.4122 3.5673 1.6 4.9148 2.384 2.9136 5.584 16.7934 5.584 17.0175-1.7123-1.8918-3.3149-3.8802-4.8-5.9553-2.304-3.6341-4.704-7.7484-5.616-9.4613-.7409-1.455-1.0988-3.0748-1.04-4.7067 1.04-21.3879-3.12-61.5224-3.936-65.6367-.768-7.1881-7.008-22.0604-7.712-22.0604-5.408-.4002-27.584-.1281-63.168-12.3109-.3824-.1041-.7856-.1041-1.168 0-1.232.2241-2.48.3522-3.68.6564-3.344.8485-10.704-3.9702-11.616-4.9468-.512-.5443-1.248-.5443-1.856-.8004-1.6356-.8301-2.89001-2.2572-3.504-3.9863-1.19218-2.3384-1.93568-4.8797-2.192-7.4922-.08-1.841.688-2.4173 2.528-2.2732 3.152.1921 30.512-5.5552 37.024-35.0277.16-.9765 1.056-.8484 1.76-.4962 2.7993 1.187 4.955 3.5188 5.92 6.4035.2094 1.0924 1.2131 1.8473 2.32 1.745 1.376.048 18.688-7.9244 28.576-1.2807 1.1968.8693 2.7896.963 4.08.2401 12.112-6.2275 33.216.3042 33.984-1.0886 4.368-8.1485 13.52-13.3354 14.656-14.408.08-.0801-1.024 1.857-.176 11.7025.128 1.3928 2.544 47.6907 2.4 49.5318 6.2246-12.4503 14.0805-24.0146 23.36-34.3873 2.3861-3.3268 5.4999-6.0646 9.104-8.0045.592-.3042 1.2-.5923 1.808-.8645 3.152-1.3928 18.768-6.6917 27.488-30.9293.416.2241 5.456 7.6043 6 11.7346.1643 1.2408.4264 2.4666.784 3.666 1.4785 1.7142 2.7611 3.5882 3.824 5.5872.288.7684.944 1.793.944 1.921 3.952 1.5849 22.784 10.4859 27.68 13.0634 3.3157 1.908 6.3299 4.298 8.944 7.0919 1.5358 1.4745 2.9385 3.0816 4.192 4.8027 2.128 2.9617 4.048 6.0834 6.048 9.1251 1.0685 1.652 2.3014 3.1913 3.68 4.5946 2.5619 2.8862 4.9145 5.9517 7.04 9.1731 2.272 3.1058 4.624 6.1795 7.072 9.1732 4.574 5.4598 8.0462 11.7555 10.224 18.5384.672 2.1452 1.408 4.2584 2.064 6.4036.144.4802 5.792 3.0417 6.8 5.7152s3.68 7.204 3.68 10.0696c.016 1.5048 2.192 3.4579 2.576 3.8902zm-276.976-53.582c.528-.3522 27.456-8.4048 24.72-42.0876-.0572-1.0636-.5077-2.068-1.264-2.8176-.352-.3362-1.168-.9605-1.168.1761 0 17.2897-21.088 31.4576-21.712 31.2655 1.57904-1.2802 2.95001-2.7977 4.064-4.4985-1.168.4803-8.864 5.6992-18.464 7.4922-.72.1281-1.04.4963-.72 1.2967.464.9926.832 2.0972 1.184 3.2018.18411.5867.68782 1.016 1.296 1.1046 3.90309.1801 7.81432.0462 11.696-.4002-1.965 1.1587-4.03238 2.134-6.176 2.9136-.32.1441-.704.4003-.704.7525s2.08 1.1846 2.752 1.6009c1.34519.9597 3.15081.9597 4.496 0zm104.544-41.4793c1.6352 1.0065 3.1917 2.1357 4.656 3.3779-.416-3.7301-.832-7.2681-1.264-11.0622-3.08 2.2068-5.7087 4.9838-7.744 8.1806.848 0 3.52-.6404 4.352-.4963zm167.392 101.1767c.496-2.8016-.528-4.8027-2-7.2681-1.84-3.0577-8.192-6.4836-8.752-6.8358 2.4498-.1986 4.9049.3127 7.072 1.4728-.5714-1.8838-1.3607-3.6944-2.352-5.395-.832-1.9851-33.264-13.1274-49.072 13.5596-.5861 1.0195-.4776 2.2959.272 3.2018.64-.4002 4.864-7.7964 8.864-8.6288-4.384 3.9702-6.816 11.9106-6.976 12.9672s.784 2.9457 2.224 2.1933c1.808-.8645 16.208-13.2395 26.784-12.8072-2.6968 1.4155-5.2899 3.0204-7.76 4.8027 13.392-3.2659 31.584 3.3939 31.696 2.7375z"
			fill="#fff" fill-rule="evenodd"/>
	</mask>
	<mask id="K" fill="#fff">
		<path
			d="m117 33.32946-.304.11206-3.056 1.16866c-4.5325 1.67672-9.1463 3.12469-13.824 4.33843-1.104.30417-2.224.57632-3.36.84848-11.1481 2.6259-22.5632 3.94749-34.016 3.9382486-4.3627 0-8.6827-.1921586-12.96-.5763686l-2.336-.20812c-2.64-.27215-5.264-.62435-7.856-1.02457l-2.96-.49628c-10.863-1.9428-21.4735-5.10036-31.632-9.41327-1.216-.5283-2.448-1.0726-3.664-1.6009l-.464-.22413c2.3202-3.40209 4.4051-6.95906 6.24-10.64596 0 0 2.448-16.16904 2.592-16.16904 1.136.4482 3.344 3.3619 3.344 3.3619s32 11.04615 65.344 3.2018c1.808-.4323 33.824-9.1252 33.872-8.9971.4.9285 2.96 17.88204 2.368 19.0667-.304.64036 1.296 7.25206 2.672 13.31946z"
			fill="#fff" fill-rule="evenodd"/>
	</mask>
	<mask id="L" fill="#fff">
		<path
			d="m117.408 15.26278c-.032 2.92964 1.792 12.3109 2.768 18.09013l-.416.1761-1.84.75242-.304.11207c-.944.38421-1.904.73641-2.864 1.08861-.528-4.30641-1.888-13.11135-2.8-15.03242-4.704 1.20067-18.416 4.16233-19.2 4.30641 2.4498 5.1754 5.1957 10.20522 8.224 15.06444l-.304.08004c-1.024.28816-2.048.5283-3.088.76843-2.8236-4.93001-5.3611-10.01861-7.6-15.24053 0 0-10.048 2.96165-38.704 4.16233 0 0-.56 11.35036-.656 14.55215h-.288l-2.336-.20812c.192-3.05771 1.232-13.97583 1.232-14.26399 0 0-7.856-.52829-7.856 0-.032.14408-.976 10.54991-1.088 13.30345-.96-.16008-1.92-.30417-2.864-.48026.032-3.2018.592-13.15938.592-13.41552-.912-.04803-11.872-1.71296-14.592-2.28928l-13.84-3.37789c-.512-.11207-2.432 6.54766-3.456 9.74946l-.448-.1761c-1.216-.49628-2.448-1.04058-3.664-1.6009l-.464-.22412-.752-.33619c1.4591-4.16154 3.3804-8.14604 5.728-11.87866 0 0-.128.27216 0 0 .128-.27215 2.512-14.52014 2.512-14.68024.0543-.1482.1184-.2926.192-.4322.3797-.4401.8348-.8087 1.344-1.0886.112.112 2.016 2.1612 2.224 2.3373.7691.5244 1.5893.9696 2.448 1.3287 4.128 2.0972 11.216 3.6821 20.016 4.5466l1.936.1601c19.792 1.6489 47.328-.2402 69.088-7.8604 1.872-.6244 6.064-2.3053 6.4-2.4334.464-.1921.928-.3842 1.376-.6084h.144c0 .3042 3.2 14.68027 3.2 15.04848zm-78.496 11.20628v-.01601s.192-10.96614.192-11.54247v-.20811c0-.14408-23.136-2.78557-26.848-6.54767-.032 0-2.336 11.91067-2.336 11.91067 7.968 5.37901 28.992 6.51565 28.992 6.40359zm76.112124-10.05363v-.01601c.015876-.27216-1.520124-9.44532-2.304124-11.70252-21.952 9.79745-64.56 10.66193-66.16 10.58189-.4204-.03983-.8436-.03983-1.264 0-1.2815.17285-2.4043.94559-3.024 2.08117-.1974.37026-.3325.7705-.4 1.18466-.3447 2.75-.4838 5.52192-.416 8.29264.032.41624 31.456 3.00969 71.6-8.5808 1.344-.38422 1.968124-.80045 1.968124-1.84103z"
			fill="#fff" fill-rule="evenodd"/>
	</mask>
	<mask id="M" fill="#fff">
		<path
			d="m4.52.74529c.5868.66624.8606 1.55197.752 2.43336.0777.67472-.1568 1.34801-.6368 1.82826s-1.1529.71488-1.8272.63713c-.7087.05409-1.4074-.19279-1.9249-.68017-.5176-.48738-.8062-1.17023-.7951-1.88127-.0593-.79164.2198-1.5713.768-2.1452.5749-.48474 1.3134-.73104 2.064-.68839.5774-.04784 1.1509.13004 1.6.49628zm-1.6 3.71408h-.016c.3733.03759.7423-.10406.9946-.38182.2524-.27775.3583-.65874.2854-1.02697 0-1.31273-.368-1.793-1.296-1.793-.4508-.07176-.9094.06979-1.2414.38321-.332.31341-.5.76322-.4546 1.21769-.0014.44773.1846.87561.5129 1.1798.3284.3042.769.45691 1.2151.42109z"
			fill="#fff" fill-rule="evenodd"/>
	</mask>
	<mask id="N" fill="#fff">
		<path
			d="m3.8 6.4173c2.544 5.347 18.544 9.02902 22.704 11.06216.56.25615 2.848-1.60089 3.376-1.72897 4.8-1.36076 16 .25615 16.272.54431 1.104.92852 0 1.2487 1.2 1.31273 3.936.19211 50.72-4.80273 62.16-16.82543.336-.2561 3.2 10.4379 4.144 13.0473.608 1.60091-18.08 9.09311-22.16 8.62885-.32 2.09718-.304 6.53166-2.416 6.99592-7.296 1.6009-38.944 1.84103-42.544 3.42592-14.112 6.19547-20.8-3.44193-21.44-3.53798-13.072-2.16121-24.224-9.84552-24.12861524-11.20628.04861524-.56031 2.51261524-12.40693 2.83261524-11.71853z"
			fill="#fff" fill-rule="evenodd"/>
	</mask>
	<mask id="O" fill="#fff">
		<path
			d="m1.68.17978c.656 0 1.072.30417 1.024.94452.0036.31031-.1294.6065-.3635.80998-.2342.20347-.5459.29366-.8525.24662-.64 0-1.104-.3522-1.072-1.04059.032-.68838.688-.88049 1.264-.96053z"
			fill="#fff" fill-rule="evenodd"/>
	</mask>
	<mask id="P" fill="#fff">
		<path
			d="m1.904.58744c.56.08005 1.104.24014 1.136.94453.0378.30307-.0594.60745-.2658.83247-.2064.22501-.5012.34794-.8062.33619-.3022.05701-.6136-.03184-.8403-.23978-.2267-.20793-.3422-.51062-.3117-.81681-.016-.72041.448-1.0566 1.088-1.0566z"
			fill="#fff" fill-rule="evenodd"/>
	</mask>
	<mask id="Q" fill="#fff">
		<path
			d="m1.728 2.357c-.608-.12808-1.104-.40023-1.072-1.08861-.0026-.27015.1126-.52802.3154-.70636.2028-.17833.4732-.25944.7406-.22216.672 0 1.184.35219 1.12 1.12062s-.544.83247-1.104.89651z"
			fill="#fff" fill-rule="evenodd"/>
	</mask>
	<mask id="R" fill="#fff">
		<path
			d="m2.192.56287c.64.12807 1.12.44825 1.088 1.10462-.0068.28985-.136.56326-.3555.75244-.2196.18919-.509.27644-.7965.24011-.3078.0266-.6129-.07521-.8432-.28133-.2302-.20612-.3651-.49825-.3728-.80728 0-.75242.72-.86448 1.28-1.00856z"
			fill="#fff" fill-rule="evenodd"/>
	</mask>
	<mask id="S" fill="#fff">
		<path
			d="m114.088 12.8529c.5271 1.1247.0758 2.46524-1.024 3.04167-.592.41624-17.296 6.57969-20.064 7.25207-.56.12807-.832.24013-.832.8965.032.28816-.288 3.00969-.432 4.06628-.2316 1.00218-1.0607 1.75519-2.08 1.88906-5.216 1.36076-35.648 2.67349-39.76 2.84959-.576.01601-1.168-.09605-1.312.78444-.096.60834-.752.80045-1.312.91251-4.7833.90905-9.6779 1.07644-14.512.49628-5.376-1.50484-7.184-4.8187-8-5.05883-15.056-4.37045-22.624-9.70144-23.056-10.05364-1.0128-.72362-1.3968-2.04827-.928-3.20179.48-2.22525 1.568-8.21264 1.824-9.81354.144-.8805 1.6-1.6009 1.6-1.6009.2083.4411.4776.8507.8 1.2167.64.8165 5.904 6.4196 21.792 9.95761.8815-.8435 1.9967-1.40142 3.2-1.6009 2.544-.57632 7.184-.81646 15.696.3522.736.11206 1.376.30417 1.6 1.10462.0138.06868.0138.13943 0 .20811.16.73641.704.33619 1.072.33619 20.528-1.68094 31.536-5.01083 31.536-5.01083 15.136-3.1217 30.112-11.5585 30.112-11.5585.8 1.4889 3.424 10.3418 4.08 12.5351zm-90.24 13.55957c-.464-2.33731-.656-6.16346 2.192-8.58081-1.984-.62435-15.28-3.90616-21.792-10.00556-.432.3041-2.208 10.00556-2.208 10.00556.0603.63534.432 1.19924.992 1.50484 1.632 2.33731 16.896 8.05251 21.296 9.12511.032 0-.272-.81645-.48-2.04914zm12.144 7.78036c2.4136.18638 4.8414-.03002 7.184-.64036-2.3529-.07626-4.6936-.37102-6.992-.8805-1.1593-.26903-2.2899-.64968-3.376-1.13663-.7346-.32762-1.4364-.72429-2.096-1.18467l-.64-.49628c-.8822-.69031-1.5121-1.65256-1.792-2.73753-.1187-1.74958-.0274-3.50709.272-5.23493.271-1.74597 1.7107-3.07363 3.472-3.2018.688-.06403 10.192-.32017 12.656-.16009.928.04803 1.232-.12807 1.312-1.05659s-.496-.84847-1.168-.92852c-4.501-.38667-9.0214-.49894-13.536-.33619-2.5645.53784-4.6766 2.34924-5.6 4.80269-.6793 1.83294-.7578 3.83467-.224 5.71521.1865.65339.4385 1.28628.752 1.88906.1284.25427.2727.50023.432.73641 1.5052 2.00308 3.6233 3.4591 6.032 4.14632l1.152.40022c.7078.17472 1.4315.27664 2.16.30418zm52.608-5.84328c.688-.24013 2.192-2.16121 1.28-8.85296-.336-2.44937-1.12-2.52942-3.536-2.1452-.784.16009-23.712 2.3213-49.728 3.61803-.883.02653-1.7666-.02705-2.64-.16009-.608-.06404-1.2-.28816-1.808-.28816-1.36-.01601-1.856 1.50484-2.016 2.30529-.4902 2.69941.6344 5.43746 2.88 7.01193l.304.20811c.5995.37017 1.2525.64557 1.936.81646l1.056.24013c2.5714.44166 5.169.71439 7.776.81646.624-.04803 43.28-3.2178 43.728-3.32986zm23.68-13.91179h.048c.672-.43224-3.216-11.71856-3.216-11.71856-3.952 2.9136-11.216 4.2584-16.528 7.6043-6.288 3.92215-41.84 7.5882-44.8 7.71628-.496.03201-.928-.14408-.896.65636.032.80045.64.41624.976.41624 32.912-2.14521 38.144-3.55399 40.496-3.85816 1.168-.16009 1.632.40022 2.144 1.23269.7358 1.61312 1.1904 3.34033 1.344 5.10686 1.856-.44825 20.256-7.02794 20.432-7.15601z"
			fill="#fff" fill-rule="evenodd"/>
	</mask>
	<mask id="T" fill="#fff">
		<path
			d="m7.392 19.34323c-.656.40022-3.68 1.9691-4.176 1.32874-.24-.32018-1.312-14.60018-3.2-19.40287-.16-.4162 3.392-1.3448 3.648-.9125 3.2 5.21892 3.728 18.63443 3.728 18.98663z"
			fill="#fff" fill-rule="evenodd"/>
	</mask>
	<mask id="U" fill="#fff">
		<path
			d="m.008 17.18834c.112-.56031 3.2-14.08794 4.224-16.56924.176-.4323 4.32 2.2412 4.192 2.7535-.928 4.14632-4.4 16.74538-4.64 17.28969-.24.5443-3.456-.76843-3.776-3.47395z"
			fill="#fff" fill-rule="evenodd"/>
	</mask>
	<mask id="V" fill="#fff">
		<path
			d="m14.16 3.5561c.1085.2664.0827.5686-.0694.8126-.152.2441-.4119.4003-.6986.4201-.9055-.0996-1.8216-.0346-2.704.1921-2.976 2.00116-5.056 16.79345-5.056 16.8895-.352 1.28072-.576 1.4248-1.952.65637s-3.648-1.2487-3.2-3.20179c-.144.25614 2.096-16.55328 4.8-18.65048.0667-.0775.1418-.1473.224-.2081 2.9843.7279 5.8851 1.7633 8.656 3.0897zm-9.792 15.25659c.048-.36821 2.896-13.11139 3.856-14.08789.24-.2561-.032-.5603-.416-.7844-.304-.1921-.768-.3843-1.44-.7044-.161-.104-.355-.144-.544-.1121-1.104.4803-3.808 14.87233-3.808 15.27256-.144 1.18466.912 1.68094 2.032 2.01713.112-.60834.32-1.08861.32-1.6009z"
			fill="#fff" fill-rule="evenodd"/>
	</mask>
	<mask id="W" fill="#fff">
		<path
			d="m10.704 20.79148c-.704 1.50484-6.08 1.61691-6.432 1.61691-.192-1.52086-.064-12.07077-3.392-20.26739-.0978-.2688-.0978-.5636 0-.8324 1.6901-.8098 3.5344-1.2466 5.408-1.2808.3086.1894.5278.4953.608.8485 2.1473 6.43982 3.4279 13.13708 3.808 19.91518zm-6.912-18.01008c-.56.1121-.72.44824-.576.72039 1.616 1.45682 2.816 15.59274 2.864 16.00897.048.41624.176.7044.496.7044.6072-.041 1.2111-.12121 1.808-.24014.208-.09605-.88-13.87977-2.992-16.98552-.368-.7524-1.008-.3202-1.6-.2081z"
			fill="#fff" fill-rule="evenodd"/>
	</mask>
	<mask id="X" fill="#fff">
		<path
			d="m30.576 3.4453-1.936-.096v.6403l1.6.0961c.16 0 .16.064.16.1761v.4643c-.016.16-.064.16-.192.16l-1.6-.096v.8004l1.904.0961c.16 0 .16.064.16.1761v.4803c0 .16-.048.16-.176.16l-2.656-.128c-.0496.0002-.097-.0206-.1305-.0571-.0335-.0366-.05-.0856-.0455-.135l.192-3.554c0-.1601.048-.1601.176-.1601l2.56.1281c.16.016.16.08.16.1921v.4962c0 .1601-.048.1601-.176.1601zm-3.2-1.0085h.064c.16 0 .16.064.112.032v.4963c.0051.0481-.0118.0959-.046.1301-.0341.0342-.0819.0511-.13.046h-.912l-.16 2.8976c0 .1601-.064.1601-.176.1601h-.576c-.176-.016-.176-.048-.176-.1761l.144-2.8976h-.896c-.176 0-.176-.0641-.176-.1761v-.4963c0-.1601.032-.1601.176-.1601zm-4.576-.3202c.656 0 1.6.4803 1.6 1.4248v1.3928c-.0442.8841-.7963 1.565-1.68 1.5208s-1.5642-.7968-1.52-1.6809v-1.4088c.0999-.7854.8144-1.343 1.6-1.2487zm.528 2.6895.08-1.2327c.0148-.1739-.0479-.3455-.1713-.469-.1233-.1234-.2949-.1861-.4687-.1714-.1531-.0327-.3129-.0018-.4427.0858s-.2183.2242-.2453.3785v.0961 1.2327c-.0179.1581.0304.3167.1335.4379.103.1213.2516.1946.4105.2024.1698.0329.3455-.0102.4809-.118.1354-.1077.2169-.2693.2231-.4423zm-2.688-2.7215-.048.032c.0517-.0228.1116-.0167.1576.0162s.0712.0875.0664.1439l-.192 3.57c0 .1601-.048.1601-.192.1601h-.544c-.128-.016-.24-.0961-.24-.2242l-1.168-2.0971-.112 2.0651c0 .1601-.064.1601-.176.1601h-.576c-.16-.016-.16-.064-.16-.1921l.176-3.554c.016-.1601.048-.1601.176-.1601h.56c.16 0 .192.0961.272.2081l1.136 2.1132.112-2.0651c0-.1761.08-.1761.192-.1761zm-3.424-.1761-.048-.016c.128 0 .16.064.208.048v.4963c.0051.0481-.0118.0959-.046.1301-.0341.0342-.0819.0511-.13.046h-.912l-.16 2.8976c0 .1601-.064.1601-.176.1601h-.576c-.16-.016-.16-.032-.16-.1761l.144-2.8976h-.912c-.176 0-.176-.0641-.176-.1761v-.4963c.016-.1601.048-.1601.176-.1601zm-3.2-.1761-.112-.016c.128 0 .16.08.096.2401v.4963c-.016.1601-.048.1601-.192.1601l-1.776-.0961v.7044h1.6c.16 0 .16.064.16.1761v.4803c.0066.0471-.0105.0945-.0458.1265-.0352.0321-.0839.0446-.1302.0336l-1.6-.0801v1.3768c0 .1761-.048.1761-.176.1761h-.592c-.16-.016-.16-.0801-.16-.1921l.192-3.554c0-.1601.032-.1601.176-.1601zm-3.2 3.586h-.08c.016 0 .016.1601-.032.1281h-.624c-.208-.0161-.208-.0481-.208-.1922l-.144-.4802-1.472-.0801-.192.4643c-.048.1761-.096.1761-.224.1761h-.624c-.096-.016-.096-.1921-.096-.1921l1.52-3.474c.0238-.111.127-.1867.24-.1761h.576c.128.0161.24.0641.24.2082zm-2.224-1.4408.896.048-.384-1.3287zm-2.448 0 .704 1.1366c.023.0398.0229.0889-.0003.1286-.0231.0397-.0658.0639-.1117.06350488h-.704c-.1222.00019512-.2313-.07680488-.272-.19210488l-.592-.9925c-.0384-.0978-.0384-.2065 0-.3042v-.4803c0-.1601.048-.1601.176-.1601h.128c.2867.0381.5507-.1618.592-.4482.0092-.277-.2035-.5111-.48-.5283h-.8l-.144 2.8976c0 .1601-.064.1601-.176.1601h-.592c-.16 0-.16-.048-.16-.1921l.192-3.538c-.0051-.0481.0118-.0959.046-.1301.0341-.0342.0819-.0511.13-.046l1.488.0961c.4341-.036.8618.1223 1.168.4322.2204.2695.3292.6132.304.9605-.031.5294-.3887.9832-.896 1.1367zm-4.144-2.0492c-.164-.0178-.3281.0318-.4549.1375-.1267.1056-.205.2583-.2171.4228v1.2487c-.016.3683.32.6084.64.6244s.608-.2401.64-.3682.048-.2241.176-.2241h.592c.16.016.16.064.16.2081-.1455.7485-.8432 1.2581-1.6 1.1686-.3901.0174-.7706-.1245-1.0541-.3931-.2836-.2686-.4459-.641-.4499-1.0317v-1.4088c.1078-.7789.8198-1.3274 1.6-1.2326.7357-.0577 1.3885.469 1.488 1.2006 0 .1601-.048.1601-.192.1601h-.576c-.16 0-.16-.1921-.16-.1921-.1208-.2103-.35-.3342-.592-.3202z"
			fill="#fff" fill-rule="evenodd"/>
	</mask>
	<mask id="Y" fill="#fff">
		<path
			d="m5.008 3.5957c.0006.0562-.0405.1041-.096.1121l-4.4-.2401c-.0619 0-.112-.0502-.112-.1121l.144-2.8176c0-.0619.0501-.112.112-.112l4.4.2401c.0619 0 .112.0502.112.1121z"
			fill="#fff" fill-rule="evenodd"/>
	</mask>
	<mask id="Z" fill="#fff">
		<path
			d="m.6 2.1955c-.112-.016.016-.08.016-.08v-.7044l-.608-1.2647h.368c.144 0 .144.096.144.096l.336.7204.4-.6724h.144.352l-.736 1.2007v.7044h-.096z"
			fill="#fff" fill-rule="evenodd"/>
	</mask>
	<mask id="aa" fill="#fff">
		<path
			d="m1.48 3.1315c-.048 0-.032-.0801-.032-.0801v-1.0886l-.336.5443h-.112-.288c-.08 0-.08 0-.08 0l-.288-.5923v1.0886.0961h-.32v-.0961l.096-1.9371c0-.096 0-.096 0-.096h.336c.128 0 .128.112.128.112l.416.8325.4-.8005c.0199-.0637.0773-.1084.144-.112l.352.6564v1.3767c0 .0961-.096.0961-.096.0961z"
			fill="#fff" fill-rule="evenodd"/>
	</mask>
	<mask id="ab" fill="#fff">
		<path
			d="m1.128 3.7238-.016.1601c-.0168.7399.1956 1.4668.608 2.0812.187.2522.4274.46.704.6083.4382.1723.9052.2592 1.376.2562h1.376c.231.0321.4022.2309.4.4642.0043.1216-.0409.2398-.1254.3274-.0845.0875-.201.1369-.3226.1369h-1.376c-.6065.0076-1.2073-.1181-1.76-.3682-.4015-.2016-.7475-.4984-1.008-.8645-.5526-.7906-.8283-1.7418-.784-2.7055v-.1761c.0639-.9605.434-1.8751 1.056-2.6095.2982-.3332.6711-.591 1.088-.7524.577-.1905 1.189-.2506 1.792-.1761h.192l2.128.1281c.1246-.0004.2437.0512.3287.1424.085.0911.1282.2135.1193.3378-.004.1261-.0592.2451-.1527.3297-.0936.0845-.2175.1273-.3433.1186l-2.096-.1121h-.224c-.4722-.0544-.9504-.0163-1.408.1121-.2835.108-.5362.2839-.736.5123-.4814.5797-.767 1.297-.816 2.0491z"
			fill="#fff" fill-rule="evenodd"/>
	</mask>
	<mask id="ac" fill="#fff">
		<path
			d="m4.944 1.9394-4.416-.2402c-.13.0088-.258-.0357-.3546-.1233-.0965-.0875-.1534-.2106-.1574-.3409.0159-.1321.0842-.2523.1895-.3336.1053-.0812.2388-.1168.3705-.0987l4.4.2402c.1316-.0043.2595.0438.3555.1339s.1523.2147.1565.3463c-.0159.1279-.0825.244-.1848.3223s-.2317.1121-.3592.094z"
			fill="#fff" fill-rule="evenodd"/>
	</mask>
	<mask id="ad" fill="#fff">
		<path
			d="m4.424 1.5403-3.856-.1761c-.1286.0045-.2534-.0447-.3444-.1357-.091-.0911-.1401-.2159-.1356-.3446.0333-.2595.2681-.4445.528-.4162l3.84.2081c.2619-.0006.4791.2027.496.4642-.0158.1237-.0807.2358-.18.311-.0994.0753-.2247.1075-.348.0893z"
			fill="#fff" fill-rule="evenodd"/>
	</mask>
	<mask id="ae" fill="#fff">
		<path
			d="m4.344 1.2052-2.88-.1601c-.1273 0-.2494-.0506-.3394-.1407-.09-.09-.1406-.2122-.1406-.3396.0158-.1236.0807-.2357.18-.311.0994-.0752.2247-.1074.348-.0892l2.88.1441c.1301-.0043.2563.0443.3498.1349.0935.0905.1463.2152.14620014.3454-.01590014.1278-.08250014.244-.18480014.3222-.1023.0783-.2317.1122-.3592.094z"
			fill="#fff" fill-rule="evenodd"/>
	</mask>
	<mask id="af" fill="#fff">
		<path
			d="m3.472 51.275c3.664-1.1046 19.424-5.9073 19.168-6.0674-2-1.6969-18.48.9926-17.792-.8805-1.28-1.6329.24-4.8827.704-5.0588 15.696-5.5871 31.296.8165 34.992.8165.6617.088 1.3169-.2027 1.696-.7525 1.408-.3362 6.8 6.7558 7.552 8.0045.464.8005 27.136-20.8757 28.064-35.0596 3.3862-4.5991 8.0488-8.1008 13.408-10.0697 1.9446-.7742 3.9752-1.3117 6.048-1.6009 2.112-.2401 4.16-.064 6.4-.2401 7.3682-.0569 14.6947 1.1117 21.68 3.4579.96.3202 1.92.5924 2.88.8965.384.1121.608.7204.608 1.2327 1.136 13.3195-67.792 68.15021-70.864 68.6625-7.0812-.96862-14.0929-2.39101-20.992-4.25839-.672-.24013-23.92-.08004-23.424-1.39281-1.52-3.2818 1.2-4.4505.8-5.0588s-11.728 2.8336-11.6 1.3608c-2.656-3.6021-.48-5.5712-1.84-7.044s-.32-6.0674 2.512-6.9479z"
			fill="#fff" fill-rule="evenodd"/>
	</mask>
	<mask id="ag" fill="#fff">
		<path
			d="m70.984 1.0753c3.328 3.506 12.08 13.1594 11.68 14.4561-.32.9766 2.016 5.9874 1.424 9.3012-.464 2.6415-12.032.4003-12.448.5604-2.416.9925-11.488 4.5305-13.936 5.395-2.08.7364-5.392-2.0332-5.04-3.8262.192-1.0085-10.56 6.3396-10.72 6.5637-12.16 16.2171-2.128 49.7559-1.968 52.4454.064 1.2487-6 14.3761-7.52 16.8895-7.632 11.0622-24.88 15.9609-25.232 15.5126-1.104-2.2412-6.096-5.9553-7.024-8.2606-.128-.2241 3.456-23.229 4.912-28.624.192-.7845 25.152-62.9153 25.152-63.2194.096-2.1452 34.176-19.7071 40.72-17.1937z"
			fill="#fff" fill-rule="evenodd"/>
	</mask>
	<mask id="ah" fill="#fff">
		<path
			d="m1.208 54.6071c-.9941-1.2777-1.3237-2.9515-.8883-4.5111.4354-1.5595 1.5843-2.8201 3.0963-3.3973 3.808-1.809 12.144-4.8027 12.144-4.8027-2.288.1281-4.576.3522-6.864.3522-1.4354.3028-2.8927-.4098-3.536-1.729-.88-1.9691-1.088-4.4184 1.792-5.5551 5.3012-2.0058 10.9426-2.9574 16.608-2.8015 4.1686.2273 8.2919.9803 12.272 2.2412 1.552.4162 5.472 1.2007 5.792 1.745-3.0362-.2664-6.051-.7371-9.024-1.4088-9.04-2.5774-21.104-.032-24.672 1.3287-1.007.2305-1.6371 1.2335-1.408 2.2413 0 1.0886.608 1.4248 1.6 1.6009 2.2849.1525 4.5794.0721 6.848-.2401 1.696-.0321 3.2-.3202 5.056-.4163 1.856-.096 9.008 3.1058 10.832 4.2264-4.7706-1.093-9.7485-.8661-14.4.6564-4.3785 1.285-8.6567 2.8902-12.8 4.8027-.8774.6533-1.2648 1.778-.976 2.8335.3557 1.106 1.3993 1.8435 2.56 1.8091 3.9592-1.0373 7.8452-2.3369 11.632-3.8902 2.432-.9606 14.16.3682 14.272.7844-1.376.2402-11.456-.4803-14.976 1.2327-2.528 1.2167-10.656 3.7621-11.872 4.5786-.7169.3515-1.0651 1.1781-.816 1.9371.1587.899.8501 1.6098 1.744 1.793 1.7467.2778 3.5313.2016 5.248-.2242 3.792-.7684 7.408-2.0491 11.2-2.6414 5.0824-.4746 10.2017-.3833 15.264.2721-3.5609.1159-7.1128.4258-10.64.9285-3.6543.2523-7.2195 1.2435-10.48 2.9137-1.12.4162-.992 3.3458 2.208 2.9136 6.1297-.9536 12.3792-.8236 18.464.3842 2 .3682 16.288 7.28409 21.968 3.47395 9.44-2.48135 62.16-51.22865 68.144-62.43495.8949-1.6304 1.4398-3.4298 1.6-5.283 0 0 3.008.7204 3.008 1.0566-.15 3.81-1.5122 7.4726-3.888 10.4539-7.968 12.1348-58.992 56.91185-65.28 58.92898-1.3309.57454-2.7591.88968-4.208.92852-4.5742.40017-9.1829-.06693-13.584-1.37677-12.128-5.41103-20.16-4.17834-24.24-3.28184-1.2709.21556-2.5691.21556-3.84 0-1.9282-.41252-3.3116-2.10939-3.328-4.08229-.064-.7844-.304-.7844-1.024-.7844-1.84.08-3.632.5603-5.504.5603-1.7027.0433-3.3149-.7661-4.2979-2.1579s-1.2074-3.1825-.5981-4.774c.1547-.403.0747-.8585-.208-1.1847z"
			fill="#fff" fill-rule="evenodd"/>
	</mask>
	<mask id="ai" fill="#fff">
		<path
			d="m9.52 38.3934c-1.344 1.0726-1.68 1.1046-2.816-.064-2.3642-2.7995-4.5042-5.781-6.4-8.917l1.232-3.2018c1.44 2.8176 6.304 9.5573 6.688 9.2211 3.168-2.8495 17.104-15.2885 20.464-20.8116 1.8495-2.0373 3.1781-4.4927 3.872-7.156.8361-2.6714 2.4317-5.0412 4.592-6.8198-.32.144-1.984 6.7718-2.928 9.9735-1.2156 3.75-3.2798 7.1686-6.032 9.9896-5.7297 6.4274-11.9745 12.3758-18.672 17.786z"
			fill="#fff" fill-rule="evenodd"/>
	</mask>
	<mask id="aj" fill="#fff">
		<path
			d="m85.56 13.8505c.704.7699.8746 1.8886.432 2.8336-.464 1.0886-.64 2.1132.576 2.9456.88.6084.912 1.809 1.488 2.6415v1.6649c-1.2796 2.1669-3.8342 3.2297-6.272 2.6095-.2818-.0281-.5657.0276-.816.1601-.4378.1938-.9135.2868-1.392.2721-1.7374-.2785-3.5162.098-4.992 1.0566-.3718.1699-.7927.1984-1.184.0801-1.888-.7204-3.488.4162-5.088 1.1366-2.4834 1.1754-5.0997 2.0462-7.792 2.5935-2.0701.3331-4.1758-.3316-5.68-1.793-.3927-.472-1.0675-.5936-1.6-.2882-1.7515.5754-3.4531 1.2929-5.088 2.1452-1.5003 1.0204-2.7569 2.3597-3.68 3.9222-2.2307 3.926-3.5538 8.3023-3.872 12.8072-.9026 8.1798-.4321 16.4531 1.392 24.4777.9025 3.6939 1.3538 7.4837 1.344 11.2863-.112 2.2413-3.168 12.7912-8.912 18.4904 1.376-3.3779 4.272-12.8072 4.064-18.8266-.1727-5.4949-.675-10.9745-1.504-16.4092-1.1417-6.3567-1.0983-12.8698.128-19.2107 1.184-5.331 2.528-10.646 5.632-15.2886.144-.3362 2.56-2.5134.144-2.2893-1.8062-.0852-3.3811-1.2559-3.984-2.9616 1.152.3522 9.568 3.714 15.312-2.4974.528-.8645.416-1.0886-.224-1.6009-1.2651-1.1201-2.3026-2.4735-3.056-3.9863 2.1122.9557 4.1269 2.1137 6.016 3.458 1.0219.7364 1.7345 1.8259 2 3.0577.1682.4376-.0358.9302-.464 1.1206-.48.2402-1.296-.9765-1.6-.9765-1.152 1.6809-1.04 1.9531.8 2.7055 1.8998.5679 3.9412.4256 5.744-.4002 3.52-1.0246 3.696-1.3448 2.48-4.8027-.72-2.0812-1.632-4.0983-2.416-6.1635-.624-1.6489-1.488-6.2435.32-7.204-.4 4.4665 4.624 13.6236 5.232 14.8403.192.4162.08.8645.192 1.4408 1.5423-.7388 3.0012-1.6404 4.352-2.6895.6959-.6139.8263-1.6501.304-2.4174-1.216-2.6254-2.784-5.1869-3.76-8.0044-.272-.8965-1.056-3.522-.592-4.0983-.048 1.5528 3.904 7.3641 5.312 10.0216.32.6083.688 1.1846 1.04 1.761.7464.9784.8101 2.3168.16 3.3618.48.2562.656-.096.88-.3842 1.0062-1.4033 1.7789-2.9603 2.288-4.6106.3306-1.2226.1208-2.5285-.576-3.586-2.1154-3.692-4.4837-7.2331-7.088-10.5979-.4459-.518-.9213-1.0098-1.424-1.4728-2.624-2.3533-3.152-2.3533-6.56-.7524 1.44.6243 3.296.8644 4.144 3.714.144.4803-3.696-2.7535-7.328-2.3053-5.5137 2.1102-10.8943 4.5533-16.112 7.3161-2.128 1.2007-4.272 2.4334-6.304 3.7782-3.1361 1.9391-5.5523 4.8514-6.88 8.2926-2.128 5.8113-12.672 29.5366-15.712 39.7663-2.224 5.6672-4.896 11.1582-6.592 17.0495-1.41952 5.0232-2.43608 10.1516-3.04 15.3366-.40545 2.5024-.52355 5.043-.352 7.5723.08663 1.387-.22421 2.7699-.896 3.9862-.52617.9797-.33655 2.19.464 2.9617 1.90054 2.1793 3.33772 4.7231 4.224 7.4761-1.20837.3856-2.48777.495-3.744.3202-.656-1.6169-3.856-6.3875-4.24-7.124-.64585-1.1574-.78483-2.5306-.384-3.7941 1.008-3.522 1.808-13.7517 2.048-15.2085 1.47476-8.5535 3.75698-16.9478 6.816-25.0701 3.584-9.6534 16.16-39.8463 18.832-45.3053 1.1567-2.838 3.0381-5.3223 5.456-7.2041 6.368-4.2103 24.384-13.4955 33.424-14.6642 1.8438-.3613 3.7402-.3613 5.584 0 .5461.1362 1.0307.4519 1.376.8965 2.144 2.1772 9.44 10.694 11.2 12.6311zm-5.328 10.5979c1.8949-2.3279 3.1373-5.118 3.6-8.0845.128-.6823-.0537-1.3862-.496-1.9211-3.088-4.1783-6.672-7.9084-10.128-11.7666-.4902-.6325-1.3476-.8503-2.08-.5283.1118.1924.2403.3745.384.5443 3.7581 4.2917 6.9422 9.0543 9.472 14.168.4281.8622.6055 1.8274.512 2.7855-.328 1.9025-1.0769 3.7075-2.192 5.283h.4zm5.552-.4322v-.016c.276-1.1202-.1088-2.3-.992-3.0417-.5778 1.4985-1.2622 2.9538-2.048 4.3544 1.568.0961 2.72-.4002 3.04-1.2967z"
			fill="#fff" fill-rule="evenodd"/>
	</mask>
	<mask id="ak" fill="#fff">
		<path
			d="m5.48 60.5876c1.68-.3362 1.808-3.4739 1.76-4.9628-.992-34.3392 17.632-44.5689 21.632-47.2905 3.136-2.1291 5.024-5.2669 11.312-5.0268 2.016.0961 11.232-6.9158 18.784-.6403.32.3362 11.36-2.4014 16.448 3.538.288.6723 23.408 15.4646 23.232 45.7856-.0306 1.0516.6135 2.0053 1.6 2.3693 1.328.6084.48 4.9308.928 5.7953.688 1.3607 3.488 5.411 1.6 5.9073-1.424.3842-13.072-1.0406-15.68-.5283-11.968 3.2178-45.792 2.6735-83.376.7684-1.632-.08-3.632-.5283-3.328-2.1292.128-.144 3.792-3.3298 5.088-3.586z"
			fill="#fff" fill-rule="evenodd"/>
	</mask>
	<mask id="al" fill="#fff">
		<path
			d="m81.416 10.3183c13.293 10.6073 20.7678 26.8959 20.144 43.8966-.016.6724.208.9446.864.9446 1.008 0 1.408.6563 1.408 1.6009-.0544 1.5591.0474 3.1198.304 4.6586 1.6.6403 1.6 2.2252 1.6 3.4739.256 3.9542.64 3.9542-3.632 4.3705-.56.048-8.016.3041-8.56-.3682-.864-1.2167-2.976-.2242-3.536-.1281-9.472 2.5454-35.584 4.6906-84.416.3682-1.1954-.1246-2.3749-.3713-3.52-.7364-1.168-.2722-1.36-.8485-.72-1.8731 1.1407-1.7174 2.6631-3.1474 4.448-4.1783 1.5572-.7716 2.4417-2.4578 2.192-4.1784-.0888-5.7128.3612-11.4212 1.344-17.0495 1.5856-8.6407 5.4526-16.6996 11.2-23.3411 2.1622-2.5394 4.4986-4.9252 6.992-7.14.891-.7394 1.9264-1.2847 3.04-1.6009.5377-.1375.995-.4908 1.264-.9765 1.6334-2.502 4.3756-4.0588 7.36-4.1784 1.4413-.1794 2.9026-.109 4.32.2082.3923.1072.8111-.0241 1.072-.3362 1.744-1.5689 8.096-6.0034 16.368-.7685.176.1441.48 0 .704 0 4.3746-.8686 8.9125-.3074 12.944 1.6009 1.5107.4693 2.8043 1.4628 3.648 2.8016.3774.778.9793 1.4249 1.728 1.857.507.3198.9885.6784 1.44 1.0726zm21.728 53.518c-3.904.0641-7.856-.9125-11.728.4643-1.344.4963-1.696.2241-1.6-1.2007.16-2.8816.416-5.7632.624-8.6448.048-.5603.384-.6564.912-.5603 1.8149.347 3.6467.5982 5.488.7524 2.016.128 2.128.1601 2.016-1.8411-.224-4.4184-1.616-27.9356-21.472-42.0235-2.1251-1.7368-5.106-1.9667-7.472-.5763-9.04 5.2669-16.192 25.6143-16.336 25.6143 1.424-6.1314 5.2-24.1415 18.96-29.2323-2.9528-1.5285-6.3114-2.0885-9.6-1.6009-1.0544.4411-2.2416.4411-3.296 0-1.04-.6724-8.608-4.2424-13.84.4162-.858.9056-2.1218 1.3049-3.344 1.0566-5.488-.8005-8.384 1.6009-11.2 6.4036-4.256 7.172-8.288 32.9945-8.48 32.9945.304-12.5511 3.312-23.5492 6.704-33.827.128-.2241-20.24 14.5682-19.408 46.394.032.9605.416 1.3287 1.344 1.1206 8.896-1.9371 29.744-1.3127 30.144-1.3127 0 0-19.296.5283-27.808 2.8176-2.224.4482-8.352 3.1377-10.048 5.2509 2.416 1.3287 55.92 5.331 88.816-.3522 1.072-.1921 2.048-.3202 2.672.8485.208.3522.624.3522.976.3522 2.208.1281 4.416.2241 6.624.2241 1.168 0 1.472-.5603 1.28-1.6009-.064-.3842-.096-.7364-.16-1.1847-.064-.4482-.272-.7524-.768-.7524zm-11.376-8.8049c-1.168 0-.832 6.0994-.944 7.6683-.064.7524.16.8805.88.6243 2.544-.9125 2.544-.8805 2.544-3.586.096-.1601.096-1.921.096-2.6575.032-1.6169-.48-2.1292-2.576-2.0491zm10.144 4.1143v-.016c-.112-1.9531-.112-1.9531-2.08-2.1932l-1.6-.2882c-3.024-.3842-3.024-.3842-3.024 2.5934 0 1.0887-.144 3.0097.16 3.2018.848.5443 5.584.4163 6.256.4163.848-.2722.288-2.9137.288-3.7141z"
			fill="#fff" fill-rule="evenodd"/>
	</mask>
	<mask id="am" fill="#fff">
		<path
			d="m10.416 2.3374h-8.576c-.2845.022-.566-.0703-.7823-.2566-.2162-.1863-.3493-.4512-.3697-.736v-.128c.0163-.2834.146-.5483.3597-.735s.4934-.2796.7763-.2576h8.624c.2845-.022.566.0703.7823.2566.2162.1863.3493.4512.3697.736v.128c-.0244.2892-.1631.5567-.3854.743-.2223.1864-.5098.2762-.7986.2496z"
			fill="#fff" fill-rule="evenodd"/>
	</mask>
	<mask id="an" fill="#fff">
		<path
			d="m2.016 3.0355.032-.016c-.5836.028-1.0851-.4102-1.136-.9926v-.1281c.0427-.5865.5494-1.0292 1.136-.9925h6.4c.2845-.0221.566.0703.7823.2566.2162.1863.3493.4512.3697.7359v.1281c-.0203.292-.1573.5636-.3801.7533-.2228.1898-.5125.2818-.8039.2553z"
			fill="#fff" fill-rule="evenodd"/>
	</mask>
	<mask id="ao" fill="#fff">
		<path
			d="m11.616 2.6233h-9.872c-.2931.0313-.5865-.056-.8149-.2424-.2285-.1865-.3729-.4566-.4011-.7501v-.1281c.0749-.5962.6007-1.0311 1.2-.9926h9.872c.6053-.0474 1.1409.3898 1.216.9926v.1281c-.0672.6004-.598 1.0394-1.2.9925z"
			fill="#fff" fill-rule="evenodd"/>
	</mask>
	<mask id="ap" fill="#fff">
		<path
			d="m4.08 4.4461c-.9993 1.3482-1.5429 2.9801-1.552 4.6586v.3842c.0406 1.6661.6 3.2779 1.6 4.6106.4298.5303.9778.9525 1.6 1.2327.9939.3556 2.0516.4975 3.104.4162h3.072c.5198.0306.9368.4411.976.9606.028.5751-.4028 1.0697-.976 1.1206h-3.04c-1.3551.0911-2.7139-.1109-3.984-.5923-.913-.4135-1.718-1.0326-2.352-1.809-1.3197-1.7085-2.0546-3.7966-2.096-5.9554v-.3842c.0207-2.1594.7392-4.2542 2.048-5.9713.6326-.7713 1.4312-1.3897 2.336-1.8091 1.2619-.492 2.6167-.6997 3.968-.6083h5.216c.577-.0001 1.0473.4633 1.056 1.0406-.0086.5799-.4764 1.048-1.056 1.0566h-5.216c-1.0524-.0813-2.1101.0606-3.104.4162-.6201.2837-1.1674.7053-1.6 1.2327z"
			fill="#fff" fill-rule="evenodd"/>
	</mask>
	<g fill="none" fill-rule="evenodd">
		<path d="m-4.49679-4.9904h305.58109v305.61368h-305.58109z" fill="#e5e5e5" mask="url(#a)"
					transform="translate(51 60)"/>
		<path d="m-4.2538-4.7976h98.5978v173.4562h-98.5978z" fill="#fcc288" mask="url(#b)" transform="translate(160 38)"/>
		<path d="m-4.416-4.0249h23.312v15.0464h-23.312z" fill="#fff" mask="url(#c)" transform="translate(169 80)"/>
		<path d="m-4.576-4.8678h35.6084v16.2821h-35.6084z" fill="#fff" mask="url(#d)" transform="translate(177 115)"/>
		<path d="m-4.0615-4.1887h22.3829v14.7259h-22.3829z" fill="#fff" mask="url(#e)" transform="translate(199 82)"/>
		<path d="m-4.0011-4.4045h21.9611v14.0781h-21.9611z" fill="#a76630" mask="url(#f)" transform="translate(200 89)"/>
		<path d="m-4.224-4.607h22.912v13.1236h-22.912z" fill="#a76630" mask="url(#g)" transform="translate(169 87)"/>
		<path d="m-4.176-4.3915h15.568v12.0469h-15.568z" fill="#a76630" mask="url(#h)" transform="translate(213 88)"/>
		<path d="m-4.8168-4.7522h12.742v13.2371h-12.742z" fill="#a76630" mask="url(#i)" transform="translate(168 85)"/>
		<path d="m-4.9876-4.4431h12.7876v11.3708h-12.7876z" fill="#a76630" mask="url(#j)" transform="translate(200 87)"/>
		<path d="m-4.7101-4.4833h16.207v15.1971h-16.207z" fill="#494649" mask="url(#k)" transform="translate(173 80)"/>
		<path d="m-4.4487-4.3671h15.7725v14.8192h-15.7725z" fill="#49464a" mask="url(#l)" transform="translate(204 82)"/>
		<g fill="#7c4b31">
			<path d="m-4.7045-4.2016h16.4565v21.987h-16.4565z" mask="url(#m)" transform="translate(236 82)"/>
			<path d="m-4.1074-4.3953h21.7745v16.3058h-21.7745z" mask="url(#n)" transform="translate(188 99)"/>
			<path d="m-4.6674-4.5128h21.8117v17.7643h-21.8117z" mask="url(#o)" transform="translate(179 98)"/>
			<path d="m-4.9771-4.1602h44.2651v18.8839h-44.2651z" mask="url(#p)" transform="translate(174 113)"/>
			<path d="m-4.912-4.6934h15.856v22.1668h-15.856z" mask="url(#q)" transform="translate(239 90)"/>
			<path d="m-4.464-4.4101h65.312v91.6652h-65.312z" mask="url(#r)" transform="translate(161 67)"/>
			<path d="m-4.2899-4.6155h30.7139v28.689h-30.7139z" mask="url(#s)" transform="translate(202 129)"/>
			<path d="m-4.9153-4.7651h29.0827v70.5714h-29.0827z" mask="url(#t)" transform="translate(231 79)"/>
			<path d="m-4.0594-4.7103h34.3743v18.7858h-34.3743z" mask="url(#u)" transform="translate(195 80)"/>
			<path d="m-4.7623-4.175h27.3637v28.0189h-27.3637z" mask="url(#v)" transform="translate(168 76)"/>
		</g>
		<path d="m-4.962-4.0447h25.618v15.6938h-25.618z" fill="#2a1b13" mask="url(#w)" transform="translate(199 81)"/>
		<path d="m-4.6999-4.715h25.0445v14.2744h-25.0445z" fill="#2a1b13" mask="url(#x)" transform="translate(168 80)"/>
		<path d="m-4.1673-4.6639h97.4203v81.963h-97.4203z" fill="#6a4f3d" mask="url(#y)" transform="translate(158 19)"/>
		<path d="m-4.048-4.1708h99.824v90.0969h-99.824z" fill="#543f30" mask="url(#z)" transform="translate(157 14)"/>
		<path d="m-4.4842-4.5449h31.2214v14.3571h-31.2214z" fill="#543f30" mask="url(#A)" transform="translate(195 74)"/>
		<path d="m-4.3248-4.7766h29.4926v15.2281h-29.4926z" fill="#543f30" mask="url(#B)" transform="translate(164 73)"/>
		<path d="m-4.056-4.1782h12.8738v12.5791h-12.8738z" fill="#000" mask="url(#C)" transform="translate(174 81)"/>
		<path d="m-4.24-4.4812h12.8262v12.4818h-12.8262z" fill="#000" mask="url(#D)" transform="translate(205 83)"/>
		<path d="m-4.0396-4.3063h11.5429v11.4582h-11.5429z" fill="#fff" mask="url(#E)" transform="translate(175 81)"/>
		<path d="m-4.1049-4.4553h11.5445v11.4586h-11.5445z" fill="#fff" mask="url(#F)" transform="translate(206 83)"/>
		<path d="m-4.6439-4.3587h100.3719v34.2726h-100.3719z" fill="#655e62" mask="url(#G)" transform="translate(157 73)"/>
		<path d="m-4.8558-4.3577h52.7598v64.5685h-52.7598z" fill="#fff" mask="url(#H)" transform="translate(171 147)"/>
		<path d="m-4.488-4.265h301.488v207.22526h-301.488z" fill="#4d4d4d" mask="url(#I)" transform="translate(42 127)"/>
		<path d="m-4.04564-4.1226h306.52284v209.05551h-306.52284z" fill="#202020" mask="url(#J)"
					transform="translate(40 123)"/>
		<path d="m-4.432-4.0581h126.432v52.79344h-126.432z" fill="#44689b" mask="url(#K)" transform="translate(137 312)"/>
		<path d="m-4.2-4.7857h129.376v53.92866h-129.376z" fill="#1f385c" mask="url(#L)" transform="translate(136 311)"/>
		<path d="m-4.9198-4.75864h15.2151v15.41732h-15.2151z" fill="#1f385c" mask="url(#M)" transform="translate(179 330)"/>
		<path d="m-4.0326-4.2224h122.7031v44.17833h-122.7031z" fill="#563f2d" mask="url(#N)"
					transform="translate(141 310)"/>
		<path d="m-4.5856-4.82022h12.2934v12.01333h-12.2934z" fill="#3b2f25" mask="url(#O)" transform="translate(184 335)"/>
		<path d="m-4.1888-4.41256h12.2368v12.13011h-12.2368z" fill="#3b2f25" mask="url(#P)" transform="translate(196 334)"/>
		<path d="m-4.3455-4.66902h12.1829v12.02602h-12.1829z" fill="#3b2f25" mask="url(#Q)" transform="translate(174 335)"/>
		<path d="m-4.088-4.43713h12.3695v12.10525h-12.3695z" fill="#3b2f25" mask="url(#R)" transform="translate(208 333)"/>
		<path d="m-4.4222-4.6822h123.7301v45.06153h-123.7301z" fill="#3b2f25" mask="url(#S)"
					transform="translate(141 310)"/>
		<path d="m-4.9892-4.7555h17.3812v30.57919h-17.3812z" fill="#486b9e" mask="url(#T)" transform="translate(216 322)"/>
		<path d="m-4.992-4.428h18.4189v30.21144h-18.4189z" fill="#486b9e" mask="url(#U)" transform="translate(147 319)"/>
		<path d="m-4.5775-4.5336h23.8038v32.53014h-23.8038z" fill="#1f385c" mask="url(#V)" transform="translate(146 318)"/>
		<path d="m-4.1934-4.9722h19.8974v32.38059h-19.8974z" fill="#1f385c" mask="url(#W)" transform="translate(214 321)"/>
		<path d="m-4.568-4.0307h40.32v15.5337h-40.32z" fill="#fff" mask="url(#X)" transform="translate(194 206)"/>
		<path d="m-4.6-4.574h14.768v13.2818h-14.768z" fill="#ff5c20" mask="url(#Y)" transform="translate(194 203)"/>
		<path d="m-4.992-4.8536h11.744v12.0491h-11.744z" fill="#fff" mask="url(#Z)" transform="translate(197 204)"/>
		<path d="m-4.976-4.0297h11.872v12.1612h-11.872z" fill="#fff" mask="url(#aa)" transform="translate(195 203)"/>
		<path d="m-4.8046-4.9252h16.7097v17.6836h-16.7097z" fill="#ff5c20" mask="url(#ab)" transform="translate(185 203)"/>
		<path d="m-4.984-4.2019h15.472v11.1461h-15.472z" fill="#ff5c20" mask="url(#ac)" transform="translate(188 204)"/>
		<path d="m-4.9123-4.5352h14.8643v11.0804h-14.8643z" fill="#ff5c20" mask="url(#ad)" transform="translate(187 206)"/>
		<path d="m-4.016-4.8404h13.904v11.0504h-13.904z" fill="#ff5c20" mask="url(#ae)" transform="translate(187 208)"/>
		<path d="m-4.6326-4.6355h138.5265v84.2516h-138.5265z" fill="#fec288" mask="url(#af)"
					transform="translate(204 254)"/>
		<path d="m-4.80334-4.1702h93.98794v127.5714h-93.98794z" fill="#fec288" mask="url(#ag)"
					transform="translate(39 62)"/>
		<path d="m-4.8686-4.6793h141.0766v81.50678h-141.0766z" fill="#7f5037" mask="url(#ah)"
					transform="translate(203 258)"/>
		<path d="m-4.696-4.3557h46.848v48.5576h-46.848z" fill="#7f4f36" mask="url(#ai)" transform="translate(246 264)"/>
		<path d="m-4.40094-4.948h97.45694v128.7221h-97.45694z" fill="#7f5036" mask="url(#aj)" transform="translate(37 62)"/>
		<path d="m-4.6389-4.9459h113.0584v77.7865h-113.0584z" fill="#fe5c20" mask="url(#ak)" transform="translate(149 3)"/>
		<path d="m-4.0094-4.4944h114.887v81.1031h-114.887z" fill="#a0370f" mask="url(#al)" transform="translate(147 1)"/>
		<path d="m-4.312-4.779h20.912v12.121h-20.912z" fill="#fff" mask="url(#am)" transform="translate(178 43)"/>
		<path d="m-4.088-4.0969h18.688v12.1369h-18.688z" fill="#fff" mask="url(#an)" transform="translate(180 46)"/>
		<path d="m-4.472-4.4934h22.288v12.123h-22.288z" fill="#fff" mask="url(#ao)" transform="translate(180 39)"/>
		<path d="m-4.568-4.321h24.624v27.1719h-24.624z" fill="#fff" mask="url(#ap)" transform="translate(174 35)"/>
	</g>
</svg>
