<svg height="397" viewBox="0 0 394 397" width="394" xmlns="http://www.w3.org/2000/svg">
	<mask id="a" fill="#fff">
		<path
			d="m81.568 280.904.064-.032c-61.8219-30.9775-93.89626-100.6837-77.20526-167.7878 16.69096-67.1042 77.68396-113.6615 146.81426-112.0668 69.1304 1.5946 127.9117 50.9148 141.4908 118.7172 13.5791 67.8023-21.6753 135.9555-84.8598 164.0494-.928.416-1.84.816-2.784 1.2l-2.16.896-2.256.896-2.912 1.072-2.384.832c-2.496.85333-5.024 1.63733-7.584 2.352-.928.256-1.84.512-2.784.736-1.36.352-2.816.72-4.08 1.008s-2.528.56-3.808.8c-9.6429 1.9526-19.4574 2.9335-29.296 2.928023-3.024 0-6.016-.096023-8.992-.272023l-2.288-.16c-1.92-.144-3.824-.32-5.728-.544l-2.096-.256h-.192c-1.12-.144-2.224-.288-3.328-.464-1.504-.224-3.024-.496-4.512-.768-1.184-.208-2.352-.448-3.52-.704-7.9004-1.65987-15.6496-3.97179-23.168-6.912l-3.2-1.28-2.288-.976c-.576-.256-1.136-.496-1.696-.768l-2.896-1.328z"
			fill="#fff" fill-rule="evenodd"/>
	</mask>
	<mask id="b" fill="#fff">
		<path
			d="m8.848 96.008c-.848-.688-12.352-22-6.272-40.768.544-1.68.304-12.336-.32-18.544-3.92-39.264 28.384-35.728 31.456-35.728 57.488-.688 37.552 54.768 37.552 56 1.072-3.824 17.952-20.432 16.944.144-2 3.712-11.712 19.504-16.16 19.12-.688-.064-3.312 21.024-5.488 26.576-3.696 9.6-29.776 19.024-30.816 19.824-14.88 11.76-29.952 35.664-32.752 39.184-.784.992 1.952-29.776 1.232-50.368-.336-10 5.008-15.136 4.624-15.44z"
			fill="#fff" fill-rule="evenodd"/>
	</mask>
	<mask id="c" fill="#fff">
		<path
			d="m13.624 4.832c-.096.576-3.808.768-4.768.992-3.344.864-6.208-.96-8.4-3.2 0-.144 7.2-5.392 10.608-.144.224.336 2.56 1.856 2.56 2.352z"
			fill="#fff" fill-rule="evenodd"/>
	</mask>
	<mask id="d" fill="#fff">
		<path
			d="m12.464 6.208c-4.0641.5871-8.1855-.5888-11.328-3.232-1.568-1.76 5.136-6.272 11.968 1.152.96 1.072.832 1.856-.64 2.08z"
			fill="#fff" fill-rule="evenodd"/>
	</mask>
	<mask id="e" fill="#fff">
		<path d="m11.792 5.336c-3.136 1.424-11.04-2.16-11.616-4.512-.176-.768 4.496 4.944 11.616 4.512z" fill="#fff"
					fill-rule="evenodd"/>
	</mask>
	<mask id="f" fill="#fff">
		<path d="m.024 2.712c4.4299.0286 8.8415-.5693 13.104-1.776-1.104.752-7.984 3.264-13.104 1.776z" fill="#fff"
					fill-rule="evenodd"/>
	</mask>
	<mask id="g" fill="#fff">
		<path
			d="m3.224.304c.8406-.1621 1.7095-.0902 2.512.208-2.816.384-3.472 1.744-5.712 1.392 1.226-.1255 2.364-.6945 3.2-1.6z"
			fill="#fff" fill-rule="evenodd"/>
	</mask>
	<mask id="h" fill="#fff">
		<path d="m3.32 3.968c.256.336-4.128-1.984-1.888-3.44-.08 1.552 1.072 2.384 1.888 3.44z" fill="#fff"
					fill-rule="evenodd"/>
	</mask>
	<mask id="i" fill="#fff">
		<path d="m.408.664c-.464.816 2.576 1.6 2.624 1.6-1.776-.608-2.496-1.824-2.624-1.6z" fill="#fff"
					fill-rule="evenodd"/>
	</mask>
	<mask id="j" fill="#fff">
		<path d="m5.56 4.704c-3.296 3.392-8.64-2.56-2.848-4.224 1.248-.016 5.344 1.68 2.848 4.224z" fill="#fff"
					fill-rule="evenodd"/>
	</mask>
	<mask id="k" fill="#fff">
		<path
			d="m6.872 3.328c.432 5.664-9.168 1.776-5.344-1.968.9413-.605 2.112-.7333 3.162-.3466s1.8578 1.2436 2.182 2.3146z"
			fill="#fff" fill-rule="evenodd"/>
	</mask>
	<mask id="l" fill="#fff">
		<path
			d="m6.368 6.272c-.976 2.272-3.536 2.384-5.424 5.584.3443-1.2258 1.0197-2.333 1.952-3.2.72-.656 2.912-1.312 3.344-4.224.3547-1.4438.8924-2.8364 1.6-4.144-.2782 2.041-.7716 4.0468-1.472 5.984z"
			fill="#fff" fill-rule="evenodd"/>
	</mask>
	<mask id="m" fill="#fff">
		<path
			d="m3.8.4c1.6.56.816 23.024.56 30.016-.064 3.952-.944 7.808-1.136 11.744-.1116 3.5722.4306 7.1348 1.6 10.512 1.5445 4.3604 3.528 8.5526 5.92 12.512 1.056 1.728 2.208 3.376 3.2 5.136.9559 1.751 2.6158 3.009 4.56 3.456 2.992.8 5.936 1.712 8.992 2.224 4.3482.7107 8.8096.0917 12.8-1.776 3.968-1.76 12.352-6.704 13.232-6.56-1.312 1.056-2.384 2.032-3.584 2.832-2.512 1.664-12.544 9.776-25.6 7.664-7.392-1.6-10.88-4.096-11.568-4.8s-1.072-.624-1.44.224-5.808 8.704-5.936 8.848.752-4.176-.128-4.8c-.384-.288.88-3.184 1.392-4.048 1.0312-1.6733 1.6356-3.5744 1.76-5.536.1402-1.1191-.1965-2.2455-.928-3.104-5.184-5.872-6.72-12.976-7.04-20.528-.2487-4.1794.2331-8.3701 1.424-12.384.08-.256 1.008-20.944 1.12-22.544.144-1.088.656-7.952.8-9.088z"
			fill="#fff" fill-rule="evenodd"/>
	</mask>
	<mask id="n" fill="#fff">
		<path
			d="m6.664 21.736c.1866 1.518.2241 3.0507.112 4.576-.096 1.36.144 1.6 1.6 1.6 1.7406.2357 3.3972-.8191 3.92-2.496.512-1.488 1.952-2.432 2.896-3.664.4-.496 10.144-10.944 6.944-17.504-.208-.416-1.536-2.896-1.808-3.2-.8-.864 1.312-.928 1.6-.576 5.808 7.024.032 15.04-1.776 17.6-1.136 1.6-2.336 3.2-3.552 4.8-1.172 1.4261-2.166 2.9896-2.96 4.656-.6994 1.7098-2.1845 2.9743-3.984 3.392-.6062.0627-1.0756.5592-1.104 1.168-.88 4.56-1.152 9.216-1.6 13.808-.368 1.488-6.176 14.56-6.176 13.44.048-1.792 2.464-13.136 3.024-17.152.832-6.048 2.464-19.712 2.864-20.448z"
			fill="#fff" fill-rule="evenodd"/>
	</mask>
	<mask id="o" fill="#fff">
		<path
			d="m13.2 4.04c.384.192 1.376.816 1.376.816-.3922-1.6214-1.1108-3.1457-2.112-4.48-.224-.24 1.648-.176 1.952.304 3.4576 5.0301 3.7068 11.6025.64 16.88-.096.176-.832 1.024-1.104.816s2.512-4.304 2.016-8.992c-.0951-1.2075-.6717-2.326-1.6-3.104-.5822-.4186-1.1915-.7981-1.824-1.136-6.56-4.544-11.952 1.728-12.4.912s5.04-2.992 7.264-3.504 3.968.576 5.792 1.488z"
			fill="#fff" fill-rule="evenodd"/>
	</mask>
	<mask id="p" fill="#fff">
		<path
			d="m3.4 1.184c-.656.496-.272 1.152-.016 1.632s.464.672 1.008.304c1.2015-.7381 2.5508-1.2024 3.952-1.36 1.5499-.3529 3.1767-.0206 4.464.912 2.4766 1.9123 4.838 3.9692 7.072 6.16.8055.7218 1.8638 1.0956 2.944 1.04.608.032 2.176-.112 1.68.592-1.024 1.488-5.808-1.04-7.312-2.768-1.6339-1.9818-3.599-3.6654-5.808-4.976-1.104-.704-4.96.352-7.008 1.6-1.008.576-1.232.24-1.6-.56s-.688-1.216-1.232-.128c-.16.272-.288.8-.768.56s-.128-.656 0-.944c.4419-1.0402 1.1021-1.9732 1.936-2.736.256-.208.544-.432.864-.128s.096.608-.176.8z"
			fill="#fff" fill-rule="evenodd"/>
	</mask>
	<mask id="q" fill="#fff">
		<path d="m23.04.312c-9.76 11.856-21.936 17.376-22.24 16.752s8.272-4.144 22.24-16.752z" fill="#fff"
					fill-rule="evenodd"/>
	</mask>
	<mask id="r" fill="#fff">
		<path
			d="m8.368.608c-.08.368-5.568 4.624-4.144 6.88 1.536 3.568-1.808 5.056-2.512 4.64s-.992-.832-.528-1.6c.4621-.8479.7299-1.7879.784-2.752.5214-3.4479 3.033-6.2608 6.4-7.168z"
			fill="#fff" fill-rule="evenodd"/>
	</mask>
	<mask id="s" fill="#fff">
		<path
			d="m10.576 4.52c1.456-.928 1.552-1.328.88-2.752-.128-.336-.608-.72-.128-1.04s.784.16 1.056.512c.832 1.264.992 2.88-1.6 4.688-1.36.864-2.192 1.056-3.488 0-2.736-2.192-5.76-.672-6.4-1.248-.16-.64.32-.816.752-1.056 2.1959-1.0975 4.8544-.5933 6.496 1.232.656.624 1.104.624 1.728.112.2249-.1642.46-.3138.704-.448z"
			fill="#fff" fill-rule="evenodd"/>
	</mask>
	<mask id="t" fill="#fff">
		<path
			d="m.68 3.424c.288-.928.336-2.032 1.456-2.64-.9139 1.2594-1.0615 2.9192-.384 4.32.192.256.384.576.72.256.784-.736 1.504-.384 2.16.144 1.312 1.088 2.96 1.6 4.336 2.544.2592.1053.5362.1596.816.16l2.144.24c.192.512-.24.736-.496 1.04-2.5942-.5856-5.1361-1.383-7.6-2.384-.2201-.0934-.4513-.158-.688-.192-.8649.0434-1.6918-.3589-2.1914-1.0662-.4997-.7073-.6025-1.6211-.2726-2.4218z"
			fill="#fff" fill-rule="evenodd"/>
	</mask>
	<mask id="u" fill="#fff">
		<path
			d="m1.056 2.4c-.496.064-.912.016-.992-.528s.304-.896.784-.896c2.0512-.3866 4.1714-.1411 6.08.704 1.072.544.512 1.216.096 1.856-.16 0-1.328-.88-1.904-1.024-1.3374-.277-2.7133-.3149-4.064-.112z"
			fill="#fff" fill-rule="evenodd"/>
	</mask>
	<mask id="v" fill="#fff">
		<path
			d="m13 4.2c-1.871-.7352-3.883-1.0414-5.888-.896-2.4875-.3519-4.8622-1.2656-6.944-2.672.1263-.2648.4164-.4099.704-.352 1.9558.1527 3.8823.567 5.728 1.232.6928.2165 1.4352.2165 2.128 0 1.6002-.4719 3.3271-.2144 4.72.704.4291.241.939.2932 1.408.144 2.0875-.2253 4.1967.129 6.096 1.024 1.488.608 2.976 1.216 4.416 1.904 1.7702.5123 3.5787.8814 5.408 1.104.512.16.864.4.688 1.072s-9.152-2.032-13.36-2.752c-.7969-.1826-1.6171-.2419-2.432-.176-.9047.1123-1.8232-.0032-2.672-.336z"
			fill="#fff" fill-rule="evenodd"/>
	</mask>
	<mask id="w" fill="#fff">
		<path
			d="m3.984 3.224c-.8036.6341-1.8416.8907-2.848.704-.3174-.057-.535-.3519-.496-.672 0-.384.576-.288.88-.384.8858-.2154 1.7331-.5662 2.512-1.04 1.193-.6966 2.5794-.9885 3.952-.832 1.5399.4545 2.9641 1.2348 4.176 2.288 1.344 1.264 2.368 2.976 3.84 4.112-1.4268-.5789-2.7261-1.4324-3.824-2.512-1.424-1.552-2.944-3.008-4.544-3.008-1.3229.074-2.5933.5421-3.648 1.344z"
			fill="#fff" fill-rule="evenodd"/>
	</mask>
	<mask id="x" fill="#fff">
		<path
			d="m11.632 3.88c-2.352-2.848-4.048-2.08-6.848-1.68-1.168.224-4.944 1.824-4.608 1.488.976-.928 5.68-3.488 9.168-2.944 1.1259.4301 2.1502 1.0894 3.008 1.936.7168.5887 1.4762 1.1235 2.272 1.6.288.208.624.336.48.736-.14.3494-.5126.5459-.88.464-1.0148-.2378-1.9246-.7994-2.592-1.6z"
			fill="#fff" fill-rule="evenodd"/>
	</mask>
	<mask id="y" fill="#fff">
		<path
			d="m73.208 75.336c-.096-1.92-.96-20.336-.832-22.624s-3.264-14.288-7.376-18.56c-.688-.8-19.888-9.152-29.488-10-1.984-.176-3.264-2.032-5.072-1.2-1.328.592-8.64 2.512-9.936 2.192-1.966-.7953-4.1779-.7138-6.08.224-2.784 1.168-7.472 6.784-11.2 26.928-.096.512-2.416-2.832-2.224-5.6 1.36-19.472 11.76-37.616 22.4-41.408 2.704-.96 3.712-4.848 6.4-5.008 9.888-.592 29.072 1.632 31.104 2.096 10.4 2.352 20 11.76 25.28 22.576 3.52 7.216 1.44 39.248.88 39.392-.784-.592-8.528 1.072-13.856 10.992z"
			fill="#fff" fill-rule="evenodd"/>
	</mask>
	<mask id="z" fill="#fff">
		<path
			d="m.792 43.712c1.104-5.52.544-17.952 16.144-32.24-2.1023-.2798-4.2376.154-6.064 1.232 2.048-2.304 5.472-5.424 14.976-7.232-.752-.8-5.264-2.64-5.2-3.104s12 1.296 12 1.296 10.288-3.264 10.848-2.832c-.816.8-1.952 1.632-3.008 2.688 10.432-1.952 22.976.784 27.776 1.6-1.3832.384-2.7194.9206-3.984 1.6 7.0587 1.7903 13.4969 5.4685 18.624 10.64-1.3071-.4927-2.6736-.8101-4.064-.944 3.728 2.976 11.312 14.464 11.056 14.672s-2-1.248-2.512-.8 2.112 5.104 2.352 11.76c.704 5.52-1.104 28.368-1.104 28.368-2.272-.656-11.152.128-15.152 13.248-.976-.032-3.12.032-3.12-.24.154-5.8315.6454-11.6493 1.472-17.424.112-.848-2.112-3.52-1.6-8.128s-2.928-15.552-3.856-16.24c-14.464-10.848-33.68-11.568-34.56-11.568 0 0 .736-1.44.96-1.92-4.864.9628-9.5922 2.5156-14.08 4.624-.56.368-.08-2.688-.56-2.512-6.944 2.368-10.304 9.456-11.296 14.592-.864 4.624-3.728 14.768-3.872 15.152 0 0-2.944-3.2-2.176-16.288zm22.944-31.424c-16.016 8.768-20.24 26.736-20.496 35.552-.1437 1.11-.1437 2.234 0 3.344.384 0 1.28-24 17.28-24 0 0-.416 2.24.368 1.856 4.9646-1.6092 10.0184-2.9287 15.136-3.952l.08 2.032c.096.56 17.024.528 30.4 10.4 2.688 2.032 5.296 4.512 5.776 8.096 1.2 6.496.464 14.848 1.872 18.784 1.312 3.616-.4 12.112 0 12.160213.4.047787 3.872-8.032213 11.392-8.240213 0 0 1.664-24.352 1.44-25.456-1.952-11.072-3.936-11.072-6.4-15.872.9611.1717 1.9357.2573 2.912.256-6.448-9.264-15.456-17.152-27.12-18.304l.512-1.072c-6.2985-.7367-12.6615-.7367-18.96 0-.528.064-5.968-1.216-6.4-1.152s1.76 1.808 1.328 1.808c-3.5452.5781-7.0427 1.4177-10.464 2.512z"
			fill="#fff" fill-rule="evenodd"/>
	</mask>
	<mask id="A" fill="#fff">
		<path d="m21.768 6.4c-20.192-3.2-20.944-1.648-21.04-2s2.928-2.656 5.536-3.648c11.76.256 16 5.728 15.504 5.648z"
					fill="#fff" fill-rule="evenodd"/>
	</mask>
	<mask id="B" fill="#fff">
		<path d="m17.176 6.448c-8.784-5.072-16.832-1.136-17.136-1.52s6.752-8.8 18.496.224c2.288 2.64-.416 2.128-1.36 1.296z"
					fill="#fff" fill-rule="evenodd"/>
	</mask>
	<mask id="C" fill="#fff">
		<path
			d="m3.6 2.472c0 .64-.912 1.008-1.392 1.056-1.36-.256-1.456-1.104-1.456-1.6.128-.88.928-1.184 1.728-1.056.3655.054.6927.2561.9045.5588.2119.3027.2898.6793.2155 1.0412z"
			fill="#fff" fill-rule="evenodd"/>
	</mask>
	<mask id="D" fill="#fff">
		<path
			d="m3.128 1.792c-.048.624-.896 1.008-1.264.88-1.312-.176-1.408-.976-1.408-1.456 0-.848.832-1.152 1.6-1.024.3659.0474.6935.2504.8988.5569.2054.3065.2685.6867.1732 1.0431z"
			fill="#fff" fill-rule="evenodd"/>
	</mask>
	<mask id="E" fill="#fff">
		<path
			d="m2.12 2.088c-.3382.2011-.7724.1265-1.024-.176-.2146-.2601-.2146-.6359 0-.896.3197-.2987.8163-.2987 1.136 0 .1392.1519.2066.3562.1852.5612s-.1296.3909-.2972.5108z"
			fill="#fff" fill-rule="evenodd"/>
	</mask>
	<mask id="F" fill="#fff">
		<path
			d="m1.76 1.68c-.3535.2321-.8257.1557-1.088-.176-.1925-.279-.1589-.6555.08-.896.3174-.2889.8026-.2889 1.12 0 .1392.1519.2066.3562.1852.5612s-.1296.3909-.2972.5108z"
			fill="#fff" fill-rule="evenodd"/>
	</mask>
	<mask id="G" fill="#fff">
		<path
			d="m7.544 20.32c-2.207-.6981-3.8651-2.5336-4.336-4.8-.512-2.512-.8-9.6-.8-9.6-1.184-.608-1.76-.96-1.76-.96.0744-1.4667.2833-2.9235.624-4.352 1.344-.176 11.264.272 13.104.544 5.1876.6565 10.2501 2.0744 15.024 4.208 2.2547 1.0849 4.7301 1.6326 7.232 1.6 4.2997-.139 8.6038.0267 12.88.496 5.7677.7425 11.3987 2.3105 16.72 4.656 0 0 11.552-1.84 15.136-2.048 2.832-.16 9.232 4.064 9.232 4.384-1.552-1.136-6.224-1.28-7.616-.992-5.696 1.168-10.448 2.32-16.208 3.2-.704.112-1.6.4-1.6 1.152-.1746 1.9416-.4685 3.8705-.88 5.776-1.072 4.32-3.232 5.76-6.768 5.664-4.6582-.177-9.2958-.7119-13.872-1.6-2.5882-.5028-4.8173-2.1335-6.08-4.448-1.3165-2.3829-2.1178-5.0157-2.352-7.728-1.04-6.4-4.24-4.976-5.376-3.2-.493.8248-.9107 1.6923-1.248 2.592-.846 2.665-2.1332 5.1691-3.808 7.408-.9306.9482-2.2493 1.4094-3.568 1.248-4.699-.3464-9.3149-1.4261-13.68-3.2zm29.472-10.048c-.6012 3.675-.1576 7.4449 1.28 10.88 1.168 2.448 2.672 4.784 5.696 5.424 4.1567.9105 8.4008 1.3612 12.656 1.344 3.648-.048 4.944-.96 5.808-4.48.6325-2.7365 1.0498-5.5183 1.248-8.32.1694-.854-.3353-1.6976-1.168-1.952-5.1187-2.2618-10.6044-3.579-16.192-3.888-2.0397-.2316-4.0912-.3437-6.144-.336-.8872-.0593-1.7735.129-2.56.544-.304.176-.624.352-.624.784zm-33.072-5.104c-.3268 3.1585-.1213 6.3495.608 9.44.4772 2.4181 2.3006 4.3473 4.688 4.96 3.6568 1.3403 7.4781 2.1799 11.36 2.496 1.5931.0248 3.0625-.8556 3.792-2.272 1.0051-1.9131 1.8558-3.9034 2.544-5.952.6929-1.6366 1.0047-3.4092.912-5.184.0332-.7258-.4267-1.3828-1.12-1.6-2.1293-.8389-4.3163-1.5233-6.544-2.048-4.5294-1.4678-9.298-2.0544-14.048-1.728-1.696.176-1.936.288-2.192 1.888z"
			fill="#fff" fill-rule="evenodd"/>
	</mask>
	<mask id="H" fill="#fff">
		<path
			d="m1.88 55.056c.528-2.896-2.16-55.168-1.504-54.4 10.144 12.16 41.312 8 42.656 6.4-20.784 12.64-41.632 50.624-41.152 48z"
			fill="#fff" fill-rule="evenodd"/>
	</mask>
	<mask id="I" fill="#fff">
		<path
			d="m148.816.928c.72-1.6 4.8 12.8 9.408 11.808.304.256 11.104.88 20.8 7.808 6.688 4.8 11.888 13.952 16.464 22.752 8 15.456 7.728 23.04 16.848 35.664 5.024 6.944 10.144 14 10.064926 14.24-.512926 1.52-11.280926 8.368-16.000926 19.104-5.168 11.84-4.288 27.632-4.656 28.656-.176.496-9.504-.432-17.344-8.544-3.2-3.2-2.08-9.6-4.528-13.584-4.32-7.04-11.056-11.2-10.304-10.304-.112 1.056-2.48 64.944-4.592 70.24-.784 1.92-8.592 8.08-9.6 9.904-27.408 18.512-92.096 4.8-92.096 4.8-11.328-23.168-8.336-30.816-8.416-34.144 0-.32 1.024-8.784 1.04-9.104.112-1.872-2.864-36.208-3.92-37.152-1.936-1.728-5.536 5.84-9.872 9.488-3.5248 2.8756-8.0261 4.2747-12.56 3.904-.608-.224.496-39.104-29.248-44.32-.592-.096 4.512-6.672 10.544-9.184s14.144-9.104 19.008-15.2c12.08-15.264 18.944-36 18.944-36.096 10.88-11.744 31.152-10.112 32.688-11.936 2.656-3.2 4.56 46.208 3.408 69.504 0 0 5.808-16.544 25.856-40.672 1.072-1.296 7.12-7.088 7.184-7.12 2.64-1.6 7.84-2.432 13.328-6.208 6.352-4.32 12.544-12.928 17.552-24.304z"
			fill="#fff" fill-rule="evenodd"/>
	</mask>
	<mask id="J" fill="#fff">
		<path
			d="m225.92 90.72c.9552 3.1124 1.7403 6.2744 2.352 9.472-.8575.3752-1.8515.2525-2.592-.32-1.488-1.168-2.848-.304-4 .432-14.256 9.264-15.872 37.92-15.584 44 .032.464-7.872.832-11.456-.08-1.0104-.1736-1.8452-.8856-2.176-1.856-.2646-.7656-.7993-1.4085-1.504-1.808-2.144-1.28-3.936-3.072-6.048-4.384-2.5542-1.6751-4.1994-4.4289-4.464-7.472-.1836-1.3517-.2478-2.717-.192-4.08.1255-1.249-.2945-2.4913-1.152-3.408-1.584-1.744-4.96-5.712-5.12-5.984.384 22.784-3.568 58.816-4.8 61.008-.88 1.728-1.12 3.744-2.48 5.248-1.5453 1.5383-2.7738 3.3648-3.616 5.376-.72 2-2.272 3.472-2.864 5.488-.08.24-3.984-.24-3.792-.72.464-1.2 5.104-10.544 7.136-13.904 1.4247-2.4369 2.2424-5.1807 2.384-8 .288-3.792 1.568-23.744 1.344-29.936-.272-8.208 0-30.832 0-34.032-.496-.112-18.768 14.896-19.312 14.704 2.864-2.896 14.368-16.464 16.848-20.688 1.4727-2.2708 2.0434-5.01 1.6-7.68-.656-3.712 1.792-17.2 2.144-17.408-1.744 21.616 11.584 40.224 11.92 39.36 10.96-27.632 28.88-30.4 29.504-30.4 1.056 0 1.488-.624 1.488-1.6 0-.272-7.744-23.936-26.944-54.672-3.3612-3.0802-7.3363-5.414-11.664-6.848-3.728-1.072-7.472-2.288-11.2-3.52-.3474-.1969-.7668-.2203-1.134-.0634s-.6402.4762-.738.8634c-.5521 1.1068-.4915 2.4206.16 3.472.6412 1.1378.7579 2.4976.32 3.728-1.072 3.728-10.416 17.616-12.8 20.912 0 0-15.728-4.48-19.744-5.936s-8.976 2.048-9.6 1.888c1.936-2.304 4-4.16 7.2-4.16 4.256-.112 19.008 3.968 19.344 4.096 2.112.752 2.048.704 3.488-1.152 1.696-2.192 7.488-11.392 8.72-13.776.9965-1.7681 1.3097-3.8404.88-5.824-.1135-.8083-.5173-1.5477-1.136-2.08-2.32-1.648-2.8-4.064-2.992-6.656-.2964-2.1802-.9848-4.2889-2.032-6.224-.896 4.656-9.744 20.08-29.856 28.176-3.312 1.328-5.472 3.952-7.664 6.72-22.48 28.48-25.968 44.8-27.76 49.28-3.2 7.872-3.2 67.536-3.2 77.472.0428 3.6186.3584 7.2288.944 10.8.848 5.296 3.216 20.288 3.6 21.296.192.48-1.776-.672-2.112-1.728-1.8235-7.0668-3.2814-14.223-4.368-21.44-.4-10.56-.416-21.152-.176-31.712.144-6.624 1.12-39.424 1.12-42.032.1559-5.7969 1.0265-11.5523 2.592-17.136.928-3.44.8-7.024 1.28-10.512.608-4.304-1.872-49.328-2.4-53.632-.2472-2.4204-.2472-4.8596 0-7.28-2.991 2.6922-5.6741 5.708-8 8.992 1.056-.256 2.128-.48 3.2-.784 1.504-.432 3.952 4.016 3.712 3.84-2.384-1.904-3.728-2.144-5.584-1.36-2.112.896-6.704-.64-6.56-1.056 1.0481-2.5661 2.2393-5.0713 3.568-7.504-1.712-.912-10 3.104-13.872 4.512-3.504 1.232-11.568 14.032-11.888 15.632-.3073 1.2783-.8498 2.4883-1.6 3.568-3.024 4.512-13.568 22.72-15.392 24.32-3.3149 2.8943-6.2454 6.2012-8.72 9.84 1.344.272 20.224 4.032 28.208 31.04l.352-.112c-.816-3.056-12.032-36.336-6.656-42.864-.6687 3.0661-.4409 6.2598.656 9.2.848 2.928 1.504 5.92 2.096 8.912.656 3.36 4.512 10.192 4.656 10.752.88 3.824 1.84 7.648 3.088 11.392.3923 1.3607.5012 2.7875.32 4.192-.464 5.04 6.864 40.24 4.8 54.64-.512 3.648-.592 7.28-1.136 10.864-.3854 2.0882.1644 4.2404 1.504 5.888 3.696 4.528 5.712 14.496 5.296 19.2-.08.88-4.144-7.328-4.432-7.904-1.6594-3.356-3.5969-6.5672-5.792-9.6-.9572-1.4646-1.3442-3.2292-1.088-4.96.544-6.848.672-13.76 1.744-20.56 1.696-10.624-3.984-36.192-3.984-36.384-.416-.112-5.648 6.16-6.24 7.328-1.104 2.176-3.328 2.736-5.456 3.392-3.1932.8324-6.4986 1.151-9.792.944-1.808-.032-2.432-.896-2.096-2.64 5.104-26.768-25.616-41.44-26.24-41.168s-.992-.384-1.488-.576v-1.216c.3607-1.0551.8327-2.0688 1.408-3.024.793-1.4656 2.1818-2.516 3.808-2.88.8-.096 1.296-.944 1.712-1.6 1.4462-1.8983 3.3665-3.3827 5.568-4.304.6466-.3454 1.3921-.4584 2.112-.32 1.4465.2241 2.894-.3971 3.728-1.6 3.0523-3.5855 6.3509-6.9536 9.872-10.08.24-.192 5.12-9.344 7.824-13.392 2.1641-3.2909 3.9463-6.8176 5.312-10.512 2.1573-5.7738 5.3692-11.0962 9.472-15.696 1.9355-2.0916 4.2548-3.7918 6.832-5.008 5.6676-2.8571 11.6956-4.9345 17.92-6.176.7542-.139 1.523-.182 2.288-.128 2.153-.1923 4.2013-1.0161 5.888-2.368.944 1.2039 1.8047 2.4708 2.576 3.792-.08.544-.064.384-.4 2.544-.7254 3.6952-.758 7.4929-.096 11.2.656 5.28 1.616 49.424 1.984 49.6s9.76-17.216 12.688-20.624c3.5835-3.859 6.8777-7.9768 9.856-12.32 3.4618-5.3341 8.6189-9.347 14.64-11.392 9.792-3.712 20.256-16.992 22.4-21.792 2.816-6.656 2.016-7.744 2.384-7.888s2.24 1.488 2.672 2.256c1.1595 2.0168 2.0727 4.1655 2.72 6.4.1455.6669.6981 1.1681 1.376 1.248 6.56 1.536 24.304 9.232 25.76 10.032 1.4418.7131 2.7049 1.7411 3.696 3.008 3.5202 4.6606 6.6203 9.624 9.264 14.832 1.5085 2.8842 3.2588 5.6354 5.232 8.224 5.584 7.696 12.736 27.376 13.12 28.384.864 2.208 1.024 4.784 2.112 7.008.3155.9594 1.1451 1.659 2.144 1.808 1.9812.1707 3.6212 1.6098 4.048 3.552.2089.8639.7969 1.5872 1.6 1.968.7667.3632 1.3468 1.0303 1.6 1.84zm-177.328 22.176c-5.136-31.536-29.456-36.592-30.768-36.992-2.2176-.8207-4.7025.0959-5.856 2.16 4.08.176 7.52.96 8.176 1.92-.992 0-12.128-1.072-14.192 1.248-.304.336-1.152.88-.112 1.184 19.248 5.568 28.384 23.472 28.08 24.112-1.3448-1.7477-2.922-3.3034-4.688-4.624 1.0523 2.7231 1.9026 5.52 2.544 8.368.8291 4.6729 1.3158 9.4002 1.456 14.144 0 1.008.464 1.168 1.184 1.008 1.712-.416 3.472-.496 5.184-.896 1.0492-.1668 1.9052-.9291 2.192-1.952.992-2.64.992-10.256.992-11.344.8279 2.1976 1.5277 4.4414 2.096 6.72.096.352.272.752.624.832s.48-.368.656-.624c.736-1.088 1.456-2.208 2.192-3.312.3572-.5858.4446-1.2971.24-1.952zm172.64-18.096c.416-.256 1.136-.32.944-.992s-2.256-1.952-2.736-1.952c-6.512-.736-12.928 2.72-13.44 2.464.096-.192 3.056-4.4 11.2-5.488-.848-.56-1.28-1.648-2.192-1.376-31.216 9.248-30.784 40.288-29.184 42.528 1.2013 1.57 2.6624 2.9229 4.32 4 .032-2.656-.576-5.072.768-7.456.704 1.952 1.056 7.504 4.016 10.944 1.468 1.9988 3.6526 3.352 6.096 3.776.528.128.176-3.296.176-4.672.688-19.136 6.896-25.456 6.768-26.656-2.496.864-3.872 1.616-6.4 6.064.896-10.48 18.256-20.304 19.664-21.184z"
			fill="#fff" fill-rule="evenodd"/>
	</mask>
	<mask id="K" fill="#fff">
		<path
			d="m113.696 34.88-2.384.832c-2.496.85333-5.024 1.63733-7.584 2.352-.928.256-1.84.512-2.784.736-1.3653.352-2.7253.688-4.08 1.008-1.264.288-2.528.56-3.808.8-9.6429 1.9526-19.4574 2.9335-29.296 2.928023-3.024 0-6.016-.096023-8.992-.272023l-2.288-.16c-1.92-.144-3.824-.32-5.728-.544l-2.096-.256h-.192c-1.12-.144-2.224-.288-3.328-.464-1.504-.224-3.024-.496-4.512-.768-1.184-.208-2.352-.448-3.52-.704-7.9004-1.65987-15.6496-3.97179-23.168-6.912l-3.2-1.28-2.224-.976c-.576-.256-1.136-.496-1.696-.768l-2.816-1.36c.64-1.76 1.824-4.656 4.016-9.6.096-.272 1.152-15.504 2.192-15.088 51.344 20.496 102.144-5.088 102.896-3.36.576 1.344 4.528 14.688 2.368 19.072-.32.48 1.008 8.112 2.224 14.784z"
			fill="#fff" fill-rule="evenodd"/>
	</mask>
	<mask id="L" fill="#fff">
		<path
			d="m38.04 26.344c0-.848.16-10 .192-11.696-.016-.272-12.112-1.952-20.112-3.968-1.552-.4-2.96-.8-4.096-1.216-.9613-.2741-1.8587-.7364-2.64-1.36-1.0302 3.91989-1.8104 7.90123-2.336 11.92.5318.59244 1.2026 1.04331 1.952 1.312 1.4716.6272 2.9912 1.13549 4.544 1.52 8.608 2.288 22.496 3.92 22.496 3.488zm78.4-11.2h.16c-.112 2.864 1.84 13.264 3.04 19.648l-2.912 1.072-2.384.832c-.4403-5.5443-1.514-11.01996-3.2-16.32-6.048 1.552-13.248 3.2-19.2 4.32-.624.096 2.496 7.504 7.84 16.096-1.264.288-2.528.56-3.808.8-5.504-9.472-5.504-12.832-6.8-16.224 0 0-21.12 4.16-38.72 4.16 0 0-.56 8.72-.784 14.016l-2.096-.256h-.192c.16-4.608.672-11.984.976-13.712 0 0-7.872-.528-7.872 0-.5532 4.14387-.8684 8.31605-.944 12.496-1.184-.208-2.352-.448-3.52-.704.064-9.024.56-11.728.944-12.416-6.08-.336-27.984-5.44-28.336-5.584s-1.728 4.192-2.896 8l-2.896-1.328-2.352-1.168c1.3052-3.4942 2.9957-6.83211 5.04-9.952.5078-1.0991.675-2.32506.48-3.52-.0418-3.66478.5984-7.3054 1.888-10.736.087-.3097.2049-.6099.352-.896.4978-.5563 1.1016-1.0078 1.776-1.328.24.208 1.552 2.112 1.952 2.448 10.336 8.768 66.768 10.768 101.264-4.8.704 3.856 2.064 6.96 2.768 10.384.3045 1.5383.4493 3.10395.432 4.672zm-4.352 3.008h.08c1.776-.464 2.16-1.12 1.84-2.944-.5333-3.60407-1.2813-7.1731-2.24-10.688-13.36 5.424-43.264 11.776-66.16 10.592-2.1991-.31413-4.2592 1.14835-4.688 3.328-.4957 2.73307-.6409 5.5182-.432 8.288.064.56 29.584 2.448 71.6-8.576z"
			fill="#fff" fill-rule="evenodd"/>
	</mask>
	<mask id="M" fill="#fff">
		<path
			d="m3.064.144c1.632.016 2.368.912 2.352 2.928.0832.67269-.1472 1.34632-.6249 1.82717-.4778.48085-1.1499.71563-1.8231.63683-.7113.05882-1.4144-.1858-1.9355-.67345-.5212-.48765-.812-1.1729-.8005-1.88655-.0878-.7747.1822-1.54718.7335-2.09848s1.3238-.82132 2.0985-.73352zm0 4.208h-.016c.3882.04.7711-.11383 1.0237-.41123.2527-.2974.3425-.70018.2403-1.07677 0-1.312-.368-1.792-1.296-1.792-.4508-.06421-.9064.07924-1.239.39014-.3327.31091-.5066.75577-.473 1.20986-.0258.4673.1543.92248.4928 1.24564.3385.32315.8016.48187 1.2672.43436z"
			fill="#fff" fill-rule="evenodd"/>
	</mask>
	<mask id="N" fill="#fff">
		<path
			d="m45.68 32.768c-14.08 6.208-20.816-3.44-21.44-3.488-13.072-2.208-24.224-9.888-24.12861524-11.2.03261524-.544 2.49661524-12.432 2.83261524-11.744 2.544 5.344 18.544 9.008 22.704 11.04.544.272 2.848-1.568 3.376-1.728 4.848-1.36 15.936.272 16.272.56 1.104.912-.08 1.296 1.2 1.296 3.936.192 50.72-4.8 62.144-16.816.352-.24 3.168 10.432 4.16 13.056.608 1.6-18.096 9.072-22.16 8.608-.32 2.096-.304 6.528-2.416 7.008-7.344 1.632-38.96 1.808-42.544 3.408z"
			fill="#fff" fill-rule="evenodd"/>
	</mask>
	<mask id="O" fill="#fff">
		<path
			d="m2.832 1.016c.0036.31013-.1294.60616-.3635.80952-.2342.20336-.5459.29349-.8525.24648-.64-.016-1.104-.256-1.072-1.04s.624-.992 1.264-.96 1.024.304 1.024.944z"
			fill="#fff" fill-rule="evenodd"/>
	</mask>
	<mask id="P" fill="#fff">
		<path
			d="m3.2 1.376c.0378.3029-.0594.60711-.2658.832s-.5012.34774-.8062.336c-.3023.04918-.6106-.04178-.8379-.24721-.2272-.20543-.3487-.50304-.3301-.80879 0-.672.544-1.136 1.104-1.056s1.136.24 1.136.944z"
			fill="#fff" fill-rule="evenodd"/>
	</mask>
	<mask id="Q" fill="#fff">
		<path
			d="m2.96 1.368c-.048.624-.496 1.024-1.104.896s-1.072-.416-1.072-1.088c-.0082-.27179.1053-.53307.3096-.71257.2042-.1795.4779-.25849.7464-.21543.672.032 1.12.352 1.12 1.12z"
			fill="#fff" fill-rule="evenodd"/>
	</mask>
	<mask id="R" fill="#fff">
		<path
			d="m2.408 1.576c-.0062.28867-.1359.56082-.3562.74746s-.51.26985-.7958.22854c-.3089.03151-.6168-.06851-.8482-.27555s-.3649-.50196-.3678-.81245c0-.752.72-.864 1.28-1.008.64.128 1.088.464 1.088 1.12z"
			fill="#fff" fill-rule="evenodd"/>
	</mask>
	<mask id="S" fill="#fff">
		<path
			d="m24.68 30c-4-.944-18.544-5.328-21.872-9.312-.608-.736-2.96-1.424-2.096-4.064.48-2.224 1.568-8.208 1.824-9.808.128-.896 1.6-1.6 1.6-1.6.8422 1.1845 1.7615 2.3123 2.752 3.376 2.24 2.784 15.536 6.656 19.84 7.792.32.08 1.184-3.728 18.944-1.264.88.112 1.584.56 1.744 1.296s.704.336 1.072.336c4.608-.304 48.224-5.328 59.504-15.696l.4-.848c.5806-.0405 1.1634-.0405 1.744 0 .88 1.472 3.424 10.32 4.08 12.512.544 1.888.432 2.288-1.168 3.2-6.508 2.88348-13.2129 5.30025-20.064 7.232-.56.144-.832.256-.832.896-.0154 1.36526-.1601 2.726-.432 4.064-.128 1.104-1.312 1.888-2.8 2.016-9.28 1.568-33.136 2.464-39.04 2.72-.576.032-1.168-.096-1.312.8-.112.592-.752.752-1.312.896-17.36 4.272-21.264-4.256-22.576-4.544zm65.344-3.072v-.032c.647-2.4501.6359-5.02754-.032-7.472-.336-2.448-1.12-2.544-3.536-2.16-4.688 1.04-50.896 3.904-54.192 3.2-1.04-.224-1.36.272-1.6 1.04-.1238.42206-.1989.85688-.224 1.296-.32 3.056.784 6.928 4.976 8 2.5599.60462 5.1667.99001 7.792 1.152 7.216-.656 38.864-1.936 44.8-3.424 1.184-.32 1.648-.56 2.016-1.6zm-42.08-8.944v-.032c-.48.016-.848-.112-.816.688s.64.4.976.4c2.64-.192 35.792-2.72 40.496-3.856 1.168-.144 1.632.416 2.144 1.232.7358 1.61785 1.1903 3.34934 1.344 5.12 2.064-.528 15.376-4.528 19.664-6.736 1.488-.832 1.504-.832.912-2.432s-2.32-8.608-3.2-10.464c-14.56 12.48-55.408 15.808-61.52 16.08zm-16.512-1.888v-.032c-2.5811.55334-4.6998 2.38837-5.616 4.864-.8994 2.49502-.7078 5.25332.528 7.6 1.52 2.96 4.592 4.304 7.616 5.264 3.1059.53607 6.2899.41067 9.344-.368-6.752-.304-10.24-1.6-12.464-3.2-1.5332-.87692-2.4976-2.49036-2.544-4.256-.0572-1.40815.0719-2.81768.384-4.192.2834-1.74456 1.7255-3.06758 3.488-3.2 4.2032-.3733 8.4287-.42679 12.64-.16.928.064 1.232-.096 1.312-1.04s-.496-.944-1.152-.944c-2.192.096-11.168-.992-13.536-.336zm-29.232.944c-.2401.88272.1929 1.80968 1.024 2.192 6.4558 4.37768 13.69 7.47884 21.312 9.136 0-.016-2.688-6.928 1.6-10.656-3.952-1.232-19.232-4.992-21.792-9.984-.432.288-1.488 6.368-2.144 9.312z"
			fill="#fff" fill-rule="evenodd"/>
	</mask>
	<mask id="T" fill="#fff">
		<path
			d="m7.52 19.248c-.656.352-3.68 1.952-4.112 1.312-.304-.32-1.376-14.592-3.2-19.392-.16-.416 3.392-1.344 3.648-.912 3.136 5.216 3.664 18.576 3.664 18.992z"
			fill="#fff" fill-rule="evenodd"/>
	</mask>
	<mask id="U" fill="#fff">
		<path
			d="m3.912 20.536c-.24.544-3.456-.752-3.776-3.456.112-.576 3.232-14.08 4.224-16.576.176-.448 4.32 2.24 4.192 2.752-.928 4.16-4.4 16.736-4.64 17.28z"
			fill="#fff" fill-rule="evenodd"/>
	</mask>
	<mask id="V" fill="#fff">
		<path
			d="m3.728 22.4c-1.392-.72-3.664-1.2-3.216-3.136-.368.72.928-8.576 4.272-17.744.432-1.152 1.296-1.712 2.32-1.056 1.9747 1.3282 4.2423 2.1573 6.608 2.416.832.08 1.056 2.08-.768 1.76-2.224-.384-2.96.464-3.824 2.448-1.824 4.416-3.328 14.384-3.424 14.64-.368 1.296-.768 1.28-1.968.672zm1.888-18.96c-1.6704 4.80821-2.855 9.77166-3.536 14.816-.144 1.168.912 1.664 2.032 2 .112-.592.304-1.088.304-1.6.5235-4.23926 1.5993-8.39183 3.2-12.352 1.04-2.352 1.28-2.112-1.12-3.2-.512-.24-.704-.176-.88.336z"
			fill="#fff" fill-rule="evenodd"/>
	</mask>
	<mask id="W" fill="#fff">
		<path
			d="m5.04 23.6c-.992-.4-.64-.992-.64-1.952-.1256-5.421-.9703-10.80134-2.512-16-.368-1.056-1.248-2.464-.88-3.44s1.872-.72 2.864-.976c2.928-.736 2.88-.672 3.616 2.208 2.032 3.664 3.344 16.64 3.344 18.24-.704 1.504-5.392 1.92-5.792 1.92zm-1.408-18.704c1.4183 4.52447 2.3253 9.19358 2.704 13.92 0 .448-.048 2.368.48 2.304s1.28.256 1.6-.736c1.104-2.16-1.232-12.464-2.672-16.208-.448-1.136-1.168-.624-1.84-.48-.944.176-.384.784-.272 1.2z"
			fill="#fff" fill-rule="evenodd"/>
	</mask>
	<mask id="X" fill="#fff">
		<path
			d="m2 1.952c-.3308-.0377-.6303.1977-.672.528v1.232c-.016.384.32.608.64.624s.624-.256.64-.368.032-.208.176-.208h.576c.16 0 .16.064.16.208-.0751.8837-.8523 1.5391-1.736 1.464s-1.5391-.8523-1.464-1.736v-1.392c0-.8837.7163-1.6 1.6-1.6s1.6.7163 1.6 1.6c0 .16-.048.16-.192.16h-.576c-.16-.016-.16-.192-.16-.192-.118-.2131-.3491-.338-.592-.32z"
			fill="#fff" fill-rule="evenodd"/>
	</mask>
	<mask id="Y" fill="#fff">
		<path
			d="m2.92 1.672-1.872-.128v.688h1.6c.16.016.16.08.16.192v.464c-.016.16-.048.16-.176.16h-1.6l-.08 1.376c-.016.176-.048.176-.176.176h-.592c-.16 0-.16-.08-.16-.176l.176-3.552c.016-.176.048-.176.192-.176l2.544.144c.16 0 .16.064.16.176v.48c0 .176-.032.176-.176.176z"
			fill="#fff" fill-rule="evenodd"/>
	</mask>
	<mask id="Z" fill="#fff">
		<path
			d="m1.064 4.264c-.048.128-.096.16-.224.048h-.624c-.096-.016-.096-.176-.096-.176l1.504-3.472c.0307-.1134.1391-.1879.256-.176h.56c.144 0 .24.064.24.192l1.12 3.616c.032.16.032.16-.096.16h-.624c-.224 0-.224-.048-.224-.192l-.144-.464h-1.456zm1.04-2.576-.512 1.344h.88z"
			fill="#fff" fill-rule="evenodd"/>
	</mask>
	<mask id="aa" fill="#fff">
		<path
			d="m4.024 1.784c-.0769.4995-.4405.9069-.928 1.04l.768 1.264c.0361.0339.0457.0875.0236.1318-.0222.0443-.0708.0688-.1196.0602h-.704c-.1253-.0021-.2379-.0771-.288-.192l-.592-.992c-.0318-.0988-.0318-.2052 0-.304v-.48c0-.16.032-.16.176-.16h.128c.2864.0281.5425-.1782.576-.464.0043-.1316-.0439-.2595-.1339-.3555s-.2145-.1523-.3461-.1565h-.8l-.144 2.88c-.016.16-.08.16-.176.16h-.592c-.16-.016-.16-.048-.16-.192l.192-3.552c0-.16.032-.16.176-.16l1.488.08c.4376-.0388.8686.1265 1.168.448.22.2626.3239.6033.288.944z"
			fill="#fff" fill-rule="evenodd"/>
	</mask>
	<mask id="ab" fill="#fff">
		<path
			d="m3.64 1.552-1.92-.096v.656l1.6.08c.16 0 .16.08.16.176v.464c.0051.0481-.0118.0959-.046.13-.0341.0342-.0819.0511-.13.046l-1.6-.096v.784l1.888.112c.16-.016.16.064.16.16v.496c0 .16-.048.16-.192.16l-2.656-.144c-.16 0-.16-.08-.16-.176l.192-3.552c0-.176.032-.176.176-.176l2.56.144c.16 0 .16.08.16.176v.496c-.016.16-.048.16-.192.16z"
			fill="#fff" fill-rule="evenodd"/>
	</mask>
	<mask id="ac" fill="#fff">
		<path
			d="m1.648 4.352c-.112 0-.176-.032-.16-.304l.144-2.88h-.912c-.16-.016-.16-.08-.16-.192v-.48c.016-.176.048-.176.192-.176l2.752.144c.16 0 .16.064.16.192v.496c-.016.16-.048.16-.192.16h-.912l-.144 2.88c-.016.16-.08.16-.176.16z"
			fill="#fff" fill-rule="evenodd"/>
	</mask>
	<mask id="ad" fill="#fff">
		<path
			d="m1.36 4.808c-.112 0-.176-.032-.144-.304l.144-2.88h-.912c-.16-.016-.16-.08-.16-.192v-.48c0-.176.032-.176.176-.176l2.768.16c.144-.016.144.064.144.176v.496c-.016.16-.048.16-.176.16h-.912l-.16 2.88c0 .16-.064.16-.176.16z"
			fill="#fff" fill-rule="evenodd"/>
	</mask>
	<mask id="ae" fill="#fff">
		<path
			d="m3.272 3.04c-.0997.7577-.774 1.3055-1.536 1.248-.3901.0174-.7706-.1244-1.0541-.3929-.2836-.2685-.4459-.6406-.4499-1.0311v-1.408c.1078-.7785.8198-1.3267 1.6-1.232.3889-.0173.7686.1219 1.0542.3864.2856.2646.4534.6325.4658 1.0216zm-2.256-.208c-.0195.3189.2112.5986.528.64h.096c.1701.028.3439-.0196.4761-.1302.1321-.1107.2095-.2734.2119-.4458v-1.232c.032-.384-.24-.64-.624-.64-.3207-.0492-.6235.1621-.688.48-.0075.0316-.0075.0644 0 .096z"
			fill="#fff" fill-rule="evenodd"/>
	</mask>
	<mask id="af" fill="#fff">
		<path
			d="m1.224 3.968-.592.016c-.16 0-.16-.048-.16-.176l.192-3.552c-.0051-.0481.0118-.0959.046-.13.0341-.0342.0819-.0511.13-.046h.56c.144.016.256.096.256.224l1.152 2.096.112-2.064c0-.16.08-.16.176-.16h.576c.16 0 .16.032.16.176l-.176 3.552c-.016.16-.048.16-.192.16h-.544c-.144-.016-.176-.096-.256-.224l-1.152-2.112-.112 2.08c0 .16-.064.16-.176.16z"
			fill="#fff" fill-rule="evenodd"/>
	</mask>
	<mask id="ag" fill="#fff">
		<path
			d="m5.088 3.8s-.112.096-.112.096l-4.4-.224c-.0644-.0081-.1125-.0631-.11200386-.128l.14400386-2.816c.016-.096.128-.096.128-.096l4.4.224c.096 0 .096.112.096.112z"
			fill="#fff" fill-rule="evenodd"/>
	</mask>
	<mask id="ah" fill="#fff">
		<path
			d="m.6 2.304s.032-.24.032-.24v-.704l-.624-1.28h.368c.0667.0036.1241.0483.144.112l.336.704.384-.672h.16.352v.096l-.736 1.184v.704c.0062.0269-.0018.0551-.0214.0746-.0195.0196-.0477.0276-.0746.0214z"
			fill="#fff" fill-rule="evenodd"/>
	</mask>
	<mask id="ai" fill="#fff">
		<path
			d="m2.56 2.256c-.064-.016-.288-.16-.288-.16v-1.088l-.352.544c-.0284.0213-.0676.0213-.096 0h-.16v-.08l-.288-.576v1.088c0 .096-.096.096-.096.096h-.32v-.096l.096-1.936h.096.32c.144 0 .144.112.144.112l.4.816.48-.768c.0158-.0645.0784-.1062.144-.096l.336.656v1.392c-.096.096-.096.096-.096.096z"
			fill="#fff" fill-rule="evenodd"/>
	</mask>
	<mask id="aj" fill="#fff">
		<path
			d="m1.192 3.8.016.176c-.0279.7459.1853 1.4808.608 2.096.1822.2463.4173.4486.688.592.4416.1796.9154.2667 1.392.256h1.36c.2348.0168.4166.2126.416.448-.0077.2557-.2087.4636-.464.48h-1.36c-.6047.0058-1.204-.1141-1.76-.352-.4011-.202-.7471-.4985-1.008-.864-.5449-.8005-.8247-1.7519-.8-2.72v-.16c.0548-.9668.4258-1.8888 1.056-2.624.3017-.3219.6667-.5779 1.072-.752.577-.1903 1.189-.2504 1.792-.176h.208l2.128.112c.2588.0171.4572.2368.448.496-.0082.1232-.0651.238-.1582.3191-.0931.081-.2147.1217-.3378.1129l-2.112-.112h-.224c-.4678-.0569-.9424-.0132-1.392.128-.2861.1116-.5433.2867-.752.512-.4811.5734-.767 1.2851-.816 2.032z"
			fill="#fff" fill-rule="evenodd"/>
	</mask>
	<mask id="ak" fill="#fff">
		<path
			d="m5.008 2.064-4.416-.24c-.13.0088-.258-.0357-.3546-.1232-.0965-.0875-.1534-.2106-.1574-.3408.0487-.2641.2931-.4456.56-.416l4.416.24c.13-.0088.258.0357.3546.1232.0965.0875.1534.2106.1574.3408-.0487.2641-.2931.4456-.56.416z"
			fill="#fff" fill-rule="evenodd"/>
	</mask>
	<mask id="al" fill="#fff">
		<path
			d="m4.488 1.664-3.824-.192c-.1301.0043-.2563-.0443-.3498-.1348s-.1463-.2151-.14620014-.3452c.01590014-.1278.08250014-.2439.18480014-.3221s.2317-.1121.3592-.0939l3.824.192c.1301-.0043.2563.0443.3498.1348s.1463.2151.14620014.3452c-.01590014.1278-.08250014.2439-.18480014.3221s-.2317.1121-.3592.0939z"
			fill="#fff" fill-rule="evenodd"/>
	</mask>
	<mask id="am" fill="#fff">
		<path
			d="m.544 1.168c-.1286.0045-.2534-.0446-.3444-.1356s-.1401-.2158-.1356-.3444c.0333-.2593.2681-.4443.528-.416l2.864.144c.2645.0078.4796.2159.496.48-.0118.1265-.075.2426-.1748.3212s-.2275.1129-.3532.0948z"
			fill="#fff" fill-rule="evenodd"/>
	</mask>
	<mask id="an" fill="#fff">
		<path
			d="m79.408 13.232c-3.216 1.408-10.976 6.4-10.16 6.512 3.024 4.448 19.6-.256 24.88.128 7.424-.128 8.688 5.04 7.728 5.392-3.2049 1.1489-6.3224 2.5286-9.328 4.128-3.984 3.264-13.504 7.568-18.192 9.504-3.376 1.392-23.52 5.424-24.624 6.592-.832.88-14.976 18.368-16.576 19.888-10.848 15.76-32.32 14.4-33.04 14.4-.368-1.872.784-19.744 3.536-26.944 2.288-5.904 6.56-18.816 24-17.808 1.232-.512 11.488-7.792 11.936-8.288 4.832-5.328 9.84-10.736 15.888-14.64 1.488-.96 15.312-4.8 18.176-6.4 4.752-2.736 19.04-6.928 20.496-5.04 3.2 4.176-9.712 10.368-14.72 12.576z"
			fill="#fff" fill-rule="evenodd"/>
	</mask>
	<mask id="ao" fill="#fff">
		<path
			d="m36.496 22.056c4.704.096 16.128 2.064 13.664-3.984-3.744-8.784-.384-16.864 1.6-17.456 2.96-.88 4.736 12.688 5.296 16.096.256 1.648 6.208 16.128 7.216 16.592.704.32.32 5.408.56 5.776 14.08 21.184 27.408 24.32 30.848 25.84 2.24.992 8.096 7.312 9.6 9.168 7.856 13.936 5.728 24.96 5.536 26.736-.112.976-13.456 6.096-17.184 6.096-8.192-2.208-30.816-27.92-39.888-48.512-.48-.064-14.16-4.464-14.768-4.704-6.016-2.528-16.752-16.048-17.216-16.928-.816-1.456-23.136-22.208-20.624-25.6.768-1.072 6.944-2.976 7.168-2.672 3.712 4.816 24.496 13.552 28.192 13.552z"
			fill="#fff" fill-rule="evenodd"/>
	</mask>
	<mask id="ap" fill="#fff">
		<path
			d="m47.424 21.056c1.216-1.04 2.176-1.856 1.344-3.296-1.84187-4.0826-2.17636-8.686-.944-12.992.24-3.056 6.64-8.112 8.24-.112.432 3.136.736 6.24 1.216 9.44 1.12 7.536 6.064 15.024 7.344 17.488.97296 1.8187 1.3955 3.8812 1.216 5.936-.04665.4786.11013.9547.432 1.312 3.376 4.384 4.496 7.136 10.144 13.184 3.4186 4.3615 7.9836 7.6856 13.184 9.6 6.9625 2.2361 12.7886 7.0816 16.256 13.52 3.056 5.472 1.76 15.344 1.6 16.864-.384-3.136-.112-16.752-12.224-24.096-3.0902-2.0336-6.4368-3.6477-9.952-4.8-2.2712-.9502-4.2959-2.4057-5.92-4.256-5.3168-4.8661-10.0135-10.3689-13.984-16.384-.448-.688-.704-.736-1.28-.128-.65219.941-1.77774 1.4357-2.912 1.28 2.72-2.208 2.896-6.4 1.712-9.6-.95067-2.522-2.08435-4.9712-3.392-7.328-3.27895-5.7283-5.10802-12.1713-5.328-18.768 0-6.304-3.056-4.464-3.376-3.952-1.66073 2.8079-2.09461 6.1748-1.2 9.312.23104 1.1954.61275 2.3567 1.136 3.456.53225 1.2622.74653 2.6357.624 4-.04481.7785-.49406 1.4766-1.184 1.84-2.26811 1.5605-4.94353 2.4226-7.696 2.48-6.016.288-11.696-1.664-17.216-3.984-.656-.272-1.312-.576-2.16-.96.336 2.096.64 4.048.944 6 .064.384.272.384.592.384 2.07606-.1538 4.01463 1.0481 4.8 2.976.62045 1.0437.93121 2.2423.896 3.456-.10136 1.7774.54217 3.5166 1.776 4.8 1.488 1.6 2.336 5.312 1.856 5.664-.576-2.24-2.08-3.344-3.776-4.992s-1.616-3.872-1.888-5.952c-.13668-.9175-.40056-1.8114-.784-2.656-.32113-.6527-.90171-1.1403-1.6-1.344-.33296-.1714-.73292-.1474-1.04296.0627-.31005.21-.48071.5725-.44504.9453.112 2.48.256 4.976.448 7.456.13128 1.1221.55014 2.1913 1.216 3.104 1.504 2.224 2.928 4.512 4.368 6.784.74034 1.2009 1.72084 2.2359 2.88 3.04 4.29584 2.9897 9.10735 5.1595 14.192 6.4 2.55592.693 5.23416.8078 7.84.336 4.896-.144 6.64-6.064 6.128-7.248h.096c2.352 2.528-1.152 8.288-6.16 10.112 4.288 6.08 7.776 12.56 11.568 18.88 3.7154 6.0183 7.8595 11.7611 12.4 17.184 3.2188 4.1081 7.4701 7.2883 12.32 9.216 2.6291 1.2509 5.642 1.4288 8.4.496 3.2-1.264 7.488-2.368 10.688-3.792-.0549 1.125-.1671 2.2464-.336 3.36-2.736 1.072-10.352 4.352-11.2 4.8-1.6589.8326-3.5796.9764-5.344.4-2.592-.736-5.216-1.376-7.824-2.032-.6838-.2387-1.3028-.6331-1.808-1.152-6.4779-5.5564-12.1773-11.9608-16.944-19.04-2.4599-4.121-4.65112-8.3966-6.56-12.8-1.8918-4.0691-4.07898-7.9943-6.544-11.744-.81247-1.2481-1.81062-2.365-2.96-3.312-1.15823-.6393-2.44072-1.0214-3.76-1.12-.54032-.0681-1.07504-.1751-1.6-.32-4.752-2.016-9.76-3.472-14.128-6.4-.66203-.4205-1.23768-.9636-1.696-1.6-1.488-2.16-2.832-4.4-4.176-6.64-1.38928-1.8675-2.95371-3.598-4.672-5.168-1.6-1.84-3.2-3.712-4.8-5.68-1.70421-1.9254-3.5378-3.7322-5.488-5.408-3.31733-3.2427-6.49067-6.6453-9.52-10.208-2.048-2.448-2.16-8.512 3.296-7.248.128.032 2.768-3.024 5.872-.64 3.552 2.8 7.52 5.12 11.2 7.872.096.128 19.408 9.04 25.6 3.712zm-43.104-3.856c1.824 2.08 9.136 9.728 11.184 11.744-.176-2.432-.32-4.496-.48-6.544-2.24553-2.6754-4.65553-5.2083-7.216-7.584-.85999-.8518-1.8831-1.5211-3.008-1.968-1.184-.4-1.936.16-1.744 1.408.13185 1.0818.57044 2.1033 1.264 2.944zm11.408-.512c.11011-.1163.16151-.2762.13973-.4349-.02177-.1586-.11436-.2988-.25173-.3811-1.94518-1.793-4.16538-3.2623-6.576-4.352-.416-.16-.88-.432-1.184.128l7.184 7.104c-.02865-.7487.21587-1.4822.688-2.064zm7.296 20.656c-.24308-5.8511-.99255-11.6702-2.24-17.392-.24-.848-.608-1.808-1.6-1.904s-1.584.416-1.968 1.6c-.16.512.496 7.408.832 10.4.352 3.36 2.864 5.056 4.976 7.296z"
			fill="#fff" fill-rule="evenodd"/>
	</mask>
	<mask id="aq" fill="#fff">
		<path
			d="m37.392 58.88c2.464-3.632 10.208-9.84 10.176-9.888s-6.608.976-9.76.368-7.824-6.32-7.248-7.008c1.264 1.296 8.56 7.152 15.136 3.744 3.136-.464 6.192-1.328 9.392-1.488 3.824-.192 7.296-1.936 11.088-2.096 1.0671-.072 2.0277-.6724 2.56-1.6 1.5662-2.2877 3.2763-4.4734 5.12-6.544.448-.528 1.072-1.12.688-1.824s-1.216-.88-1.984-.88c-.771-.0313-1.5288.2062-2.144.672-1.3472.8124-2.5391 1.8581-3.52 3.088-1.2211 1.1014-2.7518 1.7997-4.384 2 1.5835-1.0996 2.9869-2.4382 4.16-3.968 2-3.536 5.36-4.752 8.976-2.8.288.08.528.224.864 0 4.5757-2.8461 9.3145-5.4212 14.192-7.712-.864.112-1.68.192-2.592.352s-1.824.352-2.72.592c-4.5986 1.2298-9.4124 1.4265-14.096.576-.5107-.0953-1.0096-.2455-1.488-.448-.6863-.2701-1.2062-.8465-1.4043-1.557-.198-.7105-.0513-1.4728.3963-2.059 1.6425-1.9257 3.6844-3.4708 5.984-4.528 1.76-.928 5.744-2.992 5.984-2.992 3.7913-.6108 7.304-2.37 10.064-5.04 5.12-5.072-.592-5.44-2.192-4.576-3.296 1.36-6.672 2.544-9.872 4.144-4.2619 2.1904-8.8397 3.702-13.568 4.48-7.6584 1.259-14.5541 5.3759-19.296 11.52-1.216 1.52-2.672 2.848-3.888 4.64 4.784-.304 9.408-.288 13.776-2.176-.528.784-3.712 2.592-11.04 4.192-4.9186-.0209-9.5205 2.4242-12.256 6.512-1.1146 1.6927-2.8301 2.8993-4.8 3.376-1.808.416-3.696.464-10.096 4.128 2.2386-1.8898 4.5896-3.6423 7.04-5.248-17.552-1.68-22.176 20.768-22.528 21.52-.0511-1.8891.2473-3.7713.88-5.552 1.3859-5.6166 4.2153-10.7736 8.208-14.96 2.2032-2.1662 5.1093-3.4717 8.192-3.68 3.152-.352 6.336-.304 9.296-1.696.7838-.3019 1.4855-.7842 2.048-1.408 1.6189-2.1821 3.9514-3.7278 6.592-4.368 1.0614-.2538 1.9841-.9071 2.576-1.824 4.368-5.824 12.128-15.728 24.336-17.12 5.7264-1.2624 11.2807-3.2069 16.544-5.792 3.3539-1.6666 6.9896-2.6921 10.72-3.024 1.3785-.2848 2.7813.3646 3.456 1.6.6856 1.2842.5343 2.8544-.384 3.984-2.3517 3.6526-5.9239 6.3516-10.08 7.616-4.8059 1.8298-9.3897 4.1968-13.664 7.056-.496.56-.496.896.32 1.088s8.096 1.616 13.616-.272c2.9321-.7092 5.929-1.1167 8.944-1.216 1.4038-.1951 2.8339.0275 4.112.64 1.776 1.088 3.856 1.888 4.8 3.952.402.5551.5144 1.2689.3024 1.9207s-.7228 1.1629-1.3744 1.3753c-1.8322.9187-3.7579 1.6375-5.744 2.144-2.192.704-3.68 2.384-5.52 3.568-2.384 1.552-4.576 3.424-6.992 4.928-2.1867 1.1974-4.5451 2.0502-6.992 2.528-2.0814.6802-4.2253 1.1518-6.4 1.408-.192 0-7.072 2.416-10.416 3.2-1.36.32-2.72.608-4.128.816-1.4532.4356-2.7882 1.1961-3.904 2.224-3.5839 2.4787-6.8135 5.4338-9.6 8.784-1.68 1.984-3.04 4.336-4.64 6.4-3.2486 4.0459-6.9171 7.7358-10.944 11.008-5.224 4.0543-11.4844 6.5552-18.064 7.216-1.312.24-2.64.24-3.968.24-1.4161-.068-2.8111-.3708-4.128-.896-.091-.9739-.091-1.9541 0-2.928 0 0 13.28 4.496 26.64-8.16 3.9982-3.6763 7.5676-7.7931 10.64-12.272zm61.392-35.2v.064c-3.6-.944-9.744 2.032-9.744 1.984 2.192.16 4.272.496 4.976 3.088.144.48.544.336.896.208 1.6-.576 3.2-1.088 4.8-1.712.672-.272 1.76-.112 1.872-1.04s-.816-1.552-1.6-2.064c-.3701-.2374-.775-.4155-1.2-.528zm-22.72 11.52v.064c-1.3018 1.8382-2.752 3.5666-4.336 5.168 2.9256-.673 5.781-1.6212 8.528-2.832 3.8001-2.0801 7.4708-4.3883 10.992-6.912.384-.272 1.024-.368.896-1.104s-.288-1.456-1.056-1.776c-1.3006-.6524-2.8041-.7729-4.192-.336-3.1755 1.1322-6.257 2.5124-9.216 4.128-.8086.3088-1.2849 1.1474-1.136 2 .0412.5741-.1296 1.1434-.48 1.6z"
			fill="#fff" fill-rule="evenodd"/>
	</mask>
	<mask id="ar" fill="#fff">
		<path
			d="m80.512 8.744c.208.704 21.952 17.456 19.44 47.712-.1176 1.0485.4498 2.0543 1.408 2.496 1.296.72.064 4.944.432 5.84.592 1.424 3.024 5.696 1.088 6.032-1.44.256-12.912-2.176-15.568-1.904-12.288 2.16-45.92-1.36-83.2-6.544-1.696-.224-3.648-.8-3.2-2.4.128-.208 4.064-3.056 5.376-3.2 1.696-.208 2.096-3.296 2.192-4.8 1.92-34.272 21.376-42.832 25.6-45.184 3.296-1.84 5.456-4.8 11.712-4.016 1.984.256 11.792-5.904 18.72 1.008.208.304 11.44-1.44 16 4.96z"
			fill="#fff" fill-rule="evenodd"/>
	</mask>
	<mask id="as" fill="#fff">
		<path
			d="m85.352 12.208c12.3097 11.7588 18.3017 28.6659 16.144 45.552-.08.672.128 1.024.784 1.024.992.112 1.248.752 1.248 1.712-.1853 1.5397-.2175 3.094-.096 4.64 1.6.784 1.344 2.368 1.344 3.616-.112 4.032.272 4.032-4 4.032-.496 0-8.016-.4-8.496-1.104-.752-1.296-2.96-.448-3.52-.448-9.664 1.696-35.856 1.552-84.112-7.04-1.1829-.2266-2.3406-.5696-3.456-1.024-1.12-.448-1.28-.976-.544-1.936 1.2866-1.6128 2.9296-2.9053 4.8-3.776 1.5758-.59 2.6082-2.1097 2.576-3.792.4073-5.6973 1.3501-11.3435 2.816-16.864 2.31-8.5087 6.8569-16.2434 13.168-22.4 2.3625-2.3256 4.8919-4.4753 7.568-6.432.9494-.6971 2.0428-1.1727 3.2-1.392.5458-.0959 1.0302-.4072 1.344-.864 1.8414-2.3536 4.7112-3.6662 7.696-3.52 1.4476-.0531 2.8934.1473 4.272.592.3835.1401.8133.0467 1.104-.24 1.808-1.424 8.608-5.28 16.288.704.176.096.48 0 .704 0 4.4409-.5064 8.9272.4245 12.8 2.656 1.4762.5913 2.6912 1.6927 3.424 3.104.3198.8126.8774 1.5097 1.6 2 .4808.3616.9304.763 1.344 1.2zm16.944 55.184c-3.888-.192-7.728-1.584-11.696-.576-1.408.384-1.728.096-1.52-1.328.432-2.848.928-5.696 1.392-8.56.112-.624.432-.608.96-.464 1.792.464 3.408.896 5.408 1.232s2.16.384 2.16-1.6c.16-4.432.832-27.968-17.712-43.664-1.9661-1.9118-4.9122-2.4028-7.392-1.232-9.472 4.384-18.368 24-18.512 24 2.016-6.016 7.296-23.632 21.28-27.472-2.8006-1.7356-6.0716-2.5575-9.36-2.352-1.0982.3254-2.2812.1926-3.28-.368-1.024-.784-8.208-4.96-13.824-.784-.933.7912-2.1983 1.0671-3.376.736-5.376-1.28-8.48.912-11.68 5.392-4.944 6.768-11.152 32.112-11.344 32.112 1.36-12.48 5.328-23.168 9.6-33.104.208-.144-21.36 12.736-23.376 44.432-.064.944.304 1.344 1.248 1.232 9.024-1.152 29.744 1.232 30.128 1.328 0 .064-19.264-1.104-27.952.4-2.24.192-8.592 2.4-10.464 4.352 2.288 1.536 55.232 10.208 88.512 7.424 1.152-.08 2.064-.128 2.592 1.088.16.432.592.432.944.432 2.176.32 4.352.672 6.576.8 1.152.064 1.504-.4 1.408-1.44 0-.4.032-.752 0-1.2s-.208-.816-.72-.816zm-8.096-7.504c.112-1.616-.368-2.176-2.4-2.272-1.216-.064-1.344 5.952-1.6 7.552-.128.704.096.896.832.704 2.56-.688 2.56-.672 2.848-3.36.016-.16.24-1.904.32-2.624zm7.36 2.72h-.064c.08-1.968.08-1.968-1.824-2.384-.512-.128-1.056-.304-1.6-.432-2.912-.656-2.944-.656-3.2 2.32-.112 1.072-.416 2.976-.112 3.2.784.608 5.52.832 6.176.96.88-.192.624-2.864.624-3.664z"
			fill="#fff" fill-rule="evenodd"/>
	</mask>
	<mask id="at" fill="#fff">
		<path
			d="m11.664 3.088-9.92-.864c-.6151.0002-1.1187-.4891-1.136-1.104v-.128c.1134-.6034.6914-1.003 1.296-.896l9.92.88c.2956-.0043.5805.1101.791.3176s.329.4908.329.7864v.128c-.1133.5946-.6842.9872-1.28.88z"
			fill="#fff" fill-rule="evenodd"/>
	</mask>
	<mask id="au" fill="#fff">
		<path
			d="m10.112 3.592-8.624-.736c-.5972-.0173-1.0723-.5066-1.07200014-1.104v-.128c.10580014-.5795.64800014-.9739 1.23200014-.896l8.64.768c.2886.0042.5636.1229.7647.3299.201.2071.3116.4855.3073.7741v.096c-.098.5915-.6562.9922-1.248.896z"
			fill="#fff" fill-rule="evenodd"/>
	</mask>
	<mask id="av" fill="#fff">
		<path
			d="m1.344 2.744h.08c-.2872-.0042-.5606-.1234-.7592-.3309-.1985-.2075-.3054-.486-.2968-.7731v-.112c.0905-.5908.6405-.998 1.232-.912l6.4.576c.2899-.0001.5676.1172.7696.3252.2019.208.3111.489.3024.7788v.128c-.1058.5795-.648.9739-1.232.896z"
			fill="#fff" fill-rule="evenodd"/>
	</mask>
	<mask id="aw" fill="#fff">
		<path
			d="m2.24 8.304.032.336c-.1125 1.6883.3132 3.3689 1.216 4.8.4166.5791.9651 1.0508 1.6 1.376.9692.4448 2.0216.6793 3.088.688l3.088.272c.5136.0868.8873.5351.88 1.056.0001.2815-.1138.551-.3158.7469-.202.196-.4749.3018-.7562.2931l-3.056-.272c-1.3706-.0215-2.7197-.3438-3.952-.944-.8794-.4959-1.6344-1.1852-2.208-2.016-1.1847-1.8325-1.7459-3.9987-1.6-6.176v-.384c.2055-2.1674 1.116-4.2076 2.592-5.808.6953-.7213 1.5502-1.2694 2.496-1.6 1.3138-.3838 2.6963-.4713 4.048-.256h.464l4.8.448c.2763.0243.5314.158.7087.3713s.262.4886.2353.7647c-.0509.5776-.558 1.0062-1.136.96l-4.8-.432h-.496c-1.0648-.1794-2.1556-.1303-3.2.144-.6521.2325-1.2429.61-1.728 1.104-1.1221 1.2641-1.8214 2.8472-2 4.528z"
			fill="#fff" fill-rule="evenodd"/>
	</mask>
	<g fill="none" fill-rule="evenodd">
		<path d="m-4.95834-4.0224h305.58094v305.52642h-305.58094z" fill="#e5e5e5" mask="url(#a)"
					transform="translate(52 60)"/>
		<path d="m-4.1898-4.1144h97.4412v170.9538h-97.4412z" fill="#fcc288" mask="url(#b)" transform="translate(160 40)"/>
		<path d="m-4.544-4.8471h23.168v15.8899h-23.168z" fill="#fff" mask="url(#c)" transform="translate(169 81)"/>
		<path d="m-4.0944-4.9979h22.8133v16.3539h-22.8133z" fill="#fff" mask="url(#d)" transform="translate(198 85)"/>
		<path d="m-4.8288-4.2472h21.6208v14.9077h-21.6208z" fill="#a76630" mask="url(#e)" transform="translate(200 92)"/>
		<path d="m-4.976-4.064h23.104v12.2386h-23.104z" fill="#a76630" mask="url(#f)" transform="translate(169 88)"/>
		<path d="m-4.976-4.7805h15.712v11.7421h-15.712z" fill="#a76630" mask="url(#g)" transform="translate(213 93)"/>
		<path d="m-4.2075-4.472h12.5383v13.4728h-12.5383z" fill="#a76630" mask="url(#h)" transform="translate(167 85)"/>
		<path d="m-4.6402-4.3632h12.6722v11.6272h-12.6722z" fill="#a76630" mask="url(#i)" transform="translate(199 90)"/>
		<path d="m-4.8594-4.5201h16.2106v15.2516h-16.2106z" fill="#494649" mask="url(#j)" transform="translate(173 81)"/>
		<path d="m-4.3739-4.2064h16.2601v15.3903h-16.2601z" fill="#49464a" mask="url(#k)" transform="translate(203 85)"/>
		<g fill="#7c4b31">
			<path d="m-4.056-4.712h16.896v21.568h-16.896z" mask="url(#l)" transform="translate(236 97)"/>
			<path d="m-4.6076-4.6h63.1356v92.0355h-63.1356z" mask="url(#m)" transform="translate(159 67)"/>
			<path d="m-4.224-4.7285h33.6787v69.1325h-33.6787z" mask="url(#n)" transform="translate(225 86)"/>
			<path d="m-4.8819-4.7599h27.0759v28.1685h-27.0759z" mask="url(#o)" transform="translate(168 78)"/>
			<path d="m-4.4687-4.7645h34.0682v20.6793h-34.0682z" mask="url(#p)" transform="translate(195 83)"/>
			<path d="m-4.2078-4.688h32.2478v26.7995h-32.2478z" mask="url(#q)" transform="translate(196 134)"/>
			<path d="m-4.0418-4.392h17.4098v21.5879h-17.4098z" mask="url(#r)" transform="translate(234 89)"/>
			<path d="m-4.1355-4.3771h22.063v16.0269h-22.063z" mask="url(#s)" transform="translate(186 102)"/>
			<path d="m-4.5107-4.216h21.4865v18.704h-21.4865z" mask="url(#t)" transform="translate(177 99)"/>
			<path d="m-4.9466-4.2023h17.4934v12.7383h-17.4934z" mask="url(#u)" transform="translate(180 125)"/>
			<path d="m-4.832-4.7326h41.3419v17.303h-41.3419z" mask="url(#v)" transform="translate(171 116)"/>
		</g>
		<path d="m-4.3645-4.0412h25.3645v16.4412h-25.3645z" fill="#2a1b13" mask="url(#w)" transform="translate(198 84)"/>
		<path d="m-4.8451-4.3311h24.9835v14.8296h-24.9835z" fill="#2a1b13" mask="url(#x)" transform="translate(168 80)"/>
		<path d="m-4.0113-4.8195h97.196v85.1555h-97.196z" fill="#6a4f3d" mask="url(#y)" transform="translate(159 22)"/>
		<path d="m-4.3358-4.2074h99.2381v92.8714h-99.2381z" fill="#543f30" mask="url(#z)" transform="translate(159 17)"/>
		<path d="m-4.2742-4.248h31.0808v15.6489h-31.0808z" fill="#543f30" mask="url(#A)" transform="translate(195 77)"/>
		<path d="m-4.9694-4.0065h29.4015v16.1256h-29.4015z" fill="#543f30" mask="url(#B)" transform="translate(165 73)"/>
		<path d="m-4.248-4.156h12.8755v12.684h-12.8755z" fill="#000" mask="url(#C)" transform="translate(174 82)"/>
		<path d="m-4.544-4.8361h12.7154v12.5327h-12.7154z" fill="#000" mask="url(#D)" transform="translate(205 87)"/>
		<path d="m-4.0649-4.2081h11.486v11.4086h-11.486z" fill="#fff" mask="url(#E)" transform="translate(175 82)"/>
		<path d="m-4.4526-4.6087h11.5137v11.4227h-11.5137z" fill="#fff" mask="url(#F)" transform="translate(206 87)"/>
		<path d="m-4.352-4.4318h99.952v38.6843h-99.952z" fill="#655e62" mask="url(#G)" transform="translate(157 73)"/>
		<path d="m-4.7278-4.3524h52.7598v64.5379h-52.7598z" fill="#fff" mask="url(#H)" transform="translate(167 149)"/>
		<path d="m-4.7428-4.1962h232.1437v207.55535h-232.1437z" fill="#4c4c4c" mask="url(#I)"
					transform="translate(84 127)"/>
		<path d="m-4.2-4.8489h237.472v209.80104h-237.472z" fill="#202020" mask="url(#J)" transform="translate(82 125)"/>
		<path d="m-5-4.0605h123.696v52.59652h-123.696z" fill="#44689b" mask="url(#K)" transform="translate(136 313)"/>
		<path d="m-4.512-4.912h129.152v53.456h-129.152z" fill="#1f385c" mask="url(#L)" transform="translate(133 312)"/>
		<path d="m-4.7843-4.8723h15.217v15.42329h-15.217z" fill="#1f385c" mask="url(#M)" transform="translate(175 331)"/>
		<path d="m-4.8886-4.316h122.7031v44.16606h-122.7031z" fill="#563f2d" mask="url(#N)" transform="translate(138 311)"/>
		<path d="m-4.4576-4.93111h12.2897v12.01532h-12.2897z" fill="#3b2f25" mask="url(#O)" transform="translate(180 336)"/>
		<path d="m-4.0419-4.57696h12.2499v12.13405h-12.2499z" fill="#3b2f25" mask="url(#P)" transform="translate(192 335)"/>
		<path d="m-4.2164-4.76351h12.1764v12.05135h-12.1764z" fill="#3b2f25" mask="url(#Q)" transform="translate(170 336)"/>
		<path d="m-4.96-4.544h12.368v12.10638h-12.368z" fill="#3b2f25" mask="url(#R)" transform="translate(205 334)"/>
		<path d="m-4.4765-4.8224h123.9872v45.56192h-123.9872z" fill="#3b2f25" mask="url(#S)"
					transform="translate(137 311)"/>
		<path d="m-4.7972-4.856h17.3172v30.56552h-17.3172z" fill="#44689b" mask="url(#T)" transform="translate(212 323)"/>
		<path d="m-4.864-4.5461h18.4189v30.20416h-18.4189z" fill="#44689b" mask="url(#U)" transform="translate(143 320)"/>
		<path d="m-4.5485-4.8151h23.8831v32.61477h-23.8831z" fill="#1f385c" mask="url(#V)" transform="translate(142 319)"/>
		<path d="m-4.0801-4.1629h19.9121v32.7629h-19.9121z" fill="#1f385c" mask="url(#W)" transform="translate(210 321)"/>
		<path d="m-4.6859-4.296h13.2059v14.7339h-13.2059z" fill="#fff" mask="url(#X)" transform="translate(190 201)"/>
		<path d="m-4.976-4.304h13.072v13.904h-13.072z" fill="#fff" mask="url(#Y)" transform="translate(201 202)"/>
		<path d="m-4.88-4.5133h13.6978v13.9693h-13.6978z" fill="#fff" mask="url(#Z)" transform="translate(197 202)"/>
		<path d="m-4.288-4.688h13.319v13.9697h-13.319z" fill="#fff" mask="url(#aa)" transform="translate(193 202)"/>
		<path d="m-4.256-4.424h13.088v14.048h-13.088z" fill="#fff" mask="url(#ab)" transform="translate(217 203)"/>
		<path d="m-4.44-4.68h13.104v14.032h-13.104z" fill="#fff" mask="url(#ac)" transform="translate(214 203)"/>
		<path d="m-4.712-4.224h13.088v14.032h-13.088z" fill="#fff" mask="url(#ad)" transform="translate(204 202)"/>
		<path d="m-4.768-4.7866h13.12v14.0787h-13.12z" fill="#fff" mask="url(#ae)" transform="translate(211 203)"/>
		<path d="m-4.528-4.9209h13.36v13.9849h-13.36z" fill="#fff" mask="url(#af)" transform="translate(207 203)"/>
		<path d="m-4.536-4.368h14.768v13.264h-14.768z" fill="#ff5c20" mask="url(#ag)" transform="translate(190 198)"/>
		<path d="m-4.992-4.92h11.744v12.2261h-11.744z" fill="#fff" mask="url(#ah)" transform="translate(193 199)"/>
		<path d="m-4.04-4.952h12.016v12.208h-12.016z" fill="#fff" mask="url(#ai)" transform="translate(190 199)"/>
		<path d="m-4.7215-4.831h16.7058v17.6792h-16.7058z" fill="#ff5c20" mask="url(#aj)" transform="translate(181 198)"/>
		<path d="m-4.92-4.0592h15.488v11.1264h-15.488z" fill="#ff5c20" mask="url(#ak)" transform="translate(184 199)"/>
		<path d="m-4.832-4.4288h14.864v11.0976h-14.864z" fill="#ff5c20" mask="url(#al)" transform="translate(183 201)"/>
		<path d="m-4.9363-4.7309h13.8883v11.0476h-13.8883z" fill="#ff5c20" mask="url(#am)" transform="translate(184 203)"/>
		<path d="m-4.9707-4.817h112.1062v89.6225h-112.1062z" fill="#fec288" mask="url(#an)" transform="translate(288 189)"/>
		<path d="m-4.06105-4.4249h120.28155v116.3449h-120.28155z" fill="#fec288" mask="url(#ao)"
					transform="translate(0 150)"/>
		<path d="m-4.84136-4.6408h120.65736v119.9728h-120.65736z" fill="#805037" mask="url(#ap)"
					transform="translate(0 149)"/>
		<path d="m-4.9562-4.1384h112.9878v92.2744h-112.9878z" fill="#805037" mask="url(#aq)"
					transform="translate(288 187)"/>
		<path d="m-4.1531-4.5079h112.7684v80.3508h-112.7684z" fill="#fe5c20" mask="url(#ar)" transform="translate(150 6)"/>
		<path d="m-4.8011-4.9959h114.5921v82.7799h-114.5921z" fill="#a0370f" mask="url(#as)" transform="translate(149 5)"/>
		<path d="m-4.392-4.9213h22.336v13.0269h-22.336z" fill="#fff" mask="url(#at)" transform="translate(184 41)"/>
		<path d="m-4.584-4.2818h20.9441v12.8881h-20.9441z" fill="#fff" mask="url(#au)" transform="translate(182 44)"/>
		<path d="m-4.6325-4.3955h18.705v12.7253h-18.705z" fill="#fff" mask="url(#av)" transform="translate(184 48)"/>
		<path d="m-4.7667-4.6991h25.3715v27.5716h-25.3715z" fill="#fff" mask="url(#aw)" transform="translate(178 37)"/>
	</g>
</svg>
