<?xml version="1.0" encoding="UTF-8"?>
<svg width="13px" height="13px" viewBox="0 0 13 13" version="1.1" xmlns="http://www.w3.org/2000/svg">
  <!-- Generator: Sketch 53.2 (72643) - https://sketchapp.com -->
  <title>icon/systemMessages/note</title>
  <desc>Created with Sketch.</desc>
  <g id="icon/systemMessages/note" stroke="none" stroke-width="1" fill="none" fill-rule="evenodd">
    <path
      d="M11.1145833,10.4502229 C11.0711803,10.5785977 11.0234378,10.6693441 10.9713542,10.7224647 L9.76692708,11.950873 C9.71484349,12.0039936 9.62586868,12.0526868 9.5,12.0969539 L9.5,10.4502229 L11.1145833,10.4502229 Z M3.51515152,3.41901932 L10.4848485,3.41901932 L10.4848485,4.346211 L3.51515152,4.346211 L3.51515152,3.41901932 Z M3.51515152,5.27340267 L7.45454545,5.27340267 L7.45454545,6.20059435 L3.51515152,6.20059435 L3.51515152,5.27340267 Z M3.51515152,7.12778603 L9.27272727,7.12778603 L9.27272727,8.05497771 L3.51515152,8.05497771 L3.51515152,7.12778603 Z M9.29166667,9.60029718 L11.1666667,9.60029718 L11.0909091,0.946508172 L2.75757576,0.946508172 L2.83333333,12.1500743 L8.66666667,12.1500743 L8.66666667,10.2377415 C8.66666667,10.0606727 8.72742995,9.91016654 8.84895833,9.78621842 C8.97048672,9.66227031 9.11805469,9.60029718 9.29166667,9.60029718 Z M12,0.637444279 L12,10.2377415 C12,10.4148102 11.9565977,10.6095829 11.8697917,10.8220654 C11.7829857,11.0345479 11.6788201,11.2027606 11.5572917,11.3267088 L10.359375,12.548477 C10.2378466,12.6724251 10.0729177,12.7786647 9.86458333,12.8671991 C9.65624896,12.9557335 9.46527865,13 9.29166667,13 L2.625,13 C2.45138802,13 2.30382005,12.9380269 2.18229167,12.8140788 C2.06076328,12.6901306 2,12.5396245 2,12.3625557 L2,0.637444279 C2,0.460375539 2.06076328,0.309869367 2.18229167,0.185921248 C2.30382005,0.0619731296 2.45138802,0 2.625,0 L11.375,0 C11.548612,0 11.6961799,0.0619731296 11.8177083,0.185921248 C11.9392367,0.309869367 12,0.460375539 12,0.637444279 Z"
      id="noteicon" fill="#858585"></path>
  </g>
</svg>
