<svg width="30" height="18" xmlns="http://www.w3.org/2000/svg"><path d="M21.887 5.498h-4.592v7.004h4.592V15.8a2.2 2.2 0 0 1-2.2 2.2H2.2A2.2 2.2 0 0 1 0 15.8V2.2A2.2 2.2 0 0 1 2.2 0h17.487a2.2 2.2 0 0 1 2.2 2.2v3.298zM6.019 8.438V7.312c0-.933-.733-1.687-1.642-1.687H1.642v6.75h1.641v-2.25h1.094c.909 0 1.642-.754 1.642-1.688zm5.472 2.25V7.312c0-.933-.734-1.687-1.642-1.687H7.113v6.75H9.85c.908 0 1.642-.754 1.642-1.688zm4.377-3.376V5.625h-3.283v6.75h1.641v-2.25h1.642V8.437h-1.642V7.313h1.642zM3.283 8.438V7.313h1.094v1.125H3.283zm5.472 2.25V7.313h1.094v3.375H8.755zm14.758-7.159L29.138 9l-5.625 5.472v-3.283h-4.5V6.81h4.5V3.528z" fill="#FFF" fill-rule="evenodd"/></svg>