<?xml version="1.0" encoding="UTF-8"?>
<svg width="24px" height="24px" viewBox="0 0 24 24" version="1.1" xmlns="http://www.w3.org/2000/svg" xmlns:xlink="http://www.w3.org/1999/xlink">
    <!-- Generator: sketchtool 59.1 (101010) - https://sketch.com -->
    <title>A68E069F-04D5-4B30-9911-C5F33603D36D</title>
    <desc>Created with sketchtool.</desc>
    <g id="Asset-Artboard-Page" stroke="none" stroke-width="1" fill="none" fill-rule="evenodd">
        <g id="icons/bar/edit/compact/big" fill="#34180E">
            <path d="M13.6101551,-0.0898448916 C14.1624399,-0.0898448916 14.6101551,0.396802119 14.6101551,0.99711163 L14.6101551,0.99711163 L14.6101551,19.4753725 C14.6101551,19.6441172 14.57401,19.8105444 14.5045823,19.9614742 L14.5045823,19.9614742 L12.5045823,24.3093003 C12.136058,25.11044 11.0842522,25.11044 10.7157279,24.3093003 L10.7157279,24.3093003 L8.71572792,19.9614742 C8.6463002,19.8105444 8.61015511,19.6441172 8.61015511,19.4753725 L8.61015511,19.4753725 L8.61015511,0.99711163 C8.61015511,0.396802119 9.05787036,-0.0898448916 9.61015511,-0.0898448916 L9.61015511,-0.0898448916 Z M12.6091551,5.91015511 L10.6091551,5.91015511 L10.6101551,19.6584014 L11.6101551,21.9101551 L12.6101551,19.6584014 L12.6091551,5.91015511 Z M12.6101551,1.91015511 L10.6101551,1.91015511 L10.6091551,3.91015511 L12.6091551,3.91015511 L12.6101551,1.91015511 Z" id="Icon-color" transform="translate(11.610155, 12.410155) rotate(45.000000) translate(-11.610155, -12.410155) "></path>
        </g>
    </g>
</svg>