<?xml version="1.0" encoding="UTF-8"?>
<svg width="27px" height="26px" viewBox="0 0 27 26" version="1.1" xmlns="http://www.w3.org/2000/svg">
	<!-- Generator: Sketch 55.1 (78136) - https://sketchapp.com -->
	<title>Reinvite_icon</title>
	<desc>Created with Sketch.</desc>
	<g id="Reinvite_icon" stroke="none" stroke-width="1" fill="none" fill-rule="evenodd">
		<g id="Group-2-Copy-2">
			<g id="Group">
				<circle id="Oval" fill="#888B8D" cx="13" cy="13" r="13"></circle>
				<g id="Group-Copy" transform="translate(3.791667, 5.958333)" fill="#F2F2F2" stroke="#F2F2F2">
					<path
						d="M6.07645351,13.2905102 L7.25141815,12.1155456 C7.87933089,12.3751593 8.56636512,12.5184751 9.28571429,12.5184751 C12.2803571,12.5184751 14.702381,10.0698631 14.702381,7.04186227 C14.702381,4.0138615 12.2803571,1.56485828 9.28571429,1.56485828 C6.29107143,1.56485828 3.86904762,4.0138615 3.86904762,7.04186227 L6.19047619,7.04186227 L3.01011905,10.0855116 L0,7.04186227 L2.32142857,7.04186227 C2.32142857,3.15318944 5.43988095,0 9.28571429,0 C13.1315476,0 16.25,3.15318944 16.25,7.04186227 C16.25,10.9305351 13.1315476,14.0833333 9.28571429,14.0833333 C8.12555354,14.0833333 7.03552921,13.7968259 6.07645351,13.2905102 Z"
						id="Combined-Shape"></path>
				</g>
			</g>
		</g>
	</g>
</svg>
