<svg width="331" height="65" xmlns="http://www.w3.org/2000/svg">
	<g fill="none" fill-rule="evenodd">
		<path
			d="M93.964 48.974c-5.777 0-13.013-3.348-13.013-10.972V26.54c0-7.623 7.236-10.971 13.013-10.971 6.021 0 11.995 3.055 12.629 9.224 0 1.166-.392 1.407-1.512 1.407h-4.657c-1.02 0-1.067-.921-1.459-1.502-1.016-1.605-2.377-2.334-5.001-2.334-3.203 0-5.39 1.8-5.39 4.856v10.102c0 3.108 2.187 4.855 5.39 4.855 2.624 0 4.713-.972 5.1-3.301.142-.972.241-1.748 1.313-1.748h4.756c1.068 0 1.46.483 1.46 1.65 0 6.262-6.608 10.196-12.63 10.196zM330.445 47.4c-.128.536-.5.848-1.351.848H307.34c-1.116 0-1.408-.534-1.408-1.408V17.704c0-.874.292-1.408 1.408-1.408h20.926c1.119 0 1.41.534 1.41 1.408v4.029c0 .874-.291 1.411-1.41 1.411h-14.664v5.29h13.015c1.116 0 1.408.534 1.408 1.408v3.788c0 .874-.292 1.406-1.408 1.406h-13.015v6.414h15.49c.852 0 1.224.311 1.352.847V47.4zm-26.663-29.695v4.029c0 .874-.293 1.411-1.409 1.411h-7.428V46.84c0 1.115-.533 1.408-1.407 1.408h-4.807c-.875 0-1.408-.293-1.408-1.408V23.144h-7.48c-1.116 0-1.408-.537-1.408-1.411v-4.03c0-.873.292-1.407 1.407-1.407h22.531c1.116 0 1.41.534 1.41 1.408zm-34.399 9.516c0-3.107-2.234-4.902-5.436-4.902-3.158 0-5.392 1.795-5.392 4.902v10.102c0 3.108 2.234 4.904 5.392 4.904 3.202 0 5.436-1.796 5.436-4.904V27.22zm7.625 10.782c0 7.67-7.285 10.972-13.061 10.972-5.78 0-12.969-3.302-12.969-10.972V26.54c0-7.67 7.19-10.971 12.969-10.971 5.776 0 13.06 3.301 13.06 10.97v11.463zm-29.21-20.298v29.135c0 .874-.294 1.408-1.41 1.408h-4.419c-1.213 0-1.554-.68-2.182-1.653L229.49 29.94V46.84c0 1.115-.533 1.408-1.407 1.408h-4.808c-.874 0-1.407-.293-1.407-1.408V17.704c0-.874.292-1.408 1.407-1.408h4.563c1.213 0 1.554.68 2.187 1.653l10.295 16.606V17.704c0-1.115.533-1.408 1.408-1.408h4.66c.875 0 1.41.293 1.41 1.408zm-28.081 0v4.029c0 .874-.292 1.411-1.407 1.411h-7.43V46.84c0 1.115-.534 1.408-1.407 1.408h-4.808c-.874 0-1.408-.293-1.408-1.408V23.144h-7.48c-1.116 0-1.408-.537-1.408-1.411v-4.03c0-.873.292-1.407 1.408-1.407h22.533c1.115 0 1.407.534 1.407 1.408zm-26.668 0v3.98c0 .875-.293 1.409-1.407 1.409h-14.665v5.681h12.625c1.117 0 1.407.534 1.407 1.408v3.839c0 .874-.29 1.408-1.407 1.408h-12.625v11.363c0 1.26-.293 1.455-1.408 1.455h-4.808c-1.115 0-1.407-.534-1.407-1.408V17.704c0-.874.292-1.408 1.407-1.408h20.881c1.114 0 1.407.534 1.407 1.408zm-37.094 18.452l-3.641-10.731-3.642 10.73h7.283zm10.588 12.09h-5.1c-1.068 0-1.456-.292-1.847-1.454l-1.356-3.84h-11.898l-1.359 3.84c-.388 1.162-.779 1.455-1.847 1.455h-5.096c-1.069 0-1.069-.78-.826-1.36l10.778-29.084c.39-1.02.925-1.507 1.992-1.507h4.662c1.067 0 1.554.487 1.99 1.507l10.732 29.084c.243.58.243 1.36-.825 1.36zm-31.729 0h-5.726c-1.166 0-1.746-.44-2.426-1.454l-5.248-7.821c-.439-.58-.533-1.115-.533-2.475v-3.887c0-.874.292-1.408 1.408-1.408h.972c2.38 0 4.61-1.647 4.61-3.93 0-2.526-1.941-4.127-4.467-4.127h-6.458V46.84c0 1.115-.533 1.408-1.407 1.408h-4.808c-.873 0-1.356-.293-1.356-1.408V17.75c0-.874.237-1.407 1.356-1.407h12.237c5.291 0 7.623 1.067 9.663 3.108 1.796 1.747 2.815 4.515 2.815 7.622 0 5.1-3.74 8.643-6.75 9.663l6.85 9.956c.438.68.192 1.554-.732 1.554z"
			fill="#1E1B1E"/>
		<path
			d="M3.235 61.307a10.968 10.968 0 0 0 7.77 3.236h42.532a10.97 10.97 0 0 0 7.77-3.236 10.97 10.97 0 0 0 3.236-7.77V11.005a10.97 10.97 0 0 0-3.235-7.77A10.971 10.971 0 0 0 53.538 0H11.005a10.97 10.97 0 0 0-7.771 3.235A10.97 10.97 0 0 0 0 11.005v42.532c0 3.024 1.239 5.775 3.235 7.77zm26.416-7.16c-3.034-.002-6.38-.08-9.528-1.507a16.845 16.845 0 0 1-6.04-4.62C8.896 41.852 8.728 33.72 8.726 32.815l-.001-.739v-.352c.01-1.307.29-9.128 5.306-15.15 1.573-1.938 3.655-3.546 5.999-4.623 3.348-1.54 6.936-1.552 10.121-1.555h2.637l10.734.037c1.46-.003 2.644 1.188 2.648 2.662.003 1.474-1.177 2.67-2.636 2.674l-12.14-.043-1.231.006c-2.872.025-5.633.013-7.945 1.075a11.53 11.53 0 0 0-4.123 3.176c-4.058 4.871-4.089 11.552-4.088 11.834l.002.985c0 .283.062 6.963 4.122 11.79a11.58 11.58 0 0 0 4.158 3.182c2.316 1.05 5.083 1.036 7.95 1.036h1.231l1.642-.037a430.88 430.88 0 0 1 4.956-.05c1.46-.002 2.644 1.188 2.647 2.662.004 1.474-1.175 2.67-2.635 2.674-1.632.004-3.263.027-4.896.05l-1.741.037h-1.792zm14.983-9.705l-16.465.04c-1.61.003-2.923-1.123-2.926-2.511l-.001-.314c-.003-1.388 1.304-2.522 2.914-2.525l16.465-.039c1.61-.004 2.922 1.123 2.926 2.511v.314c.004 1.389-1.303 2.52-2.913 2.524zm-24.986-11.96v-.316c-.003-1.403 1.317-2.548 2.944-2.552l21.977-.052c1.627-.004 2.953 1.135 2.956 2.538v.318c.004 1.402-1.317 2.547-2.943 2.55l-21.978.052c-1.627.004-2.952-1.134-2.956-2.537zm33.098-7.12l-25.278.06c-1.696.005-3.079-1.122-3.083-2.51v-.314c-.004-1.388 1.374-2.52 3.07-2.524l25.279-.06c1.696-.005 3.08 1.121 3.082 2.51l.002.313c.003 1.388-1.375 2.522-3.072 2.526z"
			fill="#EC6836"/>
	</g>
</svg>
