<svg height="38" viewBox="0 0 38 38" width="38" xmlns="http://www.w3.org/2000/svg">
	<g fill="none" fill-rule="evenodd">
		<path d="m0 0h38v38h-38z" fill="#3c5899"/>
		<path
			d="m25 7.45610796c-.6015046-.13302899-1.1714272-.24162042-1.7098839-.32577429-.5384567-.08415386-1.1241993-.12757845-1.7571698-.13033367-1.8438606.00814585-3.1755152.4479621-3.9950217 1.31938885-.8195065.87148665-1.2213787 2.12570865-1.2055588 3.76278585v2.3781702h-2.3323658v3.8441845h2.3323658v11.6954706h4.5386937v-11.6954706h3.309434l.3151814-3.8441845h-3.6246733v-1.8569553c-.0262507-.5266654.0498935-.9392889.2284906-1.2379902.178597-.2986414.6172085-.4506574 1.3158926-.456108.2790795.0013776.6034168.0231199.9731277.0651669.369653.0421068.7176911.0963726 1.0440566.1629171z"
			fill="#fff" fill-rule="nonzero"/>
	</g>
</svg>
