<svg height="38" viewBox="0 0 38 38" width="38" xmlns="http://www.w3.org/2000/svg">
	<g fill="none" fill-rule="evenodd">
		<path
			d="m2.5638852 0h32.8722296c.8915187 0 1.214805.09282561 1.5407309.2671327.3259259.1743071.5817145.43009567.7560216.7560216.1743071.32592592.2671327.64921216.2671327 1.5407309v32.8722296c0 .8915187-.0928256 1.214805-.2671327 1.5407309s-.4300957.5817145-.7560216.7560216-.6492122.2671327-1.5407309.2671327h-32.8722296c-.89151874 0-1.21480498-.0928256-1.5407309-.2671327-.32592593-.1743071-.5817145-.4300957-.7560216-.7560216-.17430709-.3259259-.2671327-.6492122-.2671327-1.5407309v-32.8722296c0-.89151874.09282561-1.21480498.2671327-1.5407309.1743071-.32592593.43009567-.5817145.7560216-.7560216.32592592-.17430709.64921216-.2671327 1.5407309-.2671327z"
			fill="#de4b39"/>
		<path
			d="m18.5 9c-5.7989532 0-10.5 4.7010469-10.5 10.5s4.7010468 10.5 10.5 10.5c5.7989527 0 10.5-4.7010469 10.5-10.5-.0017232-.6608438-.0657896-1.3199648-.1914615-1.96875h-10.3085385v3.9375h6.2587378c-.8596054 2.7334453-3.3933046 4.5930938-6.2587378 4.59375-3.6243869 0-6.5625001-2.9381133-6.5625001-6.5625s2.9381132-6.5625 6.5625001-6.5625c1.7398825.0015586 3.4079879.6939844 4.6374723 1.9250273l2.7824999-2.7825c-1.9671914-1.9697343-4.6361601-3.07756636-7.4199722-3.0800273z"
			fill="#fff" fill-rule="nonzero"/>
	</g>
</svg>
