<?xml version="1.0" encoding="UTF-8"?>
<svg width="100px" height="100px" viewBox="0 0 100 100" version="1.1" xmlns="http://www.w3.org/2000/svg">
    <g id="registration-screen" stroke="none" stroke-width="1" fill="none" fill-rule="evenodd">
        <g id="emailverified-loading-web" transform="translate(-670.000000, -450.000000)" fill="#FF5C20">
            <path d="M674.96124,544.891641 C678.062016,547.987616 682.248062,550 687.054264,550 L752.945736,550 C757.596899,550 761.937984,548.142415 765.03876,544.891641 C768.139535,541.795666 770,537.616099 770,532.817337 L770,467.027864 C770,462.383901 768.139535,458.049536 765.03876,454.95356 C761.937984,451.857585 757.751938,450 752.945736,450 L687.054264,450 C682.403101,450 678.062016,451.857585 674.96124,454.95356 C671.860465,458.049536 670,462.229102 670,467.027864 L670,532.817337 C670,537.616099 671.860465,541.795666 674.96124,544.891641 Z M715.891473,533.900929 C711.24031,533.900929 705.968992,533.74613 701.007752,531.578947 C697.44186,529.876161 694.186047,527.399381 691.705426,524.458204 C683.643411,514.860681 683.333333,502.321981 683.333333,500.928793 L683.333333,499.845201 L683.333333,499.380805 C683.333333,497.368421 683.79845,485.294118 691.550388,475.851393 C694.031008,472.910217 697.131783,470.433437 700.852713,468.73065 C705.968992,466.408669 711.550388,466.25387 716.511628,466.25387 L716.666667,466.25387 L720.697674,466.25387 L737.286822,466.408669 C739.457364,466.408669 741.317829,468.266254 741.317829,470.588235 C741.317829,472.910217 739.457364,474.767802 737.286822,474.767802 L718.527132,474.613003 L716.666667,474.613003 C712.170543,474.613003 707.984496,474.613003 704.263566,476.160991 C701.782946,477.399381 699.612403,478.947368 697.906977,481.114551 C691.550388,488.544892 691.550388,498.916409 691.550388,499.380805 L691.550388,500.928793 C691.550388,501.393189 691.705426,511.609907 697.906977,519.195046 C699.612403,521.362229 701.937984,522.910217 704.418605,524.148607 C707.984496,525.696594 712.325581,525.696594 716.666667,525.696594 L718.527132,525.696594 L721.007752,525.541796 C723.488372,525.541796 726.124031,525.541796 728.75969,525.386997 C730.930233,525.386997 732.790698,527.244582 732.790698,529.566563 C732.790698,531.888545 730.930233,533.74613 728.75969,533.74613 C726.27907,533.74613 723.643411,533.74613 721.162791,533.74613 L718.527132,533.900929 L716.666667,533.900929 L716.20155,533.900929 L715.891473,533.900929 L715.891473,533.900929 Z M739.147287,518.73065 L713.565891,518.885449 C711.085271,518.885449 709.069767,517.182663 709.069767,515.01548 L709.069767,514.551084 C709.069767,512.383901 711.085271,510.681115 713.565891,510.681115 L739.147287,510.681115 C741.627907,510.681115 743.643411,512.383901 743.643411,514.551084 L743.643411,515.01548 C743.643411,517.027864 741.627907,518.73065 739.147287,518.73065 Z M700.387597,500.309598 L700.387597,499.845201 C700.387597,497.678019 702.403101,495.820433 704.883721,495.820433 L738.992248,495.665635 C741.472868,495.665635 743.488372,497.52322 743.488372,499.690402 L743.488372,500.154799 C743.488372,502.321981 741.472868,504.179567 738.992248,504.179567 L704.883721,504.334365 C702.55814,504.179567 700.387597,502.47678 700.387597,500.309598 Z M751.705426,489.318885 L712.48062,489.473684 C709.844961,489.473684 707.674419,487.770898 707.674419,485.603715 L707.674419,485.139319 C707.674419,482.972136 709.844961,481.26935 712.48062,481.26935 L751.705426,481.114551 C754.341085,481.114551 756.511628,482.817337 756.511628,484.98452 L756.511628,485.448916 C756.511628,487.4613 754.341085,489.318885 751.705426,489.318885 Z" id="Shape"></path>
        </g>
    </g>
</svg>
