<?xml version="1.0" encoding="UTF-8"?>
<svg width="40px" height="32px" viewBox="0 0 40 32" version="1.1" xmlns="http://www.w3.org/2000/svg">
    <!-- Generator: Sketch 63.1 (92452) - https://sketch.com -->
    <title>noun_hand money_2280697</title>
    <desc>Created with Sketch.</desc>
    <g id="registration-screen" stroke="none" stroke-width="1" fill="none" fill-rule="evenodd">
        <g id="Regis-screen-02" transform="translate(-60.000000, -193.000000)" fill="#FFFFFF" fill-rule="nonzero">
            <g id="noun_hand-money_2280697" transform="translate(60.000000, 193.000000)">
                <path d="M4.78126627,19.9619701 L8.5867592,17.1282402 C9.58589887,16.6161154 10.7311777,16.5223307 11.7929619,16.8656902 L24.1469019,20.8265746 C24.4541452,20.9250978 24.6970305,21.1752308 24.7983028,21.497413 C24.8995751,21.8195953 24.8466265,22.1737171 24.6562985,22.4471421 C24.4604288,22.7369137 24.136135,22.8980938 23.8001696,22.8726543 L16.0136774,22.3520809 C15.5952255,22.3233304 15.2339634,22.6587466 15.2067759,23.1012539 C15.1795883,23.5437612 15.4967707,23.9257911 15.9152225,23.9545416 L23.7017148,24.4705882 L23.8600987,24.4705882 C24.6825896,24.4703613 25.4525367,24.0430389 25.9199511,23.3273656 C26.3873654,22.6116922 26.4926465,21.6989241 26.2016112,20.885422 C25.9255104,20.118086 25.3299986,19.52843 24.5878082,19.2874881 L12.2338683,15.3311304 C10.7840692,14.86391 9.22011257,15.0015969 7.86333029,15.715902 L7.76487546,15.7792762 L4.02787284,18.5632121 L0.603357265,19.4323433 C0.334808992,19.491428 0.117429964,19.6993881 0.0350198616,19.9760549 C-0.0473902406,20.2527216 0.0180394558,20.554885 0.206085783,20.766061 C0.39413211,20.977237 0.675425849,21.0644439 0.941528178,20.9940634 L4.52014696,20.0887184 C4.6141049,20.0646812 4.70277526,20.0216402 4.78126627,19.9619701 L4.78126627,19.9619701 Z" id="Path"></path>
                <path d="M39.6960129,19.5299951 C39.0467647,18.1949129 37.5313166,17.5593421 36.1536301,18.0443386 L28.2616306,20.826648 C28.0701116,20.8925852 27.9123643,21.034289 27.8236173,21.220114 C27.7348702,21.4059389 27.7225157,21.6204062 27.7893128,21.8156205 C27.9273924,22.2206694 28.3583536,22.4363488 28.7554173,22.2991182 L36.6517106,19.5168088 C37.3258052,19.2907105 38.0574618,19.6252862 38.3427751,20.2901076 C38.6280884,20.9549289 38.3738751,21.7328652 37.7552165,22.0881374 L23.3924643,30.0306856 C22.5442854,30.5031441 21.5358453,30.5690704 20.6358464,30.2108984 C7.63852183,24.9891235 7.23490488,24.9979143 6.99015843,24.9935189 C6.88794023,24.9975332 6.78739879,25.021399 6.69388641,25.0638458 L3.14720979,26.6945516 C2.78370529,26.880836 2.62775903,27.3269522 2.79328525,27.7070252 C2.95881147,28.0870981 3.38719613,28.2665413 3.76551661,28.1142766 L7.08032817,26.5978521 C7.97773182,26.8791598 11.7691549,28.3252575 20.0819466,31.656996 C21.3956434,32.1900367 22.8727572,32.0982492 24.1138223,31.4064563 L38.4765745,23.4595126 C39.852824,22.7015668 40.3926509,20.9620291 39.6960129,19.5299951 Z" id="Path"></path>
                <path d="M18.1818182,12.5323321 C18.1818182,12.7446958 18.2617827,12.9483616 18.4041205,13.0985255 C18.5464584,13.2486893 18.7395099,13.3330504 18.9408059,13.3330504 L19.7555386,13.3330504 C20.274673,14.7552238 21.3179385,15.8947498 22.6471566,16.4914737 C23.9763746,17.0881975 25.4780713,17.0911775 26.8094078,16.4997333 C27.1954299,16.3273406 27.3758942,15.8574504 27.2124861,15.4502041 C27.0490779,15.0429578 26.6036768,14.8525712 26.2176547,15.0249638 C25.7471915,15.2360019 25.2409171,15.3437475 24.7296956,15.3416321 C23.374457,15.3390883 22.1216755,14.5801652 21.4364606,13.3466219 L24.4381071,13.3466219 C24.8572845,13.3466219 25.1970949,12.9881281 25.1970949,12.5459036 C25.1970949,12.103679 24.8572845,11.7451852 24.4381071,11.7451852 L20.9304688,11.7451852 C20.9126775,11.5951316 20.9040835,11.4440232 20.9047404,11.2928019 C20.9047404,11.2249444 20.9047404,11.1616108 20.9047404,11.0937533 L24.4509713,11.0937533 C24.8701487,11.0937533 25.2099591,10.7352595 25.2099591,10.2930349 C25.2099591,9.85081038 24.8701487,9.49231655 24.4509713,9.49231655 L21.3121067,9.49231655 C22.2137301,7.59290426 24.3556946,6.75464777 26.2133666,7.57421152 C26.5865366,7.68884524 26.9814906,7.48754827 27.1283091,7.10789097 C27.2751276,6.72823367 27.126361,6.29291572 26.7836794,6.09944209 C26.1293717,5.80254099 25.4248059,5.64864777 24.7125433,5.64705882 C22.4246171,5.65872373 20.3980976,7.20713925 19.6740653,9.49684038 L18.9408059,9.49684038 C18.5216286,9.49684041 18.1818182,9.85533423 18.1818182,10.2975588 C18.1818182,10.7397833 18.5216286,11.0982771 18.9408059,11.0982771 L19.395341,11.0982771 C19.395341,11.1661346 19.395341,11.2294683 19.395341,11.2973258 C19.395341,11.4466122 19.395341,11.5913749 19.395341,11.749709 L18.9408059,11.749709 C18.5282366,11.7495979 18.1911418,12.09719 18.1818182,12.5323321 Z" id="Path"></path>
                <path d="M13.7289212,13.4887592 C14.1279892,13.4184118 14.3996305,13.0231562 14.3389244,12.6011652 C14.258108,12.0773449 14.21731,11.5475225 14.2169238,11.0168099 C14.2116316,6.90534372 16.722734,3.26037472 20.4313705,1.99628319 C24.140007,0.732191664 28.1980942,2.13804748 30.4742774,5.47547874 C32.7504605,8.81291 32.7242266,13.3187197 30.409354,16.626404 C30.2437937,16.8654538 30.2188359,17.1820935 30.3446971,17.4467058 C30.4705583,17.7113182 30.726108,17.8794783 31.0067364,17.8823529 C31.2429228,17.883092 31.4651068,17.764248 31.6041189,17.5628156 C34.4182387,13.5260645 34.298914,7.99533333 31.3136139,4.09782497 C28.3283137,0.200316613 23.2274897,-1.08420421 18.8952654,0.970560199 C14.563041,3.0253246 12.088461,7.90284278 12.8707098,12.8452535 C12.9025955,13.051186 13.0112635,13.2350985 13.172485,13.3559859 C13.3337065,13.4768733 13.5340767,13.5246844 13.7289212,13.4887592 Z" id="Path"></path>
            </g>
        </g>
    </g>
</svg>
