<?xml version="1.0" encoding="UTF-8"?>
<svg width="34px" height="28px" viewBox="0 0 34 28" version="1.1" xmlns="http://www.w3.org/2000/svg">
    <!-- Generator: Sketch 63.1 (92452) - https://sketch.com -->
    <title>Group 9</title>
    <desc>Created with Sketch.</desc>
    <g id="Files" stroke="none" stroke-width="1" fill="none" fill-rule="evenodd">
        <g id="mb-filessection-move-01" transform="translate(-23.000000, -136.000000)">
            <g id="Group-3" transform="translate(20.000000, 130.000000)">
                <g id="Group-29">
                    <g id="Group-9">
                        <g id="folder-24px-(1)">
                            <path d="M16.6666667,6.66666667 L6.66666667,6.66666667 C4.83333333,6.66666667 3.35,8.16666667 3.35,10 L3.33333333,30 C3.33333333,31.8333333 4.83333333,33.3333333 6.66666667,33.3333333 L33.3333333,33.3333333 C35.1666667,33.3333333 36.6666667,31.8333333 36.6666667,30 L36.6666667,13.3333333 C36.6666667,11.5 35.1666667,10 33.3333333,10 L20,10 L16.6666667,6.66666667 Z" id="Path" fill="#34180E" fill-rule="nonzero"></path>
                            <polygon id="Path" points="0 0 40 0 40 40 0 40"></polygon>
                        </g>
                        <g id="description-24px" transform="translate(12.000000, 14.000000)">
                            <polygon id="Path" points="0 0 16 0 16 16 0 16"></polygon>
                            <path d="M9.33333333,1.33333333 L4,1.33333333 C3.26666667,1.33333333 2.67333333,1.93333333 2.67333333,2.66666667 L2.66666667,13.3333333 C2.66666667,14.0666667 3.26,14.6666667 3.99333333,14.6666667 L12,14.6666667 C12.7333333,14.6666667 13.3333333,14.0666667 13.3333333,13.3333333 L13.3333333,5.33333333 L9.33333333,1.33333333 Z M10.6666667,12 L5.33333333,12 L5.33333333,10.6666667 L10.6666667,10.6666667 L10.6666667,12 Z M10.6666667,9.33333333 L5.33333333,9.33333333 L5.33333333,8 L10.6666667,8 L10.6666667,9.33333333 Z M8.66666667,6 L8.66666667,2.33333333 L12.3333333,6 L8.66666667,6 Z" id="Shape" fill="#FFFFFF" fill-rule="nonzero"></path>
                        </g>
                    </g>
                </g>
            </g>
        </g>
    </g>
</svg>
