<?xml version="1.0" encoding="UTF-8"?>
<svg width="42px" height="32px" viewBox="0 0 42 32" version="1.1" xmlns="http://www.w3.org/2000/svg">
    <!-- Generator: Sketch 63.1 (92452) - https://sketch.com -->
    <title>noun_devices_196443</title>
    <desc>Created with Sketch.</desc>
    <g id="registration-screen" stroke="none" stroke-width="1" fill="none" fill-rule="evenodd">
        <g id="Regis-screen-02" transform="translate(-59.000000, -470.000000)" fill="#FFFFFF" fill-rule="nonzero">
            <g id="noun_devices_196443" transform="translate(59.000000, 470.000000)">
                <path d="M4.8,0.220689655 L34.1,0.220689655 C34.55,0.220689655 34.9,0.606896552 34.9,1.10344828 L34.9,5.73793103 C34.9,6.23448276 34.55,6.62068966 34.1,6.62068966 C33.65,6.62068966 33.3,6.23448276 33.3,5.73793103 L33.3,2.04137931 L5.65,2.04137931 L5.65,21.8482759 L26.15,21.8482759 C26.6,21.8482759 26.95,22.2344828 26.95,22.7310345 C26.95,23.2275862 26.6,23.6137931 26.15,23.6137931 L5.35,23.6137931 L2.45,30.0137931 L15.7,30.0137931 L16.25,28.8 C16.4,28.4689655 16.65,28.3034483 17,28.3034483 L22,28.3034483 C22.3,28.3034483 22.6,28.5241379 22.75,28.8 L23.3,30.0137931 L26.25,30.0137931 C26.7,30.0137931 27.05,30.4 27.05,30.8965517 C27.05,31.3931034 26.7,31.7793103 26.25,31.7793103 L1.25,31.7793103 C0.95,31.7793103 0.7,31.6137931 0.55,31.337931 C0.4,31.062069 0.4,30.7310345 0.5,30.4551724 L4.1,22.4551724 L4.1,1.10344828 C4,0.606896552 4.35,0.220689655 4.8,0.220689655 Z M41.7,9.43448276 L41.7,30.8965517 C41.7,31.3931034 41.35,31.7793103 40.9,31.7793103 L29.6,31.7793103 C29.15,31.7793103 28.8,31.3931034 28.8,30.8965517 L28.8,9.43448276 C28.8,8.93793103 29.15,8.55172414 29.6,8.55172414 L40.9,8.55172414 C41.3,8.55172414 41.7,8.93793103 41.7,9.43448276 Z M40.05,10.3172414 L30.35,10.3172414 L30.35,29.9586207 L40.05,29.9586207 L40.05,10.3172414 Z M36.35,27.4758621 L34.1,27.4758621 L34.1,28.9103448 L36.35,28.9103448 L36.35,27.4758621 L36.35,27.4758621 Z" id="Shape"></path>
            </g>
        </g>
    </g>
</svg>
