<?xml version="1.0" encoding="UTF-8"?>
<svg width="40px" height="35px" viewBox="0 0 40 35" version="1.1" xmlns="http://www.w3.org/2000/svg">
    <!-- Generator: Sketch 63.1 (92452) - https://sketch.com -->
    <title>noun_timer_2904924</title>
    <desc>Created with Sketch.</desc>
    <g id="registration-screen" stroke="none" stroke-width="1" fill="none" fill-rule="evenodd">
        <g id="Regis-screen-02" transform="translate(-60.000000, -288.000000)" fill="#FFFFFF" fill-rule="nonzero">
            <g id="noun_timer_2904924" transform="translate(60.000000, 288.000000)">
                <g id="Group">
                    <path d="M13.9220779,11.183432 C13.5064935,11.7011834 12.8831169,11.7011834 12.4675325,11.3905325 C11.9480519,11.0798817 11.9480519,10.3550296 12.2597403,9.9408284 C14.961039,6.52366864 19.012987,4.34911243 23.3766234,4.14201183 L23.3766234,2.07100592 L21.7142857,2.07100592 C21.0909091,2.07100592 20.6753247,1.65680473 20.6753247,1.03550296 C20.6753247,0.414201183 21.0909091,0 21.7142857,0 L27.1168831,0 C27.7402597,0 28.1558442,0.414201183 28.1558442,1.03550296 C28.1558442,1.65680473 27.7402597,2.07100592 27.1168831,2.07100592 L25.4545455,2.07100592 L25.4545455,4.14201183 C33.5584416,4.65976331 40,11.2869822 40,19.5710059 C40,28.0621302 33.038961,35 24.4155844,35 C19.7402597,35 15.2727273,32.8254438 12.2597403,29.2011834 C11.9480519,28.683432 11.9480519,28.0621302 12.4675325,27.7514793 C12.8831169,27.3372781 13.5064935,27.4408284 13.9220779,27.8550296 C16.5194805,31.0650888 20.3636364,32.9289941 24.4155844,32.9289941 C31.8961039,32.9289941 37.9220779,26.9230769 37.9220779,19.5710059 C37.9220779,12.1153846 31.8961039,6.10946746 24.4155844,6.10946746 C20.3636364,6.10946746 16.5194805,7.97337278 13.9220779,11.183432 Z" id="Path"></path>
                    <path d="M23.3766234,11.4940828 C23.3766234,10.9763314 23.7922078,10.4585799 24.4155844,10.4585799 C24.9350649,10.4585799 25.4545455,10.9763314 25.4545455,11.4940828 L25.4545455,18.535503 L30.1298701,18.535503 C30.6493506,18.535503 31.1688312,18.9497041 31.1688312,19.5710059 C31.1688312,20.0887574 30.6493506,20.6065089 30.1298701,20.6065089 L24.4155844,20.6065089 C23.8961039,20.6065089 23.3766234,20.0887574 23.3766234,19.5710059 L23.3766234,11.4940828 Z" id="Path"></path>
                    <path d="M3.22077922,16.0502959 C2.5974026,16.0502959 2.18181818,15.6360947 2.18181818,15.0147929 C2.18181818,14.4970414 2.5974026,13.9792899 3.22077922,13.9792899 L10.8051948,13.9792899 C11.3246753,13.9792899 11.8441558,14.4970414 11.8441558,15.0147929 C11.8441558,15.6360947 11.3246753,16.0502959 10.8051948,16.0502959 L3.22077922,16.0502959 Z" id="Path"></path>
                    <path d="M1.03896104,20.6065089 C0.415584416,20.6065089 0,20.0887574 0,19.5710059 C0,18.9497041 0.415584416,18.535503 1.03896104,18.535503 L10.8051948,18.535503 C11.3246753,18.535503 11.8441558,18.9497041 11.8441558,19.5710059 C11.8441558,20.0887574 11.3246753,20.6065089 10.8051948,20.6065089 L1.03896104,20.6065089 Z" id="Path"></path>
                    <path d="M3.22077922,25.0591716 C2.5974026,25.0591716 2.18181818,24.6449704 2.18181818,24.0236686 C2.18181818,23.5059172 2.5974026,22.9881657 3.22077922,22.9881657 L10.8051948,22.9881657 C11.3246753,22.9881657 11.8441558,23.5059172 11.8441558,24.0236686 C11.8441558,24.6449704 11.3246753,25.0591716 10.8051948,25.0591716 L3.22077922,25.0591716 Z" id="Path"></path>
                </g>
            </g>
        </g>
    </g>
</svg>
