<?xml version="1.0" encoding="UTF-8"?>
<svg width="53px" height="57px" viewBox="0 0 53 57" version="1.1" xmlns="http://www.w3.org/2000/svg">
	<title>Group 9</title>
	<desc>Created with Sketch.</desc>
	<g id="Files" stroke="none" stroke-width="1" fill="none" fill-rule="evenodd">
		<g id="mb-filessection-empty" transform="translate(-161.000000, -363.000000)" fill="#EAE7E6" fill-rule="nonzero">
			<g id="Group-13" transform="translate(60.000000, 363.000000)">
				<g id="Group-9" transform="translate(101.000000, 0.000000)" class="fill">
					<path
						d="M52.5834658,39.8616852 L44.7933227,23.6136725 C44.2925278,22.6120827 43.290938,22 42.2337043,22 L10.6279809,22 C9.51510334,22 8.51351351,22.6120827 8.06836248,23.6136725 L0.278219396,39.8616852 C0.111287758,40.2511924 1.8189894e-12,40.6963434 1.8189894e-12,41.0858506 L1.8189894e-12,54.1621622 C1.8189894e-12,55.7201908 1.27980922,57 2.83783784,57 L49.9682035,57 C51.5262321,57 52.8060413,55.7201908 52.8060413,54.1621622 L52.8060413,41.0858506 C52.8616852,40.6963434 52.7503975,40.2511924 52.5834658,39.8616852 Z M33.7201908,37.9697933 C32.6629571,37.9697933 31.6613672,38.6375199 31.327504,39.6391097 C30.6597774,41.6979332 28.7122417,43.200318 26.3751987,43.200318 C24.0381558,43.200318 22.1462639,41.6979332 21.4228935,39.6391097 C21.0890302,38.6375199 20.0874404,37.9697933 19.0302067,37.9697933 C15.190779,37.9697933 7.45627981,37.9697933 7.45627981,37.9697933 L12.3529412,27.7313196 L40.3418124,27.7313196 L45.2387724,37.9697933 C45.2941176,37.9141494 37.5596184,37.9141494 33.7201908,37.9697933 Z"
						id="Shape"></path>
					<g id="Group-8" transform="translate(10.921053, 0.000000)">
						<path
							d="M15.5789474,14 C16.4161567,14 17.0789474,12.9274194 17.0789474,11.5725806 L17.0789474,2.42741935 C17.0789474,1.07258065 16.4161567,0 15.5789474,0 C14.7417381,0 14.0789474,1.07258065 14.0789474,2.42741935 L14.0789474,11.516129 C14.0789474,12.8709677 14.7417381,14 15.5789474,14 Z"
							id="Path"></path>
						<path
							d="M26.9473684,15.3606273 C27.8873929,15.3606273 28.6315789,14.3128373 28.6315789,12.9893131 L28.6315789,4.05552473 C28.6315789,2.73200052 27.8873929,1.68421053 26.9473684,1.68421053 C26.0073439,1.68421053 25.2631579,2.73200052 25.2631579,4.05552473 L25.2631579,12.9341663 C25.2631579,14.2576905 26.0073439,15.3606273 26.9473684,15.3606273 Z"
							id="Path"
							transform="translate(26.947368, 8.522419) rotate(20.000000) translate(-26.947368, -8.522419) "></path>
						<path
							d="M4.21052632,15.3606273 C5.1505508,15.3606273 5.89473684,14.3128373 5.89473684,12.9893131 L5.89473684,4.05552473 C5.89473684,2.73200052 5.1505508,1.68421053 4.21052632,1.68421053 C3.27050184,1.68421053 2.52631579,2.73200052 2.52631579,4.05552473 L2.52631579,12.9341663 C2.52631579,14.2576905 3.27050184,15.3606273 4.21052632,15.3606273 Z"
							id="Path"
							transform="translate(4.210526, 8.522419) rotate(-20.000000) translate(-4.210526, -8.522419) "></path>
					</g>
				</g>
			</g>
		</g>
	</g>
</svg>
