<?xml version="1.0" encoding="UTF-8"?>
<svg width="19px" height="18px" viewBox="0 0 19 18" version="1.1" xmlns="http://www.w3.org/2000/svg">
	<g id="Page-1" stroke="none" stroke-width="1" fill="none" fill-rule="evenodd">
		<g id="dashboard-01-01" transform="translate(-30.000000, -172.000000)">
			<g id="Group-4" transform="translate(10.000000, 100.000000)">
				<g id="Group-22" transform="translate(1.000000, 69.000000)">
					<g id="dashboard-24px"
						 transform="translate(28.500000, 12.000000) rotate(-360.000000) translate(-28.500000, -12.000000) translate(16.500000, 0.000000)">
						<polygon id="Path" points="0 0 24 0 24 24 0 24"></polygon>
						<path class="fill"
									d="M19,5 L19,7 L15,7 L15,5 L19,5 M9,5 L9,11 L5,11 L5,5 L9,5 M19,13 L19,19 L15,19 L15,13 L19,13 M9,17 L9,19 L5,19 L5,17 L9,17 M21,3 L13,3 L13,9 L21,9 L21,3 Z M11,3 L3,3 L3,13 L11,13 L11,3 Z M21,11 L13,11 L13,21 L21,21 L21,11 Z M11,15 L3,15 L3,21 L11,21 L11,15 Z"
									id="Shape" fill="#34180E" fill-rule="nonzero"></path>
					</g>
				</g>
			</g>
		</g>
	</g>
</svg>
