<?xml version="1.0" encoding="UTF-8"?>
<svg width="32px" height="37px" viewBox="0 0 32 37" version="1.1" xmlns="http://www.w3.org/2000/svg">
    <!-- Generator: Sketch 63.1 (92452) - https://sketch.com -->
    <title>noun_Security_2498540</title>
    <desc>Created with Sketch.</desc>
    <g id="registration-screen" stroke="none" stroke-width="1" fill="none" fill-rule="evenodd">
        <g id="Regis-screen-02" transform="translate(-64.000000, -379.000000)" fill="#FFFFFF" fill-rule="nonzero">
            <g id="noun_Security_2498540" transform="translate(64.000000, 379.000000)">
                <g id="Group">
                    <path d="M30.5327967,7.1512605 L15.9421801,0.121666058 C15.581918,-0.0405553526 15.1616122,-0.0405553526 14.80135,0.121666058 L0.631039244,7.1512605 C0.150689726,7.36755572 -0.0894850327,7.90829375 0.0306023468,8.34088418 C0.0306023468,8.34088418 0.0306023468,8.39495798 0.0306023468,8.39495798 L0.0306023468,18.1823164 C0.0306023468,26.0770917 5.19435966,33.16076 13.1801704,36.2429668 L14.80135,36.8918524 C14.9814811,36.9459262 15.1015685,37 15.2816995,37 C15.4618306,37 15.581918,36.9459262 15.7620491,36.8918524 L17.6834471,36.1348191 C25.9094326,33.1066862 31.1932773,25.9689441 31.1932773,17.9660212 L31.1932773,8.07051516 C31.1932773,7.69199854 30.9531026,7.31348191 30.5327967,7.1512605 Z M29.0420168,17.9296271 C29.0420168,25.1000294 24.3490273,31.4556132 17.0087103,34.2259959 L15.5647136,34.8235294 L14.4215494,34.3346383 C7.26173209,31.5642557 2.68907563,25.2086718 2.68907563,18.146912 L2.68907563,8.58637565 L15.6248801,2.17647059 L29.0420168,8.64069688 L29.0420168,17.9296271 Z" id="Shape"></path>
                    <path d="M9.89579832,17.6294118 C9.46554622,17.1941176 8.82016807,17.1941176 8.38991597,17.6294118 C7.95966387,18.0647059 7.95966387,18.7176471 8.38991597,19.1529412 L12.9613445,23.7779412 C13.1764706,23.9955882 13.4453782,24.1044118 13.7142857,24.1044118 C13.9831933,24.1044118 14.2521008,23.9955882 14.4672269,23.7779412 L23.6638655,14.5279412 C24.0941176,14.0926471 24.0941176,13.4397059 23.6638655,13.0044118 C23.2336134,12.5691176 22.5882353,12.5691176 22.1579832,13.0044118 L13.7142857,21.4926471 L9.89579832,17.6294118 Z" id="Path"></path>
                </g>
            </g>
        </g>
    </g>
</svg>
