<?xml version="1.0" encoding="UTF-8"?>
<svg width="19px" height="18px" viewBox="0 0 19 18" version="1.1" xmlns="http://www.w3.org/2000/svg">
    <!-- Generator: Sketch 63.1 (92452) - https://sketch.com -->
    <title>login-24px</title>
    <desc>Created with Sketch.</desc>
    <g id="Menü-(mobile)" stroke="none" stroke-width="1" fill="none" fill-rule="evenodd">
        <g id="newmenue-profil" transform="translate(-104.000000, -853.000000)">
            <g id="Group-6" transform="translate(101.000000, 850.000000)">
                <g id="login-24px">
                    <rect id="Rectangle" x="0" y="0" width="24" height="24"></rect>
                    <path d="M17,7 L15.6,8.4 L18.2,11 L8,11 L8,13 L18.2,13 L15.6,15.6 L17,17 L22,12 L17,7 Z M5,19 L13,19 L13,21 L5,21 C3.9,21 3,20.1 3,19 L3,5 C3,3.9 3.9,3 5,3 L13,3 L13,5 L5,5 L5,19 Z" id="Shape" fill="#FF5C20" fill-rule="nonzero"></path>
                </g>
            </g>
        </g>
    </g>
</svg>
