<?xml version="1.0" encoding="UTF-8"?>
<svg width="125px" height="99px" viewBox="0 0 125 99" version="1.1" xmlns="http://www.w3.org/2000/svg">
	<!-- Generator: Sketch 63.1 (92452) - https://sketch.com -->
	<title>Group 9</title>
	<desc>Created with Sketch.</desc>
	<g id="Light-Mode" stroke="none" stroke-width="1" fill="none" fill-rule="evenodd">
		<g id="storage-01" transform="translate(-1169.000000, -350.000000)">
			<g id="Group" transform="translate(271.000000, 141.000000)">
				<g id="Group-9" transform="translate(898.000000, 209.000000)">
					<g id="Group-8" opacity="0.692266555" transform="translate(0.000000, 3.000000)">
						<g id="Group-5" opacity="0.701102121" transform="translate(67.800000, 0.000000)">
							<g id="Group-7" transform="translate(0.000000, 31.200000)">
								<g id="Group-6" transform="translate(0.000000, 11.200000)">
									<path
										d="M28.0671216,36.504 C27.3023216,36.504 26.5727216,36.3488 26.0271216,36.0344 L6.41272161,24.7096 C5.20872161,24.0152 5.35992161,22.8016 6.75032161,21.9992 L25.6895216,11.0648 C26.4495216,10.6256 27.4231216,10.4 28.3455216,10.4 C29.1103216,10.4 29.8399216,10.5544 30.3855216,10.8696 L49.9991216,22.1936 C51.2031216,22.8888 51.0527216,24.1032 49.6623216,24.9048 L30.7239216,35.8392 C29.9631216,36.2784 28.9895216,36.504 28.0671216,36.504"
										id="Fill-220" fill-opacity="0.2" fill="#FF5C20"></path>
									<path
										d="M26.0210259,31.8901115 L5.43862587,20.0069115 C4.17542587,19.2773115 4.33302587,18.0037115 5.79302587,17.1613115 L25.6658259,5.68691154 C27.1258259,4.84451154 29.3314259,4.75331154 30.5954259,5.48291154 L51.1778259,17.3661115 C52.4402259,18.0957115 52.2826259,19.3701115 50.8242259,20.2117115 L30.9498259,31.6861115 C29.4914259,32.5285115 27.2842259,32.6197115 26.0210259,31.8901115"
										id="Fill-235" fill-opacity="0.6" fill="#FF5C20"></path>
									<path
										d="M56.6082259,13.6181115 L56.6082259,5.14291154 L37.6050259,5.13331154 L31.0370259,1.34051154 C29.5298259,0.470911538 26.8970259,0.579711538 25.1562259,1.58451154 L19.0282259,5.12291154 L0.00742586724,5.11171154 L0.00742586724,13.8277115 C-0.0357741328,14.4165115 0.293825867,14.9853115 1.01782587,15.4037115 L25.5786259,29.5837115 C27.0866259,30.4541115 29.7194259,30.3445115 31.4602259,29.3397115 L55.1762259,15.6477115 C56.1802259,15.0685115 56.6642259,14.3173115 56.6082259,13.6181115"
										id="Fill-239" fill="#FF5C20"></path>
									<path
										d="M28.3082259,0.757311538 C27.2050259,0.784511538 26.0602259,1.06211154 25.1562259,1.58451154 L19.0282259,5.12291154 L0.00742586724,5.11171154 L0.00742586724,13.8277115 C-0.0357741328,14.4165115 0.293825867,14.9853115 1.01782587,15.4037115 L25.5786259,29.5837115 C26.3034259,30.0021115 27.2882259,30.1917115 28.3082259,30.1669115 L28.3082259,0.757311538"
										id="Fill-240" fill="#FF5C20"></path>
									<path
										d="M47.5738259,15.8549115 C47.5738259,16.4869115 47.1306259,17.2565115 46.5818259,17.5725115 C46.0338259,17.8893115 45.5906259,17.6333115 45.5906259,17.0005115 C45.5906259,16.3677115 46.0338259,15.5981115 46.5818259,15.2821115 C47.1306259,14.9661115 47.5738259,15.2221115 47.5738259,15.8549115"
										id="Fill-245" fill="#D4EAF2"></path>
									<path
										d="M50.7658259,14.0117115 C50.7658259,14.6445115 50.3218259,15.4133115 49.7738259,15.7301115 C49.2266259,16.0461115 48.7818259,15.7901115 48.7818259,15.1573115 C48.7818259,14.5245115 49.2266259,13.7557115 49.7738259,13.4397115 C50.3218259,13.1229115 50.7658259,13.3789115 50.7658259,14.0117115"
										id="Fill-246" fill="#D4EAF2"></path>
									<path
										d="M53.9578259,12.1693115 C53.9578259,12.8021115 53.5138259,13.5717115 52.9650259,13.8869115 C52.4178259,14.2037115 51.9738259,13.9469115 51.9738259,13.3141115 C51.9738259,12.6821115 52.4178259,11.9125115 52.9650259,11.5965115 C53.5138259,11.2797115 53.9578259,11.5365115 53.9578259,12.1693115"
										id="Fill-247" fill="#D4EAF2"></path>
								</g>
								<path
									d="M2.16102587,16.3133115 L0.00742586724,16.3117115 L0.00742586724,25.0277115 C-0.0357741328,25.6165115 0.293825867,26.1853115 1.01782587,26.6037115 L2.16102587,27.2629115 L2.16102587,16.3133115"
									id="Fill-241" fill="#FBBAA2"></path>
								<path
									d="M25.5786259,32.0997115 L1.01782587,17.9189115 C-0.489374133,17.0485115 -0.300574133,15.5285115 1.43942587,14.5237115 L25.1562259,0.831711538 C26.8970259,-0.173888462 29.5298259,-0.282688462 31.0370259,0.587711538 L55.5978259,14.7685115 C57.1058259,15.6389115 56.9170259,17.1589115 55.1762259,18.1637115 L31.4602259,31.8557115 C29.7194259,32.8605115 27.0866259,32.9701115 25.5786259,32.0997115"
									id="Fill-243" fill="#FBBAA2"></path>
								<path
									d="M55.1762259,16.4957115 L31.4602259,30.1877115 C29.7194259,31.1933115 27.0866259,31.3029115 25.5786259,30.4317115 L1.01782587,16.2509115 C0.681825867,16.0573115 0.434625867,15.8301115 0.265025867,15.5837115 C-0.252574133,16.4173115 -0.0173741328,17.3213115 1.01782587,17.9189115 L25.5786259,32.0997115 C27.0866259,32.9701115 29.7194259,32.8605115 31.4602259,31.8557115 L55.1762259,18.1637115 C56.5290259,17.3821115 56.9394259,16.2917115 56.3506259,15.4357115 C56.1138259,15.8149115 55.7218259,16.1805115 55.1762259,16.4957115"
									id="Fill-244" fill="#FFFFFE"></path>
								<path
									d="M27.0306259,23.3077115 L15.5378259,16.6725115 C14.8322259,16.2653115 14.9210259,15.5533115 15.7354259,15.0829115 L26.8330259,8.67571154 C27.6482259,8.20611154 28.8802259,8.15491154 29.5858259,8.56211154 L41.0786259,15.1981115 C41.7842259,15.6053115 41.6962259,16.3157115 40.8810259,16.7861115 L29.7834259,23.1941115 C28.9682259,23.6645115 27.7362259,23.7149115 27.0306259,23.3077115"
									id="Fill-248" fill="#FF5C20"></path>
								<path
									d="M28.1314259,17.7517115 L26.5410259,16.8341115 C26.4434259,16.7773115 26.4562259,16.6789115 26.5682259,16.6141115 L28.1042259,15.7277115 C28.2170259,15.6629115 28.3874259,15.6549115 28.4850259,15.7117115 L30.0754259,16.6301115 C30.1730259,16.6861115 30.1610259,16.7845115 30.0482259,16.8493115 L28.5122259,17.7365115 C28.3994259,17.8013115 28.2298259,17.8077115 28.1314259,17.7517115"
									id="Fill-249" fill="#D4EAF2"></path>
								<path
									d="M15.5378259,16.6725115 L15.5698259,16.6909115 L15.7354259,16.5773115 L26.8330259,10.1701115 C27.6482259,9.69971154 28.8802259,9.64851154 29.5858259,10.0557115 L41.0466259,16.6725115 C41.6970259,16.2069115 41.7306259,15.5733115 41.0786259,15.1981115 L29.5858259,8.56211154 C28.8802259,8.15491154 27.6482259,8.20611154 26.8330259,8.67571154 L15.7354259,15.0829115 C14.9210259,15.5533115 14.8322259,16.2653115 15.5378259,16.6725115"
									id="Fill-250" fill="#C33500"></path>
							</g>
							<g id="Group-7" transform="translate(0.000000, 16.000000)">
								<g id="Group-6" transform="translate(0.000000, 11.200000)">
									<path
										d="M26.0210259,31.8901115 L5.43862587,20.0069115 C4.17542587,19.2773115 4.33302587,18.0037115 5.79302587,17.1613115 L25.6658259,5.68691154 C27.1258259,4.84451154 29.3314259,4.75331154 30.5954259,5.48291154 L51.1778259,17.3661115 C52.4402259,18.0957115 52.2826259,19.3701115 50.8242259,20.2117115 L30.9498259,31.6861115 C29.4914259,32.5285115 27.2842259,32.6197115 26.0210259,31.8901115"
										id="Fill-235" fill-opacity="0.6" fill="#FF5C20"></path>
									<path
										d="M56.6082259,13.6181115 L56.6082259,5.14291154 L37.6050259,5.13331154 L31.0370259,1.34051154 C29.5298259,0.470911538 26.8970259,0.579711538 25.1562259,1.58451154 L19.0282259,5.12291154 L0.00742586724,5.11171154 L0.00742586724,13.8277115 C-0.0357741328,14.4165115 0.293825867,14.9853115 1.01782587,15.4037115 L25.5786259,29.5837115 C27.0866259,30.4541115 29.7194259,30.3445115 31.4602259,29.3397115 L55.1762259,15.6477115 C56.1802259,15.0685115 56.6642259,14.3173115 56.6082259,13.6181115"
										id="Fill-239" fill="#FF5C20"></path>
									<path
										d="M28.3082259,0.757311538 C27.2050259,0.784511538 26.0602259,1.06211154 25.1562259,1.58451154 L19.0282259,5.12291154 L0.00742586724,5.11171154 L0.00742586724,13.8277115 C-0.0357741328,14.4165115 0.293825867,14.9853115 1.01782587,15.4037115 L25.5786259,29.5837115 C26.3034259,30.0021115 27.2882259,30.1917115 28.3082259,30.1669115 L28.3082259,0.757311538"
										id="Fill-240" fill="#FF5C20"></path>
									<path
										d="M47.5738259,15.8549115 C47.5738259,16.4869115 47.1306259,17.2565115 46.5818259,17.5725115 C46.0338259,17.8893115 45.5906259,17.6333115 45.5906259,17.0005115 C45.5906259,16.3677115 46.0338259,15.5981115 46.5818259,15.2821115 C47.1306259,14.9661115 47.5738259,15.2221115 47.5738259,15.8549115"
										id="Fill-245" fill="#D4EAF2"></path>
									<path
										d="M50.7658259,14.0117115 C50.7658259,14.6445115 50.3218259,15.4133115 49.7738259,15.7301115 C49.2266259,16.0461115 48.7818259,15.7901115 48.7818259,15.1573115 C48.7818259,14.5245115 49.2266259,13.7557115 49.7738259,13.4397115 C50.3218259,13.1229115 50.7658259,13.3789115 50.7658259,14.0117115"
										id="Fill-246" fill="#D4EAF2"></path>
									<path
										d="M53.9578259,12.1693115 C53.9578259,12.8021115 53.5138259,13.5717115 52.9650259,13.8869115 C52.4178259,14.2037115 51.9738259,13.9469115 51.9738259,13.3141115 C51.9738259,12.6821115 52.4178259,11.9125115 52.9650259,11.5965115 C53.5138259,11.2797115 53.9578259,11.5365115 53.9578259,12.1693115"
										id="Fill-247" fill="#D4EAF2"></path>
								</g>
								<path
									d="M2.16102587,16.3133115 L0.00742586724,16.3117115 L0.00742586724,25.0277115 C-0.0357741328,25.6165115 0.293825867,26.1853115 1.01782587,26.6037115 L2.16102587,27.2629115 L2.16102587,16.3133115"
									id="Fill-241" fill="#FBBAA2"></path>
								<path
									d="M25.5786259,32.0997115 L1.01782587,17.9189115 C-0.489374133,17.0485115 -0.300574133,15.5285115 1.43942587,14.5237115 L25.1562259,0.831711538 C26.8970259,-0.173888462 29.5298259,-0.282688462 31.0370259,0.587711538 L55.5978259,14.7685115 C57.1058259,15.6389115 56.9170259,17.1589115 55.1762259,18.1637115 L31.4602259,31.8557115 C29.7194259,32.8605115 27.0866259,32.9701115 25.5786259,32.0997115"
									id="Fill-243" fill="#FBBAA2"></path>
								<path
									d="M55.1762259,16.4957115 L31.4602259,30.1877115 C29.7194259,31.1933115 27.0866259,31.3029115 25.5786259,30.4317115 L1.01782587,16.2509115 C0.681825867,16.0573115 0.434625867,15.8301115 0.265025867,15.5837115 C-0.252574133,16.4173115 -0.0173741328,17.3213115 1.01782587,17.9189115 L25.5786259,32.0997115 C27.0866259,32.9701115 29.7194259,32.8605115 31.4602259,31.8557115 L55.1762259,18.1637115 C56.5290259,17.3821115 56.9394259,16.2917115 56.3506259,15.4357115 C56.1138259,15.8149115 55.7218259,16.1805115 55.1762259,16.4957115"
									id="Fill-244" fill="#FFFFFE"></path>
								<path
									d="M27.0306259,23.3077115 L15.5378259,16.6725115 C14.8322259,16.2653115 14.9210259,15.5533115 15.7354259,15.0829115 L26.8330259,8.67571154 C27.6482259,8.20611154 28.8802259,8.15491154 29.5858259,8.56211154 L41.0786259,15.1981115 C41.7842259,15.6053115 41.6962259,16.3157115 40.8810259,16.7861115 L29.7834259,23.1941115 C28.9682259,23.6645115 27.7362259,23.7149115 27.0306259,23.3077115"
									id="Fill-248" fill="#FF5C20"></path>
								<path
									d="M28.1314259,17.7517115 L26.5410259,16.8341115 C26.4434259,16.7773115 26.4562259,16.6789115 26.5682259,16.6141115 L28.1042259,15.7277115 C28.2170259,15.6629115 28.3874259,15.6549115 28.4850259,15.7117115 L30.0754259,16.6301115 C30.1730259,16.6861115 30.1610259,16.7845115 30.0482259,16.8493115 L28.5122259,17.7365115 C28.3994259,17.8013115 28.2298259,17.8077115 28.1314259,17.7517115"
									id="Fill-249" fill="#D4EAF2"></path>
								<path
									d="M15.5378259,16.6725115 L15.5698259,16.6909115 L15.7354259,16.5773115 L26.8330259,10.1701115 C27.6482259,9.69971154 28.8802259,9.64851154 29.5858259,10.0557115 L41.0466259,16.6725115 C41.6970259,16.2069115 41.7306259,15.5733115 41.0786259,15.1981115 L29.5858259,8.56211154 C28.8802259,8.15491154 27.6482259,8.20611154 26.8330259,8.67571154 L15.7354259,15.0829115 C14.9210259,15.5533115 14.8322259,16.2653115 15.5378259,16.6725115"
									id="Fill-250" fill="#C33500"></path>
							</g>
							<g id="Group-7">
								<g id="Group-6" transform="translate(0.000000, 11.200000)">
									<path
										d="M26.0210259,31.8901115 L5.43862587,20.0069115 C4.17542587,19.2773115 4.33302587,18.0037115 5.79302587,17.1613115 L25.6658259,5.68691154 C27.1258259,4.84451154 29.3314259,4.75331154 30.5954259,5.48291154 L51.1778259,17.3661115 C52.4402259,18.0957115 52.2826259,19.3701115 50.8242259,20.2117115 L30.9498259,31.6861115 C29.4914259,32.5285115 27.2842259,32.6197115 26.0210259,31.8901115"
										id="Fill-235" fill-opacity="0.6" fill="#FF5C20"></path>
									<path
										d="M56.6082259,13.6181115 L56.6082259,5.14291154 L37.6050259,5.13331154 L31.0370259,1.34051154 C29.5298259,0.470911538 26.8970259,0.579711538 25.1562259,1.58451154 L19.0282259,5.12291154 L0.00742586724,5.11171154 L0.00742586724,13.8277115 C-0.0357741328,14.4165115 0.293825867,14.9853115 1.01782587,15.4037115 L25.5786259,29.5837115 C27.0866259,30.4541115 29.7194259,30.3445115 31.4602259,29.3397115 L55.1762259,15.6477115 C56.1802259,15.0685115 56.6642259,14.3173115 56.6082259,13.6181115"
										id="Fill-239" fill="#FF5C20"></path>
									<path
										d="M28.3082259,0.757311538 C27.2050259,0.784511538 26.0602259,1.06211154 25.1562259,1.58451154 L19.0282259,5.12291154 L0.00742586724,5.11171154 L0.00742586724,13.8277115 C-0.0357741328,14.4165115 0.293825867,14.9853115 1.01782587,15.4037115 L25.5786259,29.5837115 C26.3034259,30.0021115 27.2882259,30.1917115 28.3082259,30.1669115 L28.3082259,0.757311538"
										id="Fill-240" fill="#FF5C20"></path>
									<path
										d="M47.5738259,15.8549115 C47.5738259,16.4869115 47.1306259,17.2565115 46.5818259,17.5725115 C46.0338259,17.8893115 45.5906259,17.6333115 45.5906259,17.0005115 C45.5906259,16.3677115 46.0338259,15.5981115 46.5818259,15.2821115 C47.1306259,14.9661115 47.5738259,15.2221115 47.5738259,15.8549115"
										id="Fill-245" fill="#D4EAF2"></path>
									<path
										d="M50.7658259,14.0117115 C50.7658259,14.6445115 50.3218259,15.4133115 49.7738259,15.7301115 C49.2266259,16.0461115 48.7818259,15.7901115 48.7818259,15.1573115 C48.7818259,14.5245115 49.2266259,13.7557115 49.7738259,13.4397115 C50.3218259,13.1229115 50.7658259,13.3789115 50.7658259,14.0117115"
										id="Fill-246" fill="#D4EAF2"></path>
									<path
										d="M53.9578259,12.1693115 C53.9578259,12.8021115 53.5138259,13.5717115 52.9650259,13.8869115 C52.4178259,14.2037115 51.9738259,13.9469115 51.9738259,13.3141115 C51.9738259,12.6821115 52.4178259,11.9125115 52.9650259,11.5965115 C53.5138259,11.2797115 53.9578259,11.5365115 53.9578259,12.1693115"
										id="Fill-247" fill="#D4EAF2"></path>
								</g>
								<path
									d="M2.16102587,16.3133115 L0.00742586724,16.3117115 L0.00742586724,25.0277115 C-0.0357741328,25.6165115 0.293825867,26.1853115 1.01782587,26.6037115 L2.16102587,27.2629115 L2.16102587,16.3133115"
									id="Fill-241" fill="#FBBAA2"></path>
								<path
									d="M25.5786259,32.0997115 L1.01782587,17.9189115 C-0.489374133,17.0485115 -0.300574133,15.5285115 1.43942587,14.5237115 L25.1562259,0.831711538 C26.8970259,-0.173888462 29.5298259,-0.282688462 31.0370259,0.587711538 L55.5978259,14.7685115 C57.1058259,15.6389115 56.9170259,17.1589115 55.1762259,18.1637115 L31.4602259,31.8557115 C29.7194259,32.8605115 27.0866259,32.9701115 25.5786259,32.0997115"
									id="Fill-243" fill="#FBBAA2"></path>
								<path
									d="M55.1762259,16.4957115 L31.4602259,30.1877115 C29.7194259,31.1933115 27.0866259,31.3029115 25.5786259,30.4317115 L1.01782587,16.2509115 C0.681825867,16.0573115 0.434625867,15.8301115 0.265025867,15.5837115 C-0.252574133,16.4173115 -0.0173741328,17.3213115 1.01782587,17.9189115 L25.5786259,32.0997115 C27.0866259,32.9701115 29.7194259,32.8605115 31.4602259,31.8557115 L55.1762259,18.1637115 C56.5290259,17.3821115 56.9394259,16.2917115 56.3506259,15.4357115 C56.1138259,15.8149115 55.7218259,16.1805115 55.1762259,16.4957115"
									id="Fill-244" fill="#FFFFFE"></path>
								<path
									d="M27.0306259,23.3077115 L15.5378259,16.6725115 C14.8322259,16.2653115 14.9210259,15.5533115 15.7354259,15.0829115 L26.8330259,8.67571154 C27.6482259,8.20611154 28.8802259,8.15491154 29.5858259,8.56211154 L41.0786259,15.1981115 C41.7842259,15.6053115 41.6962259,16.3157115 40.8810259,16.7861115 L29.7834259,23.1941115 C28.9682259,23.6645115 27.7362259,23.7149115 27.0306259,23.3077115"
									id="Fill-248" fill="#FF5C20"></path>
								<path
									d="M28.1314259,17.7517115 L26.5410259,16.8341115 C26.4434259,16.7773115 26.4562259,16.6789115 26.5682259,16.6141115 L28.1042259,15.7277115 C28.2170259,15.6629115 28.3874259,15.6549115 28.4850259,15.7117115 L30.0754259,16.6301115 C30.1730259,16.6861115 30.1610259,16.7845115 30.0482259,16.8493115 L28.5122259,17.7365115 C28.3994259,17.8013115 28.2298259,17.8077115 28.1314259,17.7517115"
									id="Fill-249" fill="#D4EAF2"></path>
								<path
									d="M15.5378259,16.6725115 L15.5698259,16.6909115 L15.7354259,16.5773115 L26.8330259,10.1701115 C27.6482259,9.69971154 28.8802259,9.64851154 29.5858259,10.0557115 L41.0466259,16.6725115 C41.6970259,16.2069115 41.7306259,15.5733115 41.0786259,15.1981115 L29.5858259,8.56211154 C28.8802259,8.15491154 27.6482259,8.20611154 26.8330259,8.67571154 L15.7354259,15.0829115 C14.9210259,15.5533115 14.8322259,16.2653115 15.5378259,16.6725115"
									id="Fill-250" fill="#C33500"></path>
							</g>
						</g>
						<g id="Group-5" opacity="0.7">
							<g id="Group-7" transform="translate(0.000000, 31.200000)">
								<g id="Group-6" transform="translate(0.000000, 11.200000)">
									<path
										d="M28.0671216,36.504 C27.3023216,36.504 26.5727216,36.3488 26.0271216,36.0344 L6.41272161,24.7096 C5.20872161,24.0152 5.35992161,22.8016 6.75032161,21.9992 L25.6895216,11.0648 C26.4495216,10.6256 27.4231216,10.4 28.3455216,10.4 C29.1103216,10.4 29.8399216,10.5544 30.3855216,10.8696 L49.9991216,22.1936 C51.2031216,22.8888 51.0527216,24.1032 49.6623216,24.9048 L30.7239216,35.8392 C29.9631216,36.2784 28.9895216,36.504 28.0671216,36.504"
										id="Fill-220" fill-opacity="0.2" fill="#FF5C20"></path>
									<path
										d="M26.0210259,31.8901115 L5.43862587,20.0069115 C4.17542587,19.2773115 4.33302587,18.0037115 5.79302587,17.1613115 L25.6658259,5.68691154 C27.1258259,4.84451154 29.3314259,4.75331154 30.5954259,5.48291154 L51.1778259,17.3661115 C52.4402259,18.0957115 52.2826259,19.3701115 50.8242259,20.2117115 L30.9498259,31.6861115 C29.4914259,32.5285115 27.2842259,32.6197115 26.0210259,31.8901115"
										id="Fill-235" fill-opacity="0.6" fill="#FF5C20"></path>
									<path
										d="M56.6082259,13.6181115 L56.6082259,5.14291154 L37.6050259,5.13331154 L31.0370259,1.34051154 C29.5298259,0.470911538 26.8970259,0.579711538 25.1562259,1.58451154 L19.0282259,5.12291154 L0.00742586724,5.11171154 L0.00742586724,13.8277115 C-0.0357741328,14.4165115 0.293825867,14.9853115 1.01782587,15.4037115 L25.5786259,29.5837115 C27.0866259,30.4541115 29.7194259,30.3445115 31.4602259,29.3397115 L55.1762259,15.6477115 C56.1802259,15.0685115 56.6642259,14.3173115 56.6082259,13.6181115"
										id="Fill-239" fill="#FF5C20"></path>
									<path
										d="M28.3082259,0.757311538 C27.2050259,0.784511538 26.0602259,1.06211154 25.1562259,1.58451154 L19.0282259,5.12291154 L0.00742586724,5.11171154 L0.00742586724,13.8277115 C-0.0357741328,14.4165115 0.293825867,14.9853115 1.01782587,15.4037115 L25.5786259,29.5837115 C26.3034259,30.0021115 27.2882259,30.1917115 28.3082259,30.1669115 L28.3082259,0.757311538"
										id="Fill-240" fill="#FF5C20"></path>
									<path
										d="M47.5738259,15.8549115 C47.5738259,16.4869115 47.1306259,17.2565115 46.5818259,17.5725115 C46.0338259,17.8893115 45.5906259,17.6333115 45.5906259,17.0005115 C45.5906259,16.3677115 46.0338259,15.5981115 46.5818259,15.2821115 C47.1306259,14.9661115 47.5738259,15.2221115 47.5738259,15.8549115"
										id="Fill-245" fill="#D4EAF2"></path>
									<path
										d="M50.7658259,14.0117115 C50.7658259,14.6445115 50.3218259,15.4133115 49.7738259,15.7301115 C49.2266259,16.0461115 48.7818259,15.7901115 48.7818259,15.1573115 C48.7818259,14.5245115 49.2266259,13.7557115 49.7738259,13.4397115 C50.3218259,13.1229115 50.7658259,13.3789115 50.7658259,14.0117115"
										id="Fill-246" fill="#D4EAF2"></path>
									<path
										d="M53.9578259,12.1693115 C53.9578259,12.8021115 53.5138259,13.5717115 52.9650259,13.8869115 C52.4178259,14.2037115 51.9738259,13.9469115 51.9738259,13.3141115 C51.9738259,12.6821115 52.4178259,11.9125115 52.9650259,11.5965115 C53.5138259,11.2797115 53.9578259,11.5365115 53.9578259,12.1693115"
										id="Fill-247" fill="#D4EAF2"></path>
								</g>
								<path
									d="M2.16102587,16.3133115 L0.00742586724,16.3117115 L0.00742586724,25.0277115 C-0.0357741328,25.6165115 0.293825867,26.1853115 1.01782587,26.6037115 L2.16102587,27.2629115 L2.16102587,16.3133115"
									id="Fill-241" fill="#FBBAA2"></path>
								<path
									d="M25.5786259,32.0997115 L1.01782587,17.9189115 C-0.489374133,17.0485115 -0.300574133,15.5285115 1.43942587,14.5237115 L25.1562259,0.831711538 C26.8970259,-0.173888462 29.5298259,-0.282688462 31.0370259,0.587711538 L55.5978259,14.7685115 C57.1058259,15.6389115 56.9170259,17.1589115 55.1762259,18.1637115 L31.4602259,31.8557115 C29.7194259,32.8605115 27.0866259,32.9701115 25.5786259,32.0997115"
									id="Fill-243" fill="#FBBAA2"></path>
								<path
									d="M55.1762259,16.4957115 L31.4602259,30.1877115 C29.7194259,31.1933115 27.0866259,31.3029115 25.5786259,30.4317115 L1.01782587,16.2509115 C0.681825867,16.0573115 0.434625867,15.8301115 0.265025867,15.5837115 C-0.252574133,16.4173115 -0.0173741328,17.3213115 1.01782587,17.9189115 L25.5786259,32.0997115 C27.0866259,32.9701115 29.7194259,32.8605115 31.4602259,31.8557115 L55.1762259,18.1637115 C56.5290259,17.3821115 56.9394259,16.2917115 56.3506259,15.4357115 C56.1138259,15.8149115 55.7218259,16.1805115 55.1762259,16.4957115"
									id="Fill-244" fill="#FFFFFE"></path>
								<path
									d="M27.0306259,23.3077115 L15.5378259,16.6725115 C14.8322259,16.2653115 14.9210259,15.5533115 15.7354259,15.0829115 L26.8330259,8.67571154 C27.6482259,8.20611154 28.8802259,8.15491154 29.5858259,8.56211154 L41.0786259,15.1981115 C41.7842259,15.6053115 41.6962259,16.3157115 40.8810259,16.7861115 L29.7834259,23.1941115 C28.9682259,23.6645115 27.7362259,23.7149115 27.0306259,23.3077115"
									id="Fill-248" fill="#FF5C20"></path>
								<path
									d="M28.1314259,17.7517115 L26.5410259,16.8341115 C26.4434259,16.7773115 26.4562259,16.6789115 26.5682259,16.6141115 L28.1042259,15.7277115 C28.2170259,15.6629115 28.3874259,15.6549115 28.4850259,15.7117115 L30.0754259,16.6301115 C30.1730259,16.6861115 30.1610259,16.7845115 30.0482259,16.8493115 L28.5122259,17.7365115 C28.3994259,17.8013115 28.2298259,17.8077115 28.1314259,17.7517115"
									id="Fill-249" fill="#D4EAF2"></path>
								<path
									d="M15.5378259,16.6725115 L15.5698259,16.6909115 L15.7354259,16.5773115 L26.8330259,10.1701115 C27.6482259,9.69971154 28.8802259,9.64851154 29.5858259,10.0557115 L41.0466259,16.6725115 C41.6970259,16.2069115 41.7306259,15.5733115 41.0786259,15.1981115 L29.5858259,8.56211154 C28.8802259,8.15491154 27.6482259,8.20611154 26.8330259,8.67571154 L15.7354259,15.0829115 C14.9210259,15.5533115 14.8322259,16.2653115 15.5378259,16.6725115"
									id="Fill-250" fill="#C33500"></path>
							</g>
							<g id="Group-7" transform="translate(0.000000, 16.000000)">
								<g id="Group-6" transform="translate(0.000000, 11.200000)">
									<path
										d="M26.0210259,31.8901115 L5.43862587,20.0069115 C4.17542587,19.2773115 4.33302587,18.0037115 5.79302587,17.1613115 L25.6658259,5.68691154 C27.1258259,4.84451154 29.3314259,4.75331154 30.5954259,5.48291154 L51.1778259,17.3661115 C52.4402259,18.0957115 52.2826259,19.3701115 50.8242259,20.2117115 L30.9498259,31.6861115 C29.4914259,32.5285115 27.2842259,32.6197115 26.0210259,31.8901115"
										id="Fill-235" fill-opacity="0.6" fill="#FF5C20"></path>
									<path
										d="M56.6082259,13.6181115 L56.6082259,5.14291154 L37.6050259,5.13331154 L31.0370259,1.34051154 C29.5298259,0.470911538 26.8970259,0.579711538 25.1562259,1.58451154 L19.0282259,5.12291154 L0.00742586724,5.11171154 L0.00742586724,13.8277115 C-0.0357741328,14.4165115 0.293825867,14.9853115 1.01782587,15.4037115 L25.5786259,29.5837115 C27.0866259,30.4541115 29.7194259,30.3445115 31.4602259,29.3397115 L55.1762259,15.6477115 C56.1802259,15.0685115 56.6642259,14.3173115 56.6082259,13.6181115"
										id="Fill-239" fill="#FF5C20"></path>
									<path
										d="M28.3082259,0.757311538 C27.2050259,0.784511538 26.0602259,1.06211154 25.1562259,1.58451154 L19.0282259,5.12291154 L0.00742586724,5.11171154 L0.00742586724,13.8277115 C-0.0357741328,14.4165115 0.293825867,14.9853115 1.01782587,15.4037115 L25.5786259,29.5837115 C26.3034259,30.0021115 27.2882259,30.1917115 28.3082259,30.1669115 L28.3082259,0.757311538"
										id="Fill-240" fill="#FF5C20"></path>
									<path
										d="M47.5738259,15.8549115 C47.5738259,16.4869115 47.1306259,17.2565115 46.5818259,17.5725115 C46.0338259,17.8893115 45.5906259,17.6333115 45.5906259,17.0005115 C45.5906259,16.3677115 46.0338259,15.5981115 46.5818259,15.2821115 C47.1306259,14.9661115 47.5738259,15.2221115 47.5738259,15.8549115"
										id="Fill-245" fill="#D4EAF2"></path>
									<path
										d="M50.7658259,14.0117115 C50.7658259,14.6445115 50.3218259,15.4133115 49.7738259,15.7301115 C49.2266259,16.0461115 48.7818259,15.7901115 48.7818259,15.1573115 C48.7818259,14.5245115 49.2266259,13.7557115 49.7738259,13.4397115 C50.3218259,13.1229115 50.7658259,13.3789115 50.7658259,14.0117115"
										id="Fill-246" fill="#D4EAF2"></path>
									<path
										d="M53.9578259,12.1693115 C53.9578259,12.8021115 53.5138259,13.5717115 52.9650259,13.8869115 C52.4178259,14.2037115 51.9738259,13.9469115 51.9738259,13.3141115 C51.9738259,12.6821115 52.4178259,11.9125115 52.9650259,11.5965115 C53.5138259,11.2797115 53.9578259,11.5365115 53.9578259,12.1693115"
										id="Fill-247" fill="#D4EAF2"></path>
								</g>
								<path
									d="M2.16102587,16.3133115 L0.00742586724,16.3117115 L0.00742586724,25.0277115 C-0.0357741328,25.6165115 0.293825867,26.1853115 1.01782587,26.6037115 L2.16102587,27.2629115 L2.16102587,16.3133115"
									id="Fill-241" fill="#FBBAA2"></path>
								<path
									d="M25.5786259,32.0997115 L1.01782587,17.9189115 C-0.489374133,17.0485115 -0.300574133,15.5285115 1.43942587,14.5237115 L25.1562259,0.831711538 C26.8970259,-0.173888462 29.5298259,-0.282688462 31.0370259,0.587711538 L55.5978259,14.7685115 C57.1058259,15.6389115 56.9170259,17.1589115 55.1762259,18.1637115 L31.4602259,31.8557115 C29.7194259,32.8605115 27.0866259,32.9701115 25.5786259,32.0997115"
									id="Fill-243" fill="#FBBAA2"></path>
								<path
									d="M55.1762259,16.4957115 L31.4602259,30.1877115 C29.7194259,31.1933115 27.0866259,31.3029115 25.5786259,30.4317115 L1.01782587,16.2509115 C0.681825867,16.0573115 0.434625867,15.8301115 0.265025867,15.5837115 C-0.252574133,16.4173115 -0.0173741328,17.3213115 1.01782587,17.9189115 L25.5786259,32.0997115 C27.0866259,32.9701115 29.7194259,32.8605115 31.4602259,31.8557115 L55.1762259,18.1637115 C56.5290259,17.3821115 56.9394259,16.2917115 56.3506259,15.4357115 C56.1138259,15.8149115 55.7218259,16.1805115 55.1762259,16.4957115"
									id="Fill-244" fill="#FFFFFE"></path>
								<path
									d="M27.0306259,23.3077115 L15.5378259,16.6725115 C14.8322259,16.2653115 14.9210259,15.5533115 15.7354259,15.0829115 L26.8330259,8.67571154 C27.6482259,8.20611154 28.8802259,8.15491154 29.5858259,8.56211154 L41.0786259,15.1981115 C41.7842259,15.6053115 41.6962259,16.3157115 40.8810259,16.7861115 L29.7834259,23.1941115 C28.9682259,23.6645115 27.7362259,23.7149115 27.0306259,23.3077115"
									id="Fill-248" fill="#FF5C20"></path>
								<path
									d="M28.1314259,17.7517115 L26.5410259,16.8341115 C26.4434259,16.7773115 26.4562259,16.6789115 26.5682259,16.6141115 L28.1042259,15.7277115 C28.2170259,15.6629115 28.3874259,15.6549115 28.4850259,15.7117115 L30.0754259,16.6301115 C30.1730259,16.6861115 30.1610259,16.7845115 30.0482259,16.8493115 L28.5122259,17.7365115 C28.3994259,17.8013115 28.2298259,17.8077115 28.1314259,17.7517115"
									id="Fill-249" fill="#D4EAF2"></path>
								<path
									d="M15.5378259,16.6725115 L15.5698259,16.6909115 L15.7354259,16.5773115 L26.8330259,10.1701115 C27.6482259,9.69971154 28.8802259,9.64851154 29.5858259,10.0557115 L41.0466259,16.6725115 C41.6970259,16.2069115 41.7306259,15.5733115 41.0786259,15.1981115 L29.5858259,8.56211154 C28.8802259,8.15491154 27.6482259,8.20611154 26.8330259,8.67571154 L15.7354259,15.0829115 C14.9210259,15.5533115 14.8322259,16.2653115 15.5378259,16.6725115"
									id="Fill-250" fill="#C33500"></path>
							</g>
							<g id="Group-7">
								<g id="Group-6" transform="translate(0.000000, 11.200000)">
									<path
										d="M26.0210259,31.8901115 L5.43862587,20.0069115 C4.17542587,19.2773115 4.33302587,18.0037115 5.79302587,17.1613115 L25.6658259,5.68691154 C27.1258259,4.84451154 29.3314259,4.75331154 30.5954259,5.48291154 L51.1778259,17.3661115 C52.4402259,18.0957115 52.2826259,19.3701115 50.8242259,20.2117115 L30.9498259,31.6861115 C29.4914259,32.5285115 27.2842259,32.6197115 26.0210259,31.8901115"
										id="Fill-235" fill-opacity="0.6" fill="#FF5C20"></path>
									<path
										d="M56.6082259,13.6181115 L56.6082259,5.14291154 L37.6050259,5.13331154 L31.0370259,1.34051154 C29.5298259,0.470911538 26.8970259,0.579711538 25.1562259,1.58451154 L19.0282259,5.12291154 L0.00742586724,5.11171154 L0.00742586724,13.8277115 C-0.0357741328,14.4165115 0.293825867,14.9853115 1.01782587,15.4037115 L25.5786259,29.5837115 C27.0866259,30.4541115 29.7194259,30.3445115 31.4602259,29.3397115 L55.1762259,15.6477115 C56.1802259,15.0685115 56.6642259,14.3173115 56.6082259,13.6181115"
										id="Fill-239" fill="#FF5C20"></path>
									<path
										d="M28.3082259,0.757311538 C27.2050259,0.784511538 26.0602259,1.06211154 25.1562259,1.58451154 L19.0282259,5.12291154 L0.00742586724,5.11171154 L0.00742586724,13.8277115 C-0.0357741328,14.4165115 0.293825867,14.9853115 1.01782587,15.4037115 L25.5786259,29.5837115 C26.3034259,30.0021115 27.2882259,30.1917115 28.3082259,30.1669115 L28.3082259,0.757311538"
										id="Fill-240" fill="#FF5C20"></path>
									<path
										d="M47.5738259,15.8549115 C47.5738259,16.4869115 47.1306259,17.2565115 46.5818259,17.5725115 C46.0338259,17.8893115 45.5906259,17.6333115 45.5906259,17.0005115 C45.5906259,16.3677115 46.0338259,15.5981115 46.5818259,15.2821115 C47.1306259,14.9661115 47.5738259,15.2221115 47.5738259,15.8549115"
										id="Fill-245" fill="#D4EAF2"></path>
									<path
										d="M50.7658259,14.0117115 C50.7658259,14.6445115 50.3218259,15.4133115 49.7738259,15.7301115 C49.2266259,16.0461115 48.7818259,15.7901115 48.7818259,15.1573115 C48.7818259,14.5245115 49.2266259,13.7557115 49.7738259,13.4397115 C50.3218259,13.1229115 50.7658259,13.3789115 50.7658259,14.0117115"
										id="Fill-246" fill="#D4EAF2"></path>
									<path
										d="M53.9578259,12.1693115 C53.9578259,12.8021115 53.5138259,13.5717115 52.9650259,13.8869115 C52.4178259,14.2037115 51.9738259,13.9469115 51.9738259,13.3141115 C51.9738259,12.6821115 52.4178259,11.9125115 52.9650259,11.5965115 C53.5138259,11.2797115 53.9578259,11.5365115 53.9578259,12.1693115"
										id="Fill-247" fill="#D4EAF2"></path>
								</g>
								<path
									d="M2.16102587,16.3133115 L0.00742586724,16.3117115 L0.00742586724,25.0277115 C-0.0357741328,25.6165115 0.293825867,26.1853115 1.01782587,26.6037115 L2.16102587,27.2629115 L2.16102587,16.3133115"
									id="Fill-241" fill="#FBBAA2"></path>
								<path
									d="M25.5786259,32.0997115 L1.01782587,17.9189115 C-0.489374133,17.0485115 -0.300574133,15.5285115 1.43942587,14.5237115 L25.1562259,0.831711538 C26.8970259,-0.173888462 29.5298259,-0.282688462 31.0370259,0.587711538 L55.5978259,14.7685115 C57.1058259,15.6389115 56.9170259,17.1589115 55.1762259,18.1637115 L31.4602259,31.8557115 C29.7194259,32.8605115 27.0866259,32.9701115 25.5786259,32.0997115"
									id="Fill-243" fill="#FBBAA2"></path>
								<path
									d="M55.1762259,16.4957115 L31.4602259,30.1877115 C29.7194259,31.1933115 27.0866259,31.3029115 25.5786259,30.4317115 L1.01782587,16.2509115 C0.681825867,16.0573115 0.434625867,15.8301115 0.265025867,15.5837115 C-0.252574133,16.4173115 -0.0173741328,17.3213115 1.01782587,17.9189115 L25.5786259,32.0997115 C27.0866259,32.9701115 29.7194259,32.8605115 31.4602259,31.8557115 L55.1762259,18.1637115 C56.5290259,17.3821115 56.9394259,16.2917115 56.3506259,15.4357115 C56.1138259,15.8149115 55.7218259,16.1805115 55.1762259,16.4957115"
									id="Fill-244" fill="#FFFFFE"></path>
								<path
									d="M27.0306259,23.3077115 L15.5378259,16.6725115 C14.8322259,16.2653115 14.9210259,15.5533115 15.7354259,15.0829115 L26.8330259,8.67571154 C27.6482259,8.20611154 28.8802259,8.15491154 29.5858259,8.56211154 L41.0786259,15.1981115 C41.7842259,15.6053115 41.6962259,16.3157115 40.8810259,16.7861115 L29.7834259,23.1941115 C28.9682259,23.6645115 27.7362259,23.7149115 27.0306259,23.3077115"
									id="Fill-248" fill="#FF5C20"></path>
								<path
									d="M28.1314259,17.7517115 L26.5410259,16.8341115 C26.4434259,16.7773115 26.4562259,16.6789115 26.5682259,16.6141115 L28.1042259,15.7277115 C28.2170259,15.6629115 28.3874259,15.6549115 28.4850259,15.7117115 L30.0754259,16.6301115 C30.1730259,16.6861115 30.1610259,16.7845115 30.0482259,16.8493115 L28.5122259,17.7365115 C28.3994259,17.8013115 28.2298259,17.8077115 28.1314259,17.7517115"
									id="Fill-249" fill="#D4EAF2"></path>
								<path
									d="M15.5378259,16.6725115 L15.5698259,16.6909115 L15.7354259,16.5773115 L26.8330259,10.1701115 C27.6482259,9.69971154 28.8802259,9.64851154 29.5858259,10.0557115 L41.0466259,16.6725115 C41.6970259,16.2069115 41.7306259,15.5733115 41.0786259,15.1981115 L29.5858259,8.56211154 C28.8802259,8.15491154 27.6482259,8.20611154 26.8330259,8.67571154 L15.7354259,15.0829115 C14.9210259,15.5533115 14.8322259,16.2653115 15.5378259,16.6725115"
									id="Fill-250" fill="#C33500"></path>
							</g>
						</g>
					</g>
					<g id="Group-5" transform="translate(27.000000, 0.000000)">
						<g id="Group-7" transform="translate(0.000000, 39.000000)">
							<g id="Group-6" transform="translate(0.000000, 14.000000)">
								<path
									d="M35.083902,45.63 C34.127902,45.63 33.215902,45.436 32.533902,45.043 L8.01590202,30.887 C6.51090202,30.019 6.69990202,28.502 8.43790202,27.499 L32.111902,13.831 C33.061902,13.282 34.278902,13 35.431902,13 C36.387902,13 37.299902,13.193 37.981902,13.587 L62.498902,27.742 C64.003902,28.611 63.815902,30.129 62.077902,31.131 L38.404902,44.799 C37.453902,45.348 36.236902,45.63 35.083902,45.63"
									id="Fill-220" fill-opacity="0.2" fill="#FF5C20"></path>
								<path
									d="M32.5262823,39.8626394 L6.79828233,25.0086394 C5.21928233,24.0966394 5.41628233,22.5046394 7.24128233,21.4516394 L32.0822823,7.10863942 C33.9072823,6.05563942 36.6642823,5.94163942 38.2442823,6.85363942 L63.9722823,21.7076394 C65.5502823,22.6196394 65.3532823,24.2126394 63.5302823,25.2646394 L38.6872823,39.6076394 C36.8642823,40.6606394 34.1052823,40.7746394 32.5262823,39.8626394"
									id="Fill-235" fill-opacity="0.6" fill="#FF5C20"></path>
								<path
									d="M70.7602823,17.0226394 L70.7602823,6.42863942 L47.0062823,6.41663942 L38.7962823,1.67563942 C36.9122823,0.588639422 33.6212823,0.724639422 31.4452823,1.98063942 L23.7852823,6.40363942 L0.00928233405,6.38963942 L0.00928233405,17.2846394 C-0.044717666,18.0206394 0.367282334,18.7316394 1.27228233,19.2546394 L31.9732823,36.9796394 C33.8582823,38.0676394 37.1492823,37.9306394 39.3252823,36.6746394 L68.9702823,19.5596394 C70.2252823,18.8356394 70.8302823,17.8966394 70.7602823,17.0226394"
									id="Fill-239" fill="#FF5C20"></path>
								<path
									d="M35.3852823,0.946639422 C34.0062823,0.980639422 32.5752823,1.32763942 31.4452823,1.98063942 L23.7852823,6.40363942 L0.00928233405,6.38963942 L0.00928233405,17.2846394 C-0.044717666,18.0206394 0.367282334,18.7316394 1.27228233,19.2546394 L31.9732823,36.9796394 C32.8792823,37.5026394 34.1102823,37.7396394 35.3852823,37.7086394 L35.3852823,0.946639422"
									id="Fill-240" fill="#FF5C20"></path>
								<path
									d="M59.4672823,19.8186394 C59.4672823,20.6086394 58.9132823,21.5706394 58.2272823,21.9656394 C57.5422823,22.3616394 56.9882823,22.0416394 56.9882823,21.2506394 C56.9882823,20.4596394 57.5422823,19.4976394 58.2272823,19.1026394 C58.9132823,18.7076394 59.4672823,19.0276394 59.4672823,19.8186394"
									id="Fill-245" fill="#D4EAF2"></path>
								<path
									d="M63.4572823,17.5146394 C63.4572823,18.3056394 62.9022823,19.2666394 62.2172823,19.6626394 C61.5332823,20.0576394 60.9772823,19.7376394 60.9772823,18.9466394 C60.9772823,18.1556394 61.5332823,17.1946394 62.2172823,16.7996394 C62.9022823,16.4036394 63.4572823,16.7236394 63.4572823,17.5146394"
									id="Fill-246" fill="#D4EAF2"></path>
								<path
									d="M67.4472823,15.2116394 C67.4472823,16.0026394 66.8922823,16.9646394 66.2062823,17.3586394 C65.5222823,17.7546394 64.9672823,17.4336394 64.9672823,16.6426394 C64.9672823,15.8526394 65.5222823,14.8906394 66.2062823,14.4956394 C66.8922823,14.0996394 67.4472823,14.4206394 67.4472823,15.2116394"
									id="Fill-247" fill="#D4EAF2"></path>
							</g>
							<path
								d="M2.70128233,20.3916394 L0.00928233405,20.3896394 L0.00928233405,31.2846394 C-0.044717666,32.0206394 0.367282334,32.7316394 1.27228233,33.2546394 L2.70128233,34.0786394 L2.70128233,20.3916394"
								id="Fill-241" fill="#FBBAA2"></path>
							<path
								d="M31.9732823,40.1246394 L1.27228233,22.3986394 C-0.611717666,21.3106394 -0.375717666,19.4106394 1.79928233,18.1546394 L31.4452823,1.03963942 C33.6212823,-0.217360578 36.9122823,-0.353360578 38.7962823,0.734639422 L69.4972823,18.4606394 C71.3822823,19.5486394 71.1462823,21.4486394 68.9702823,22.7046394 L39.3252823,39.8196394 C37.1492823,41.0756394 33.8582823,41.2126394 31.9732823,40.1246394"
								id="Fill-243" fill="#FBBAA2"></path>
							<path
								d="M68.9702823,20.6196394 L39.3252823,37.7346394 C37.1492823,38.9916394 33.8582823,39.1286394 31.9732823,38.0396394 L1.27228233,20.3136394 C0.852282334,20.0716394 0.543282334,19.7876394 0.331282334,19.4796394 C-0.315717666,20.5216394 -0.021717666,21.6516394 1.27228233,22.3986394 L31.9732823,40.1246394 C33.8582823,41.2126394 37.1492823,41.0756394 39.3252823,39.8196394 L68.9702823,22.7046394 C70.6612823,21.7276394 71.1742823,20.3646394 70.4382823,19.2946394 C70.1422823,19.7686394 69.6522823,20.2256394 68.9702823,20.6196394"
								id="Fill-244" fill="#FFFFFE"></path>
							<path
								d="M33.7882823,29.1346394 L19.4222823,20.8406394 C18.5402823,20.3316394 18.6512823,19.4416394 19.6692823,18.8536394 L33.5412823,10.8446394 C34.5602823,10.2576394 36.1002823,10.1936394 36.9822823,10.7026394 L51.3482823,18.9976394 C52.2302823,19.5066394 52.1202823,20.3946394 51.1012823,20.9826394 L37.2292823,28.9926394 C36.2102823,29.5806394 34.6702823,29.6436394 33.7882823,29.1346394"
								id="Fill-248" fill="#FF5C20"></path>
							<path
								d="M35.1642823,22.1896394 L33.1762823,21.0426394 C33.0542823,20.9716394 33.0702823,20.8486394 33.2102823,20.7676394 L35.1302823,19.6596394 C35.2712823,19.5786394 35.4842823,19.5686394 35.6062823,19.6396394 L37.5942823,20.7876394 C37.7162823,20.8576394 37.7012823,20.9806394 37.5602823,21.0616394 L35.6402823,22.1706394 C35.4992823,22.2516394 35.2872823,22.2596394 35.1642823,22.1896394"
								id="Fill-249" fill="#D4EAF2"></path>
							<path
								d="M19.4222823,20.8406394 L19.4622823,20.8636394 L19.6692823,20.7216394 L33.5412823,12.7126394 C34.5602823,12.1246394 36.1002823,12.0606394 36.9822823,12.5696394 L51.3082823,20.8406394 C52.1212823,20.2586394 52.1632823,19.4666394 51.3482823,18.9976394 L36.9822823,10.7026394 C36.1002823,10.1936394 34.5602823,10.2576394 33.5412823,10.8446394 L19.6692823,18.8536394 C18.6512823,19.4416394 18.5402823,20.3316394 19.4222823,20.8406394"
								id="Fill-250" fill="#C33500"></path>
						</g>
						<g id="Group-7" transform="translate(0.000000, 20.000000)">
							<g id="Group-6" transform="translate(0.000000, 14.000000)">
								<path
									d="M32.5262823,39.8626394 L6.79828233,25.0086394 C5.21928233,24.0966394 5.41628233,22.5046394 7.24128233,21.4516394 L32.0822823,7.10863942 C33.9072823,6.05563942 36.6642823,5.94163942 38.2442823,6.85363942 L63.9722823,21.7076394 C65.5502823,22.6196394 65.3532823,24.2126394 63.5302823,25.2646394 L38.6872823,39.6076394 C36.8642823,40.6606394 34.1052823,40.7746394 32.5262823,39.8626394"
									id="Fill-235" fill-opacity="0.6" fill="#FF5C20"></path>
								<path
									d="M70.7602823,17.0226394 L70.7602823,6.42863942 L47.0062823,6.41663942 L38.7962823,1.67563942 C36.9122823,0.588639422 33.6212823,0.724639422 31.4452823,1.98063942 L23.7852823,6.40363942 L0.00928233405,6.38963942 L0.00928233405,17.2846394 C-0.044717666,18.0206394 0.367282334,18.7316394 1.27228233,19.2546394 L31.9732823,36.9796394 C33.8582823,38.0676394 37.1492823,37.9306394 39.3252823,36.6746394 L68.9702823,19.5596394 C70.2252823,18.8356394 70.8302823,17.8966394 70.7602823,17.0226394"
									id="Fill-239" fill="#FF5C20"></path>
								<path
									d="M35.3852823,0.946639422 C34.0062823,0.980639422 32.5752823,1.32763942 31.4452823,1.98063942 L23.7852823,6.40363942 L0.00928233405,6.38963942 L0.00928233405,17.2846394 C-0.044717666,18.0206394 0.367282334,18.7316394 1.27228233,19.2546394 L31.9732823,36.9796394 C32.8792823,37.5026394 34.1102823,37.7396394 35.3852823,37.7086394 L35.3852823,0.946639422"
									id="Fill-240" fill="#FF5C20"></path>
								<path
									d="M59.4672823,19.8186394 C59.4672823,20.6086394 58.9132823,21.5706394 58.2272823,21.9656394 C57.5422823,22.3616394 56.9882823,22.0416394 56.9882823,21.2506394 C56.9882823,20.4596394 57.5422823,19.4976394 58.2272823,19.1026394 C58.9132823,18.7076394 59.4672823,19.0276394 59.4672823,19.8186394"
									id="Fill-245" fill="#D4EAF2"></path>
								<path
									d="M63.4572823,17.5146394 C63.4572823,18.3056394 62.9022823,19.2666394 62.2172823,19.6626394 C61.5332823,20.0576394 60.9772823,19.7376394 60.9772823,18.9466394 C60.9772823,18.1556394 61.5332823,17.1946394 62.2172823,16.7996394 C62.9022823,16.4036394 63.4572823,16.7236394 63.4572823,17.5146394"
									id="Fill-246" fill="#D4EAF2"></path>
								<path
									d="M67.4472823,15.2116394 C67.4472823,16.0026394 66.8922823,16.9646394 66.2062823,17.3586394 C65.5222823,17.7546394 64.9672823,17.4336394 64.9672823,16.6426394 C64.9672823,15.8526394 65.5222823,14.8906394 66.2062823,14.4956394 C66.8922823,14.0996394 67.4472823,14.4206394 67.4472823,15.2116394"
									id="Fill-247" fill="#D4EAF2"></path>
							</g>
							<path
								d="M2.70128233,20.3916394 L0.00928233405,20.3896394 L0.00928233405,31.2846394 C-0.044717666,32.0206394 0.367282334,32.7316394 1.27228233,33.2546394 L2.70128233,34.0786394 L2.70128233,20.3916394"
								id="Fill-241" fill="#FBBAA2"></path>
							<path
								d="M31.9732823,40.1246394 L1.27228233,22.3986394 C-0.611717666,21.3106394 -0.375717666,19.4106394 1.79928233,18.1546394 L31.4452823,1.03963942 C33.6212823,-0.217360578 36.9122823,-0.353360578 38.7962823,0.734639422 L69.4972823,18.4606394 C71.3822823,19.5486394 71.1462823,21.4486394 68.9702823,22.7046394 L39.3252823,39.8196394 C37.1492823,41.0756394 33.8582823,41.2126394 31.9732823,40.1246394"
								id="Fill-243" fill="#FBBAA2"></path>
							<path
								d="M68.9702823,20.6196394 L39.3252823,37.7346394 C37.1492823,38.9916394 33.8582823,39.1286394 31.9732823,38.0396394 L1.27228233,20.3136394 C0.852282334,20.0716394 0.543282334,19.7876394 0.331282334,19.4796394 C-0.315717666,20.5216394 -0.021717666,21.6516394 1.27228233,22.3986394 L31.9732823,40.1246394 C33.8582823,41.2126394 37.1492823,41.0756394 39.3252823,39.8196394 L68.9702823,22.7046394 C70.6612823,21.7276394 71.1742823,20.3646394 70.4382823,19.2946394 C70.1422823,19.7686394 69.6522823,20.2256394 68.9702823,20.6196394"
								id="Fill-244" fill="#FFFFFE"></path>
							<path
								d="M33.7882823,29.1346394 L19.4222823,20.8406394 C18.5402823,20.3316394 18.6512823,19.4416394 19.6692823,18.8536394 L33.5412823,10.8446394 C34.5602823,10.2576394 36.1002823,10.1936394 36.9822823,10.7026394 L51.3482823,18.9976394 C52.2302823,19.5066394 52.1202823,20.3946394 51.1012823,20.9826394 L37.2292823,28.9926394 C36.2102823,29.5806394 34.6702823,29.6436394 33.7882823,29.1346394"
								id="Fill-248" fill="#FF5C20"></path>
							<path
								d="M35.1642823,22.1896394 L33.1762823,21.0426394 C33.0542823,20.9716394 33.0702823,20.8486394 33.2102823,20.7676394 L35.1302823,19.6596394 C35.2712823,19.5786394 35.4842823,19.5686394 35.6062823,19.6396394 L37.5942823,20.7876394 C37.7162823,20.8576394 37.7012823,20.9806394 37.5602823,21.0616394 L35.6402823,22.1706394 C35.4992823,22.2516394 35.2872823,22.2596394 35.1642823,22.1896394"
								id="Fill-249" fill="#D4EAF2"></path>
							<path
								d="M19.4222823,20.8406394 L19.4622823,20.8636394 L19.6692823,20.7216394 L33.5412823,12.7126394 C34.5602823,12.1246394 36.1002823,12.0606394 36.9822823,12.5696394 L51.3082823,20.8406394 C52.1212823,20.2586394 52.1632823,19.4666394 51.3482823,18.9976394 L36.9822823,10.7026394 C36.1002823,10.1936394 34.5602823,10.2576394 33.5412823,10.8446394 L19.6692823,18.8536394 C18.6512823,19.4416394 18.5402823,20.3316394 19.4222823,20.8406394"
								id="Fill-250" fill="#C33500"></path>
						</g>
						<g id="Group-7">
							<g id="Group-6" transform="translate(0.000000, 14.000000)">
								<path
									d="M32.5262823,39.8626394 L6.79828233,25.0086394 C5.21928233,24.0966394 5.41628233,22.5046394 7.24128233,21.4516394 L32.0822823,7.10863942 C33.9072823,6.05563942 36.6642823,5.94163942 38.2442823,6.85363942 L63.9722823,21.7076394 C65.5502823,22.6196394 65.3532823,24.2126394 63.5302823,25.2646394 L38.6872823,39.6076394 C36.8642823,40.6606394 34.1052823,40.7746394 32.5262823,39.8626394"
									id="Fill-235" fill-opacity="0.6" fill="#FF5C20"></path>
								<path
									d="M70.7602823,17.0226394 L70.7602823,6.42863942 L47.0062823,6.41663942 L38.7962823,1.67563942 C36.9122823,0.588639422 33.6212823,0.724639422 31.4452823,1.98063942 L23.7852823,6.40363942 L0.00928233405,6.38963942 L0.00928233405,17.2846394 C-0.044717666,18.0206394 0.367282334,18.7316394 1.27228233,19.2546394 L31.9732823,36.9796394 C33.8582823,38.0676394 37.1492823,37.9306394 39.3252823,36.6746394 L68.9702823,19.5596394 C70.2252823,18.8356394 70.8302823,17.8966394 70.7602823,17.0226394"
									id="Fill-239" fill="#FF5C20"></path>
								<path
									d="M35.3852823,0.946639422 C34.0062823,0.980639422 32.5752823,1.32763942 31.4452823,1.98063942 L23.7852823,6.40363942 L0.00928233405,6.38963942 L0.00928233405,17.2846394 C-0.044717666,18.0206394 0.367282334,18.7316394 1.27228233,19.2546394 L31.9732823,36.9796394 C32.8792823,37.5026394 34.1102823,37.7396394 35.3852823,37.7086394 L35.3852823,0.946639422"
									id="Fill-240" fill="#FF5C20"></path>
								<path
									d="M59.4672823,19.8186394 C59.4672823,20.6086394 58.9132823,21.5706394 58.2272823,21.9656394 C57.5422823,22.3616394 56.9882823,22.0416394 56.9882823,21.2506394 C56.9882823,20.4596394 57.5422823,19.4976394 58.2272823,19.1026394 C58.9132823,18.7076394 59.4672823,19.0276394 59.4672823,19.8186394"
									id="Fill-245" fill="#D4EAF2"></path>
								<path
									d="M63.4572823,17.5146394 C63.4572823,18.3056394 62.9022823,19.2666394 62.2172823,19.6626394 C61.5332823,20.0576394 60.9772823,19.7376394 60.9772823,18.9466394 C60.9772823,18.1556394 61.5332823,17.1946394 62.2172823,16.7996394 C62.9022823,16.4036394 63.4572823,16.7236394 63.4572823,17.5146394"
									id="Fill-246" fill="#D4EAF2"></path>
								<path
									d="M67.4472823,15.2116394 C67.4472823,16.0026394 66.8922823,16.9646394 66.2062823,17.3586394 C65.5222823,17.7546394 64.9672823,17.4336394 64.9672823,16.6426394 C64.9672823,15.8526394 65.5222823,14.8906394 66.2062823,14.4956394 C66.8922823,14.0996394 67.4472823,14.4206394 67.4472823,15.2116394"
									id="Fill-247" fill="#D4EAF2"></path>
							</g>
							<path
								d="M2.70128233,20.3916394 L0.00928233405,20.3896394 L0.00928233405,31.2846394 C-0.044717666,32.0206394 0.367282334,32.7316394 1.27228233,33.2546394 L2.70128233,34.0786394 L2.70128233,20.3916394"
								id="Fill-241" fill="#FBBAA2"></path>
							<path
								d="M31.9732823,40.1246394 L1.27228233,22.3986394 C-0.611717666,21.3106394 -0.375717666,19.4106394 1.79928233,18.1546394 L31.4452823,1.03963942 C33.6212823,-0.217360578 36.9122823,-0.353360578 38.7962823,0.734639422 L69.4972823,18.4606394 C71.3822823,19.5486394 71.1462823,21.4486394 68.9702823,22.7046394 L39.3252823,39.8196394 C37.1492823,41.0756394 33.8582823,41.2126394 31.9732823,40.1246394"
								id="Fill-243" fill="#FBBAA2"></path>
							<path
								d="M68.9702823,20.6196394 L39.3252823,37.7346394 C37.1492823,38.9916394 33.8582823,39.1286394 31.9732823,38.0396394 L1.27228233,20.3136394 C0.852282334,20.0716394 0.543282334,19.7876394 0.331282334,19.4796394 C-0.315717666,20.5216394 -0.021717666,21.6516394 1.27228233,22.3986394 L31.9732823,40.1246394 C33.8582823,41.2126394 37.1492823,41.0756394 39.3252823,39.8196394 L68.9702823,22.7046394 C70.6612823,21.7276394 71.1742823,20.3646394 70.4382823,19.2946394 C70.1422823,19.7686394 69.6522823,20.2256394 68.9702823,20.6196394"
								id="Fill-244" fill="#FFFFFE"></path>
							<path
								d="M33.7882823,29.1346394 L19.4222823,20.8406394 C18.5402823,20.3316394 18.6512823,19.4416394 19.6692823,18.8536394 L33.5412823,10.8446394 C34.5602823,10.2576394 36.1002823,10.1936394 36.9822823,10.7026394 L51.3482823,18.9976394 C52.2302823,19.5066394 52.1202823,20.3946394 51.1012823,20.9826394 L37.2292823,28.9926394 C36.2102823,29.5806394 34.6702823,29.6436394 33.7882823,29.1346394"
								id="Fill-248" fill="#FF5C20"></path>
							<path
								d="M35.1642823,22.1896394 L33.1762823,21.0426394 C33.0542823,20.9716394 33.0702823,20.8486394 33.2102823,20.7676394 L35.1302823,19.6596394 C35.2712823,19.5786394 35.4842823,19.5686394 35.6062823,19.6396394 L37.5942823,20.7876394 C37.7162823,20.8576394 37.7012823,20.9806394 37.5602823,21.0616394 L35.6402823,22.1706394 C35.4992823,22.2516394 35.2872823,22.2596394 35.1642823,22.1896394"
								id="Fill-249" fill="#D4EAF2"></path>
							<path
								d="M19.4222823,20.8406394 L19.4622823,20.8636394 L19.6692823,20.7216394 L33.5412823,12.7126394 C34.5602823,12.1246394 36.1002823,12.0606394 36.9822823,12.5696394 L51.3082823,20.8406394 C52.1212823,20.2586394 52.1632823,19.4666394 51.3482823,18.9976394 L36.9822823,10.7026394 C36.1002823,10.1936394 34.5602823,10.2576394 33.5412823,10.8446394 L19.6692823,18.8536394 C18.6512823,19.4416394 18.5402823,20.3316394 19.4222823,20.8406394"
								id="Fill-250" fill="#C33500"></path>
						</g>
					</g>
				</g>
			</g>
		</g>
	</g>
</svg>
