<?xml version="1.0" encoding="UTF-8"?>
<svg width="71px" height="79px" viewBox="0 0 71 79" version="1.1" xmlns="http://www.w3.org/2000/svg">
	<!-- Generator: Sketch 63.1 (92452) - https://sketch.com -->
	<title>Group 5</title>
	<desc>Created with Sketch.</desc>
	<g id="Light-Mode" stroke="none" stroke-width="1" fill="none" fill-rule="evenodd">
		<g id="storage-01" transform="translate(-848.000000, -366.000000)">
			<g id="Group" transform="translate(271.000000, 141.000000)">
				<g id="Group-5" transform="translate(577.000000, 225.000000)">
					<g id="Group-7" transform="translate(0.000000, 19.000000)">
						<g id="Group-6" transform="translate(0.000000, 14.000000)">
							<path
								d="M35.083902,45.63 C34.127902,45.63 33.215902,45.436 32.533902,45.043 L8.01590202,30.887 C6.51090202,30.019 6.69990202,28.502 8.43790202,27.499 L32.111902,13.831 C33.061902,13.282 34.278902,13 35.431902,13 C36.387902,13 37.299902,13.193 37.981902,13.587 L62.498902,27.742 C64.003902,28.611 63.815902,30.129 62.077902,31.131 L38.404902,44.799 C37.453902,45.348 36.236902,45.63 35.083902,45.63"
								id="Fill-220" fill-opacity="0.2" fill="#FF5C20"></path>
							<path
								d="M32.5262823,39.8626394 L6.79828233,25.0086394 C5.21928233,24.0966394 5.41628233,22.5046394 7.24128233,21.4516394 L32.0822823,7.10863942 C33.9072823,6.05563942 36.6642823,5.94163942 38.2442823,6.85363942 L63.9722823,21.7076394 C65.5502823,22.6196394 65.3532823,24.2126394 63.5302823,25.2646394 L38.6872823,39.6076394 C36.8642823,40.6606394 34.1052823,40.7746394 32.5262823,39.8626394"
								id="Fill-235" fill-opacity="0.6" fill="#FF5C20"></path>
							<path
								d="M70.7602823,17.0226394 L70.7602823,6.42863942 L47.0062823,6.41663942 L38.7962823,1.67563942 C36.9122823,0.588639422 33.6212823,0.724639422 31.4452823,1.98063942 L23.7852823,6.40363942 L0.00928233405,6.38963942 L0.00928233405,17.2846394 C-0.044717666,18.0206394 0.367282334,18.7316394 1.27228233,19.2546394 L31.9732823,36.9796394 C33.8582823,38.0676394 37.1492823,37.9306394 39.3252823,36.6746394 L68.9702823,19.5596394 C70.2252823,18.8356394 70.8302823,17.8966394 70.7602823,17.0226394"
								id="Fill-239" fill="#FF5C20"></path>
							<path
								d="M35.3852823,0.946639422 C34.0062823,0.980639422 32.5752823,1.32763942 31.4452823,1.98063942 L23.7852823,6.40363942 L0.00928233405,6.38963942 L0.00928233405,17.2846394 C-0.044717666,18.0206394 0.367282334,18.7316394 1.27228233,19.2546394 L31.9732823,36.9796394 C32.8792823,37.5026394 34.1102823,37.7396394 35.3852823,37.7086394 L35.3852823,0.946639422"
								id="Fill-240" fill="#FF5C20"></path>
							<path
								d="M59.4672823,19.8186394 C59.4672823,20.6086394 58.9132823,21.5706394 58.2272823,21.9656394 C57.5422823,22.3616394 56.9882823,22.0416394 56.9882823,21.2506394 C56.9882823,20.4596394 57.5422823,19.4976394 58.2272823,19.1026394 C58.9132823,18.7076394 59.4672823,19.0276394 59.4672823,19.8186394"
								id="Fill-245" fill="#D4EAF2"></path>
							<path
								d="M63.4572823,17.5146394 C63.4572823,18.3056394 62.9022823,19.2666394 62.2172823,19.6626394 C61.5332823,20.0576394 60.9772823,19.7376394 60.9772823,18.9466394 C60.9772823,18.1556394 61.5332823,17.1946394 62.2172823,16.7996394 C62.9022823,16.4036394 63.4572823,16.7236394 63.4572823,17.5146394"
								id="Fill-246" fill="#D4EAF2"></path>
							<path
								d="M67.4472823,15.2116394 C67.4472823,16.0026394 66.8922823,16.9646394 66.2062823,17.3586394 C65.5222823,17.7546394 64.9672823,17.4336394 64.9672823,16.6426394 C64.9672823,15.8526394 65.5222823,14.8906394 66.2062823,14.4956394 C66.8922823,14.0996394 67.4472823,14.4206394 67.4472823,15.2116394"
								id="Fill-247" fill="#D4EAF2"></path>
						</g>
						<path
							d="M2.70128233,20.3916394 L0.00928233405,20.3896394 L0.00928233405,31.2846394 C-0.044717666,32.0206394 0.367282334,32.7316394 1.27228233,33.2546394 L2.70128233,34.0786394 L2.70128233,20.3916394"
							id="Fill-241" fill="#FBBAA2"></path>
						<path
							d="M31.9732823,40.1246394 L1.27228233,22.3986394 C-0.611717666,21.3106394 -0.375717666,19.4106394 1.79928233,18.1546394 L31.4452823,1.03963942 C33.6212823,-0.217360578 36.9122823,-0.353360578 38.7962823,0.734639422 L69.4972823,18.4606394 C71.3822823,19.5486394 71.1462823,21.4486394 68.9702823,22.7046394 L39.3252823,39.8196394 C37.1492823,41.0756394 33.8582823,41.2126394 31.9732823,40.1246394"
							id="Fill-243" fill="#FBBAA2"></path>
						<path
							d="M68.9702823,20.6196394 L39.3252823,37.7346394 C37.1492823,38.9916394 33.8582823,39.1286394 31.9732823,38.0396394 L1.27228233,20.3136394 C0.852282334,20.0716394 0.543282334,19.7876394 0.331282334,19.4796394 C-0.315717666,20.5216394 -0.021717666,21.6516394 1.27228233,22.3986394 L31.9732823,40.1246394 C33.8582823,41.2126394 37.1492823,41.0756394 39.3252823,39.8196394 L68.9702823,22.7046394 C70.6612823,21.7276394 71.1742823,20.3646394 70.4382823,19.2946394 C70.1422823,19.7686394 69.6522823,20.2256394 68.9702823,20.6196394"
							id="Fill-244" fill="#FFFFFE"></path>
						<path
							d="M33.7882823,29.1346394 L19.4222823,20.8406394 C18.5402823,20.3316394 18.6512823,19.4416394 19.6692823,18.8536394 L33.5412823,10.8446394 C34.5602823,10.2576394 36.1002823,10.1936394 36.9822823,10.7026394 L51.3482823,18.9976394 C52.2302823,19.5066394 52.1202823,20.3946394 51.1012823,20.9826394 L37.2292823,28.9926394 C36.2102823,29.5806394 34.6702823,29.6436394 33.7882823,29.1346394"
							id="Fill-248" fill="#FF5C20"></path>
						<path
							d="M35.1642823,22.1896394 L33.1762823,21.0426394 C33.0542823,20.9716394 33.0702823,20.8486394 33.2102823,20.7676394 L35.1302823,19.6596394 C35.2712823,19.5786394 35.4842823,19.5686394 35.6062823,19.6396394 L37.5942823,20.7876394 C37.7162823,20.8576394 37.7012823,20.9806394 37.5602823,21.0616394 L35.6402823,22.1706394 C35.4992823,22.2516394 35.2872823,22.2596394 35.1642823,22.1896394"
							id="Fill-249" fill="#D4EAF2"></path>
						<path
							d="M19.4222823,20.8406394 L19.4622823,20.8636394 L19.6692823,20.7216394 L33.5412823,12.7126394 C34.5602823,12.1246394 36.1002823,12.0606394 36.9822823,12.5696394 L51.3082823,20.8406394 C52.1212823,20.2586394 52.1632823,19.4666394 51.3482823,18.9976394 L36.9822823,10.7026394 C36.1002823,10.1936394 34.5602823,10.2576394 33.5412823,10.8446394 L19.6692823,18.8536394 C18.6512823,19.4416394 18.5402823,20.3316394 19.4222823,20.8406394"
							id="Fill-250" fill="#C33500"></path>
					</g>
					<g id="Group-7">
						<g id="Group-6" transform="translate(0.000000, 14.000000)">
							<path
								d="M32.5262823,39.8626394 L6.79828233,25.0086394 C5.21928233,24.0966394 5.41628233,22.5046394 7.24128233,21.4516394 L32.0822823,7.10863942 C33.9072823,6.05563942 36.6642823,5.94163942 38.2442823,6.85363942 L63.9722823,21.7076394 C65.5502823,22.6196394 65.3532823,24.2126394 63.5302823,25.2646394 L38.6872823,39.6076394 C36.8642823,40.6606394 34.1052823,40.7746394 32.5262823,39.8626394"
								id="Fill-235" fill-opacity="0.6" fill="#FF5C20"></path>
							<path
								d="M70.7602823,17.0226394 L70.7602823,6.42863942 L47.0062823,6.41663942 L38.7962823,1.67563942 C36.9122823,0.588639422 33.6212823,0.724639422 31.4452823,1.98063942 L23.7852823,6.40363942 L0.00928233405,6.38963942 L0.00928233405,17.2846394 C-0.044717666,18.0206394 0.367282334,18.7316394 1.27228233,19.2546394 L31.9732823,36.9796394 C33.8582823,38.0676394 37.1492823,37.9306394 39.3252823,36.6746394 L68.9702823,19.5596394 C70.2252823,18.8356394 70.8302823,17.8966394 70.7602823,17.0226394"
								id="Fill-239" fill="#FF5C20"></path>
							<path
								d="M35.3852823,0.946639422 C34.0062823,0.980639422 32.5752823,1.32763942 31.4452823,1.98063942 L23.7852823,6.40363942 L0.00928233405,6.38963942 L0.00928233405,17.2846394 C-0.044717666,18.0206394 0.367282334,18.7316394 1.27228233,19.2546394 L31.9732823,36.9796394 C32.8792823,37.5026394 34.1102823,37.7396394 35.3852823,37.7086394 L35.3852823,0.946639422"
								id="Fill-240" fill="#FF5C20"></path>
							<path
								d="M59.4672823,19.8186394 C59.4672823,20.6086394 58.9132823,21.5706394 58.2272823,21.9656394 C57.5422823,22.3616394 56.9882823,22.0416394 56.9882823,21.2506394 C56.9882823,20.4596394 57.5422823,19.4976394 58.2272823,19.1026394 C58.9132823,18.7076394 59.4672823,19.0276394 59.4672823,19.8186394"
								id="Fill-245" fill="#D4EAF2"></path>
							<path
								d="M63.4572823,17.5146394 C63.4572823,18.3056394 62.9022823,19.2666394 62.2172823,19.6626394 C61.5332823,20.0576394 60.9772823,19.7376394 60.9772823,18.9466394 C60.9772823,18.1556394 61.5332823,17.1946394 62.2172823,16.7996394 C62.9022823,16.4036394 63.4572823,16.7236394 63.4572823,17.5146394"
								id="Fill-246" fill="#D4EAF2"></path>
							<path
								d="M67.4472823,15.2116394 C67.4472823,16.0026394 66.8922823,16.9646394 66.2062823,17.3586394 C65.5222823,17.7546394 64.9672823,17.4336394 64.9672823,16.6426394 C64.9672823,15.8526394 65.5222823,14.8906394 66.2062823,14.4956394 C66.8922823,14.0996394 67.4472823,14.4206394 67.4472823,15.2116394"
								id="Fill-247" fill="#D4EAF2"></path>
						</g>
						<path
							d="M2.70128233,20.3916394 L0.00928233405,20.3896394 L0.00928233405,31.2846394 C-0.044717666,32.0206394 0.367282334,32.7316394 1.27228233,33.2546394 L2.70128233,34.0786394 L2.70128233,20.3916394"
							id="Fill-241" fill="#FBBAA2"></path>
						<path
							d="M31.9732823,40.1246394 L1.27228233,22.3986394 C-0.611717666,21.3106394 -0.375717666,19.4106394 1.79928233,18.1546394 L31.4452823,1.03963942 C33.6212823,-0.217360578 36.9122823,-0.353360578 38.7962823,0.734639422 L69.4972823,18.4606394 C71.3822823,19.5486394 71.1462823,21.4486394 68.9702823,22.7046394 L39.3252823,39.8196394 C37.1492823,41.0756394 33.8582823,41.2126394 31.9732823,40.1246394"
							id="Fill-243" fill="#FBBAA2"></path>
						<path
							d="M68.9702823,20.6196394 L39.3252823,37.7346394 C37.1492823,38.9916394 33.8582823,39.1286394 31.9732823,38.0396394 L1.27228233,20.3136394 C0.852282334,20.0716394 0.543282334,19.7876394 0.331282334,19.4796394 C-0.315717666,20.5216394 -0.021717666,21.6516394 1.27228233,22.3986394 L31.9732823,40.1246394 C33.8582823,41.2126394 37.1492823,41.0756394 39.3252823,39.8196394 L68.9702823,22.7046394 C70.6612823,21.7276394 71.1742823,20.3646394 70.4382823,19.2946394 C70.1422823,19.7686394 69.6522823,20.2256394 68.9702823,20.6196394"
							id="Fill-244" fill="#FFFFFE"></path>
						<path
							d="M33.7882823,29.1346394 L19.4222823,20.8406394 C18.5402823,20.3316394 18.6512823,19.4416394 19.6692823,18.8536394 L33.5412823,10.8446394 C34.5602823,10.2576394 36.1002823,10.1936394 36.9822823,10.7026394 L51.3482823,18.9976394 C52.2302823,19.5066394 52.1202823,20.3946394 51.1012823,20.9826394 L37.2292823,28.9926394 C36.2102823,29.5806394 34.6702823,29.6436394 33.7882823,29.1346394"
							id="Fill-248" fill="#FF5C20"></path>
						<path
							d="M35.1642823,22.1896394 L33.1762823,21.0426394 C33.0542823,20.9716394 33.0702823,20.8486394 33.2102823,20.7676394 L35.1302823,19.6596394 C35.2712823,19.5786394 35.4842823,19.5686394 35.6062823,19.6396394 L37.5942823,20.7876394 C37.7162823,20.8576394 37.7012823,20.9806394 37.5602823,21.0616394 L35.6402823,22.1706394 C35.4992823,22.2516394 35.2872823,22.2596394 35.1642823,22.1896394"
							id="Fill-249" fill="#D4EAF2"></path>
						<path
							d="M19.4222823,20.8406394 L19.4622823,20.8636394 L19.6692823,20.7216394 L33.5412823,12.7126394 C34.5602823,12.1246394 36.1002823,12.0606394 36.9822823,12.5696394 L51.3082823,20.8406394 C52.1212823,20.2586394 52.1632823,19.4666394 51.3482823,18.9976394 L36.9822823,10.7026394 C36.1002823,10.1936394 34.5602823,10.2576394 33.5412823,10.8446394 L19.6692823,18.8536394 C18.6512823,19.4416394 18.5402823,20.3316394 19.4222823,20.8406394"
							id="Fill-250" fill="#C33500"></path>
					</g>
				</g>
			</g>
		</g>
	</g>
</svg>
