<?xml version="1.0" encoding="UTF-8"?>
<svg width="71px" height="60px" viewBox="0 0 71 60" version="1.1" xmlns="http://www.w3.org/2000/svg">
	<!-- Generator: Sketch 63.1 (92452) - https://sketch.com -->
	<title>Group 7</title>
	<desc>Created with Sketch.</desc>
	<g id="Light-Mode" stroke="none" stroke-width="1" fill="none" fill-rule="evenodd">
		<g id="storage-01" transform="translate(-503.000000, -375.000000)">
			<g id="Group" transform="translate(271.000000, 141.000000)">
				<g id="Group-7" transform="translate(232.000000, 234.000000)">
					<g id="Group-6" transform="translate(0.000000, 14.750000)">
						<path
							d="M35.083902,44.88 C34.127902,44.88 33.215902,44.686 32.533902,44.293 L8.01590202,30.137 C6.51090202,29.269 6.69990202,27.752 8.43790202,26.749 L32.111902,13.081 C33.061902,12.532 34.278902,12.25 35.431902,12.25 C36.387902,12.25 37.299902,12.443 37.981902,12.837 L62.498902,26.992 C64.003902,27.861 63.815902,29.379 62.077902,30.381 L38.404902,44.049 C37.453902,44.598 36.236902,44.88 35.083902,44.88"
							id="Fill-220" fill-opacity="0.2" fill="#FF5C20"></path>
						<path
							d="M32.5262823,39.1126394 L6.79828233,24.2586394 C5.21928233,23.3466394 5.41628233,21.7546394 7.24128233,20.7016394 L32.0822823,6.35863942 C33.9072823,5.30563942 36.6642823,5.19163942 38.2442823,6.10363942 L63.9722823,20.9576394 C65.5502823,21.8696394 65.3532823,23.4626394 63.5302823,24.5146394 L38.6872823,38.8576394 C36.8642823,39.9106394 34.1052823,40.0246394 32.5262823,39.1126394"
							id="Fill-235" fill-opacity="0.6" fill="#FF5C20"></path>
						<path
							d="M70.7602823,16.2726394 L70.7602823,5.67863942 L47.0062823,5.66663942 L38.7962823,0.925639422 C36.9122823,-0.161360578 33.6212823,-0.0253605777 31.4452823,1.23063942 L23.7852823,5.65363942 L0.00928233405,5.63963942 L0.00928233405,16.5346394 C-0.044717666,17.2706394 0.367282334,17.9816394 1.27228233,18.5046394 L31.9732823,36.2296394 C33.8582823,37.3176394 37.1492823,37.1806394 39.3252823,35.9246394 L68.9702823,18.8096394 C70.2252823,18.0856394 70.8302823,17.1466394 70.7602823,16.2726394"
							id="Fill-239" fill="#FF5C20"></path>
						<path
							d="M35.3852823,0.196639422 C34.0062823,0.230639422 32.5752823,0.577639422 31.4452823,1.23063942 L23.7852823,5.65363942 L0.00928233405,5.63963942 L0.00928233405,16.5346394 C-0.044717666,17.2706394 0.367282334,17.9816394 1.27228233,18.5046394 L31.9732823,36.2296394 C32.8792823,36.7526394 34.1102823,36.9896394 35.3852823,36.9586394 L35.3852823,0.196639422"
							id="Fill-240" fill="#FF5C20"></path>
						<path
							d="M59.4672823,19.0686394 C59.4672823,19.8586394 58.9132823,20.8206394 58.2272823,21.2156394 C57.5422823,21.6116394 56.9882823,21.2916394 56.9882823,20.5006394 C56.9882823,19.7096394 57.5422823,18.7476394 58.2272823,18.3526394 C58.9132823,17.9576394 59.4672823,18.2776394 59.4672823,19.0686394"
							id="Fill-245" fill="#D4EAF2"></path>
						<path
							d="M63.4572823,16.7646394 C63.4572823,17.5556394 62.9022823,18.5166394 62.2172823,18.9126394 C61.5332823,19.3076394 60.9772823,18.9876394 60.9772823,18.1966394 C60.9772823,17.4056394 61.5332823,16.4446394 62.2172823,16.0496394 C62.9022823,15.6536394 63.4572823,15.9736394 63.4572823,16.7646394"
							id="Fill-246" fill="#D4EAF2"></path>
						<path
							d="M67.4472823,14.4616394 C67.4472823,15.2526394 66.8922823,16.2146394 66.2062823,16.6086394 C65.5222823,17.0046394 64.9672823,16.6836394 64.9672823,15.8926394 C64.9672823,15.1026394 65.5222823,14.1406394 66.2062823,13.7456394 C66.8922823,13.3496394 67.4472823,13.6706394 67.4472823,14.4616394"
							id="Fill-247" fill="#D4EAF2"></path>
					</g>
					<path
						d="M2.70128233,20.3916394 L0.00928233405,20.3896394 L0.00928233405,31.2846394 C-0.044717666,32.0206394 0.367282334,32.7316394 1.27228233,33.2546394 L2.70128233,34.0786394 L2.70128233,20.3916394"
						id="Fill-241" fill="#FBBAA2"></path>
					<path
						d="M31.9732823,40.1246394 L1.27228233,22.3986394 C-0.611717666,21.3106394 -0.375717666,19.4106394 1.79928233,18.1546394 L31.4452823,1.03963942 C33.6212823,-0.217360578 36.9122823,-0.353360578 38.7962823,0.734639422 L69.4972823,18.4606394 C71.3822823,19.5486394 71.1462823,21.4486394 68.9702823,22.7046394 L39.3252823,39.8196394 C37.1492823,41.0756394 33.8582823,41.2126394 31.9732823,40.1246394"
						id="Fill-243" fill="#FBBAA2"></path>
					<path
						d="M68.9702823,20.6196394 L39.3252823,37.7346394 C37.1492823,38.9916394 33.8582823,39.1286394 31.9732823,38.0396394 L1.27228233,20.3136394 C0.852282334,20.0716394 0.543282334,19.7876394 0.331282334,19.4796394 C-0.315717666,20.5216394 -0.021717666,21.6516394 1.27228233,22.3986394 L31.9732823,40.1246394 C33.8582823,41.2126394 37.1492823,41.0756394 39.3252823,39.8196394 L68.9702823,22.7046394 C70.6612823,21.7276394 71.1742823,20.3646394 70.4382823,19.2946394 C70.1422823,19.7686394 69.6522823,20.2256394 68.9702823,20.6196394"
						id="Fill-244" fill="#FFFFFE"></path>
					<path
						d="M33.7882823,29.1346394 L19.4222823,20.8406394 C18.5402823,20.3316394 18.6512823,19.4416394 19.6692823,18.8536394 L33.5412823,10.8446394 C34.5602823,10.2576394 36.1002823,10.1936394 36.9822823,10.7026394 L51.3482823,18.9976394 C52.2302823,19.5066394 52.1202823,20.3946394 51.1012823,20.9826394 L37.2292823,28.9926394 C36.2102823,29.5806394 34.6702823,29.6436394 33.7882823,29.1346394"
						id="Fill-248" fill="#FF5C20"></path>
					<path
						d="M35.1642823,22.1896394 L33.1762823,21.0426394 C33.0542823,20.9716394 33.0702823,20.8486394 33.2102823,20.7676394 L35.1302823,19.6596394 C35.2712823,19.5786394 35.4842823,19.5686394 35.6062823,19.6396394 L37.5942823,20.7876394 C37.7162823,20.8576394 37.7012823,20.9806394 37.5602823,21.0616394 L35.6402823,22.1706394 C35.4992823,22.2516394 35.2872823,22.2596394 35.1642823,22.1896394"
						id="Fill-249" fill="#D4EAF2"></path>
					<path
						d="M19.4222823,20.8406394 L19.4622823,20.8636394 L19.6692823,20.7216394 L33.5412823,12.7126394 C34.5602823,12.1246394 36.1002823,12.0606394 36.9822823,12.5696394 L51.3082823,20.8406394 C52.1212823,20.2586394 52.1632823,19.4666394 51.3482823,18.9976394 L36.9822823,10.7026394 C36.1002823,10.1936394 34.5602823,10.2576394 33.5412823,10.8446394 L19.6692823,18.8536394 C18.6512823,19.4416394 18.5402823,20.3316394 19.4222823,20.8406394"
						id="Fill-250" fill="#C33500"></path>
				</g>
			</g>
		</g>
	</g>
</svg>
